<svg width="36" height="36" viewBox="0 0 36 36" fill="none" xmlns="http://www.w3.org/2000/svg">
<path d="M23.5193 35.0625H23.2381C23.2184 35.0516 23.1997 35.0365 23.1783 35.0309C22.7374 34.9105 22.504 34.6255 22.504 34.1679C22.504 33.1269 22.5233 32.0855 22.5181 31.0445C22.5135 30.1506 22.5272 29.2531 22.4558 28.3634C22.3831 27.454 22.0596 26.6233 21.3832 25.9663C21.3692 25.9526 21.3621 25.9312 21.346 25.902C21.4286 25.889 21.4975 25.8768 21.5667 25.8673C22.7061 25.7143 23.828 25.4928 24.9002 25.06C26.8025 24.2921 28.1525 22.9816 28.8781 21.0512C29.2582 20.0404 29.4522 18.9903 29.4902 17.917C29.5134 17.2589 29.5123 16.5927 29.436 15.9403C29.2722 14.543 28.6753 13.3269 27.7489 12.2691C27.7127 12.2277 27.6948 12.1382 27.7123 12.0862C28.233 10.5605 28.0959 9.06009 27.5559 7.57125C27.5109 7.44701 27.4413 7.40384 27.3126 7.39436C26.8862 7.36277 26.4717 7.42419 26.0625 7.53265C24.8239 7.86116 23.7264 8.47993 22.672 9.18504C22.5824 9.24506 22.5065 9.26471 22.3982 9.23523C21.3734 8.95621 20.3293 8.78072 19.27 8.70807C17.4039 8.57996 15.5618 8.73474 13.7526 9.22225C13.6036 9.26226 13.4918 9.2426 13.3631 9.15907C12.3802 8.51924 11.3631 7.94575 10.2314 7.60319C9.76385 7.46175 9.2896 7.37225 8.79706 7.39998C8.65855 7.4077 8.56574 7.43858 8.52847 7.58915C8.49191 7.73586 8.42687 7.87485 8.38222 8.0198C7.97266 9.34895 7.9027 10.683 8.34531 12.0181C8.39277 12.1617 8.37273 12.2438 8.27711 12.354C7.37887 13.3869 6.80583 14.5795 6.64728 15.9385C6.44021 17.7106 6.61177 19.4528 7.24317 21.1316C7.77719 22.5513 8.69019 23.6698 9.99131 24.4662C11.097 25.1429 12.3116 25.5079 13.5772 25.7272C13.9548 25.7925 14.3345 25.8462 14.7307 25.908C14.6305 26.0175 14.5405 26.1088 14.4593 26.2067C13.9935 26.7668 13.7509 27.4239 13.6377 28.1332C13.618 28.2567 13.5772 28.3332 13.4524 28.3722C13.2348 28.4399 13.0253 28.5343 12.8059 28.594C11.9196 28.8337 11.0379 28.8618 10.1738 28.4954C9.41651 28.1742 8.8737 27.6137 8.44339 26.9314C8.03875 26.2899 7.55219 25.7276 6.89267 25.3356C6.34775 25.0116 5.75783 24.9112 5.13452 25.0239C4.75484 25.0927 4.65605 25.3324 4.91585 25.6163C5.09831 25.8157 5.33385 25.9677 5.55006 26.1354C5.69244 26.246 5.86014 26.3288 5.98635 26.4545C6.66064 27.1241 7.13981 27.9261 7.49489 28.7983C7.86262 29.702 8.49367 30.325 9.39577 30.676C10.3879 31.0617 11.42 31.0744 12.4603 30.9705C12.808 30.9357 13.1536 30.8792 13.5016 30.8325C13.509 30.8554 13.5185 30.8711 13.5189 30.8873C13.5248 32.0101 13.5396 33.1332 13.5294 34.256C13.5262 34.6055 13.3266 34.8603 12.9862 34.98C12.7229 35.0727 12.4526 35.0636 12.1928 34.9748C11.8222 34.8484 11.4534 34.7143 11.0924 34.5634C7.79723 33.1834 5.13136 31.0238 3.11587 28.0791C1.33135 25.4731 0.319216 22.5871 0.0639838 19.4378C0.0449996 19.2058 0.0214451 18.9741 0 18.7421C0 18.1219 0 17.5021 0 16.8819C0.0379684 16.5173 0.0699603 16.1519 0.11496 15.7883C0.394449 13.5445 1.06417 11.4236 2.14627 9.43634C3.74446 6.50148 5.98986 4.18258 8.86702 2.48316C11.2306 1.08662 13.7892 0.284291 16.5289 0.0666854C16.8084 0.044574 17.0875 0.0221115 17.367 0C17.7889 0 18.2108 0 18.6326 0C18.7135 0.0101783 18.7936 0.0263232 18.8749 0.029833C20.7198 0.108452 22.5145 0.456269 24.2368 1.11645C29.01 2.94574 32.4457 6.19718 34.5182 10.8659C35.3436 12.7253 35.801 14.6817 35.935 16.7121C35.955 17.0146 35.9782 17.3168 36 17.619V18.707C35.9895 18.7698 35.9761 18.832 35.9691 18.8951C35.8868 19.6203 35.8432 20.3524 35.7177 21.0698C35.0912 24.6519 33.5074 27.7615 30.9931 30.3875C28.901 32.5727 26.4228 34.1608 23.5197 35.0625H23.5193Z" fill="black"/>
</svg>
