<svg width="24" height="24" fill="none" xmlns="http://www.w3.org/2000/svg"><path d="M7.64 1.207c-3.747.317-5.776 2.087-6.317 5.513-.148.935-.163 1.433-.163 5.28 0 3.847.015 4.345.163 5.28.496 3.141 2.256 4.901 5.397 5.397.934.148 1.433.163 5.276.163 3.944 0 4.398-.015 5.384-.181 2.708-.457 4.358-1.857 5.062-4.295.153-.529.298-1.379.354-2.08.059-.724.059-7.844 0-8.568-.168-2.07-.722-3.526-1.756-4.611-1.062-1.115-2.589-1.724-4.772-1.903-.625-.051-8.015-.047-8.628.005m8.34 1.675c1.267.093 2.281.35 3.02.765 1.286.722 1.95 2.092 2.118 4.373.055.738.055 7.222 0 7.96-.168 2.281-.832 3.651-2.118 4.373-.739.415-1.753.672-3.02.765-.738.055-7.222.055-7.96 0-1.267-.093-2.281-.35-3.02-.765-1.286-.722-1.95-2.092-2.118-4.373-.055-.738-.055-7.222 0-7.96.168-2.282.83-3.647 2.118-4.372.711-.401 1.771-.676 2.94-.764.657-.049 7.378-.051 8.04-.002m1.25 3.386a1.144 1.144 0 0 0-.3.272c-.096.14-.11.198-.11.46 0 .264.014.32.115.469.335.495 1.085.486 1.425-.016.085-.125.1-.193.1-.453s-.015-.328-.1-.453a.807.807 0 0 0-.68-.377c-.227-.012-.284.001-.45.098m-5.69 1.416c-2.023.196-3.665 1.854-3.854 3.891a4.322 4.322 0 0 0 4.739 4.739 4.316 4.316 0 0 0 3.889-3.889c.256-2.761-2.008-5.008-4.774-4.741m1.367 1.827a2.71 2.71 0 0 1 1.583 1.577c.121.317.127.358.127.912s-.006.595-.127.912a2.723 2.723 0 0 1-1.583 1.58c-.311.119-.355.125-.907.125-.554 0-.595-.006-.912-.127-.859-.326-1.528-1.105-1.687-1.961-.197-1.068.212-2.077 1.1-2.711.48-.343.913-.462 1.599-.442.415.012.525.031.807.135" fill-rule="evenodd" fill="#000"/></svg>