<svg width="24" height="24" viewBox="0 0 24 24" fill="none" xmlns="http://www.w3.org/2000/svg">
<path d="M13.5873 6.48374L13.849 6.30058L13.7928 5.98617C13.7647 5.82884 13.75 5.66642 13.75 5.5C13.75 3.98122 14.9812 2.75 16.5 2.75C18.0188 2.75 19.25 3.98122 19.25 5.5C19.25 7.01878 18.0188 8.25 16.5 8.25C15.6095 8.25 14.8178 7.82725 14.3145 7.16945L14.0233 6.78887L13.6307 7.06369L9.15132 10.1993L8.80527 10.4415L8.98631 10.8232C9.15524 11.1793 9.25 11.5779 9.25 12C9.25 12.4221 9.15524 12.8207 8.98631 13.1768L8.80527 13.5585L9.15132 13.8007L13.6307 16.9363L14.0233 17.2111L14.3145 16.8306C14.8178 16.1728 15.6095 15.75 16.5 15.75C18.0188 15.75 19.25 16.9812 19.25 18.5C19.25 20.0188 18.0188 21.25 16.5 21.25C14.9812 21.25 13.75 20.0188 13.75 18.5C13.75 18.3336 13.7647 18.1711 13.7928 18.0139L13.849 17.6995L13.5873 17.5163L8.85664 14.2048L8.85632 14.2046C8.84833 14.199 8.84065 14.1929 8.8333 14.1864L8.52152 13.9101L8.19348 14.1669C7.72656 14.5324 7.13938 14.75 6.5 14.75C4.98122 14.75 3.75 13.5188 3.75 12C3.75 10.4812 4.98122 9.25 6.5 9.25C7.13939 9.25 7.72657 9.4676 8.19348 9.8331L8.5216 10.09L8.8334 9.81351C8.84055 9.80716 8.84826 9.80106 8.85655 9.79526L8.85664 9.7952L13.5873 6.48374ZM16.5 3.25C15.2574 3.25 14.25 4.25736 14.25 5.5C14.25 6.74264 15.2574 7.75 16.5 7.75C17.7426 7.75 18.75 6.74264 18.75 5.5C18.75 4.25736 17.7426 3.25 16.5 3.25ZM6.5 9.75C5.25736 9.75 4.25 10.7574 4.25 12C4.25 13.2426 5.25736 14.25 6.5 14.25C7.74264 14.25 8.75 13.2426 8.75 12C8.75 10.7574 7.74264 9.75 6.5 9.75ZM16.5 16.25C15.2574 16.25 14.25 17.2574 14.25 18.5C14.25 19.7426 15.2574 20.75 16.5 20.75C17.7426 20.75 18.75 19.7426 18.75 18.5C18.75 17.2574 17.7426 16.25 16.5 16.25Z" fill="#212529" stroke="#042B60"/>
</svg>
