<svg width="24" height="24" viewBox="0 0 24 24" fill="none" xmlns="http://www.w3.org/2000/svg">
<path fill-rule="evenodd" clip-rule="evenodd" d="M12 24C18.6274 24 24 18.6274 24 12C24 5.37258 18.6274 0 12 0C5.37258 0 0 5.37258 0 12C0 18.6274 5.37258 24 12 24ZM19.5 18V13.067C19.5 10.425 18.0721 9.19493 16.1681 9.19493C14.6307 9.19493 13.9442 10.0312 13.56 10.6162V9.39682H10.665C10.7043 10.2051 10.665 18 10.665 18H13.56V13.1954C13.56 12.938 13.5796 12.6819 13.656 12.4981C13.865 11.984 14.3412 11.4519 15.1407 11.4519C16.1877 11.4519 16.6064 12.2407 16.6064 13.3972V18H19.5ZM13.56 10.6162V10.6443H13.541L13.56 10.6162ZM6 6.73612C6 5.89178 6.64798 5.25 7.63753 5.25H7.63821C8.62912 5.25 9.23786 5.89178 9.25545 6.73612C9.25545 7.56174 8.62844 8.22291 7.61859 8.22291H7.59965C6.62904 8.22291 6 7.56174 6 6.73612ZM9.06538 18H6.1718V9.39682H9.06538V18Z" fill="#FFD500"/>
</svg>
