<svg width="36" height="32" viewBox="0 0 36 32" fill="none" xmlns="http://www.w3.org/2000/svg">
<path d="M0 31.2281C0.051358 31.1587 0.110053 31.0936 0.153096 31.0193C6.05437 20.7584 11.9547 10.4966 17.855 0.235269C17.8951 0.165813 17.9381 0.0983139 17.9978 0C18.0555 0.0919553 18.103 0.162389 18.1455 0.235758C24.0331 10.4761 29.9207 20.7168 35.8092 30.9571C35.864 31.0525 35.9359 31.1381 36 31.2281V31.277C35.886 31.28 35.7721 31.2848 35.6581 31.2848C23.8864 31.2848 12.1141 31.2848 0.342387 31.2848C0.228421 31.2848 0.114455 31.28 0.000489601 31.277C0.000489601 31.2609 0.000489601 31.2443 0.000489601 31.2281H0ZM31.4859 28.6783C26.985 20.8479 22.5036 13.0523 17.9993 5.21602C13.4935 13.0542 9.01015 20.8538 4.51217 28.6783H31.4854H31.4859Z" fill="black"/>
</svg>
