<svg width="24" height="24" fill="none" xmlns="http://www.w3.org/2000/svg"><path d="M5.52 2.221c-2.164.297-3.812 1.46-4.697 3.314-.332.695-.5 1.289-.605 2.137-.085.682-.085 7.974 0 8.656.105.848.273 1.442.605 2.137.911 1.908 2.631 3.084 4.877 3.334.488.055 12.112.055 12.6 0 2.694-.3 4.664-1.977 5.305-4.513.228-.901.235-1.06.235-5.286 0-4.11-.009-4.341-.199-5.147a5.633 5.633 0 0 0-.464-1.318c-.908-1.901-2.598-3.061-4.856-3.334-.54-.065-12.315-.047-12.801.02M18.1 3.88c.943.104 1.652.369 2.311.863.978.734 1.566 1.849 1.705 3.234.06.597.06 7.449 0 8.046-.139 1.38-.727 2.5-1.696 3.227-.664.498-1.378.766-2.32.87-.486.053-11.714.053-12.2 0-.95-.105-1.665-.374-2.324-.874-.976-.741-1.553-1.84-1.692-3.223-.06-.597-.06-7.449 0-8.046.139-1.383.716-2.482 1.692-3.223.64-.486 1.378-.769 2.264-.87.435-.049 11.816-.053 12.26-.004M9.668 8.202c-.5.124-1.024.557-1.256 1.038-.244.503-.258.673-.242 2.942.016 2.253.008 2.178.287 2.674.255.454.704.794 1.223.927.351.09.91.059 1.324-.073.27-.087 2.911-1.448 3.637-1.875 1.058-.622 1.474-1.694 1.014-2.613a2.375 2.375 0 0 0-.691-.822c-.357-.268-3.594-1.979-3.992-2.11-.344-.113-1.02-.159-1.304-.088m.748 1.695c.104.031.901.432 1.771.89 1.141.6 1.64.884 1.786 1.017.203.184.204.185.136.288a1.036 1.036 0 0 1-.238.219c-.313.213-3.288 1.765-3.48 1.815-.248.066-.389.017-.481-.166-.063-.127-.07-.304-.07-1.892 0-1.841.018-2.06.174-2.169.104-.073.165-.074.402-.002" fill-rule="evenodd" fill="#000"/></svg>