<svg width="24" height="24" fill="none" xmlns="http://www.w3.org/2000/svg"><path d="M12.82 5.234a.844.844 0 0 0-.425 1.108c.05.109.807.915 2.329 2.48l2.256 2.318-6.12.02c-5.605.018-6.13.026-6.24.086a.853.853 0 0 0 0 1.508c.11.06.635.068 6.24.086l6.12.02-2.256 2.318c-1.522 1.565-2.279 2.371-2.329 2.48-.2.44.044.99.506 1.142.215.071.534.034.704-.083.079-.053.547-.511 1.039-1.018 4.747-4.877 5.044-5.188 5.117-5.35a.865.865 0 0 0 0-.698c-.073-.162-.37-.473-5.117-5.35-.492-.507-.96-.965-1.04-1.02-.195-.133-.558-.155-.784-.047" fill-rule="evenodd" fill="#000"/></svg>