<svg width="24" height="24" fill="none" xmlns="http://www.w3.org/2000/svg"><path d="M3.66 5.236a.839.839 0 0 0 .029 1.542c.132.055.83.062 6.311.062s6.179-.007 6.311-.062a.84.84 0 0 0 0-1.556c-.132-.055-.83-.062-6.32-.061-5.921.001-6.177.004-6.331.075m0 6a.839.839 0 0 0 .029 1.542c.133.055 1.022.062 8.32.061 7.868-.001 8.177-.004 8.331-.075a.837.837 0 0 0 .268-1.339 1.04 1.04 0 0 0-.268-.189c-.154-.072-.462-.074-8.34-.074s-8.186.002-8.34.074m0 6a.839.839 0 0 0 .029 1.542c.132.055.83.062 6.311.062s6.179-.007 6.311-.062a.84.84 0 0 0 0-1.556c-.132-.055-.83-.062-6.32-.061-5.921.001-6.177.004-6.331.075" fill-rule="evenodd" fill="#000"/></svg>