<svg width="24" height="24" viewBox="0 0 24 24" fill="none" xmlns="http://www.w3.org/2000/svg">
<path d="M4 3L3.25 3L4 3ZM4 19L4.75 19L4 19ZM19.25 15.5C19.25 15.9142 19.5858 16.25 20 16.25C20.4142 16.25 20.75 15.9142 20.75 15.5L19.25 15.5ZM20 7L20.75 7V7H20ZM19 6L19 6.75L19 6.75L19 6ZM16 6L16 5.25L16 5.25L16 6ZM15 5L14.25 5L14.25 5L15 5ZM15 2L15.75 2L15.75 2L15 2ZM14 1L14 1.75L14 1ZM6 1L6 0.250001L6 1ZM6 21L6 21.75H6V21ZM6.5 21.75C6.91421 21.75 7.25 21.4142 7.25 21C7.25 20.5858 6.91421 20.25 6.5 20.25V21.75ZM9 18V17.25C8.58579 17.25 8.25 17.5858 8.25 18H9ZM8.25 23C8.25 23.4142 8.58579 23.75 9 23.75C9.41422 23.75 9.75 23.4142 9.75 23H8.25ZM20 18V17.25C19.5858 17.25 19.25 17.5858 19.25 18H20ZM22.5 18.75C22.9142 18.75 23.25 18.4142 23.25 18C23.25 17.5858 22.9142 17.25 22.5 17.25V18.75ZM19.25 23C19.25 23.4142 19.5858 23.75 20 23.75C20.4142 23.75 20.75 23.4142 20.75 23H19.25ZM22 21.45C22.4142 21.45 22.75 21.1142 22.75 20.7C22.75 20.2858 22.4142 19.95 22 19.95V21.45ZM14.5 18V17.25C14.0858 17.25 13.75 17.5858 13.75 18H14.5ZM14.5 23H13.75C13.75 23.4142 14.0858 23.75 14.5 23.75V23ZM9.51174 11.1517C9.20893 10.8691 8.73434 10.8854 8.45171 11.1883C8.16908 11.4911 8.18545 11.9657 8.48826 12.2483L9.51174 11.1517ZM12 14.5L11.4883 15.0483C11.7764 15.3172 12.2236 15.3172 12.5117 15.0483L12 14.5ZM15.5117 12.2483C15.8146 11.9657 15.8309 11.4911 15.5483 11.1883C15.2657 10.8854 14.7911 10.8691 14.4883 11.1517L15.5117 12.2483ZM12.75 7.5C12.75 7.08579 12.4142 6.75 12 6.75C11.5858 6.75 11.25 7.08579 11.25 7.5H12.75ZM16.8968 1.78567L17.4271 1.25534L17.4271 1.25534L16.8968 1.78567ZM19.2143 4.10322L19.7447 3.57289L19.7447 3.57289L19.2143 4.10322ZM20 6L19.25 6V6H20ZM15 1L15 0.25L15 0.25L15 1ZM3.25 3L3.25 19L4.75 19L4.75 3L3.25 3ZM20.75 15.5L20.75 7L19.25 7L19.25 15.5L20.75 15.5ZM19 5.25L16 5.25L16 6.75L19 6.75L19 5.25ZM15.75 5L15.75 2L14.25 2L14.25 5L15.75 5ZM14 0.250001L6 0.250001L6 1.75L14 1.75L14 0.250001ZM6 21.75H6.5V20.25H6V21.75ZM20.75 7C20.75 6.0335 19.9665 5.25 19 5.25L19 6.75C19.1381 6.75 19.25 6.86193 19.25 7L20.75 7ZM4.75 3C4.75 2.30964 5.30965 1.75 6 1.75L6 0.250001C4.48122 0.25 3.25 1.48122 3.25 3L4.75 3ZM16 5.25C15.8619 5.25 15.75 5.13807 15.75 5L14.25 5C14.25 5.9665 15.0335 6.75 16 6.75L16 5.25ZM15.75 2C15.75 1.0335 14.9665 0.250001 14 0.250001L14 1.75C14.1381 1.75 14.25 1.86193 14.25 2L15.75 2ZM3.25 19C3.25 20.5188 4.48122 21.75 6 21.75L6 20.25C5.30964 20.25 4.75 19.6904 4.75 19L3.25 19ZM9 18.75H11V17.25H9V18.75ZM11.25 19V19.7H12.75V19H11.25ZM9.75 23V20.7H8.25V23H9.75ZM9.75 20.7V18H8.25V20.7H9.75ZM11 19.95H9V21.45H11V19.95ZM11.25 19.7C11.25 19.8381 11.1381 19.95 11 19.95V21.45C11.9665 21.45 12.75 20.6665 12.75 19.7H11.25ZM11 18.75C11.1381 18.75 11.25 18.8619 11.25 19H12.75C12.75 18.0335 11.9665 17.25 11 17.25V18.75ZM20 18.75H22.5V17.25H20V18.75ZM20.75 23V20.7H19.25V23H20.75ZM20.75 20.7V18H19.25V20.7H20.75ZM22 19.95H20V21.45H22V19.95ZM14.5 18.75H16V17.25H14.5V18.75ZM16.75 19.5V21.5H18.25V19.5H16.75ZM15.25 23V18H13.75V23H15.25ZM16 22.25H14.5V23.75H16V22.25ZM16.75 21.5C16.75 21.9142 16.4142 22.25 16 22.25V23.75C17.2426 23.75 18.25 22.7426 18.25 21.5H16.75ZM16 18.75C16.4142 18.75 16.75 19.0858 16.75 19.5H18.25C18.25 18.2574 17.2426 17.25 16 17.25V18.75ZM8.48826 12.2483L11.4883 15.0483L12.5117 13.9517L9.51174 11.1517L8.48826 12.2483ZM12.5117 15.0483L15.5117 12.2483L14.4883 11.1517L11.4883 13.9517L12.5117 15.0483ZM12.75 14.5V7.5H11.25V14.5H12.75ZM16.3665 2.316L18.684 4.63355L19.7447 3.57289L17.4271 1.25534L16.3665 2.316ZM19.25 6V7H20.75V6H19.25ZM15 0.25L14 0.250001L14 1.75L15 1.75L15 0.25ZM18.684 4.63355C19.0464 4.99595 19.25 5.48748 19.25 6L20.75 6C20.75 5.08966 20.3884 4.2166 19.7447 3.57289L18.684 4.63355ZM15 1.75C15.5125 1.75 16.0041 1.9536 16.3665 2.316L17.4271 1.25534C16.7834 0.611634 15.9103 0.25 15 0.25L15 1.75Z" fill="#042B60"/>
</svg>
