<svg width="64" height="64" viewBox="0 0 64 64" fill="none" xmlns="http://www.w3.org/2000/svg">
<path d="M37.8175 62.7506L37.7244 62.7483C37.6088 62.7453 36.3879 62.7071 34.732 62.4104C32.9253 62.0866 31.0744 62.0866 29.2676 62.4104C27.6118 62.7071 26.391 62.7453 26.2754 62.7483L26.1823 62.7506H26.0893C21.7599 62.7506 15.4749 60.496 10.1191 49.7549C7.21163 43.9236 5.33301 38.4053 5.33301 33.515C5.33301 22.3273 14.5116 14.6348 25.7935 14.6348L25.8759 14.6353C29.6046 17.0246 34.3949 17.0246 38.1236 14.6353L38.206 14.6348C49.4881 14.6348 58.6668 22.3274 58.6668 33.515C58.6668 38.4051 56.788 43.9236 53.8805 49.7549C48.5248 60.496 42.2399 62.7506 37.9105 62.7506H37.8175Z" stroke="#0083CA" stroke-width="2" stroke-miterlimit="10" stroke-linecap="round" stroke-linejoin="round"/>
<path d="M37.9464 53.9997C37.7886 53.9915 37.1295 53.95 36.2755 53.7969C34.8685 53.5448 33.4299 53.4169 31.9999 53.4169C30.5699 53.4169 29.1314 53.5448 27.7244 53.7969C26.8703 53.95 26.2111 53.9915 26.0534 53.9997C22.3894 53.963 19.1673 48.2915 17.9498 45.8498C15.384 40.7039 14.083 36.5537 14.083 33.5142C14.083 30.6686 15.1518 28.2064 17.1736 26.3936C17.2383 26.3357 17.3039 26.2784 17.3704 26.2217C19.0648 24.779 21.2673 23.9844 23.5715 23.9844C24.5316 23.9844 25.4908 24.1206 26.4221 24.3894C28.232 24.9116 30.1086 25.1764 31.9999 25.1764C33.891 25.1764 35.7676 24.9116 37.5775 24.3894C38.5089 24.1206 39.468 23.9844 40.4281 23.9844C42.7325 23.9844 44.9349 24.7789 46.6296 26.2219C46.6963 26.2785 46.7618 26.3359 46.8265 26.394C48.848 28.2064 49.9168 30.6686 49.9168 33.5142C49.9168 36.5534 48.6158 40.7038 46.0498 45.8498C44.8323 48.2915 41.6103 53.963 37.9464 53.9997Z" fill="#DADADA"/>
<path d="M35.1114 2.22266C31.1105 8.88932 32.0003 16.3805 32.0003 16.3805" stroke="#0083CA" stroke-width="2" stroke-miterlimit="10" stroke-linecap="round" stroke-linejoin="round"/>
<path d="M31.9302 16.3323C32.2818 12.3893 30.9396 8.32514 27.9034 5.30714C24.1704 1.59651 18.8466 0.431138 14.1143 1.81114C12.7261 6.51514 13.8983 11.8073 17.6313 15.5179C17.7331 15.6191 17.8361 15.7184 17.9402 15.8158" stroke="#0083CA" stroke-width="2" stroke-miterlimit="10" stroke-linecap="round" stroke-linejoin="round"/>
<path d="M27.9785 37.7715V39.6119" stroke="#0083CA" stroke-width="2" stroke-miterlimit="10" stroke-linecap="round" stroke-linejoin="round"/>
<path d="M36.0215 37.7715V39.6119" stroke="#0083CA" stroke-width="2" stroke-miterlimit="10" stroke-linecap="round" stroke-linejoin="round"/>
</svg>
