<svg width="24" height="24" fill="none" xmlns="http://www.w3.org/2000/svg"><path d="M10.511 5.218c-.196.102-.249.151-1.155 1.083-4.755 4.886-5.044 5.188-5.117 5.35a.865.865 0 0 0 0 .698c.073.162.37.473 5.117 5.35.492.507.96.965 1.039 1.018.17.117.489.154.704.083a.856.856 0 0 0 .506-1.142c-.05-.109-.807-.915-2.329-2.48L7.02 12.86l6.12-.02c5.605-.018 6.13-.026 6.24-.086a.853.853 0 0 0 0-1.508c-.11-.06-.635-.068-6.24-.086l-6.12-.02 2.256-2.318c1.522-1.565 2.279-2.371 2.329-2.48a.846.846 0 0 0-.454-1.12c-.185-.077-.496-.08-.64-.004" fill-rule="evenodd" fill="#000"/></svg>