<svg width="64" height="64" viewBox="0 0 64 64" fill="none" xmlns="http://www.w3.org/2000/svg">
<path d="M16 15.3333C16 14.2287 17.0447 13.3333 18.3333 13.3333H32.3333C33.622 13.3333 34.6667 14.2287 34.6667 15.3333V15.9999H16V15.3333Z" fill="#B1D6E4"/>
<path d="M58.6654 36H5.33203V45.3333H9.4346C9.4346 42.0531 12.0061 39.3939 15.1782 39.3939C18.3503 39.3939 20.9218 42.0531 20.9218 45.3333H43.0756C43.0756 42.0531 45.6471 39.3939 48.8192 39.3939C51.9913 39.3939 54.5628 42.0531 54.5628 45.3333H58.6654V36Z" fill="#B1D6E4"/>
<circle cx="47.9987" cy="45.3334" r="5.66667" stroke="#042B60" stroke-width="2"/>
<circle cx="15.9987" cy="45.3334" r="5.66667" stroke="#042B60" stroke-width="2"/>
<line x1="42.668" y1="45" x2="21.3346" y2="45" stroke="#042B60" stroke-width="2"/>
<path d="M2.66797 44.3333C2.11568 44.3333 1.66797 44.781 1.66797 45.3333C1.66797 45.8855 2.11568 46.3333 2.66797 46.3333V44.3333ZM10.668 44.3333H2.66797V46.3333H10.668V44.3333Z" fill="#042B60"/>
<path d="M62.668 52L1.33464 52" stroke="#042B60" stroke-width="2" stroke-linecap="round"/>
<path d="M60 46.3333C60.5523 46.3333 61 45.8855 61 45.3333C61 44.781 60.5523 44.3333 60 44.3333V46.3333ZM60 44.3333H53.3333V46.3333H60V44.3333Z" fill="#042B60"/>
<path d="M58.6654 45.3333V22.1333C58.6654 19.4823 56.4612 17.3333 53.7423 17.3333H10.2551C7.53617 17.3333 5.33203 19.4823 5.33203 22.1333V45.3333" stroke="#042B60" stroke-width="2"/>
<path d="M5.33203 32.0001L40.2824 32.0001C41.5985 32.0001 42.6654 30.9554 42.6654 29.6667V25.0001C42.6654 23.7114 41.5985 22.6667 40.2824 22.6667L5.33203 22.6667" stroke="#042B60" stroke-width="2"/>
<path d="M58.668 32.0001H53.3346C51.8619 32.0001 50.668 30.9554 50.668 29.6667L50.668 25.0001C50.668 23.7114 51.8619 22.6667 53.3346 22.6667L58.668 22.6667" stroke="#042B60" stroke-width="2"/>
<line x1="34.332" y1="22.6667" x2="34.332" y2="32.0001" stroke="#042B60" stroke-width="2"/>
<line x1="25" y1="22.6667" x2="25" y2="32.0001" stroke="#042B60" stroke-width="2"/>
<line x1="15.668" y1="22.6667" x2="15.668" y2="32.0001" stroke="#042B60" stroke-width="2"/>
</svg>
