<svg width="64" height="64" viewBox="0 0 64 64" fill="none" xmlns="http://www.w3.org/2000/svg">
<g clip-path="url(#clip0_4693_17842)">
<path d="M32.0522 36.4074C36.7833 36.4074 38.4784 47.1805 24.9765 50.719C24.4159 50.8659 24.2867 51.608 24.7646 51.9374L25.776 52.6344C26.0022 52.7904 26.1009 53.0765 26.0194 53.3399L25.561 54.8209C25.4171 55.2857 25.8499 55.7232 26.3121 55.5797C33.1092 53.4681 38.8707 47.354 38.8707 42.6442C38.8707 38.632 35.4809 36.4074 32.0522 36.4074Z" fill="#45A1BA"/>
<path d="M32.471 36.4092C28.5369 36.4092 26.3377 42.8194 31.9377 47.4348C30.8079 48.3619 29.2711 49.2563 28.0945 49.6484C21.3204 41.9966 26.7802 36.4092 32.471 36.4092Z" fill="#45A1BA"/>
<path d="M32.1729 52.627C33.7574 53.8006 35.8443 54.9665 37.72 55.5807C38.1427 55.7191 38.5385 55.2972 38.4069 54.8492L37.9877 53.4218C37.9132 53.1679 38.0034 52.892 38.2103 52.7417L39.1352 52.0699C39.5722 51.7524 39.4541 51.037 38.9415 50.8954C37.7609 50.5693 36.5601 50.0067 35.6238 49.5682" fill="#45A1BA"/>
<path d="M31.9375 41.2083C30.5226 41.2083 29.1824 41.797 28.6434 42.4318C27.9845 40.471 27.8275 36.3926 32.0942 36.3926C36.3608 36.3926 36.1513 40.471 35.388 42.4318C34.849 41.797 33.3525 41.2083 31.9375 41.2083Z" fill="#45A1BA"/>
<path d="M40.3078 24.384C40.3078 28.2075 36.5883 31.3071 32.0001 31.3071C27.4119 31.3071 23.6924 28.2075 23.6924 24.384C23.6924 20.5605 27.4119 17.4609 32.0001 17.4609C36.5883 17.4609 40.3078 20.5605 40.3078 24.384Z" fill="#45A1BA"/>
<path d="M32 28.548V25.5677M21.3398 59.1484C24.3545 61.2804 28.0318 62.5324 31.9998 62.5324C35.9678 62.5324 39.6452 61.2804 42.6598 59.1484M14.9883 45.6457C14.9314 45.0393 14.9023 44.4221 14.9023 43.7997C14.9023 38.5541 16.9469 33.8162 20.2357 30.43M43.7646 30.43C47.0534 33.8162 49.098 38.5541 49.098 43.7997C49.098 44.4221 49.0689 45.0393 49.012 45.6457M15.3611 14.3996C12.3662 13.7357 10.1328 11.1594 10.1328 8.08245C10.1328 4.50248 13.1565 1.59961 16.8855 1.59961C19.534 1.59961 21.8274 3.06425 22.9328 5.19638M41.0664 5.19638C42.1718 3.06425 44.4652 1.59961 47.1138 1.59961C50.8427 1.59961 53.8664 4.50248 53.8664 8.08245C53.8664 11.1594 51.633 13.7357 48.6381 14.3996M14.8584 43.1428L8.74107 45.3628C5.95307 46.4188 2.83574 45.0135 1.77974 42.2255C1.54107 41.5961 1.42773 40.9495 1.42773 40.3135C1.42773 38.1335 2.75707 36.0801 4.91707 35.2628L19.9729 29.9175M44.0273 29.9175L59.0832 35.2628C61.2432 36.0801 62.5725 38.1335 62.5725 40.3135C62.5725 40.9495 62.4592 41.5961 62.2205 42.2255C61.1645 45.0135 58.0472 46.4188 55.2592 45.3628L49.1419 43.1428M38.7451 15.2141V13.3317M25.2549 15.2141V13.3317M15.4668 19.0768C15.4668 10.0131 22.869 2.66563 32.0001 2.66563C41.1313 2.66563 48.5335 10.0131 48.5335 19.0768C48.5335 28.1405 41.1313 33.0656 32.0001 33.0656C22.869 33.0656 15.4668 28.1405 15.4668 19.0768ZM55.924 56.5256C54.2391 60.8868 50.0631 63.379 46.5966 62.0921C43.1301 60.8054 41.6858 56.2267 43.3707 51.8656C45.0556 47.5044 49.2316 45.0122 52.6981 46.299C56.1647 47.5858 57.6089 52.1644 55.924 56.5256ZM8.07679 56.5256C9.76169 60.8868 13.9378 63.379 17.4043 62.0921C20.8708 60.8054 22.315 56.2267 20.6301 51.8656C18.9452 47.5044 14.7693 45.0122 11.3026 46.299C7.83613 47.5858 6.39189 52.1644 8.07679 56.5256ZM33.3772 24.6103L34.4305 23.3395C35.3627 22.2149 34.533 20.5492 33.0406 20.5492H30.9599C29.4776 20.5492 28.6448 22.1954 29.5566 23.3232L30.5839 24.5939C31.291 25.4687 32.6591 25.4767 33.3772 24.6103Z" stroke="white" stroke-width="2" stroke-miterlimit="10" stroke-linecap="round" stroke-linejoin="round"/>
</g>
<defs>
<clipPath id="clip0_4693_17842">
<rect width="64" height="64" fill="white"/>
</clipPath>
</defs>
</svg>
