<svg width="24" height="24" viewBox="0 0 24 24" fill="none" xmlns="http://www.w3.org/2000/svg">
<path d="M4.38085 3.88572L4.37621 3.89136L4.37168 3.89707C3.81369 4.59988 3.53318 5.41932 3.53318 6.32233V6.47513C3.53318 6.55073 3.53994 6.65229 3.57315 6.7698L4.39112 6.5387L3.57315 6.76981C3.72228 7.29764 4.20577 7.56101 4.63365 7.56101H6.15L6.15 10.1503L2.85 10.1503L2.85 6.97531C2.85 5.93733 3.17213 5.027 3.82938 4.21354L3.82939 4.21354L3.83216 4.21008C4.09512 3.88112 4.4468 3.59813 4.90623 3.37442C4.715 3.52283 4.5393 3.69303 4.38085 3.88572ZM11.3808 3.88572L11.3762 3.89136L11.3717 3.89707C10.8137 4.59988 10.5332 5.41932 10.5332 6.32233V6.47513C10.5332 6.55071 10.5399 6.65227 10.5731 6.76981C10.7223 7.29764 11.2058 7.56101 11.6337 7.56101L13.15 7.56101L13.15 10.1503L9.85 10.1503L9.85 6.97531C9.85 5.93733 10.1721 5.027 10.8294 4.21354L10.8322 4.21008C11.0951 3.88112 11.4468 3.59813 11.9062 3.37442C11.715 3.52283 11.5393 3.69303 11.3808 3.88572Z" stroke="#042B60" stroke-width="1.7"/>
<path d="M17 10L21 10M3 15L21 15M3 20L15 20" stroke="#042B60" stroke-width="1.7" stroke-linecap="round"/>
</svg>
