<svg width="64" height="64" viewBox="0 0 64 64" fill="none" xmlns="http://www.w3.org/2000/svg">
<path d="M5 25.1562C7.07107 25.1562 8.75 23.4773 8.75 21.4062C8.75 19.3352 7.07107 17.6562 5 17.6562C2.92893 17.6562 1.25 19.3352 1.25 21.4062C1.25 23.4773 2.92893 25.1562 5 25.1562Z" stroke="#0083CA" stroke-width="2" stroke-miterlimit="22.9256" stroke-linecap="round" stroke-linejoin="round"/>
<path d="M25.3125 12C27.3836 12 29.0625 10.3211 29.0625 8.25C29.0625 6.17893 27.3836 4.5 25.3125 4.5C23.2414 4.5 21.5625 6.17893 21.5625 8.25C21.5625 10.3211 23.2414 12 25.3125 12Z" stroke="#0083CA" stroke-width="2" stroke-miterlimit="22.9256" stroke-linecap="round" stroke-linejoin="round"/>
<path d="M59.6014 18.9509C61.6457 18.6192 63.034 16.6929 62.7022 14.6486C62.3705 12.6042 60.4442 11.2159 58.3999 11.5477C56.3555 11.8795 54.9672 13.8057 55.299 15.8501C55.6308 17.8944 57.557 19.2827 59.6014 18.9509Z" stroke="#0083CA" stroke-width="2" stroke-miterlimit="22.9256" stroke-linecap="round" stroke-linejoin="round"/>
<path d="M13.4375 49.125C15.5086 49.125 17.1875 47.4461 17.1875 45.375C17.1875 43.3039 15.5086 41.625 13.4375 41.625C11.3664 41.625 9.6875 43.3039 9.6875 45.375C9.6875 47.4461 11.3664 49.125 13.4375 49.125Z" stroke="#0083CA" stroke-width="2" stroke-miterlimit="22.9256" stroke-linecap="round" stroke-linejoin="round"/>
<path d="M26.5762 12.123L28.5102 18.0518" stroke="#0083CA" stroke-width="2" stroke-miterlimit="22.9256" stroke-linecap="round" stroke-linejoin="round"/>
<path d="M21.773 25.9679L8.87891 22.4609" stroke="#0083CA" stroke-width="2" stroke-miterlimit="22.9256" stroke-linecap="round" stroke-linejoin="round"/>
<path d="M16.54 42.5973L23.9607 35.9512" stroke="#0083CA" stroke-width="2" stroke-miterlimit="22.9256" stroke-linecap="round" stroke-linejoin="round"/>
<path d="M55.4302 17.0352L41.5234 23.9884" stroke="#0083CA" stroke-width="2" stroke-miterlimit="22.9256" stroke-linecap="round" stroke-linejoin="round"/>
<path fill-rule="evenodd" clip-rule="evenodd" d="M44.5 28.75C44.5 21.8464 38.9036 16.25 32 16.25C25.0964 16.25 19.5 21.8464 19.5 28.75C19.5 33.7044 22.3823 37.9855 26.5615 40.008C26.6821 39.6772 26.8745 39.3674 27.1388 39.1031C28.111 38.1309 29.702 38.1309 30.6743 39.1031L32.0001 40.429V28.75C32.0001 27.3754 33.1251 26.2501 34.5001 26.2501C35.8751 26.2501 37.0001 27.375 37.0001 28.7501V36.674C37.0029 35.3011 38.1268 34.179 39.5001 34.179C40.7434 34.179 41.7822 35.0986 41.9699 36.2914C41.9966 36.2561 42.0231 36.2207 42.0494 36.1852C42.1735 35.5719 42.524 35.038 43.0093 34.6755C43.9603 32.912 44.5 30.894 44.5 28.75Z" fill="#DADADA"/>
<path d="M51.9999 59.4999V37.9287C51.9999 36.5537 50.8749 35.4289 49.4999 35.4289C48.1249 35.4289 46.9999 36.5537 46.9999 37.9289V36.6789C46.9999 35.3039 45.8747 34.1789 44.4999 34.1789C43.1249 34.1789 41.9999 35.3037 41.9999 36.6787M41.9999 36.6787V37.9287M41.9999 36.6787C41.9999 35.3037 40.8749 34.1789 39.4999 34.1789C38.1249 34.1789 36.9999 35.3037 36.9999 36.6789M36.9997 37.9287V28.75C36.9997 27.375 35.8747 26.25 34.4997 26.25C33.1247 26.25 31.9997 27.3752 31.9997 28.7499V40.4289L30.6739 39.103C29.7016 38.1308 28.1106 38.1308 27.1384 39.103C26.1661 40.0753 26.1661 41.6663 27.1384 42.6385L31.9999 47.5V59.4999" stroke="#0083CA" stroke-width="2" stroke-miterlimit="22.9256" stroke-linecap="round" stroke-linejoin="round"/>
</svg>
