<svg width="64" height="64" viewBox="0 0 64 64" fill="none" xmlns="http://www.w3.org/2000/svg">
<path d="M50.1851 48.2972H58.9846C61.0645 48.2972 62.75 46.6117 62.75 44.5319V6.89806C62.75 4.81831 61.0645 3.13281 58.9846 3.13281H5.01538C2.9355 3.13281 1.25 4.81831 1.25 6.89806V44.5319C1.25 46.6117 2.9355 48.2972 5.01538 48.2972H35.7365" stroke="#0083CA" stroke-width="2" stroke-miterlimit="10" stroke-linecap="round" stroke-linejoin="round"/>
<path d="M57.7295 14.1361V37.2936C54.4247 37.2936 51.7458 39.9725 51.7458 43.2761C51.7345 38.4323 47.8058 34.5098 42.9595 34.5098C38.1133 34.5098 34.1859 38.4323 34.1747 43.2761H12.2533C12.2533 39.9723 9.57441 37.2936 6.26953 37.2936V14.1361C9.57441 14.1361 12.2533 11.4573 12.2533 8.15234H51.7458C51.7458 11.4573 54.4245 14.1361 57.7295 14.1361Z" fill="#DADADA"/>
<path d="M51.7461 43.276C51.7461 43.2823 51.7461 43.2898 51.7461 43.296C51.7461 48.1473 47.8123 52.081 42.9598 52.081C38.1073 52.081 34.1748 48.1473 34.1748 43.296C34.1748 43.2898 34.1748 43.2823 34.1748 43.276C34.1861 38.4323 38.1136 34.5098 42.9597 34.5098C47.8061 34.5098 51.7348 38.4323 51.7461 43.276Z" stroke="#0083CA" stroke-width="2" stroke-miterlimit="10" stroke-linecap="round" stroke-linejoin="round"/>
<path d="M42.9607 46.769C44.879 46.769 46.4341 45.2139 46.4341 43.2956C46.4341 41.3774 44.879 39.8223 42.9607 39.8223C41.0424 39.8223 39.4873 41.3774 39.4873 43.2956C39.4873 45.2139 41.0424 46.769 42.9607 46.769Z" stroke="#0083CA" stroke-width="2" stroke-miterlimit="10" stroke-linecap="round" stroke-linejoin="round"/>
<path d="M47.9812 50.5059V60.868L42.9607 57.1026L37.9404 60.868V50.5059" stroke="#0083CA" stroke-width="2" stroke-miterlimit="10" stroke-linecap="round" stroke-linejoin="round"/>
<path d="M45.1789 18.1942H18.8216C17.4353 18.1942 16.3115 17.0705 16.3115 15.6841C16.3115 14.2977 17.4353 13.1738 18.8216 13.1738H45.1788C46.5651 13.1738 47.6889 14.2977 47.6889 15.6841C47.6889 17.0705 46.5653 18.1942 45.1789 18.1942Z" stroke="#0083CA" stroke-width="2" stroke-miterlimit="10" stroke-linecap="round" stroke-linejoin="round"/>
<path d="M11.291 24.4648H52.7095" stroke="#0083CA" stroke-width="2" stroke-miterlimit="10" stroke-linecap="round" stroke-linejoin="round"/>
<path d="M36.4595 30.7344H11.291" stroke="#0083CA" stroke-width="2" stroke-miterlimit="10" stroke-linecap="round" stroke-linejoin="round"/>
<path d="M30.1176 37.0059H16.3115" stroke="#0083CA" stroke-width="2" stroke-miterlimit="10" stroke-linecap="round" stroke-linejoin="round"/>
</svg>
