<svg width="24" height="24" fill="none" xmlns="http://www.w3.org/2000/svg"><path d="M17.125 3.645c-.259.043-.607.18-.916.36-.173.101-1.668 1.57-6.119 6.013L4.2 15.899V19.8h3.901l5.881-5.89c4.443-4.451 5.912-5.946 6.013-6.119.497-.852.54-1.816.119-2.671-.135-.275-.237-.41-.531-.703-.296-.296-.426-.394-.703-.529a2.92 2.92 0 0 0-1.755-.243m1.055 1.573c.615.28.892 1.022.609 1.635-.081.175-.233.361-.616.751l-.509.519-.894-.892-.893-.891.512-.504c.281-.278.589-.544.685-.593.355-.181.744-.19 1.106-.025m-6.15 8.532-4.57 4.57H5.68v-1.78l4.57-4.57 4.57-4.57.89.89.89.89-4.57 4.57" fill-rule="evenodd" fill="#000"/></svg>