<svg width="48" height="48" viewBox="0 0 48 48" fill="none" xmlns="http://www.w3.org/2000/svg">
<g clip-path="url(#clip0_164_4200)">
<path d="M46 8H2V39.1667H46V8Z" fill="white"/>
<path d="M45.9912 19.0801V39.1474H17.397L45.9912 19.0801Z" fill="#F8951D"/>
<path d="M2 28.0076V8H30.5385L2 28.0076Z" fill="#2E4EA2"/>
<path d="M23.9958 14.7148L24.6017 20.0347L25.3952 18.6857L25.3562 20.2578L26.4114 19.1222L26.0166 20.6261L30.198 17.3058L26.9031 21.5267L28.4088 21.1218L27.264 22.1964L28.8265 22.1638L27.4767 22.932L32.7801 23.5736L27.4756 24.2055L28.8265 24.9873L27.264 24.9333L28.3882 26.022L26.8859 25.6283L30.198 29.8453L26.0278 26.4957L26.4253 28.0075L25.3445 26.8765L25.3879 28.444L24.61 27.0939L23.9958 32.4222L23.3816 27.0961L22.5831 28.4513L22.6249 26.8731L21.5668 28.0075L21.9566 26.5008L17.7942 29.838L21.0891 25.6238L19.59 26.0153L20.716 24.9395L19.1724 24.9732L20.501 24.1977L15.2048 23.5736L20.4988 22.9461L19.1585 22.157L20.716 22.1902L19.5967 21.115L21.079 21.52L17.7869 17.299L21.9611 20.6261L21.5735 19.1155L22.6365 20.2516L22.6037 18.679L23.3827 20.0336L23.9958 14.7148Z" fill="#F8951D"/>
</g>
<path d="M44.6189 37.2651L43.8835 36.5875L44.6189 37.2651C45.8742 35.9026 46.4495 34.2029 46.7274 32.0274C47 29.8925 47 27.1635 47 23.6564V23.5833V23.5102C47 20.0031 47 17.2742 46.7274 15.1393C46.4495 12.9638 45.8742 11.2641 44.6189 9.90161C44.4526 9.72109 44.2789 9.54744 44.0984 9.38111C42.7359 8.12578 41.0362 7.55046 38.8607 7.27262C36.7258 6.99998 33.9968 6.99999 30.4897 7L30.4167 7H17.5833L17.5103 7C14.0032 6.99999 11.2742 6.99998 9.13931 7.27262C6.9638 7.55046 5.26409 8.12578 3.90161 9.38111C3.72109 9.54744 3.54744 9.72109 3.38111 9.90161C2.12578 11.2641 1.55046 12.9638 1.27262 15.1393C0.999977 17.2742 0.999987 20.0032 1 23.5103L1 23.5833L1 23.6564C0.999987 27.1635 0.999977 29.8925 1.27262 32.0274C1.55046 34.2029 2.12578 35.9026 3.38111 37.2651C3.54744 37.4456 3.72109 37.6192 3.90161 37.7856C5.26408 39.0409 6.9638 39.6162 9.13931 39.894C11.2742 40.1667 14.0032 40.1667 17.5102 40.1667H17.5833H30.4167H30.4898C33.9968 40.1667 36.7258 40.1667 38.8607 39.894C41.0362 39.6162 42.7359 39.0409 44.0984 37.7856C44.2789 37.6192 44.4526 37.4456 44.6189 37.2651Z" stroke="#042B60" stroke-width="2"/>
<defs>
<clipPath id="clip0_164_4200">
<path d="M2 23.5833C2 16.4454 2 12.8764 4.11654 10.5792C4.26439 10.4187 4.41874 10.2644 4.57921 10.1165C6.8764 8 10.4454 8 17.5833 8H30.4167C37.5546 8 41.1236 8 43.4208 10.1165C43.5813 10.2644 43.7356 10.4187 43.8835 10.5792C46 12.8764 46 16.4454 46 23.5833C46 30.7213 46 34.2903 43.8835 36.5875C43.7356 36.7479 43.5813 36.9023 43.4208 37.0501C41.1236 39.1667 37.5546 39.1667 30.4167 39.1667H17.5833C10.4454 39.1667 6.8764 39.1667 4.57921 37.0501C4.41874 36.9023 4.26439 36.7479 4.11654 36.5875C2 34.2903 2 30.7213 2 23.5833Z" fill="white"/>
</clipPath>
</defs>
</svg>
