<svg width="48" height="48" viewBox="0 0 48 48" fill="none" xmlns="http://www.w3.org/2000/svg">
<g clip-path="url(#clip0_164_2502)">
<path d="M46 8H2V39.1667H46V8Z" fill="white"/>
<path d="M17.4072 8H46V23.8852L17.4072 8ZM31.448 39.1667H2V22.8066L31.448 39.1667Z" fill="#058D45"/>
<path d="M31.3037 23.9969C30.6042 26.9433 27.9276 29.1485 24.7479 29.1485C21.0386 29.1485 18.0135 26.1487 18.0135 22.4703C18.0135 22.1146 18.0424 21.7647 18.0968 21.4236C20.068 21.2028 22.5672 21.3307 25.1622 21.863C27.5541 22.3542 29.6984 23.1267 31.3037 23.9969Z" fill="#2B4CA0"/>
<path d="M28.0729 21.4609L28.2161 21.3114L28.4044 21.3745L28.1796 21.496L28.0729 21.4609ZM26.0756 21.8442L26.3261 20.9616L26.5008 21.0101L26.6979 21.7011L26.865 21.1122L27.0321 21.1586L26.7817 22.0412L26.6015 21.991L26.4061 21.3157L26.2428 21.8911L26.0756 21.8442ZM28.3065 22.5627L28.1138 22.4979L28.105 22.275L27.755 22.1573L27.6151 22.3306L27.4279 22.2674L28.0658 21.5143L28.2526 21.577L28.3065 22.5627ZM28.0985 22.1098L28.0882 21.747L27.8595 22.0293L28.0985 22.1098ZM25.4812 21.6596L25.2803 21.6299L25.2319 21.4118L24.8666 21.3572L24.7599 21.5521L24.5639 21.523L25.0577 20.6695L25.2531 20.6987L25.4812 21.6596ZM25.1954 21.2504L25.1203 20.8952L24.9461 21.2131L25.1954 21.2504ZM23.2215 21.3438L23.3135 20.4314L23.7044 20.4703C23.8029 20.48 23.8731 20.4957 23.9161 20.5162C23.9592 20.5367 23.9918 20.5696 24.0141 20.6139C24.0365 20.6587 24.0452 20.7078 24.0397 20.7618C24.0326 20.8304 24.0071 20.8849 23.9619 20.9254C23.9167 20.9659 23.853 20.988 23.7713 20.9912C23.8095 21.0182 23.8399 21.0474 23.8633 21.0776C23.8868 21.1078 23.9167 21.1608 23.9537 21.2363L24.0479 21.4253L23.8258 21.4031L23.7115 21.1915C23.6706 21.1154 23.6429 21.0679 23.6271 21.0474C23.6113 21.0274 23.5939 21.0128 23.5748 21.0037C23.5558 20.995 23.5253 20.9885 23.4823 20.9842L23.4447 20.9804L23.4061 21.3616L23.2215 21.3438ZM23.4605 20.8358L23.5977 20.8493C23.687 20.8579 23.743 20.8601 23.7659 20.8547C23.7888 20.8493 23.8073 20.8379 23.822 20.8212C23.8361 20.8039 23.8448 20.7818 23.8476 20.7548C23.8508 20.724 23.8448 20.6987 23.8301 20.6781C23.8154 20.6576 23.7931 20.6436 23.7637 20.6355C23.749 20.6323 23.7038 20.6263 23.6282 20.6193L23.4834 20.6047L23.4605 20.8358ZM22.5307 21.2725L22.3277 21.2595L22.2607 21.0463L21.8922 21.0226L21.8024 21.2255L21.6048 21.2126L22.0239 20.3213L22.221 20.3337L22.5307 21.2725ZM22.2117 20.8887L22.1067 20.541L21.9597 20.8725L22.2117 20.8887ZM20.3201 21.184L20.332 20.2673L20.6314 20.2711C20.7447 20.2727 20.8187 20.2781 20.853 20.2878C20.9058 20.3024 20.9499 20.3327 20.9847 20.3791C21.0201 20.4255 21.037 20.4854 21.0359 20.5583C21.0354 20.6144 21.0245 20.6619 21.0032 20.6997C20.982 20.7381 20.9559 20.7678 20.9238 20.7893C20.8917 20.8109 20.8595 20.825 20.8263 20.8315C20.7817 20.8396 20.7169 20.8433 20.6325 20.8423L20.5111 20.8406L20.5068 21.1861L20.3201 21.184ZM20.5166 20.425L20.5133 20.6846L20.6157 20.6857C20.6891 20.6868 20.7387 20.6825 20.7637 20.6733C20.7888 20.6641 20.8084 20.6495 20.8225 20.629C20.8367 20.6085 20.8443 20.5853 20.8443 20.5578C20.8448 20.5248 20.835 20.4968 20.8154 20.4746C20.7964 20.453 20.7713 20.439 20.7409 20.4331C20.7185 20.4282 20.6739 20.426 20.6064 20.425H20.5166Z" fill="#058D45"/>
<path d="M17.6986 28.5094C17.6828 28.5369 17.6828 28.5369 17.6883 28.6103C17.7062 28.6157 17.7236 28.6217 17.7476 28.633C17.8167 28.789 17.8902 28.9315 17.9311 29.1032C18.0078 29.1183 18.0475 29.1896 18.121 29.1647C18.1129 29.0449 18.0612 28.9677 18.0416 28.8554C18.0301 28.8565 18.0181 28.857 18.0067 28.8576C17.9485 28.7679 17.8962 28.6837 17.844 28.6006C17.8233 28.5482 17.8075 28.4959 17.7928 28.45C17.7884 28.3901 17.7906 28.3296 17.7922 28.2697C17.7743 28.2643 17.7623 28.2583 17.7509 28.2589C17.697 28.0683 17.7307 27.8788 17.642 27.6904C17.7454 27.3293 17.3056 27.1031 17.2462 27.6818C17.2702 27.6937 17.3001 27.705 17.3301 27.7169C17.4242 27.9917 17.3927 28.0408 17.1706 28.1013C17.1597 28.1153 17.1493 28.1293 17.1444 28.1434C16.9517 28.0484 16.9196 27.8297 17.0737 27.7061C17.1488 27.4475 17.1379 27.3676 17.3116 27.1895C17.3088 27.1495 17.3067 27.1161 17.3045 27.0831C16.9702 26.9568 16.9033 27.4227 16.9398 27.7012C16.9223 27.7023 16.9109 27.7029 16.8989 27.7039C16.838 27.915 16.66 27.779 16.5456 27.7261C16.5135 27.5944 16.5135 27.5944 16.5206 27.5274C16.7694 27.4248 16.8009 27.3763 16.9272 27.0939C16.9882 27.0502 17.0497 27.0194 17.0857 26.9433C16.9947 26.8019 16.6447 26.7841 16.4966 26.8332C16.4896 26.8202 16.489 26.8067 16.4879 26.7938C16.3491 26.8024 16.2158 26.8111 16.0829 26.8192C16.084 26.8327 16.0846 26.8456 16.0862 26.8661C15.9049 26.8505 15.7525 26.7468 15.5892 26.6567C15.519 26.6545 15.4558 26.6583 15.3921 26.6626C15.3508 26.4845 15.1488 26.3371 15.0307 26.2172C15.0024 26.0585 14.795 25.6639 14.8968 25.53C14.8461 25.4663 14.8461 25.4663 14.7797 25.4302C14.7476 25.218 14.8347 25.1257 14.9604 25.0107C14.9387 24.9454 14.9223 24.8795 14.9066 24.8202C14.9164 24.7926 14.9316 24.7651 14.9479 24.7441C15.0519 24.7376 15.1243 24.7732 15.2294 24.7797C15.2277 24.7597 15.2272 24.7462 15.2261 24.7333C15.4014 24.7489 15.5152 24.9627 15.6578 24.8401C15.6366 24.7009 15.6219 24.5681 15.6072 24.4353C15.6512 24.3991 15.6953 24.3629 15.7389 24.3268C15.716 24.0741 15.6964 23.8749 15.544 23.6838C15.1825 23.673 15.3557 24.1637 15.3192 24.3932C15.0873 24.5751 15.053 24.5772 14.8342 24.357C14.8641 24.2879 14.8951 24.2264 14.9256 24.1643C15.157 24.1497 15.1711 24.0153 15.219 23.7778C15.2305 23.7772 15.2424 23.7767 15.2539 23.7756C15.2522 23.7556 15.2517 23.7421 15.2506 23.7292C15.262 23.7286 15.2735 23.7276 15.2909 23.7265C15.3078 23.632 15.3878 23.6136 15.4542 23.5624C15.452 23.5289 15.4498 23.4954 15.4477 23.469C15.1363 23.3346 14.9387 23.6817 14.6834 23.7713C14.6186 23.7551 14.5533 23.7394 14.4945 23.7297C14.4449 23.5122 14.3965 23.4884 14.569 23.3772C14.7139 23.368 14.8331 23.4139 14.9664 23.4058C15.1047 23.2968 15.2789 23.2989 15.4422 23.3022C15.6425 23.1694 15.0775 22.9842 15.0475 22.9723C14.9496 22.8984 14.9496 22.8984 14.6605 22.7494C14.4444 22.7364 14.2985 22.6382 14.2354 22.4017C14.2174 22.3963 14.2054 22.3904 14.194 22.3909C14.1923 22.371 14.1918 22.358 14.1907 22.3445C14.0628 22.2592 14.0769 22.2112 14.0775 22.0508C14.0062 21.9418 13.9637 21.9175 13.937 21.7858C13.9485 21.7782 13.9594 21.7712 13.9762 21.7631C13.9681 21.7302 13.9599 21.6973 13.9523 21.6643C13.7367 21.5709 13.8069 21.0716 13.7857 20.8454C13.8151 20.7633 13.9414 20.7418 14.0084 20.704C14.0726 20.6198 14.0726 20.6198 14.1178 20.5166C14.2626 20.5075 14.4128 20.5782 14.5701 20.582C14.5816 20.6613 14.6431 21.0522 14.7781 20.9032C14.7765 20.7094 14.7579 20.61 14.9218 20.5399C14.9098 20.3666 14.8129 20.3061 14.7389 20.1636C14.6561 20.142 14.6561 20.142 14.5413 20.1625C14.4547 19.9207 14.4994 19.891 14.7041 19.8246C14.7585 19.8548 14.8135 19.891 14.8739 19.9277C14.9229 20.0519 14.8968 20.1739 14.98 20.2888C15.0078 20.2737 15.0416 20.2581 15.0759 20.243C15.0802 20.2224 15.0851 20.2089 15.09 20.1954C15.1014 20.1944 15.1129 20.1938 15.1248 20.1933C15.1031 20.0475 15.0987 19.7269 15.016 19.6184C15.0416 19.396 15.0416 19.396 15.0813 19.2999C15.1853 19.2869 15.262 19.3085 15.342 19.3706C15.3475 19.4505 15.3535 19.5369 15.3595 19.6238C15.1771 19.7625 15.2065 19.8473 15.2354 20.0999C15.2239 20.1004 15.2119 20.1015 15.2005 20.1021C15.2016 20.2025 15.2016 20.2025 15.2228 20.2613C15.2637 20.2656 15.3851 20.2829 15.4264 20.2937C15.5903 20.1366 15.6382 19.8991 15.8614 19.8516C15.8538 19.8251 15.7661 19.7857 15.7585 19.7663C15.7008 19.7701 15.7367 19.7495 15.679 19.7598C15.679 19.6729 15.5854 19.6972 15.6044 19.6427C15.7824 19.6114 16.0133 19.6702 15.9441 19.9288C15.8227 20.0232 15.6861 19.9784 15.5805 20.1388C15.5582 20.2338 15.5358 20.3353 15.5195 20.4368C15.5848 20.5463 15.6763 20.7747 15.8151 20.766C15.8216 20.779 15.8347 20.7979 15.8478 20.8173C15.8592 20.8168 15.8712 20.8157 15.8886 20.8146C15.9218 20.9598 15.961 21.1045 16.0002 21.2557C16.1259 21.308 16.1259 21.308 16.1581 21.3528C16.3491 21.2605 16.1145 21.1418 16.0454 21.0657C16.0361 20.9323 16.0328 20.799 16.0296 20.6656C16.1161 20.5733 16.1717 20.4492 16.3127 20.4675C16.7264 20.7358 16.6997 20.6905 16.7182 21.2109C16.753 21.3761 16.7977 21.5267 16.6534 21.6228C16.63 21.7917 16.7138 21.7394 16.6943 21.8808C16.6828 21.8813 16.6708 21.8824 16.6594 21.883C16.5663 22.223 16.323 22.5729 16.0628 22.7629C16.0045 22.8466 16.0045 22.8466 15.9708 22.8622C15.9719 22.8757 15.9724 22.8887 15.9735 22.9022C15.9229 22.9254 15.8777 22.9486 15.8331 22.9713C15.7356 23.3319 15.9681 23.2439 16.1711 23.157C16.268 22.8768 16.3834 22.8627 16.6349 22.9675C16.6567 23.0328 16.6845 23.0981 16.7128 23.1699C16.5729 23.5062 16.1227 23.2136 15.8968 23.395C15.8086 23.5543 15.8467 23.7659 15.9387 23.9208C16.1809 24.0596 16.403 24.2528 16.611 23.9791C16.6355 23.9106 16.66 23.842 16.6845 23.7805C16.8467 23.7702 17.3143 24.0617 17.4232 24.2156C17.4624 24.5341 17.6039 24.906 17.7993 25.1279C17.8276 25.1997 17.8429 25.2591 17.8369 25.3395C17.6654 25.7244 17.452 26.0925 17.4417 26.5347C17.4825 26.532 17.5288 26.5293 17.575 26.526C17.5729 26.4996 17.5718 26.4796 17.5701 26.4596C17.5816 26.4586 17.5935 26.458 17.611 26.4569C17.6224 26.2826 17.6817 26.1314 17.8167 26.0629C17.8178 26.0764 17.8184 26.0893 17.82 26.1093C17.8957 26.1114 17.8957 26.1114 18.0394 26.1757C18.1238 26.3911 17.9888 26.3727 17.9643 26.5217C17.6229 26.5433 17.6453 26.5352 17.4907 26.9125C17.5152 27.2721 17.9169 26.939 18.0312 27.2532C18.0535 27.2386 18.0813 27.2235 18.1096 27.2078C18.1662 27.0173 18.4362 27.1404 18.5315 26.8337C18.5718 26.8246 18.8821 26.9455 19.0759 26.9736C19.2343 27.0772 19.2065 27.3531 19.4373 27.4124C19.4449 27.4389 19.4526 27.4648 19.4607 27.4977C19.4722 27.4972 19.4841 27.4961 19.5015 27.495C19.5206 27.5204 19.5402 27.5528 19.5598 27.5852C19.7536 27.7002 19.7128 27.9566 19.9283 28.0435C19.9539 28.1623 19.9311 28.2508 19.9447 28.3701C20.0508 28.477 20.0018 28.5272 19.9942 28.6681C20.1265 28.9072 19.9577 29.0719 19.8505 29.2921C19.8543 29.4325 19.8521 29.5728 19.8265 29.7083C19.8739 29.7186 19.9365 29.7817 20.0693 29.8535C20.1553 29.8346 20.2468 29.8158 20.3388 29.7963C20.4166 29.8314 20.4166 29.8314 20.5925 29.8471C20.7558 29.6894 21.0236 29.86 21.139 29.7591C21.1368 29.7326 21.1357 29.7126 21.1341 29.6927C21.0846 29.6489 21.035 29.6052 20.986 29.568C20.9757 29.4147 21.0073 29.2792 21.0084 29.1253C21.1809 29.0141 21.2217 29.0983 21.3976 29.121C21.5614 28.7966 21.8559 29.1059 22.0514 29.2473C22.4335 29.3099 22.3981 29.473 22.654 29.731C22.8924 29.8163 22.8701 29.9178 22.918 30.1893C22.9555 30.2271 22.9555 30.2271 23.0911 30.2519C23.2615 30.4484 23.4335 30.2438 23.5729 30.4959C23.5968 30.5947 23.5968 30.5947 23.5794 30.6762C23.3235 30.8463 23.2996 31.175 23.5603 31.3327C23.8755 31.3462 24.1815 31.4007 24.4923 31.3543C24.4928 31.3678 24.4939 31.3807 24.495 31.3942C24.5957 31.4212 24.5957 31.4212 24.8565 31.4115C24.9991 31.4558 25.1423 31.507 25.2909 31.5578C25.6208 31.5373 25.9349 31.3634 26.2555 31.2965C26.378 31.215 26.4564 31.0898 26.3034 30.9726C26.2604 30.8549 26.2179 30.7437 26.1755 30.6331C26.2288 30.476 26.2408 30.3146 26.3301 30.1753C26.3529 30.0986 26.4177 29.9934 26.4417 29.9C26.4814 29.7445 26.4917 29.6058 26.6197 29.5685C26.6463 29.7072 26.703 29.7704 26.7748 29.88C26.7911 29.9523 26.808 30.0317 26.8314 30.1105C26.8429 30.11 26.8543 30.1089 26.8717 30.1078C26.8744 30.1477 26.8777 30.1942 26.8864 30.2406C27.0176 30.4598 26.8543 30.537 26.8265 30.7259C26.8276 30.7394 26.8282 30.7524 26.8293 30.7659C26.7628 30.8166 26.703 30.8744 26.6431 30.931C26.6589 30.9904 26.6589 30.9904 26.7019 31.0277C26.7694 30.9969 26.7879 30.9219 26.8674 30.897C26.8761 30.8495 26.8902 30.802 26.9044 30.7545C26.9213 30.7464 26.9381 30.7389 26.961 30.7308C26.9637 30.6838 26.9719 30.6363 26.9806 30.5958C27.366 30.3642 27.5674 30.5057 27.2049 30.0468C27.2174 29.9129 27.3442 29.772 27.4052 29.6371C27.4917 29.4454 27.5239 29.2603 27.5865 29.08C27.6153 29.0783 27.6442 29.0762 27.679 29.074C27.7944 29.2338 27.7944 29.2338 27.8423 29.338C27.8538 29.3375 27.8652 29.3364 27.8826 29.3353C27.8924 29.4816 27.9496 29.5518 28.016 29.6678C28.0149 29.7348 28.0138 29.8082 28.0187 29.8816C27.8837 29.9502 27.6529 30.1386 27.6061 30.3086C27.8957 30.3772 27.9321 30.0727 28.1581 29.9718C28.1564 29.9518 28.1559 29.9383 28.1548 29.9253C28.2223 29.8946 28.5386 29.7812 28.5554 29.6867C28.5669 29.6862 28.5788 29.6851 28.5963 29.684C28.5832 29.5777 28.5195 29.4622 28.5124 29.3623C28.3916 29.1291 28.5103 29.0341 28.611 28.8074C28.7645 28.6708 28.7786 28.4095 28.9615 28.3647C28.9986 28.5628 29.1428 28.721 29.2087 28.9175C29.0312 28.9553 28.9969 29.0514 28.9528 29.2549C28.8859 29.2991 28.8363 29.3358 28.8009 29.4114C28.814 29.4309 28.8325 29.4497 28.8516 29.4686C28.9398 29.4028 28.9741 29.3871 29.0002 29.2651C29.1232 29.1971 29.1553 29.155 29.2217 29.0173C29.2849 29.0065 29.4063 28.9925 29.4232 28.9045C29.6959 28.8138 29.7852 28.8419 29.7922 28.5202C29.7253 28.3906 29.7253 28.3906 29.6872 28.2594C29.6757 28.26 29.6643 28.261 29.6523 28.2616C29.6507 28.2351 29.6491 28.2152 29.648 28.1952C29.6594 28.1946 29.6714 28.1936 29.6828 28.193C29.697 27.9717 29.8309 27.8092 29.8385 27.5814C29.8499 27.5809 29.8614 27.5798 29.8734 27.5792C29.8978 27.4238 29.9457 27.2807 30.1058 27.4043C30.2898 27.8875 30.2898 27.8875 30.3426 27.9782C30.5587 27.9911 30.6556 27.9652 30.8254 27.8141C30.8151 27.6608 30.6311 27.4383 30.5217 27.3649C30.526 27.1706 30.5919 27.0329 30.6502 26.8618C30.6627 26.7074 30.6904 26.5115 30.8184 26.4299C30.9844 26.5665 31.0922 26.7803 31.1477 26.9978C31.2996 27.095 31.6311 26.7533 31.6578 26.6313C31.4923 26.4208 31.3693 26.2685 31.3491 25.9754C31.4248 25.2515 31.4847 25.4183 31.6099 25.591C31.7084 25.7325 32.0192 25.8987 31.9931 25.9911C31.8146 26.0062 31.7944 26.3085 31.8276 26.4807C31.8608 26.4586 31.9 26.4359 31.9392 26.4137C31.9692 26.2761 32.0671 26.1406 32.0639 26.0056L32.1766 25.821C32.299 25.7902 32.3018 25.6796 32.2348 25.4658C32.1434 25.4048 32.0579 25.3433 31.9724 25.2817C31.8978 25.0388 31.8935 24.5513 31.9517 24.2998C31.9746 24.2917 32.0029 24.283 32.0318 24.2814C32.1466 24.4283 32.2609 24.5745 32.3818 24.7273C32.397 24.9535 32.3497 25.0237 32.458 25.2439C32.568 25.2369 32.519 24.9459 32.513 24.859C32.7884 24.5476 32.7884 24.5476 32.8129 24.486C32.6757 24.3473 32.4836 24.3462 32.3611 24.1735C32.3127 23.9759 32.1374 23.619 32.2413 23.4387C32.4961 23.4225 32.6088 23.5429 32.8124 23.7108C32.9245 23.991 33.1651 23.4279 33.2005 23.3518C33.1847 23.1186 32.7688 23.0711 32.6311 22.9329C32.5652 22.7294 32.4988 22.5264 32.4324 22.3235C32.5914 22.1863 32.6055 22.2187 32.7819 22.3348C33.0492 22.4185 33.1662 22.4309 33.1787 22.7845C33.2147 22.8827 33.2185 22.8714 33.2604 22.9756C33.2522 23.0231 33.2495 23.07 33.2473 23.1235C33.2658 23.1424 33.2849 23.1613 33.3039 23.1872C33.3279 23.1991 33.3094 23.1251 33.3339 23.1435C33.3894 23.1062 33.4193 23.1256 33.4085 23.0528C33.3965 23.0468 33.4014 22.9939 33.3894 22.9945C33.3508 22.8563 33.3774 22.8525 33.3791 22.7057C33.3616 22.7067 33.3502 22.7073 33.3388 22.7084C33.3246 22.5021 33.3573 22.5065 33.4547 22.3202C33.4264 22.1615 33.3987 22.1831 33.2822 22.1772C33.2805 22.1572 33.28 22.1437 33.2789 22.1307C33.0965 22.0152 33.0965 22.0152 32.7786 21.8749C32.7351 21.7507 32.7345 21.653 32.7198 21.5202C32.7313 21.5196 32.7182 21.4975 32.7356 21.4964C32.7149 21.3642 32.6845 21.2589 32.6801 21.1121C32.7552 21.1072 32.7737 21.1196 32.8456 21.1553C32.8467 21.1688 32.8472 21.1817 32.8489 21.2017C33.0519 21.2827 33.2332 21.2978 33.3965 21.4748C33.4036 21.6616 33.3665 21.8846 33.4809 22.0314C33.5092 22.0228 33.538 22.0212 33.5729 22.019C33.5778 22.0055 33.5886 21.9915 33.599 21.9774C33.568 21.6114 33.4656 21.2972 33.7503 21.0451C33.7035 20.9544 33.378 20.955 33.25 20.8692C33.0535 20.8816 33.0606 20.8206 32.9996 20.6106C32.9882 20.6111 32.9768 20.6122 32.9648 20.6127C32.9147 20.4778 32.734 20.2996 32.7231 20.1398C33.0073 20.0357 33.219 20.162 33.4357 20.189C33.5103 20.0907 33.5342 20.0157 33.5723 19.8861C33.7835 19.7458 33.5462 19.4197 33.8848 19.3517C33.9795 19.6335 34.0748 19.9212 34.17 20.21C34.1869 20.2322 34.1891 20.2851 34.2179 20.2937C34.3938 20.3466 34.7716 20.1652 34.9338 20.1258C34.9474 20.1517 34.9741 20.1463 34.9931 20.1717C34.8216 20.3833 34.7253 20.5026 34.6447 20.7752C34.5603 20.8206 34.4765 20.8659 34.3981 20.9113C34.1156 20.949 33.9267 21.0748 34.0116 21.464C33.8908 21.4786 33.9338 21.5159 33.9305 21.6363C33.8521 21.768 33.7253 21.87 33.8293 22.0303C34.0541 22.0805 34.041 21.619 34.1472 21.4954C34.1461 21.4819 34.1455 21.4689 34.1444 21.4554C34.1668 21.4408 34.1891 21.4327 34.2179 21.4241C34.2168 21.4106 34.2163 21.3976 34.2152 21.3842C34.3159 21.3312 34.6099 21.1186 34.7106 21.1455C34.7721 21.3626 34.5168 21.7129 34.4455 21.9445C34.2348 22.0913 33.9474 22.1432 33.8058 22.3661C33.8222 22.432 33.838 22.4978 33.8543 22.5637C33.8657 22.5626 33.8777 22.5621 33.8891 22.5615C33.8902 22.575 33.8913 22.588 33.8924 22.6079C34.0786 22.6096 34.3529 22.6258 34.5075 22.5092C34.5424 22.507 34.5772 22.5048 34.6121 22.5092C34.6148 22.5491 34.6235 22.5885 34.6316 22.6285C34.5701 22.7461 34.4923 22.8044 34.3927 22.8773C34.1978 23.1769 34.1978 23.1769 34.1488 23.2201C33.8619 23.2784 33.5113 23.1667 33.5402 23.5861C33.5881 23.6903 33.636 23.801 33.6845 23.9111C33.8401 23.8949 34.0797 23.8263 34.2468 23.8021C34.2653 24.0682 33.9223 24.3305 33.752 24.4752C33.286 24.5449 33.2147 24.4353 33.1548 24.9206C33.1738 24.946 33.1929 24.9719 33.2179 24.9967C33.3154 24.9773 33.3709 24.94 33.4542 24.8817C33.6044 24.8655 33.7541 24.8493 33.9104 24.8331C33.918 24.9465 33.8254 25.0393 33.7601 25.1036C33.6676 25.5376 33.1368 25.5975 32.8058 25.6855C32.8069 25.699 32.8075 25.712 32.8086 25.7255C32.6306 25.7568 32.6316 25.7767 32.6229 25.9846C32.519 26.1649 32.0938 26.4056 32.1504 26.6426C32.3241 26.6318 32.4673 26.4289 32.5489 26.2631C32.7547 26.2102 33.0133 26.167 33.2168 26.2545C33.2212 26.3144 33.2179 26.3549 33.1923 26.4029C32.986 26.5363 32.8167 26.6939 32.6284 26.8262C32.4319 26.8386 32.2348 26.851 32.0437 26.8629C31.9572 26.9552 31.9098 27.2829 31.943 27.4281C32.1417 27.4421 32.3676 27.3509 32.5484 27.4394C32.55 27.4594 32.5516 27.4858 32.5592 27.5123C32.4999 27.576 32.4406 27.6467 32.3872 27.7169C32.1069 27.868 32.0443 28.0597 31.685 27.9884C31.4291 28.0716 31.2354 27.8761 31.0661 28.2011C31.0753 28.3345 31.0617 28.4754 31.1385 28.5779C31.2903 28.5887 31.4422 28.599 31.5941 28.6092C31.5952 28.6227 31.5963 28.6357 31.5974 28.6557C31.6088 28.6551 31.6202 28.654 31.6322 28.6535C31.6338 28.6735 31.6349 28.6934 31.6365 28.7199C31.5745 28.7437 31.5124 28.7744 31.4564 28.8047C31.2119 28.9736 30.937 29.1982 30.6474 29.2165C30.4166 29.1577 30.1782 29.0724 29.9512 29.1534C29.7367 29.3342 29.5957 29.4832 29.3382 29.5464C29.2838 29.6031 29.2403 29.6462 29.1662 29.6641C29.1679 29.6905 29.17 29.7175 29.1722 29.7504C29.2462 29.7256 29.286 29.7164 29.3693 29.738C29.66 29.5658 29.8412 29.501 30.1619 29.6813C30.237 29.6765 30.3121 29.6651 30.3644 29.7488C30.342 29.9307 29.6453 30.2017 29.4629 30.2536C29.2228 30.1418 29.0617 29.9977 28.8031 30.0409C28.7198 30.0997 28.6453 30.198 28.5179 30.293C28.4264 30.3189 28.1668 30.3415 28.1357 30.4905C28.0671 30.5084 27.8859 30.5731 27.9457 30.6897C28.0029 30.6795 28.0606 30.6692 28.1243 30.6654C28.133 30.6244 28.1809 30.5818 28.1896 30.5407C28.2637 30.5229 28.3001 30.5138 28.3807 30.5019C28.6131 30.3335 28.961 30.5726 29.2092 30.6304C29.2103 30.6439 29.2114 30.6568 29.2125 30.6768C29.2707 30.68 29.2707 30.68 29.2849 30.7124C29.1216 30.7896 28.9648 30.8798 28.7857 30.8911C28.4879 31.0433 28.3872 31.0968 28.0748 30.9559C27.7775 30.9413 27.6719 30.8474 27.5739 31.2015C27.3148 31.3181 27.1504 31.1281 26.9011 31.391C26.9196 31.4099 26.9387 31.4288 26.9577 31.4541C27.1836 31.4401 27.4634 31.5335 27.5995 31.3111C27.6659 31.3467 27.74 31.3316 27.8069 31.3742C28.0617 31.358 28.3306 31.5551 28.5859 31.6263C28.5876 31.6463 28.5892 31.6733 28.5908 31.6998C28.4014 31.7316 28.1874 31.839 28.0203 31.9432C27.8712 31.9724 27.5473 32.0868 27.4749 32.1311C27.2043 32.0879 27.0481 31.8369 26.8124 31.7116C26.6861 31.479 26.5032 31.4433 26.292 31.5837C26.2343 31.5875 26.1766 31.5977 26.1194 31.608C26.1178 31.588 26.1172 31.5745 26.1161 31.5616C25.9539 31.6587 25.8091 31.6679 25.8238 31.8806C26.0067 32.0096 26.2985 32.2785 26.4994 32.3195C26.4999 32.333 26.501 32.3459 26.5026 32.3659C26.6186 32.3584 26.8178 32.5532 26.9153 32.6207C27.1504 32.7465 27.3916 32.8717 27.6327 32.997C27.6338 33.0105 27.6349 33.0299 27.6365 33.0504C27.5963 33.1039 27.5293 33.1298 27.513 33.1265C27.5032 33.1244 27.5391 33.1044 27.5326 33.0931C27.5211 33.0747 27.5108 33.0499 27.4917 33.0353C27.4689 33.0175 27.4188 33.0121 27.4166 32.9775C27.2403 32.9484 26.8532 32.8194 26.7149 33.0018C26.802 33.1703 27.0731 33.1141 27.2277 33.1584C27.3371 33.1449 27.4673 33.1001 27.4858 33.1184C27.39 33.2448 26.9539 33.1805 26.8314 33.1751C26.3976 32.9484 26.1303 32.5306 25.6948 32.2839C25.5799 32.137 25.4003 32.055 25.243 31.9643C25.0323 32.0312 24.8146 32.0782 24.6583 32.2552C24.2974 32.4183 23.9256 32.6758 23.7187 33.0564C23.5756 33.1724 22.4901 33.4547 22.5533 33.0159C22.6632 33.0088 22.7628 32.936 22.8391 32.8577C23.0094 32.8005 23.1276 32.652 23.2767 32.5424C23.2756 32.5289 23.2745 32.516 23.28 32.5019C23.4422 32.4917 23.5505 32.3778 23.7111 32.3476C24.0633 32.1446 24.0633 32.1446 24.2452 31.9994C24.4395 31.947 24.4395 31.947 24.7204 31.8093C24.7177 31.7694 24.7149 31.7295 24.7128 31.696C24.0906 31.608 24.0906 31.608 24.0241 31.5724C23.8467 31.6101 23.4732 31.6803 23.3088 31.5702C23.1178 31.5821 23.1472 31.7543 23.2266 31.9033C23.323 31.9508 23.4193 32.0048 23.5222 32.0582C23.5418 32.3443 23.3676 32.3557 23.176 32.2806C23.1395 32.089 23.0835 31.852 22.9855 31.6911C22.9447 31.6938 22.9044 31.696 22.8695 31.6981C22.7966 31.9033 22.9027 32.0971 22.7748 32.266C22.4847 32.2774 22.4847 32.2774 22.4487 32.2596C22.3682 31.9303 22.734 31.9276 22.7138 31.6344C22.4825 31.649 22.3518 31.7775 22.1891 31.9551C21.894 32.0604 21.5886 32.0998 21.2735 32.0863C21.0873 31.9977 20.9817 31.8973 20.7732 31.9103C20.661 31.8034 20.6284 31.7456 20.4858 31.6209C20.3012 31.5589 20.2294 31.5232 20.1521 31.3278C20.0535 31.2468 19.8859 31.1707 19.8472 31.0325C19.93 30.8803 19.7868 30.7421 19.845 30.578C19.8728 30.5629 19.9071 30.5542 19.9414 30.5451C19.9425 30.5586 19.943 30.5715 19.9447 30.5915C20.0595 30.571 20.2043 30.5618 20.2789 30.4635C20.237 30.3594 20.249 30.2784 20.207 30.1807C20.1276 30.1256 20.1276 30.1256 19.8162 29.9912C19.5914 29.7645 19.4411 29.8611 19.2511 30.1402C19.2969 30.5521 19.3399 30.5893 18.9561 30.5866C18.8527 30.2654 19.1091 30.2692 19.1368 29.9934C19.2005 29.9091 19.2887 29.8368 19.3143 29.7817C19.2941 29.7429 19.28 29.7035 19.2658 29.6711C19.1962 29.6754 19.127 29.6797 19.0633 29.684C19.0029 29.5674 18.7351 29.7315 18.6572 29.7828C18.5462 29.7763 18.4417 29.7763 18.3371 29.7763C18.2539 29.5809 18.1483 29.6479 17.9806 29.6651C17.9795 29.6516 17.9784 29.6387 17.9779 29.6252C17.795 29.5896 17.6796 29.4298 17.4896 29.3682C17.476 29.3358 17.4618 29.3035 17.4542 29.277C17.3535 29.25 17.1003 28.945 17.0405 28.8349C17.0524 28.667 17.0808 28.491 17.0573 28.3188C17.2185 28.2951 17.4928 28.1444 17.6344 28.2556C17.6523 28.3388 17.6752 28.4241 17.6986 28.5094Z" fill="#058D45"/>
<path d="M30.8813 27.1818L30.9265 27.1699L30.9706 27.2509L30.9352 27.2973L30.8743 27.301L30.8813 27.1818Z" fill="white"/>
<path d="M22.9141 33.1901C22.864 33.1399 22.8178 33.1426 22.7535 33.1334C22.7574 33.1064 22.7617 33.0795 22.7661 33.059C22.8967 33.0174 23.2843 32.8992 23.4057 32.9786C23.4013 32.9991 23.4204 33.0552 23.416 33.0751C23.3583 33.0789 23.3414 33.0832 23.3213 33.1313C23.1836 33.1604 23.0453 33.155 22.9141 33.1901Z" fill="white"/>
<path d="M22.6316 32.2049C22.5875 32.1542 22.5875 32.1542 22.5782 32.1078C22.6447 31.9767 22.6795 32.0549 22.6866 32.1612C22.6643 32.1758 22.6479 32.1904 22.6316 32.2049Z" fill="white"/>
<path d="M21.8571 31.7583C21.6001 31.6606 21.3524 31.6898 21.1222 31.5505C21.095 31.4054 21.095 31.4054 21.1037 31.3644C21.2033 31.3784 21.2055 31.4048 21.2746 31.4874C21.4668 31.4885 21.6339 31.5516 21.8201 31.5532C21.9681 31.591 22.102 31.509 22.2278 31.5678C22.23 31.5942 22.2316 31.6212 22.2392 31.6471C22.1227 31.7286 21.9953 31.7432 21.8571 31.7583Z" fill="white"/>
<path d="M20.8161 31.4161C20.7126 31.3492 20.6876 31.3239 20.6381 31.1933C20.6767 31.0773 20.8101 31.1555 20.877 31.1987C20.8809 31.2521 20.8847 31.312 20.889 31.3719C20.8607 31.3865 20.8384 31.4016 20.8161 31.4161Z" fill="white"/>
<path d="M23.1382 31.1095C23.0729 30.9999 23.0429 30.9082 23.0739 30.7658C23.1191 30.7496 23.1414 30.728 23.1899 30.7582C23.1975 30.8721 23.2019 31.0253 23.1382 31.1095Z" fill="white"/>
<path d="M20.534 31.1196C20.4115 31.0273 20.1709 30.8282 20.3097 30.6458C20.3385 30.6442 20.3674 30.642 20.4028 30.6469C20.4246 30.7122 20.4104 30.7602 20.4207 30.8261C20.51 30.941 20.5585 30.9647 20.5988 31.0489C20.5775 31.07 20.5557 31.0915 20.534 31.1196Z" fill="white"/>
<path d="M19.0967 30.5075C19.0782 30.4951 19.0602 30.4832 19.0482 30.4773C19.0444 30.4239 19.0444 30.4239 19.07 30.3688C19.0934 30.3672 19.1163 30.3656 19.1397 30.3645C19.1473 30.3904 19.1554 30.4233 19.1631 30.4568C19.1407 30.4713 19.119 30.4865 19.0967 30.5075Z" fill="white"/>
<path d="M22.1923 30.0254C22.0862 29.9186 21.8869 29.9779 21.7497 29.9331C21.6877 29.877 21.6877 29.877 21.5859 29.8295C21.5843 29.8031 21.5826 29.7831 21.5815 29.7632C21.6763 29.7038 22.2391 29.7756 22.2315 30.0033C22.2146 30.0108 22.2032 30.0184 22.1923 30.0254Z" fill="white"/>
<path d="M20.6374 30.0764C20.614 30.071 20.5961 30.0656 20.5781 30.0602C20.5705 30.0338 20.5634 30.0144 20.5618 29.9944C20.6129 29.9777 20.6641 29.9609 20.7213 29.9442C20.7588 29.982 20.7588 29.982 20.761 30.0154C20.7234 30.0581 20.7234 30.0581 20.6374 30.0764Z" fill="white"/>
<path d="M21.387 29.8155C21.356 29.7842 21.3484 29.7578 21.356 29.7038C21.4192 29.693 21.4622 29.6439 21.5231 29.6866C21.5079 29.7211 21.4992 29.7616 21.4905 29.802C21.4562 29.8042 21.4213 29.8063 21.387 29.8155Z" fill="white"/>
<path d="M18.611 29.6023C18.5555 29.5522 18.5054 29.502 18.4559 29.4583C18.4542 29.4383 18.4597 29.4248 18.464 29.4108C18.5773 29.3638 18.7389 29.4334 18.8625 29.4593C18.8641 29.4858 18.8663 29.5128 18.8685 29.5457C18.783 29.5646 18.697 29.5834 18.611 29.6023Z" fill="white"/>
<path d="M19.071 29.5272C19.0476 29.5217 19.0237 29.5168 19.0003 29.5114C18.9986 29.4847 18.9965 29.4575 18.9954 29.4374C19.0237 29.4287 19.0585 29.4265 19.0933 29.4243C19.095 29.451 19.0972 29.4782 19.0993 29.5114C19.0874 29.513 19.0765 29.5206 19.071 29.5272Z" fill="white"/>
<path d="M30.7896 28.4822C30.8446 28.4385 30.8445 28.4385 30.9023 28.4282C30.9044 28.4617 30.9126 28.4946 30.9208 28.5275C30.9039 28.5351 30.887 28.5432 30.8756 28.5502C30.8663 28.5842 30.8631 28.6246 30.8603 28.6646C30.8375 28.6727 30.8152 28.6872 30.7934 28.7023C30.6981 28.7552 30.6655 28.7838 30.5549 28.7908C30.4787 28.8691 30.4787 28.8691 30.4336 28.8853C30.4091 28.8669 30.3846 28.848 30.3606 28.8367C30.3584 28.7164 30.6965 28.5615 30.7896 28.4822Z" fill="white"/>
<path d="M30.0659 28.6957C30.0578 28.6625 30.0561 28.6358 30.054 28.6086C30.0714 28.6075 30.0948 28.6059 30.1176 28.6042C30.1193 28.6244 30.1209 28.6511 30.1225 28.6783C30.0997 28.6799 30.0828 28.6881 30.0659 28.6957Z" fill="white"/>
<path d="M18.1401 29.4311C18.1695 29.3491 18.1695 29.3491 18.1782 29.2217C18.2011 29.2136 18.2294 29.205 18.2583 29.2034C18.3138 29.2465 18.3138 29.2465 18.3421 29.3253C18.3013 29.4073 18.2202 29.4127 18.1401 29.4311Z" fill="white"/>
<path d="M19.563 29.2412C19.5609 29.2078 19.5587 29.1749 19.5625 29.1479C19.5794 29.1403 19.5963 29.1322 19.6131 29.1247C19.6235 29.1042 19.6333 29.0831 19.6442 29.0691C19.6621 29.075 19.6801 29.0804 19.7035 29.0853C19.7002 29.2056 19.6648 29.2817 19.587 29.34C19.5794 29.3071 19.5712 29.2741 19.563 29.2412Z" fill="white"/>
<path d="M30.1361 28.5297C30.0566 28.3009 30.1611 28.3009 30.2177 28.1099C30.2525 28.1077 30.2874 28.1056 30.3217 28.1034C30.326 28.2502 30.2357 28.3764 30.1927 28.5124C30.1698 28.5146 30.1529 28.5221 30.1361 28.5297Z" fill="white"/>
<path d="M19.7119 28.8643C19.7016 28.7979 19.6912 28.7321 19.6814 28.6722C19.6509 28.6473 19.6199 28.6225 19.5954 28.6042C19.5932 28.5707 19.591 28.5378 19.5889 28.5108C19.6874 28.5044 19.7952 28.5513 19.8382 28.6689C19.817 28.697 19.7957 28.725 19.7745 28.7531C19.781 28.7661 19.7881 28.7855 19.7957 28.8054C19.8317 28.9036 19.8197 28.9846 19.725 28.9635C19.7168 28.9306 19.7141 28.8977 19.7119 28.8643Z" fill="white"/>
<path d="M31.5072 27.755C31.4745 27.7037 31.4745 27.7037 31.4827 27.6497C31.6177 27.5812 31.6547 27.3583 31.8436 27.3999C31.8528 27.4215 31.8926 27.4414 31.8828 27.4603C31.849 27.5283 31.6814 27.5877 31.6661 27.6983C31.609 27.715 31.5578 27.7318 31.5072 27.755Z" fill="white"/>
<path d="M19.4638 28.0439C19.4627 28.0304 19.4616 28.0175 19.4676 28.0104C19.485 28.0094 19.5024 28.0083 19.5198 28.0072C19.5645 27.9775 19.5694 27.964 19.6336 27.9732C19.6635 28.0714 19.6635 28.0714 19.6576 28.1524C19.6075 28.182 19.5362 28.2468 19.4768 28.2306C19.4757 28.2106 19.4741 28.1907 19.473 28.1772C19.4376 28.1658 19.4017 28.1551 19.3663 28.1437C19.3238 28.0326 19.3238 28.0326 19.3168 27.9327C19.3658 27.97 19.4148 28.0072 19.4638 28.0439Z" fill="white"/>
<path d="M31.1356 27.3301C31.1275 27.2972 31.1193 27.2643 31.1117 27.2314C31.1346 27.2233 31.1629 27.2146 31.1917 27.213C31.1933 27.2394 31.1961 27.2729 31.1982 27.3063C31.1748 27.3144 31.1525 27.3225 31.1356 27.3301Z" fill="white"/>
<path d="M18.9829 27.5527C19.0319 27.59 19.1435 27.6029 19.2523 27.6628C19.2545 27.6963 19.2632 27.7357 19.2714 27.7751C19.2306 27.7778 19.1908 27.7869 19.1505 27.7961C19.1435 27.7767 19.1369 27.7637 19.1299 27.7508C19.083 27.747 19.0368 27.7502 18.9965 27.7524C18.9818 27.7065 18.9671 27.6607 18.9524 27.6148C18.9622 27.5943 18.9725 27.5732 18.9829 27.5527Z" fill="white"/>
<path d="M16.6698 27.7383C16.6524 27.6525 16.6524 27.6525 16.672 27.598C16.7008 27.5964 16.7297 27.5943 16.7591 27.5927C16.7613 27.6261 16.7634 27.659 16.7662 27.6925C16.7319 27.7076 16.6981 27.7232 16.6698 27.7383Z" fill="white"/>
<path d="M18.9414 27.3744C18.8032 27.3901 18.7868 27.4111 18.7068 27.4295C18.6339 27.3804 18.5609 27.3383 18.4885 27.2962C18.4923 27.2622 18.4961 27.2358 18.5059 27.2082C18.6393 27.1996 18.7983 27.2298 18.9186 27.2892C18.9257 27.3156 18.9333 27.3421 18.9414 27.3744Z" fill="white"/>
<path d="M16.8145 26.7061C16.7334 26.6241 16.6365 26.657 16.5461 26.6095C16.5891 26.2993 17.0415 26.6246 16.8145 26.7061Z" fill="white"/>
<path d="M16.3408 26.582C16.1563 26.5199 16.0512 26.4266 15.8809 26.317C15.8841 26.2766 15.8841 26.2766 15.9326 26.2205C16.0322 26.2345 16.0393 26.2469 16.1138 26.323C16.2271 26.3629 16.3403 26.4088 16.4541 26.4552C16.4503 26.4822 16.4459 26.5091 16.4481 26.5426C16.4083 26.5512 16.3746 26.5663 16.3408 26.582Z" fill="white"/>
<path d="M17.1944 26.3142C17.1568 26.2765 17.1345 26.2041 17.1781 26.1615C17.196 26.1669 17.214 26.1728 17.2314 26.1782C17.2336 26.2047 17.2352 26.2317 17.2428 26.2576C17.2265 26.2721 17.2107 26.2932 17.1944 26.3142Z" fill="white"/>
<path d="M32.9331 25.2243C32.9309 25.1909 32.9342 25.1574 32.9385 25.1304C32.9559 25.1294 32.9734 25.1283 32.9908 25.1272C33.0235 25.1785 33.1057 25.2346 33.0986 25.302C33.0817 25.3101 33.0267 25.3123 33.0153 25.3198C32.9657 25.3565 32.9287 25.4121 32.8765 25.4153C32.8814 25.315 32.8797 25.2945 32.9331 25.2243Z" fill="white"/>
<path d="M15.7165 26.1261C15.6801 26.1018 15.649 26.077 15.6186 26.0522C15.6109 25.9459 15.6398 25.8569 15.6621 25.7554C15.6844 25.7408 15.7073 25.7328 15.7356 25.7241C15.7367 25.7376 15.7372 25.7506 15.7389 25.7705C15.7503 25.7694 15.7623 25.7689 15.7797 25.7678C15.7917 25.8606 15.8096 25.9529 15.8281 26.0522C15.7851 26.1018 15.7851 26.1018 15.7165 26.1261Z" fill="white"/>
<path d="M15.2231 26.1381C15.2209 26.1114 15.2253 26.0842 15.2296 26.0635C15.2639 26.0542 15.2982 26.0455 15.3331 26.0433C15.3347 26.07 15.3369 26.0972 15.3391 26.1304C15.2982 26.1337 15.258 26.1359 15.2231 26.1381Z" fill="white"/>
<path d="M17.4551 25.6157C17.4045 25.552 17.423 25.484 17.4415 25.416C17.4529 25.4155 17.4649 25.4144 17.4823 25.4133C17.4834 25.4268 17.484 25.4398 17.4856 25.4597C17.497 25.4592 17.509 25.4651 17.527 25.4705C17.5237 25.504 17.5259 25.5374 17.5286 25.5774C17.4992 25.5865 17.4774 25.6011 17.4551 25.6157Z" fill="white"/>
<path d="M15.5109 25.5039C15.475 25.4926 15.4456 25.4813 15.4156 25.4699C15.4058 25.3301 15.5174 25.3431 15.6176 25.3571C15.6198 25.3906 15.622 25.4235 15.6247 25.457C15.5844 25.4726 15.5452 25.4883 15.5109 25.5039Z" fill="white"/>
<path d="M32.9131 24.2427C32.8168 24.1953 32.8483 23.9994 32.8472 23.899C32.8875 23.8898 32.93 23.8731 32.9763 23.8699C32.9719 23.9773 32.9991 24.0582 32.9953 24.172C32.9779 24.1731 32.9245 24.2422 32.9131 24.2427Z" fill="white"/>
<path d="M33.4048 24.212C33.3939 24.0523 33.4636 23.8376 33.6051 23.7885C33.6111 23.8117 33.6606 23.9185 33.6623 23.939C33.6677 24.0011 33.5719 24.0496 33.555 24.1155C33.5382 24.1235 33.5273 24.1306 33.5158 24.1381C33.5169 24.1516 33.518 24.1646 33.5191 24.1845C33.4794 24.1937 33.4391 24.2029 33.4048 24.212Z" fill="white"/>
<path d="M17.1624 24.993C17.1543 24.9598 17.1521 24.9266 17.1499 24.8928C17.1673 24.8918 17.1907 24.8901 17.2136 24.889C17.2158 24.9157 17.2174 24.9429 17.219 24.9696C17.1962 24.9778 17.1798 24.9854 17.1624 24.993Z" fill="white"/>
<path d="M33.7245 22.9348C33.7164 22.815 33.6706 22.7379 33.7937 22.6699C33.8922 22.6639 33.9069 22.7443 33.9238 22.8231C33.8704 22.8933 33.804 22.9095 33.7245 22.9348Z" fill="white"/>
<path d="M16.3593 23.1903C16.3413 23.1849 16.3294 23.179 16.3174 23.173C16.3206 23.139 16.3245 23.1056 16.3277 23.0721C16.368 23.0694 16.4088 23.0667 16.4491 23.0646C16.4459 23.098 16.442 23.132 16.4442 23.1649C16.4159 23.1736 16.3876 23.1822 16.3593 23.1903Z" fill="white"/>
<path d="M15.114 22.8345C15.1102 22.7811 15.107 22.7277 15.1031 22.6748C15.1266 22.6802 15.1505 22.6851 15.1799 22.6899C15.1886 22.7293 15.2028 22.7687 15.2175 22.8146C15.1826 22.8167 15.1483 22.8254 15.114 22.8345Z" fill="white"/>
<path d="M15.627 22.4348C15.6188 22.4016 15.6166 22.3678 15.615 22.3411C15.6384 22.3395 15.6613 22.3379 15.6847 22.3368C15.6863 22.3569 15.6879 22.3836 15.6896 22.4108C15.6667 22.419 15.6438 22.4272 15.627 22.4348Z" fill="white"/>
<path d="M16.2514 22.0403C16.1817 21.8708 16.2264 21.8411 16.2394 21.6933C16.203 21.669 16.1665 21.6442 16.136 21.6264C16.1278 21.5935 16.1262 21.567 16.124 21.54C16.1638 21.5244 16.2035 21.5152 16.2438 21.5055C16.4387 21.6334 16.3369 21.8471 16.2911 22.0241C16.2737 22.0257 16.2623 22.0332 16.2514 22.0403Z" fill="white"/>
<path d="M34.0048 20.8306C33.9869 20.8182 33.9743 20.8057 33.9618 20.7998C33.9499 20.6266 34.062 20.5473 34.0979 20.3908C34.1202 20.3762 34.1426 20.3681 34.1714 20.3595C34.2591 20.4475 34.1066 20.7038 34.0794 20.8122C34.062 20.8138 34.0217 20.823 34.0048 20.8306Z" fill="white"/>
<path d="M33.6679 20.8316C33.5541 20.7787 33.498 20.5947 33.4997 20.4474C33.6516 20.2909 33.749 20.4615 33.7457 20.6692C33.7425 20.7097 33.7321 20.7539 33.7354 20.8009C33.7131 20.809 33.6902 20.8171 33.6679 20.8316Z" fill="white"/>
<path d="M14.5199 21.9684C14.3996 21.8222 14.2363 21.4784 14.5259 21.4601C14.5602 21.6182 14.4976 21.8092 14.5607 21.9657C14.5433 21.9673 14.5313 21.9678 14.5199 21.9684Z" fill="white"/>
<path d="M14.5055 21.1676C14.4212 21.126 14.456 20.9501 14.5665 21.037C14.5627 21.0704 14.5654 21.1039 14.5676 21.1373C14.5447 21.1449 14.5224 21.153 14.5055 21.1676Z" fill="white"/>
<path d="M16.3859 21.0296C16.3778 20.9964 16.3756 20.9632 16.3734 20.9295C16.3908 20.9284 16.4137 20.9267 16.4371 20.9257C16.4387 20.9523 16.4409 20.9796 16.4425 21.0062C16.4197 21.0144 16.4028 21.022 16.3859 21.0296Z" fill="white"/>
<path d="M24.7477 15.7915C28.3999 15.7915 31.389 18.6996 31.4799 22.3002C29.9078 21.4867 27.8599 20.766 25.5915 20.3007C23.0074 19.77 20.5185 19.6421 18.5507 19.8586C19.5795 17.4715 21.972 15.7915 24.7477 15.7915Z" fill="#2B4CA0"/>
<path d="M24.8359 16.6628L25.0923 17.4453L25.9208 17.4442L25.2485 17.9228L25.5066 18.7085L24.837 18.2266L24.8354 18.2272L24.8348 18.2266L24.1652 18.7085L24.4265 17.9309L23.751 17.4442L24.579 17.4453L24.8359 16.6628Z" fill="white"/>
<path d="M25.0082 23.1636L25.1481 23.7415L25.7442 23.7868L25.2331 24.0933L25.374 24.6734L24.9195 24.2886L24.9184 24.2892L24.9179 24.2886L24.4083 24.5978L24.6413 24.0534L24.183 23.6649L24.7791 23.7124L25.0082 23.1636Z" fill="white"/>
<path d="M28.1492 23.3843L28.3642 24L29.0202 23.9865L28.4954 24.3755L28.7121 24.9939L28.1742 24.6227L28.1732 24.6232L28.1726 24.6227L27.6495 25.0144L27.8444 24.3944L27.3016 24.0194L27.9581 24.0081L28.1492 23.3843Z" fill="white"/>
<path d="M24.6836 26.5791L24.8463 27.1689L25.4615 27.1969L24.946 27.5283L25.1093 28.1208L24.6291 27.7398H24.6286H24.6281L24.1136 28.0743L24.3352 27.5061L23.8507 27.1219L24.4658 27.1511L24.6836 26.5791Z" fill="white"/>
<path d="M20.415 22.3765L20.599 23.0067L21.2593 23.0267L20.7111 23.3909L20.8967 24.0239L20.3752 23.6224L20.3742 23.623H20.3736L19.8276 23.9899L20.0557 23.3769L19.5293 22.9716L20.1902 22.9938L20.415 22.3765Z" fill="white"/>
</g>
<path d="M44.6189 37.2651L43.8835 36.5875L44.6189 37.2651C45.8742 35.9026 46.4495 34.2029 46.7274 32.0274C47 29.8925 47 27.1635 47 23.6564V23.5833V23.5102C47 20.0031 47 17.2742 46.7274 15.1393C46.4495 12.9638 45.8742 11.2641 44.6189 9.90161C44.4526 9.72109 44.2789 9.54744 44.0984 9.38111C42.7359 8.12578 41.0362 7.55046 38.8607 7.27262C36.7258 6.99998 33.9968 6.99999 30.4897 7L30.4167 7H17.5833L17.5103 7C14.0032 6.99999 11.2742 6.99998 9.13931 7.27262C6.9638 7.55046 5.26409 8.12578 3.90161 9.38111C3.72109 9.54744 3.54744 9.72109 3.38111 9.90161C2.12578 11.2641 1.55046 12.9638 1.27262 15.1393C0.999977 17.2742 0.999987 20.0032 1 23.5103L1 23.5833L1 23.6564C0.999987 27.1635 0.999977 29.8925 1.27262 32.0274C1.55046 34.2029 2.12578 35.9026 3.38111 37.2651C3.54744 37.4456 3.72109 37.6192 3.90161 37.7856C5.26408 39.0409 6.9638 39.6162 9.13931 39.894C11.2742 40.1667 14.0032 40.1667 17.5102 40.1667H17.5833H30.4167H30.4898C33.9968 40.1667 36.7258 40.1667 38.8607 39.894C41.0362 39.6162 42.7359 39.0409 44.0984 37.7856C44.2789 37.6192 44.4526 37.4456 44.6189 37.2651Z" stroke="#042B60" stroke-width="2"/>
<defs>
<clipPath id="clip0_164_2502">
<path d="M2 23.5833C2 16.4454 2 12.8764 4.11654 10.5792C4.26439 10.4187 4.41874 10.2644 4.57921 10.1165C6.8764 8 10.4454 8 17.5833 8H30.4167C37.5546 8 41.1236 8 43.4208 10.1165C43.5813 10.2644 43.7356 10.4187 43.8835 10.5792C46 12.8764 46 16.4454 46 23.5833C46 30.7213 46 34.2903 43.8835 36.5875C43.7356 36.7479 43.5813 36.9023 43.4208 37.0501C41.1236 39.1667 37.5546 39.1667 30.4167 39.1667H17.5833C10.4454 39.1667 6.8764 39.1667 4.57921 37.0501C4.41874 36.9023 4.26439 36.7479 4.11654 36.5875C2 34.2903 2 30.7213 2 23.5833Z" fill="white"/>
</clipPath>
</defs>
</svg>
