<svg width="48" height="48" viewBox="0 0 48 48" fill="none" xmlns="http://www.w3.org/2000/svg">
<g clip-path="url(#clip0_164_4166)">
<path d="M46 7.99902H2.00464V39.1657H46V7.99902Z" fill="white"/>
<path d="M46 8.03918H2.00464V10.4304H46V8.03918Z" fill="black"/>
<path d="M46 12.8217H2.00464V15.2129H46V12.8217Z" fill="black"/>
<path d="M46 17.6042H2.00464V19.9955H46V17.6042Z" fill="black"/>
<path d="M46 22.3867H2.00464V24.778H46V22.3867Z" fill="black"/>
<path d="M46 27.1692H2.00464V29.5604H46V27.1692Z" fill="black"/>
<path d="M46 31.9515H2.00464V34.3428H46V31.9515Z" fill="black"/>
<path d="M46 36.7339H2.00464V39.1251H46V36.7339Z" fill="black"/>
<path d="M19.2839 7.99902H2V20.0654H19.2839V7.99902Z" fill="#DA251D"/>
<path d="M15.7091 14.0324C15.7091 15.3827 15.1754 16.6777 14.2254 17.6325C13.2754 18.5873 11.9869 19.1237 10.6433 19.1237C9.29978 19.1237 8.01128 18.5873 7.06125 17.6325C6.11123 16.6777 5.57751 15.3827 5.57751 14.0324C5.57751 12.6821 6.11123 11.3872 7.06125 10.4324C8.01128 9.47756 9.29978 8.94116 10.6433 8.94116C11.9869 8.94116 13.2754 9.47756 14.2254 10.4324C15.1754 11.3872 15.7091 12.6821 15.7091 14.0324Z" fill="white"/>
<path d="M9.23382 9.65446L9.33098 9.63818L9.31479 9.7521L9.41194 9.83347L9.44433 9.93112L9.37956 10.0776L9.36337 10.224L9.42814 10.4193L9.57387 10.517L9.76818 10.4844L10.0111 10.3705L10.2863 10.4193L10.254 10.2891L10.4159 10.2566L10.4645 10.2078L10.6588 10.3217L10.7883 10.2891L10.9664 10.3054L11.096 10.159L11.1122 10.045L11.2903 9.86602L11.436 10.0288L11.4522 10.2403L11.5494 10.4356L11.6627 10.4844L11.5655 10.6634L11.4036 10.8262L11.3388 10.9075L11.355 11.054H11.4522L11.517 10.8587H11.7275L11.9704 10.875V10.9889L11.9218 11.1028L11.8084 11.1842L11.9704 11.1517L12.0513 11.0052L12.2294 10.9726L12.6181 11.1191L12.7152 11.2167L12.8286 11.1842L12.8933 11.3144V11.4283L12.9419 11.4771L13.12 11.412L13.3143 11.4771L13.5734 11.5422L13.8649 11.526L14.2049 11.7538L14.3668 11.9002L14.5773 12.063L14.8526 12.1444L14.9822 12.3234L15.0307 12.6L14.966 12.8929L14.7393 13.1533L14.5935 13.2998L14.3992 13.5276L14.2535 13.7717L14.0916 13.8368L13.9944 13.967L14.0106 14.146V14.3901L13.962 14.6831L13.8811 14.9434L13.7515 15.1387L13.7677 15.3015L13.5896 15.513L13.4601 15.7083V15.871L13.2658 15.9687L13.2172 16.0338V16.0663L13.0553 16.0826L12.8286 16.0338L12.7152 16.0989L12.6019 16.1152L12.5047 16.1802L12.4561 16.2453H12.3266L12.0837 16.4244L11.9542 16.5545L11.8246 16.6359L11.776 16.8637L11.8084 17.0265L11.7599 17.238L11.5979 17.4008L11.4846 17.6286L11.2741 17.9541L11.096 18.0517L10.9664 18.247L10.8855 18.4098L10.8045 18.426L10.7721 18.2796L10.8693 18.1819L10.7721 18.0843L10.7073 18.0192L10.4483 17.8564L10.4159 17.7588L10.3187 17.8239L10.1568 17.6286H10.0273L10.0758 17.531L10.3187 17.2543L10.594 17.0265L10.7397 16.9288L10.7721 16.7173L10.7073 16.6034L10.594 16.5708L10.6588 16.3267L10.594 16.1802L10.4321 16.2291L10.3511 15.8548L10.173 15.8059L9.89771 15.8222L9.9139 15.5618L9.83294 15.334L9.96247 14.9434L9.8977 14.7807L9.76817 14.6831V14.504H9.36335L9.29858 14.2599L9.34716 14.2111L9.31478 13.9833C9.31478 13.9833 9.15285 13.8694 9.12047 13.8694C9.08808 13.8694 8.79662 13.8043 8.79662 13.8043L8.6034 13.6407C8.6034 13.6407 8.50625 13.6895 8.44148 13.657C8.37671 13.6244 8.19859 13.3966 8.19859 13.3966V13.0549L7.89093 13.1362L7.7452 13.3152H7.59947L7.45374 13.4454L7.19466 13.3966L7.1137 13.4292L7.01654 13.3315L7.03273 13.0711L6.90319 13.2013H6.6765L6.64412 13.0874L6.466 13.0711L6.51457 12.9735L6.25549 12.6643L6.30407 12.5016L6.466 12.4365L6.43361 12.3225L6.466 12.111L6.887 11.8669L7.08131 11.9157L7.25943 11.1834L7.19466 11.0043L7.06512 10.9392L7.09751 10.7765L7.29181 10.744L7.22704 10.6463H7.14608V10.5324L7.5185 10.4347L7.56708 10.5161L7.69662 10.3859L7.77758 10.5649L7.92331 10.6789L8.13381 10.63L8.44147 10.4836L8.5872 10.3534L8.52243 10.272L8.3767 10.0767L8.29574 9.89772L8.50624 9.96281L8.70055 10.0116L8.8139 9.88145L9.07298 9.80008L9.23491 9.65361L9.23382 9.65446Z" fill="#3F3272"/>
<path d="M4.99385 11.5655L4.11555 11.098L3.23442 11.5601L3.40544 10.5762L2.69588 9.87688L3.67984 9.73629L4.12243 8.84202L4.55954 9.739L5.54263 9.88565L4.82881 10.5806L4.99381 11.5655L4.99385 11.5655Z" fill="#FFF500"/>
<path d="M18.0403 11.5656L17.162 11.0981L16.2809 11.5601L16.4519 10.5763L15.7423 9.87689L16.7262 9.73632L17.1688 8.84205L17.6059 9.73906L18.589 9.88573L17.8752 10.5806L18.0402 11.5656L18.0403 11.5656Z" fill="#FFF500"/>
<path d="M4.99385 19.2226L4.11555 18.7551L3.23442 19.2172L3.40544 18.2333L2.69588 17.534L3.67983 17.3934L4.12243 16.4991L4.55954 17.3961L5.54263 17.5428L4.82881 18.2377L4.99381 19.2226L4.99385 19.2226Z" fill="#FFF500"/>
<path d="M18.0403 19.2229L17.162 18.7554L16.2809 19.2175L16.4519 18.2336L15.7423 17.5342L16.7262 17.3937L17.1688 16.4994L17.6059 17.3964L18.589 17.5431L17.8752 18.238L18.0402 19.2229L18.0403 19.2229Z" fill="#FFF500"/>
</g>
<path d="M44.6189 37.2641L43.8835 36.5865L44.6189 37.2641C45.8742 35.9016 46.4495 34.2019 46.7274 32.0264C47 29.8915 47 27.1625 47 23.6555V23.5824V23.5093C47 20.0022 47 17.2732 46.7274 15.1383C46.4495 12.9628 45.8742 11.2631 44.6189 9.90064C44.4526 9.72011 44.2789 9.54647 44.0984 9.38014C42.7359 8.12481 41.0362 7.54948 38.8607 7.27165C36.7258 6.999 33.9968 6.99901 30.4897 6.99902L30.4167 6.99902H17.5833L17.5103 6.99902C14.0032 6.99901 11.2742 6.999 9.13931 7.27165C6.9638 7.54948 5.26409 8.12481 3.90161 9.38014C3.72109 9.54647 3.54744 9.72011 3.38111 9.90064C2.12578 11.2631 1.55046 12.9628 1.27262 15.1383C0.999977 17.2732 0.999987 20.0022 1 23.5093L1 23.5824L1 23.6554C0.999987 27.1625 0.999977 29.8915 1.27262 32.0264C1.55046 34.2019 2.12578 35.9016 3.38111 37.2641C3.54744 37.4446 3.72109 37.6182 3.90161 37.7846C5.26408 39.0399 6.9638 39.6152 9.13931 39.8931C11.2742 40.1657 14.0032 40.1657 17.5102 40.1657H17.5833H30.4167H30.4898C33.9968 40.1657 36.7258 40.1657 38.8607 39.8931C41.0362 39.6152 42.7359 39.0399 44.0984 37.7846C44.2789 37.6182 44.4526 37.4446 44.6189 37.2641Z" stroke="#042B60" stroke-width="2"/>
<defs>
<clipPath id="clip0_164_4166">
<path d="M2 23.5824C2 16.4444 2 12.8754 4.11654 10.5782C4.26439 10.4178 4.41874 10.2634 4.57921 10.1156C6.8764 7.99902 10.4454 7.99902 17.5833 7.99902H30.4167C37.5546 7.99902 41.1236 7.99902 43.4208 10.1156C43.5813 10.2634 43.7356 10.4178 43.8835 10.5782C46 12.8754 46 16.4444 46 23.5824C46 30.7203 46 34.2893 43.8835 36.5865C43.7356 36.7469 43.5813 36.9013 43.4208 37.0491C41.1236 39.1657 37.5546 39.1657 30.4167 39.1657H17.5833C10.4454 39.1657 6.8764 39.1657 4.57921 37.0491C4.41874 36.9013 4.26439 36.7469 4.11654 36.5865C2 34.2893 2 30.7203 2 23.5824Z" fill="white"/>
</clipPath>
</defs>
</svg>
