<svg width="48" height="48" viewBox="0 0 48 48" fill="none" xmlns="http://www.w3.org/2000/svg">
<g clip-path="url(#clip0_164_2416)">
<path d="M46 8H2V39.1669H46V8Z" fill="white"/>
<path d="M46 8H2V18.1293H46V8Z" fill="#00A3CE"/>
<path d="M46 29.0377H2V39.167H46V29.0377Z" fill="#F05B8D"/>
<path d="M8.93351 26.2209L8.21325 24.7895L7.6465 25.021L7.5 24.727L9.0199 24.1088L9.1664 24.4L8.59965 24.6315L9.31991 26.0629L8.93351 26.2209ZM10.1371 25.7382L9.36368 23.9763L10.1972 23.6822C10.4038 23.6064 10.5637 23.5699 10.6705 23.5665C10.7803 23.563 10.8807 23.5931 10.9741 23.6521C11.0674 23.7152 11.134 23.7974 11.1807 23.8999C11.2373 24.0318 11.2443 24.1574 11.1941 24.2732C11.1474 24.389 11.0406 24.4914 10.8807 24.5742C10.984 24.5875 11.0774 24.6141 11.1538 24.6471C11.2338 24.6801 11.3505 24.7496 11.507 24.852L11.8968 25.1096L11.4235 25.278L10.97 24.9973C10.8065 24.8948 10.6997 24.8352 10.6466 24.8121C10.5935 24.7889 10.5433 24.7791 10.4966 24.7826C10.4499 24.7826 10.3799 24.7993 10.29 24.8323L10.21 24.8619L10.5334 25.5958L10.1371 25.7382ZM10.0869 24.5811L10.377 24.4752C10.5672 24.4092 10.6834 24.3594 10.7237 24.3299C10.7639 24.2969 10.7902 24.2605 10.8001 24.2142C10.8135 24.1713 10.8065 24.1215 10.7832 24.0689C10.7563 24.0093 10.7202 23.9664 10.6665 23.9433C10.6163 23.9201 10.5567 23.9138 10.4896 23.9265C10.4528 23.9329 10.3565 23.9664 10.196 24.0226L9.88958 24.1349L10.0869 24.5811ZM13.9135 24.5018L13.4734 24.6338L13.15 24.2801L12.3533 24.518L12.3399 24.9741L11.9097 25.1032L12.0229 23.0733L12.4496 22.9477L13.9135 24.5018ZM12.9072 24.0156L12.3871 23.4304L12.3638 24.1777L12.9072 24.0156ZM13.5872 22.6207L14.3973 22.4221C14.5608 22.3822 14.6804 22.359 14.7639 22.3527C14.8438 22.3428 14.9238 22.3527 14.9973 22.3758C15.0709 22.399 15.1374 22.4354 15.2005 22.4916C15.2606 22.5443 15.3038 22.6108 15.3271 22.6867C15.3505 22.7723 15.3505 22.8586 15.3207 22.9413C15.2909 23.027 15.2372 23.0965 15.1608 23.1526C15.2939 23.1561 15.4077 23.1891 15.4976 23.2487C15.5874 23.3118 15.6476 23.394 15.6773 23.4999C15.7042 23.5827 15.7071 23.6718 15.6873 23.7609C15.6674 23.8466 15.6271 23.9265 15.567 23.9925C15.5069 24.0556 15.4234 24.1082 15.3201 24.1447C15.2536 24.1679 15.0902 24.2107 14.8298 24.2767L14.1364 24.4451L13.5872 22.6207ZM14.0903 22.8227L14.217 23.2458L14.4837 23.1798C14.6436 23.1399 14.7434 23.1138 14.7802 23.1005C14.8468 23.0774 14.897 23.0409 14.9267 22.9981C14.9536 22.9518 14.96 22.8991 14.9436 22.8395C14.9267 22.7833 14.8935 22.7405 14.8503 22.7139C14.8036 22.6872 14.7469 22.6774 14.6769 22.6872C14.6337 22.6936 14.517 22.7202 14.3238 22.7665L14.0903 22.8227ZM14.3069 23.5497L14.4569 24.0388L14.8333 23.9462C14.9833 23.9097 15.0732 23.8831 15.1135 23.8669C15.1701 23.8402 15.2133 23.8038 15.2367 23.758C15.2664 23.7083 15.2699 23.6521 15.2501 23.5861C15.2332 23.5335 15.2034 23.4901 15.1637 23.4571C15.1234 23.4275 15.0703 23.4108 15.0102 23.4073C14.9466 23.4038 14.8234 23.4241 14.6401 23.4704L14.3069 23.5497ZM18.0436 23.6058L17.5935 23.6915L17.3134 23.3048L16.4933 23.46L16.4198 23.9126L15.9803 23.9959L16.3503 21.9926L16.7904 21.9099L18.0436 23.6058ZM17.1068 23.0177L16.6632 22.3828L16.5464 23.1231L17.1068 23.0177ZM18.287 23.5763L17.97 21.7183L18.3903 21.6621L18.6535 23.2024L19.6971 23.06L19.7502 23.3743L18.287 23.5763ZM20.0538 23.3384L19.8535 21.4543L20.2767 21.4179L20.3532 22.1617L21.1832 22.0887L21.1032 21.3484L21.5264 21.312L21.7266 23.196L21.3034 23.2325L21.217 22.4094L20.387 22.4789L20.4734 23.3019L20.0538 23.3384ZM24.0601 23.1132L23.6002 23.1266L23.4 22.7034L22.5601 22.7266L22.4036 23.163L21.9536 23.1763L22.7001 21.2593L23.1502 21.246L24.0601 23.1132ZM23.2506 22.3897L22.9371 21.6957L22.6774 22.4065L23.2506 22.3897ZM25.9238 23.1595L26.0773 21.272L27.6305 21.3779L27.6071 21.6951L26.4736 21.6193L26.4404 22.039L27.4939 22.1084L27.467 22.4256L26.4135 22.3561L26.3703 22.8719L27.5435 22.9477L27.5167 23.2684L25.9238 23.1595ZM30.9539 23.0241L31.3374 23.2059C31.2341 23.4009 31.101 23.5329 30.9341 23.6093C30.7707 23.6851 30.5775 23.7054 30.3574 23.6689C30.0808 23.6226 29.8741 23.5005 29.7306 23.3054C29.587 23.1069 29.5438 22.8591 29.6039 22.568C29.6675 22.2572 29.8041 22.0326 30.0171 21.8902C30.2273 21.7449 30.4806 21.6986 30.7707 21.7449C31.0205 21.7877 31.2143 21.8873 31.3438 22.0488C31.4238 22.1414 31.4705 22.267 31.4874 22.4256L31.0573 22.4453C31.0508 22.3463 31.0141 22.2601 30.9475 22.1941C30.8839 22.1246 30.794 22.0818 30.6843 22.0621C30.5308 22.039 30.3942 22.0685 30.281 22.1512C30.1642 22.234 30.0843 22.3857 30.0411 22.6074C29.9944 22.8452 30.0078 23.0206 30.0813 23.1364C30.1549 23.2522 30.2681 23.3216 30.4181 23.3448C30.5279 23.3645 30.6312 23.3482 30.7246 23.295C30.8139 23.2458 30.8938 23.1567 30.9539 23.0241ZM31.7437 22.9182C31.7939 22.7295 31.8668 22.5807 31.9672 22.4655C32.0373 22.3828 32.1236 22.3133 32.224 22.2572C32.3238 22.201 32.4271 22.1646 32.534 22.1484C32.674 22.1287 32.8275 22.1385 32.9939 22.175C33.2939 22.241 33.5105 22.3764 33.647 22.5848C33.7801 22.7932 33.807 23.0478 33.727 23.3453C33.647 23.6429 33.4935 23.8576 33.2671 23.9832C33.0435 24.1123 32.7803 24.1418 32.4803 24.0758C32.1767 24.0098 31.9602 23.8744 31.8236 23.666C31.6905 23.4605 31.6637 23.2093 31.7437 22.9182ZM32.1703 22.9975C32.1137 23.2059 32.1271 23.3778 32.2036 23.5097C32.2801 23.6388 32.4003 23.721 32.5672 23.7575C32.7307 23.7939 32.8807 23.7708 33.0137 23.688C33.1468 23.6052 33.2437 23.4565 33.3038 23.2417C33.3604 23.0334 33.3505 22.8649 33.277 22.7359C33.2034 22.6102 33.0803 22.5275 32.9104 22.491C32.7406 22.4545 32.5906 22.4742 32.4569 22.557C32.3238 22.6409 32.2304 22.7862 32.1703 22.9975ZM33.797 24.3496L34.4204 22.5414L34.8202 22.6502L35.2271 24.0851L35.6269 22.8788L36.0267 22.9847L35.3934 24.793L34.9866 24.6807L34.5798 23.2759L34.1729 24.4526L33.797 24.3496ZM35.8271 24.9249L36.5602 23.1497L37.8933 23.596L37.7935 23.897L36.8269 23.5798L36.66 24.0029L37.4935 24.2738L37.3604 24.5748L36.5269 24.3039L36.2269 25.0575L35.8271 24.9249ZM37.4935 25.4899L38.2937 23.7343L38.6602 23.8767L37.8933 25.6323L37.4935 25.4899ZM39.9939 26.4617L39.5609 26.2898L39.5941 25.8302L38.8272 25.5229L38.4939 25.8534L38.0608 25.6878L39.6607 24.2599L40.0938 24.422L39.9939 26.4617ZM39.6268 25.4899L39.6601 24.7426L39.0933 25.278L39.6268 25.4899Z" fill="#00A3CE"/>
</g>
<path d="M44.6188 37.2654L43.8834 36.5878L44.6188 37.2654C45.8742 35.9029 46.4495 34.2032 46.7274 32.0276C47 29.8927 47 27.1637 47 23.6566V23.5835V23.5104C47 20.0032 47 17.2742 46.7274 15.1393C46.4495 12.9638 45.8742 11.264 44.6188 9.90153L43.8834 10.5791L44.6188 9.90152C44.4525 9.72106 44.2789 9.54747 44.0985 9.38119C42.736 8.12582 41.0362 7.55048 38.8607 7.27263C36.7258 6.99998 33.9968 6.99999 30.4896 7L30.4165 7H17.5835L17.5104 7C14.0032 6.99999 11.2742 6.99998 9.13929 7.27263C6.96375 7.55048 5.26401 8.12582 3.90153 9.38119C3.72106 9.54747 3.54747 9.72106 3.38119 9.90153C2.12582 11.264 1.55048 12.9638 1.27263 15.1393C0.999977 17.2742 0.999987 20.0032 1 23.5104L1 23.5835L1 23.6565C0.999987 27.1637 0.999977 29.8927 1.27263 32.0276C1.55048 34.2032 2.12582 35.9029 3.38119 37.2654C3.54747 37.4459 3.72106 37.6195 3.90153 37.7857C5.26401 39.0411 6.96375 39.6165 9.13929 39.8943C11.2742 40.167 14.0032 40.167 17.5104 40.1669H17.5835H30.4165H30.4896C33.9968 40.167 36.7258 40.167 38.8607 39.8943C41.0362 39.6165 42.736 39.0411 44.0985 37.7857C44.2789 37.6195 44.4525 37.4459 44.6188 37.2654Z" stroke="#042B60" stroke-width="2"/>
<defs>
<clipPath id="clip0_164_2416">
<path d="M2 23.5835C2 16.4454 2 12.8763 4.11661 10.5791C4.26442 10.4187 4.41872 10.2644 4.57914 10.1166C6.87635 8 10.4454 8 17.5835 8H30.4165C37.5546 8 41.1237 8 43.4209 10.1166C43.5813 10.2644 43.7356 10.4187 43.8834 10.5791C46 12.8763 46 16.4454 46 23.5835C46 30.7216 46 34.2906 43.8834 36.5878C43.7356 36.7482 43.5813 36.9025 43.4209 37.0503C41.1237 39.1669 37.5546 39.1669 30.4165 39.1669H17.5835C10.4454 39.1669 6.87635 39.1669 4.57914 37.0503C4.41872 36.9025 4.26442 36.7482 4.11661 36.5878C2 34.2906 2 30.7216 2 23.5835Z" fill="white"/>
</clipPath>
</defs>
</svg>
