<svg width="48" height="48" viewBox="0 0 48 48" fill="none" xmlns="http://www.w3.org/2000/svg">
<g clip-path="url(#clip0_164_2423)">
<path d="M46 7H2V38.1669H46V7Z" fill="#F2E60E"/>
<path d="M46 30.3752H2V34.2711H46V30.3752Z" fill="#00994B"/>
<path d="M46 22.5835H2V26.4794H46V22.5835Z" fill="#00994B"/>
<path d="M46 7H2V10.8959H46V7Z" fill="#00994B"/>
<path d="M46 14.7917H2V18.6876H46V14.7917Z" fill="#00994B"/>
<path d="M5.11872 13.0721L5.71634 14.7814H7.49117L6.03765 15.8718L6.62064 17.5973L5.11872 16.5203L3.63932 17.5973L4.20654 15.8741L2.73108 14.7814H4.5318L5.11872 13.0721Z" fill="white"/>
<path d="M14.4991 13.0721L15.0961 14.7814H16.8715L15.418 15.8718L16.001 17.5973L14.4991 16.5203L13.0197 17.5973L13.5869 15.8741L12.1115 14.7814H13.9122L14.4991 13.0721Z" fill="white"/>
<path d="M5.11596 7.63123L5.71358 9.3405H7.48841L6.03545 10.4309L6.61787 12.1564L5.11596 11.0794L3.63656 12.1564L4.20378 10.4331L2.72888 9.3405H4.5296L5.11596 7.63123Z" fill="white"/>
<path d="M14.4968 7.63123L15.0944 9.3405H16.8692L15.4157 10.4309L15.9987 12.1564L14.4968 11.0794L13.0174 12.1564L13.5846 10.4331L12.1091 9.3405H13.9099L14.4968 7.63123Z" fill="white"/>
<path d="M9.80416 10.9789L10.2515 12.259H11.5812L10.4924 13.076L10.929 14.3684L9.80416 13.5615L8.69559 14.3684L9.12045 13.0777L8.01526 12.259H9.36467L9.80416 10.9789Z" fill="white"/>
<path d="M2 7V18.6876H17.5971V7H2ZM4.52945 9.34042L5.11637 7.63114L5.71399 9.34042H7.48882L6.0353 10.4308L6.61772 12.1563L5.11581 11.0793L3.6364 12.1563L4.20363 10.4331L2.72873 9.34042H4.52945ZM6.62054 17.5972L5.11862 16.5202L3.63922 17.5972L4.20644 15.874L2.73098 14.7813H4.5317L5.11862 13.072L5.71624 14.7813H7.49107L6.03812 15.8717L6.62054 17.5972ZM10.9293 14.3684L9.80443 13.5614L8.69587 14.3684L9.12072 13.0776L8.01553 12.259H9.36438L9.80387 10.9788L10.2512 12.259H11.581L10.4921 13.0759L10.9293 14.3684ZM13.9095 9.34042L14.4964 7.63114L15.0941 9.34042H16.8689L15.4154 10.4308L15.9978 12.1563L14.4959 11.0793L13.0165 12.1563L13.5837 10.4331L12.1082 9.34042H13.9095ZM16.0012 17.5972L14.4992 16.5202L13.0198 17.5972L13.5871 15.874L12.1116 14.7813H13.9123L14.4992 13.072L15.0969 14.7813H16.8717L15.4187 15.8717L16.0012 17.5972Z" fill="#273578"/>
</g>
<path d="M44.6188 36.2654L43.8834 35.5878L44.6188 36.2654C45.8742 34.9029 46.4495 33.2032 46.7274 31.0276C47 28.8927 47 26.1637 47 22.6566V22.5835V22.5104C47 19.0032 47 16.2742 46.7274 14.1393C46.4495 11.9638 45.8742 10.264 44.6188 8.90153L43.8834 9.57914L44.6188 8.90152C44.4525 8.72106 44.2789 8.54747 44.0985 8.38119C42.736 7.12582 41.0362 6.55048 38.8607 6.27263C36.7258 5.99998 33.9968 5.99999 30.4896 6L30.4165 6H17.5835L17.5104 6C14.0032 5.99999 11.2742 5.99998 9.13929 6.27263C6.96375 6.55048 5.26401 7.12582 3.90153 8.38119C3.72106 8.54747 3.54747 8.72106 3.38119 8.90153C2.12582 10.264 1.55048 11.9638 1.27263 14.1393C0.999977 16.2742 0.999987 19.0032 1 22.5104L1 22.5835L1 22.6565C0.999987 26.1637 0.999977 28.8927 1.27263 31.0276C1.55048 33.2032 2.12582 34.9029 3.38119 36.2654C3.54747 36.4459 3.72106 36.6195 3.90153 36.7857C5.26401 38.0411 6.96375 38.6165 9.13929 38.8943C11.2742 39.167 14.0032 39.167 17.5104 39.1669H17.5835H30.4165H30.4896C33.9968 39.167 36.7258 39.167 38.8607 38.8943C41.0362 38.6165 42.736 38.0411 44.0985 36.7857C44.2789 36.6195 44.4525 36.4459 44.6188 36.2654Z" stroke="#042B60" stroke-width="2"/>
<defs>
<clipPath id="clip0_164_2423">
<path d="M2 22.5835C2 15.4454 2 11.8763 4.11661 9.57914C4.26442 9.41872 4.41872 9.26442 4.57914 9.11661C6.87635 7 10.4454 7 17.5835 7H30.4165C37.5546 7 41.1237 7 43.4209 9.11661C43.5813 9.26442 43.7356 9.41872 43.8834 9.57914C46 11.8763 46 15.4454 46 22.5835C46 29.7216 46 33.2906 43.8834 35.5878C43.7356 35.7482 43.5813 35.9025 43.4209 36.0503C41.1237 38.1669 37.5546 38.1669 30.4165 38.1669H17.5835C10.4454 38.1669 6.87635 38.1669 4.57914 36.0503C4.41872 35.9025 4.26442 35.7482 4.11661 35.5878C2 33.2906 2 29.7216 2 22.5835Z" fill="white"/>
</clipPath>
</defs>
</svg>
