<svg width="48" height="48" viewBox="0 0 48 48" fill="none" xmlns="http://www.w3.org/2000/svg">
<g clip-path="url(#clip0_164_2275)">
<path d="M45.9893 28.4522V19.5255H12.9578L2 8.41663V39.5833L12.9691 28.4448L45.9893 28.4522Z" fill="#00994B"/>
<path d="M13.6015 29.9298L4.07751 39.5833L5.10369 39.5828L13.877 30.66L45.9892 30.6623V29.9298H13.6015Z" fill="black"/>
<path d="M13.8773 30.66L45.9895 30.6623V39.5833H5.10339L13.8773 30.66Z" fill="#F2E60E"/>
<path d="M4.07718 39.5833H3.06506L13.315 29.1967H46.0001V29.9297H13.6017L4.07718 39.5833Z" fill="white"/>
<path d="M5.10332 8.41663H4.07715L13.6017 18.0707H45.9894V17.3211L13.8688 17.3251L5.10332 8.41663Z" fill="black"/>
<path d="M4.07718 8.41663H3.06506L13.315 18.8032H45.9894V18.0707H13.6017L4.07718 8.41663Z" fill="white"/>
<path d="M3.06497 8.41663H2L12.9578 19.5255H45.9893V18.8032H13.3149L3.06497 8.41663Z" fill="black"/>
<path d="M13.3149 29.1967H45.9893V28.4522L12.9691 28.4448L2 39.5833H3.06497L13.3149 29.1967Z" fill="black"/>
<path d="M13.8687 17.3251L45.9893 17.3211V8.41663H5.10327L13.8687 17.3251Z" fill="#273578"/>
<path d="M11.7474 23.0825L11.2634 23.3365L9.75462 21.8827L10.0108 21.3322L9.07139 20.1041L8.14619 21.3322L8.38816 21.8685L6.90783 23.3365L6.39541 23.0825L5.14282 24.0017L6.38118 24.9457L6.9363 24.6493L8.37393 26.1314L8.14619 26.6678L9.07139 27.8958L9.9966 26.6537L9.75462 26.1596L11.2492 24.6775L11.7758 24.9316L13 24.0017L11.7474 23.0825ZM9.07595 25.4442L7.63832 24L9.07139 22.5743L10.5136 24L9.07595 25.4442Z" fill="black"/>
<path d="M11.7189 23.3364L11.1877 23.5904L9.47958 21.8966L9.76426 21.3602L9.07135 20.4664L8.40691 21.3602L8.65345 21.8966L6.94537 23.6L6.42327 23.3273L5.52197 24.0015L6.43295 24.6914L6.98352 24.3809L8.66312 26.0934L8.38812 26.6393L9.09014 27.5427L9.76369 26.6298L9.47902 26.103L11.1968 24.3905L11.7473 24.6824L12.6583 24.002L11.7189 23.3364ZM6.40448 24.2584L6.04407 24.0015L6.40448 23.7034L6.9169 24.0015L6.40448 24.2584ZM9.06168 20.9932L9.33668 21.3506L9.06623 21.8588L8.79578 21.3506L9.06168 20.9932ZM9.06623 26.9968L8.79578 26.6393L9.06623 26.1126L9.33668 26.6489L9.06623 26.9968ZM9.09014 25.736L7.31545 24.0218L9.09014 22.245L10.817 24.0015L9.09014 25.736ZM11.2156 24.0015L11.7377 23.7034L12.1077 24.0015L11.7565 24.2584L11.2156 24.0015Z" fill="white"/>
</g>
<path d="M44.6189 37.6817L43.8835 37.0041L44.6189 37.6817C45.8742 36.3192 46.4495 34.6195 46.7274 32.444C47 30.3091 47 27.5801 47 24.0731V24V23.9269C47 20.4198 47 17.6908 46.7274 15.5559C46.4495 13.3804 45.8742 11.6807 44.6189 10.3182C44.4526 10.1377 44.2789 9.96407 44.0984 9.79774C42.7359 8.54241 41.0362 7.96708 38.8607 7.68925C36.7258 7.4166 33.9968 7.41661 30.4897 7.41663L30.4167 7.41663H17.5833L17.5103 7.41663C14.0032 7.41661 11.2742 7.4166 9.13931 7.68925C6.9638 7.96708 5.26409 8.54241 3.90161 9.79774C3.72109 9.96407 3.54744 10.1377 3.38111 10.3182C2.12578 11.6807 1.55046 13.3804 1.27262 15.5559C0.999977 17.6908 0.999987 20.4198 1 23.9269L1 24L1 24.073C0.999987 27.5801 0.999977 30.3091 1.27262 32.444C1.55046 34.6195 2.12578 36.3192 3.38111 37.6817C3.54744 37.8622 3.72109 38.0358 3.90161 38.2022C5.26408 39.4575 6.9638 40.0328 9.13931 40.3107C11.2742 40.5833 14.0032 40.5833 17.5102 40.5833H17.5833H30.4167H30.4898C33.9968 40.5833 36.7258 40.5833 38.8607 40.3107C41.0362 40.0328 42.7359 39.4575 44.0984 38.2022C44.2789 38.0358 44.4526 37.8622 44.6189 37.6817Z" stroke="#042B60" stroke-width="2"/>
<defs>
<clipPath id="clip0_164_2275">
<path d="M2 24C2 16.862 2 13.293 4.11654 10.9958C4.26439 10.8354 4.41874 10.681 4.57921 10.5332C6.8764 8.41663 10.4454 8.41663 17.5833 8.41663H30.4167C37.5546 8.41663 41.1236 8.41663 43.4208 10.5332C43.5813 10.681 43.7356 10.8354 43.8835 10.9958C46 13.293 46 16.862 46 24C46 31.1379 46 34.7069 43.8835 37.0041C43.7356 37.1645 43.5813 37.3189 43.4208 37.4667C41.1236 39.5833 37.5546 39.5833 30.4167 39.5833H17.5833C10.4454 39.5833 6.8764 39.5833 4.57921 37.4667C4.41874 37.3189 4.26439 37.1645 4.11654 37.0041C2 34.7069 2 31.1379 2 24Z" fill="white"/>
</clipPath>
</defs>
</svg>
