<svg width="48" height="48" viewBox="0 0 48 48" fill="none" xmlns="http://www.w3.org/2000/svg">
<g clip-path="url(#clip0_164_2439)">
<path fill-rule="evenodd" clip-rule="evenodd" d="M2 39.1669H46V8H2V39.1669Z" fill="white"/>
<path fill-rule="evenodd" clip-rule="evenodd" d="M2 11.1167H46V8H2V11.1167Z" fill="#ED2224"/>
<path fill-rule="evenodd" clip-rule="evenodd" d="M2 25.1418H46V22.0251H2V25.1418Z" fill="#ED2224"/>
<path fill-rule="evenodd" clip-rule="evenodd" d="M2 39.167H46V36.0503H2V39.167Z" fill="#ED2224"/>
<path fill-rule="evenodd" clip-rule="evenodd" d="M2 18.1293H46V15.0126H2V18.1293Z" fill="#010101"/>
<path fill-rule="evenodd" clip-rule="evenodd" d="M2 32.1544H46V29.0377H2V32.1544Z" fill="#010101"/>
<path fill-rule="evenodd" clip-rule="evenodd" d="M2 23.5835H17.7143V8H2V23.5835Z" fill="#2D2D87"/>
<path fill-rule="evenodd" clip-rule="evenodd" d="M9.33309 9.81824L7.63367 15.0055L10.2493 15.8481L9.33309 9.81824Z" fill="white"/>
<path fill-rule="evenodd" clip-rule="evenodd" d="M9.33318 9.81824L11.0331 15.0055L8.41748 15.8481L9.33318 9.81824Z" fill="white"/>
<path fill-rule="evenodd" clip-rule="evenodd" d="M14.564 13.5868H9.06445V16.3137L14.564 13.5868Z" fill="white"/>
<path fill-rule="evenodd" clip-rule="evenodd" d="M14.5638 13.5868L10.1146 16.7927L8.49792 14.5866L14.5638 13.5868Z" fill="white"/>
<path fill-rule="evenodd" clip-rule="evenodd" d="M4.10229 13.5868L8.55206 16.7927L10.1682 14.5866L4.10229 13.5868Z" fill="white"/>
<path fill-rule="evenodd" clip-rule="evenodd" d="M4.10229 13.5868H9.60243V16.3137L4.10229 13.5868Z" fill="white"/>
<path fill-rule="evenodd" clip-rule="evenodd" d="M12.5659 19.6848L10.8665 14.4976L8.25134 15.3402L12.5659 19.6848Z" fill="white"/>
<path fill-rule="evenodd" clip-rule="evenodd" d="M12.566 19.6848L8.11682 16.4789L9.73295 14.2728L12.566 19.6848Z" fill="white"/>
<path fill-rule="evenodd" clip-rule="evenodd" d="M6.10034 19.6848L10.5501 16.4789L8.93343 14.2728L6.10034 19.6848Z" fill="white"/>
<path fill-rule="evenodd" clip-rule="evenodd" d="M6.10034 19.6848L7.8003 14.4976L10.4154 15.3402L6.10034 19.6848Z" fill="white"/>
</g>
<path d="M44.6188 37.2654L43.8834 36.5878L44.6188 37.2654C45.8742 35.9029 46.4495 34.2032 46.7274 32.0276C47 29.8927 47 27.1637 47 23.6566V23.5835V23.5104C47 20.0032 47 17.2742 46.7274 15.1393C46.4495 12.9638 45.8742 11.264 44.6188 9.90153L43.8834 10.5791L44.6188 9.90152C44.4525 9.72106 44.2789 9.54747 44.0985 9.38119C42.736 8.12582 41.0362 7.55048 38.8607 7.27263C36.7258 6.99998 33.9968 6.99999 30.4896 7L30.4165 7H17.5835L17.5104 7C14.0032 6.99999 11.2742 6.99998 9.13929 7.27263C6.96375 7.55048 5.26401 8.12582 3.90153 9.38119C3.72106 9.54747 3.54747 9.72106 3.38119 9.90153C2.12582 11.264 1.55048 12.9638 1.27263 15.1393C0.999977 17.2742 0.999987 20.0032 1 23.5104L1 23.5835L1 23.6565C0.999987 27.1637 0.999977 29.8927 1.27263 32.0276C1.55048 34.2032 2.12582 35.9029 3.38119 37.2654C3.54747 37.4459 3.72106 37.6195 3.90153 37.7857C5.26401 39.0411 6.96375 39.6165 9.13929 39.8943C11.2742 40.167 14.0032 40.167 17.5104 40.1669H17.5835H30.4165H30.4896C33.9968 40.167 36.7258 40.167 38.8607 39.8943C41.0362 39.6165 42.736 39.0411 44.0985 37.7857C44.2789 37.6195 44.4525 37.4459 44.6188 37.2654Z" stroke="#042B60" stroke-width="2"/>
<defs>
<clipPath id="clip0_164_2439">
<path d="M2 23.5835C2 16.4454 2 12.8763 4.11661 10.5791C4.26442 10.4187 4.41872 10.2644 4.57914 10.1166C6.87635 8 10.4454 8 17.5835 8H30.4165C37.5546 8 41.1237 8 43.4209 10.1166C43.5813 10.2644 43.7356 10.4187 43.8834 10.5791C46 12.8763 46 16.4454 46 23.5835C46 30.7216 46 34.2906 43.8834 36.5878C43.7356 36.7482 43.5813 36.9025 43.4209 37.0503C41.1237 39.1669 37.5546 39.1669 30.4165 39.1669H17.5835C10.4454 39.1669 6.87635 39.1669 4.57914 37.0503C4.41872 36.9025 4.26442 36.7482 4.11661 36.5878C2 34.2906 2 30.7216 2 23.5835Z" fill="white"/>
</clipPath>
</defs>
</svg>
