<svg width="48" height="48" viewBox="0 0 48 48" fill="none" xmlns="http://www.w3.org/2000/svg">
<g clip-path="url(#clip0_164_2292)">
<path d="M46 8H2V40H46V8Z" fill="white"/>
<path d="M46 17.6H2V28.8H46V17.6Z" fill="#D12026"/>
<path d="M2 8V17.6H20.0714V8H2ZM13.9146 9.72236L14.0594 9.29415L14.2109 9.72236L14.6907 9.72659L14.3093 9.9923L14.4563 10.4353L14.0572 10.168L13.6631 10.4364L13.8162 9.9923L13.4165 9.72659L13.9146 9.72236ZM4.41675 16.2016L4.01764 15.9343L3.62351 16.2026L3.77663 15.7585L3.37697 15.4928L3.87558 15.4886L4.0204 15.0604L4.17187 15.4886L4.65168 15.4928L4.27026 15.7585L4.41675 16.2016ZM4.26971 13.8366L4.41675 14.2797L4.01764 14.0124L3.62351 14.2807L3.77663 13.8366L3.37697 13.5709L3.87558 13.5667L4.0204 13.1385L4.17187 13.5667L4.65168 13.5709L4.26971 13.8366ZM4.26971 11.9147L4.41675 12.3578L4.01764 12.0905L3.62351 12.3588L3.77663 11.9147L3.37697 11.649L3.87558 11.6443L4.0204 11.2161L4.17187 11.6443L4.65168 11.6485L4.26971 11.9147ZM4.26971 9.9923L4.41675 10.4353L4.01764 10.168L3.62351 10.4364L3.77663 9.9923L3.37697 9.72659L3.87558 9.72236L4.0204 9.29415L4.17187 9.72236L4.65168 9.72659L4.26971 9.9923ZM5.87166 9.72236L6.01649 9.29415L6.16795 9.72236L6.64776 9.72659L6.26634 9.9923L6.41338 10.4353L6.01428 10.168L5.62015 10.4364L5.77326 9.9923L5.37361 9.72659L5.87166 9.72236ZM6.41393 16.2016L6.01483 15.9343L5.6207 16.2026L5.77382 15.7585L5.37416 15.4928L5.87276 15.4886L6.01759 15.0604L6.16905 15.4886L6.64887 15.4928L6.26745 15.7585L6.41393 16.2016ZM7.87548 9.72236L8.02031 9.29415L8.17177 9.72236L8.65158 9.72659L8.27016 9.9923L8.4172 10.4353L8.0181 10.168L7.62397 10.4364L7.77709 9.9923L7.37743 9.72659L7.87548 9.72236ZM8.41776 16.2016L8.01865 15.9343L7.62452 16.2026L7.77764 15.7585L7.37798 15.4928L7.87659 15.4886L8.02141 15.0604L8.17288 15.4886L8.65269 15.4928L8.27127 15.7585L8.41776 16.2016ZM8.27072 13.8366L8.41776 14.2797L8.01865 14.0124L7.62452 14.2807L7.77764 13.8366L7.37798 13.5709L7.87659 13.5667L8.02141 13.1385L8.17288 13.5667L8.65269 13.5709L8.27072 13.8366ZM8.27072 11.9147L8.41776 12.3578L8.01865 12.0905L7.62452 12.3588L7.77764 11.9147L7.37798 11.649L7.87659 11.6448L8.02141 11.2166L8.17288 11.6448L8.65269 11.649L8.27072 11.9147ZM9.88096 9.72236L10.0258 9.29415L10.1772 9.72236L10.6571 9.72659L10.2756 9.9923L10.4227 10.4353L10.0236 10.168L9.62945 10.4364L9.78257 9.9923L9.38291 9.72659L9.88096 9.72236ZM10.4227 16.2016L10.0236 15.9343L9.62945 16.2026L9.78257 15.7585L9.38291 15.4928L9.88151 15.4886L10.0263 15.0604L10.1778 15.4886L10.6576 15.4928L10.2762 15.7585L10.4227 16.2016ZM10.2635 13.8144L10.5642 12.9442L9.78091 12.4234L10.7577 12.4149L11.0412 11.5755L11.3386 12.4149L12.2784 12.4234L11.5305 12.9442L11.8184 13.8123L11.0368 13.2883L10.2635 13.8144ZM12.4519 16.2016L12.0528 15.9343L11.6587 16.2026L11.8118 15.7585L11.4122 15.4928L11.9108 15.4886L12.0556 15.0604L12.2071 15.4886L12.6869 15.4928L12.3054 15.7585L12.4519 16.2016ZM12.3049 9.9923L12.4519 10.4353L12.0528 10.168L11.6587 10.4364L11.8118 9.9923L11.4122 9.72659L11.9108 9.72236L12.0556 9.29415L12.2071 9.72236L12.6869 9.72659L12.3049 9.9923ZM14.4558 16.2016L14.0566 15.9343L13.6625 16.2026L13.8156 15.7585L13.416 15.4928L13.9146 15.4886L14.0594 15.0604L14.2109 15.4886L14.6907 15.4928L14.3093 15.7585L14.4558 16.2016ZM14.3098 13.8366L14.4569 14.2797L14.0578 14.0124L13.6636 14.2807L13.8167 13.8366L13.4171 13.5709L13.9157 13.5667L14.0605 13.1385L14.212 13.5667L14.6918 13.5709L14.3098 13.8366ZM14.3098 11.9147L14.4569 12.3578L14.0578 12.0905L13.6636 12.3588L13.8167 11.9147L13.4171 11.649L13.9157 11.6448L14.0605 11.2166L14.212 11.6448L14.6918 11.649L14.3098 11.9147ZM16.4612 16.2016L16.0621 15.9343L15.668 16.2026L15.8211 15.7585L15.4215 15.4928L15.9201 15.4886L16.0649 15.0604L16.2164 15.4886L16.6962 15.4928L16.3147 15.7585L16.4612 16.2016ZM16.3142 9.9923L16.4612 10.4353L16.0621 10.168L15.668 10.4364L15.8211 9.9923L15.4215 9.72659L15.9201 9.72236L16.0649 9.29415L16.2164 9.72236L16.6962 9.72659L16.3142 9.9923ZM18.4711 16.2016L18.072 15.9343L17.6779 16.2026L17.831 15.7585L17.4314 15.4928L17.93 15.4886L18.0748 15.0604L18.2263 15.4886L18.7061 15.4928L18.3246 15.7585L18.4711 16.2016ZM18.3241 13.8366L18.4711 14.2797L18.072 14.0124L17.6779 14.2807L17.831 13.8366L17.4314 13.5709L17.93 13.5667L18.0748 13.1385L18.2263 13.5667L18.7061 13.5709L18.3241 13.8366ZM18.3241 11.9147L18.4711 12.3578L18.072 12.0905L17.6779 12.3588L17.831 11.9147L17.4314 11.649L17.93 11.6448L18.0748 11.2166L18.2263 11.6448L18.7061 11.649L18.3241 11.9147ZM18.3241 9.9923L18.4711 10.4353L18.072 10.168L17.6779 10.4364L17.831 9.9923L17.4314 9.72659L17.93 9.72236L18.0748 9.29415L18.2263 9.72236L18.7061 9.72659L18.3241 9.9923Z" fill="#272F70"/>
</g>
<path d="M3.63604 9.63604C2.2477 11.0244 1.60961 12.7992 1.30181 15.0886C0.999974 17.3336 0.999985 20.2169 1 23.9226L1 24L1 24.0774C0.999985 27.7831 0.999974 30.6664 1.30181 32.9114C1.60961 35.2008 2.2477 36.9756 3.63604 38.364C5.02438 39.7523 6.79918 40.3904 9.08858 40.6982C11.3336 41 14.2169 41 17.9226 41H18H30H30.0774C33.7831 41 36.6664 41 38.9114 40.6982C41.2008 40.3904 42.9756 39.7523 44.364 38.364C45.7523 36.9756 46.3904 35.2008 46.6982 32.9114C47 30.6664 47 27.7831 47 24.0774V24V23.9226C47 20.2169 47 17.3336 46.6982 15.0886C46.3904 12.7992 45.7523 11.0244 44.364 9.63604C42.9756 8.2477 41.2008 7.60961 38.9114 7.30181C36.6664 6.99997 33.7831 6.99999 30.0774 7L30 7H18L17.9226 7C14.2169 6.99999 11.3336 6.99997 9.08858 7.30181C6.79918 7.60961 5.02438 8.2477 3.63604 9.63604Z" stroke="#042B60" stroke-width="2"/>
<defs>
<clipPath id="clip0_164_2292">
<path d="M2 24C2 16.4575 2 12.6863 4.34315 10.3431C6.68629 8 10.4575 8 18 8H30C37.5425 8 41.3137 8 43.6569 10.3431C46 12.6863 46 16.4575 46 24C46 31.5425 46 35.3137 43.6569 37.6569C41.3137 40 37.5425 40 30 40H18C10.4575 40 6.68629 40 4.34315 37.6569C2 35.3137 2 31.5425 2 24Z" fill="white"/>
</clipPath>
</defs>
</svg>
