<svg width="48" height="48" viewBox="0 0 48 48" fill="none" xmlns="http://www.w3.org/2000/svg">
<g clip-path="url(#clip0_164_2474)">
<path fill-rule="evenodd" clip-rule="evenodd" d="M2 8H46V39.1669H2V8Z" fill="white"/>
<path fill-rule="evenodd" clip-rule="evenodd" d="M23.9149 15.4031L32.956 30.7257H14.8837L23.9149 15.4031Z" fill="#E30613"/>
<path fill-rule="evenodd" clip-rule="evenodd" d="M14.1829 26.897C14.1406 26.8727 14.1158 26.8557 14.1058 26.8386C14.0884 26.8314 14.0884 26.8046 14.1058 26.773C14.1058 26.7559 14.1133 26.7389 14.1232 26.7219C14.1307 26.7146 14.1307 26.6976 14.1406 26.6878C14.1406 26.6805 14.1406 26.6708 14.1406 26.6635C14.1406 26.6562 14.1332 26.6465 14.1232 26.6392C14.0984 26.6319 14.081 26.6392 14.0636 26.6562C14.0636 26.6732 14.0462 26.6976 14.0288 26.7389C14.0114 26.79 13.9865 26.8386 13.9442 26.9141C13.902 26.9797 13.8672 27.0308 13.8423 27.0551C13.8175 27.0892 13.8001 27.1135 13.7901 27.1208C13.7827 27.1451 13.7827 27.1622 13.8075 27.1719C13.8249 27.1792 13.8324 27.1792 13.8423 27.1792C13.8498 27.1792 13.8498 27.1719 13.8597 27.1622C13.8672 27.1549 13.8771 27.1451 13.8846 27.1281C13.892 27.1208 13.902 27.1038 13.9094 27.0941C13.9343 27.077 13.9517 27.0697 13.9691 27.0697C13.9865 27.077 14.0213 27.0868 14.0536 27.1111L15.1772 27.746C15.2021 27.763 15.2195 27.7703 15.2369 27.78C15.2543 27.7971 15.2617 27.8044 15.2717 27.8141C15.2792 27.8214 15.2891 27.8384 15.2891 27.8555C15.2891 27.8628 15.2891 27.8798 15.2816 27.9065C15.2742 27.9236 15.2742 27.9309 15.2642 27.9406C15.2568 27.9576 15.2568 27.9649 15.2468 27.9746C15.2468 27.9819 15.2468 27.9917 15.2468 27.999C15.2468 28.0063 15.2543 28.016 15.2642 28.0233C15.2891 28.0403 15.3164 28.0306 15.3314 27.999C15.3388 27.9819 15.3562 27.9576 15.3736 27.9163C15.391 27.8749 15.4159 27.8238 15.4507 27.7582C15.5352 27.6171 15.6123 27.5003 15.6719 27.4079C15.739 27.3154 15.7838 27.2497 15.8161 27.1987C15.8335 27.1646 15.8335 27.1403 15.7987 27.1233C15.7987 27.1233 15.7912 27.1233 15.7912 27.116C15.7838 27.1087 15.7738 27.1087 15.7664 27.0989L15.5451 26.9408C15.5377 26.9335 15.5277 26.9238 15.5203 26.9238C15.5128 26.9165 15.5128 26.9165 15.5029 26.9165C15.5029 26.9165 15.4954 26.9165 15.4855 26.9165L15.478 26.9238C15.4706 26.9408 15.4706 26.9651 15.4954 26.9992C15.5128 27.0333 15.5377 27.0819 15.5625 27.1403C15.5874 27.1987 15.6048 27.257 15.5973 27.3081C15.5973 27.3665 15.5799 27.4176 15.5551 27.4662C15.4954 27.566 15.4109 27.5903 15.299 27.5319L14.1829 26.897ZM15.0455 25.4375C15.0107 25.4132 14.9784 25.3962 14.9684 25.3791C14.961 25.3621 14.961 25.3378 14.9684 25.3037C14.9759 25.2867 14.9759 25.2794 14.9858 25.2624C14.9933 25.2453 14.9933 25.238 15.0032 25.2283C15.0032 25.2113 15.0107 25.204 15.0032 25.204C15.0032 25.1967 14.9958 25.187 14.9858 25.1797C14.961 25.1724 14.9436 25.1724 14.9336 25.1967C14.9262 25.2137 14.9088 25.238 14.8914 25.2794C14.8839 25.3207 14.8491 25.3791 14.8143 25.4472C14.772 25.5129 14.7372 25.564 14.7024 25.5981C14.6776 25.6394 14.6602 25.6637 14.6502 25.6735C14.6328 25.6978 14.6428 25.7148 14.6577 25.7318C14.6751 25.7391 14.6825 25.7391 14.6925 25.7318C14.6999 25.7318 14.7099 25.7245 14.7173 25.7148C14.7248 25.7075 14.7248 25.6978 14.7347 25.6808C14.7422 25.6637 14.7596 25.6564 14.7695 25.6394C14.7944 25.6224 14.8118 25.6151 14.8292 25.6151C14.8466 25.6151 14.8814 25.6321 14.9137 25.6491L16.0373 26.284C16.0622 26.3011 16.0796 26.3181 16.097 26.3254C16.1144 26.3327 16.1318 26.3424 16.1393 26.3594C16.1467 26.3667 16.1467 26.3838 16.1467 26.3935C16.1467 26.4105 16.1467 26.4275 16.1393 26.4519C16.1393 26.4592 16.1318 26.4762 16.1219 26.4859C16.1144 26.4932 16.1144 26.5103 16.1045 26.52C16.1045 26.5273 16.1045 26.537 16.1045 26.5443C16.1045 26.5516 16.1119 26.5613 16.1219 26.5686C16.1467 26.5857 16.1741 26.5686 16.189 26.5346C16.1964 26.5273 16.2138 26.4932 16.2312 26.4592C16.2486 26.4178 16.2735 26.3667 16.3158 26.3011C16.3506 26.2427 16.3829 26.1916 16.4102 26.16C16.4351 26.1186 16.4525 26.1016 16.4624 26.0846C16.4798 26.0505 16.4798 26.0262 16.455 26.0092C16.4475 26.0092 16.4376 26.0019 16.4301 26.0092C16.4227 26.0092 16.4127 26.0092 16.4053 26.0262C16.3978 26.0335 16.3879 26.0432 16.3804 26.0505C16.3729 26.0675 16.363 26.0748 16.3456 26.0919C16.3381 26.0992 16.3207 26.1089 16.3108 26.1162C16.2934 26.1235 16.2859 26.1235 16.2685 26.1235C16.2611 26.1162 16.2437 26.1162 16.2263 26.1065C16.2089 26.0992 16.1915 26.0821 16.1666 26.0724L15.0455 25.4375ZM16.1268 24.5448L15.7167 24.3112C15.6744 24.2869 15.6396 24.2602 15.6396 24.2358C15.6321 24.2115 15.6396 24.1604 15.6744 24.102C15.7341 24.0096 15.8012 23.9512 15.8882 23.9269C15.9727 23.9099 16.0597 23.9269 16.1616 23.9853C16.2561 24.0364 16.3158 24.1093 16.3332 24.1945C16.3506 24.2772 16.3257 24.3769 16.266 24.4791L16.2486 24.5131C16.2412 24.5302 16.2238 24.5375 16.2238 24.5545C16.2163 24.5618 16.2064 24.5618 16.1989 24.5715C16.1915 24.5715 16.1815 24.5715 16.1741 24.5642C16.1517 24.5618 16.1442 24.5521 16.1268 24.5448ZM16.4674 24.1702C16.4848 24.0704 16.4749 23.9877 16.45 23.9196C16.4251 23.8539 16.3655 23.7955 16.2785 23.7518C16.1517 23.6763 16.0224 23.669 15.9031 23.7347C15.7838 23.8004 15.6645 23.9342 15.5526 24.1361C15.3736 24.4353 15.3065 24.6031 15.3562 24.6275C15.3811 24.6445 15.3985 24.6348 15.4084 24.6202C15.4159 24.6031 15.4258 24.5958 15.4258 24.5788C15.4333 24.5618 15.4432 24.5448 15.4507 24.5277C15.4755 24.4864 15.5178 24.4767 15.5775 24.5204L16.7011 25.1553C16.7185 25.1626 16.7259 25.1626 16.7359 25.1724C16.7433 25.1797 16.7433 25.1797 16.7533 25.1797C16.7881 25.204 16.8055 25.221 16.8129 25.2453C16.8303 25.2697 16.8204 25.2964 16.8055 25.3378C16.7806 25.3718 16.7806 25.3962 16.8055 25.4132C16.8303 25.4302 16.8577 25.4205 16.8726 25.3889C16.8801 25.3718 16.89 25.3475 16.9074 25.3232C16.9149 25.2891 16.9323 25.2478 16.9596 25.2064C16.9944 25.148 17.0441 25.0824 17.0963 25.024C17.1485 24.9583 17.2082 24.8829 17.2579 24.7904C17.2927 24.7248 17.3176 24.6567 17.325 24.591C17.3424 24.5253 17.3325 24.4572 17.3176 24.3988C17.3002 24.3404 17.2753 24.282 17.233 24.2237C17.1908 24.1726 17.1386 24.1312 17.0715 24.0899C16.9596 24.0315 16.8502 24.0072 16.7483 24.0145C16.6389 24.0266 16.5519 24.0777 16.4674 24.1702ZM16.2984 24.5958L16.3829 24.445C16.45 24.3453 16.5271 24.2772 16.6215 24.2626C16.716 24.2456 16.8179 24.2626 16.9198 24.321C17.0392 24.3866 17.1162 24.4718 17.151 24.5618C17.1759 24.6542 17.1684 24.7442 17.1088 24.8367C17.0665 24.9121 17.0242 24.9534 16.982 24.9607C16.9298 24.9778 16.8801 24.9607 16.8104 24.9267L16.3158 24.6421C16.2884 24.6372 16.281 24.6202 16.2984 24.5958ZM16.9521 21.959L16.9447 21.9517C16.9198 21.9346 16.8925 21.9273 16.885 21.9273C16.8676 21.9273 16.8502 21.9444 16.8328 21.9784C16.8154 21.9955 16.7906 22.0441 16.7483 22.1195C16.706 22.2022 16.6464 22.3117 16.5619 22.4528C16.5022 22.5622 16.4425 22.6449 16.4077 22.7033C16.3729 22.7617 16.3481 22.7958 16.3406 22.8031C16.3232 22.8274 16.3332 22.8541 16.3481 22.8614C16.3655 22.8687 16.3729 22.8785 16.3829 22.8687C16.3903 22.8687 16.4003 22.8614 16.4077 22.8517C16.4152 22.8444 16.4152 22.8347 16.4251 22.8177C16.4326 22.8104 16.4425 22.7933 16.4599 22.7836C16.4773 22.7666 16.5022 22.7593 16.5196 22.7666C16.537 22.7666 16.5619 22.7836 16.5967 22.8006L17.7203 23.4355C17.7625 23.4598 17.7973 23.4866 17.8222 23.5109C17.8396 23.528 17.8396 23.562 17.8297 23.5936C17.8123 23.6277 17.8048 23.652 17.7874 23.6763C17.7799 23.6934 17.7874 23.7104 17.8048 23.7177C17.8297 23.7347 17.857 23.725 17.8719 23.6836C17.8794 23.6763 17.8893 23.6496 17.9067 23.618C17.9316 23.5766 17.9589 23.5182 18.0012 23.4428C18.0956 23.292 18.1727 23.1679 18.2398 23.0682C18.3069 22.9685 18.3517 22.8931 18.384 22.8517C18.3915 22.8274 18.4014 22.8177 18.4014 22.8104C18.4089 22.7933 18.4089 22.786 18.4014 22.7763C18.4014 22.769 18.394 22.7593 18.384 22.752C18.3766 22.752 18.3592 22.735 18.3417 22.7277L18.1205 22.5695C18.1031 22.5622 18.0956 22.5525 18.0857 22.5452C18.0782 22.5379 18.0782 22.5379 18.0782 22.5379C18.0782 22.5379 18.0708 22.5379 18.0608 22.5379C18.0509 22.5379 18.0434 22.5452 18.0434 22.5452C18.026 22.5695 18.036 22.5963 18.0608 22.6279C18.0857 22.662 18.113 22.7033 18.1454 22.7617C18.1628 22.7958 18.1702 22.8274 18.1802 22.8541C18.1876 22.8882 18.1876 22.9198 18.1876 22.9466C18.1802 22.9806 18.1702 23.005 18.1528 23.039C18.1454 23.0731 18.128 23.1047 18.1006 23.1388C18.0832 23.1801 18.0584 23.2044 18.041 23.2215C18.0236 23.2458 18.0062 23.2555 17.9888 23.2628C17.9714 23.2701 17.954 23.2701 17.9291 23.2628C17.9042 23.2555 17.8769 23.2458 17.8446 23.2215L17.3325 22.9369C17.3151 22.9296 17.3076 22.9198 17.3076 22.9125C17.3076 22.9052 17.3076 22.8882 17.3151 22.8712L17.3822 22.7617C17.4071 22.7106 17.4344 22.679 17.4667 22.6449C17.4916 22.6206 17.5264 22.6036 17.5786 22.6109C17.6134 22.6109 17.6382 22.6109 17.6631 22.6182C17.688 22.6182 17.7054 22.6255 17.7228 22.6352C17.7402 22.6352 17.7576 22.6352 17.775 22.6352C17.7824 22.6352 17.7924 22.6352 17.7998 22.6279C17.8073 22.6036 17.7998 22.5866 17.775 22.5695C17.7576 22.5622 17.7327 22.5525 17.6979 22.5355C17.6631 22.5185 17.6134 22.4941 17.5612 22.4601C17.509 22.4358 17.4667 22.4017 17.4245 22.3774C17.3897 22.353 17.3573 22.3263 17.3225 22.3117C17.2977 22.2947 17.2803 22.3044 17.2703 22.319C17.2604 22.3336 17.2629 22.3433 17.2703 22.353C17.2778 22.3603 17.2877 22.3774 17.3051 22.3871C17.3126 22.3944 17.33 22.4114 17.3399 22.4285C17.3573 22.4455 17.3648 22.4625 17.3747 22.4868C17.3747 22.5039 17.3747 22.5379 17.3573 22.5793C17.3499 22.6206 17.3225 22.6717 17.2977 22.7131L17.238 22.8225C17.2206 22.8468 17.2132 22.8566 17.2032 22.8566C17.1933 22.8566 17.1784 22.8566 17.161 22.8396L16.7508 22.6133C16.7259 22.5963 16.6986 22.5793 16.6837 22.572C16.6663 22.5549 16.6588 22.5379 16.6489 22.5209C16.6414 22.5136 16.6414 22.4966 16.6489 22.4698C16.6563 22.4528 16.6663 22.4285 16.6837 22.3944C16.7607 22.2606 16.8453 22.1852 16.9472 22.1536C16.982 22.1463 17.0143 22.1365 17.0416 22.1365C17.0665 22.1438 17.0938 22.1438 17.1187 22.1438C17.1361 22.1511 17.161 22.1511 17.1709 22.1511C17.1883 22.1511 17.1958 22.1511 17.2057 22.1341C17.2156 22.1171 17.1982 22.1001 17.1634 22.0757L16.9521 21.959ZM18.1379 21.2584L17.6681 21.0006C17.6507 20.9835 17.6333 20.9762 17.6159 20.9665C17.6084 20.9495 17.5985 20.9422 17.591 20.9251C17.5836 20.9178 17.5836 20.9008 17.591 20.8741C17.591 20.857 17.5985 20.8327 17.6159 20.8084C17.6681 20.733 17.7277 20.6916 17.8123 20.6843C17.8968 20.677 17.9912 20.7013 18.0932 20.7597C18.297 20.8765 18.3567 21.0176 18.2547 21.1854C18.2299 21.2268 18.2125 21.2511 18.1951 21.2681C18.1802 21.2754 18.1628 21.2754 18.1379 21.2584ZM18.4114 20.9908C18.4462 20.8984 18.4362 20.8157 18.394 20.7232C18.3592 20.6405 18.2821 20.5724 18.1901 20.514C18.0782 20.4557 17.9589 20.4313 17.857 20.463C17.7451 20.4873 17.6532 20.5627 17.5761 20.6965C17.5413 20.7476 17.5164 20.8059 17.4916 20.8643C17.4568 20.9227 17.4245 20.9884 17.3897 21.0468C17.3648 21.0881 17.3474 21.1222 17.33 21.1465C17.3051 21.1708 17.2952 21.1879 17.2877 21.1976C17.2803 21.2219 17.2703 21.2389 17.2629 21.2487C17.2629 21.2657 17.2703 21.273 17.2877 21.2827C17.2952 21.29 17.3051 21.29 17.3126 21.29C17.3201 21.29 17.33 21.2827 17.3375 21.273C17.3449 21.2657 17.3549 21.2487 17.3623 21.2389C17.3698 21.2219 17.3797 21.2049 17.3971 21.1976C17.4145 21.1733 17.4394 21.1635 17.4568 21.1733C17.4742 21.1733 17.499 21.1806 17.5413 21.2073L18.6575 21.8422C18.6823 21.8592 18.7097 21.8665 18.7246 21.8836C18.742 21.8909 18.7494 21.9006 18.7594 21.9079C18.7668 21.9249 18.7668 21.9322 18.7668 21.9492C18.7668 21.9663 18.7668 21.9833 18.7594 22.0003C18.7594 22.0174 18.7519 22.0247 18.7519 22.0417C18.7445 22.049 18.7345 22.0587 18.7345 22.0757C18.7271 22.083 18.7271 22.0928 18.7271 22.1001C18.7345 22.1074 18.7345 22.1171 18.7519 22.1171C18.7768 22.1341 18.8041 22.1244 18.819 22.0928C18.8265 22.0757 18.8364 22.0514 18.8538 22.0101C18.8712 21.9687 18.906 21.9176 18.9384 21.8592C18.9732 21.7936 19.0055 21.7498 19.0328 21.7181C19.0577 21.6841 19.0751 21.6598 19.085 21.6525C19.1024 21.6184 19.1024 21.5941 19.0776 21.5868C19.0527 21.5698 19.0254 21.5795 19.0005 21.6111C18.993 21.6354 18.9756 21.6525 18.9582 21.6622C18.9408 21.6792 18.9234 21.6792 18.906 21.6792C18.8886 21.6792 18.8712 21.6719 18.8538 21.6622C18.829 21.6549 18.8116 21.6452 18.7867 21.6281L18.302 21.3606C18.2846 21.3435 18.2771 21.3265 18.2945 21.3022L18.302 21.2852C18.3268 21.2438 18.3542 21.2195 18.379 21.2097C18.4039 21.2 18.4387 21.2025 18.4909 21.2097L19.182 21.3095C19.2168 21.3095 19.2416 21.3168 19.259 21.3168C19.2764 21.3168 19.2938 21.2998 19.3013 21.2754C19.3088 21.2584 19.3262 21.2414 19.3262 21.2243C19.3336 21.2073 19.3436 21.183 19.361 21.166C19.3784 21.1416 19.3858 21.1149 19.4032 21.0906C19.4206 21.0662 19.438 21.0492 19.4554 21.0249C19.4629 21.0078 19.4629 21.0006 19.4629 20.9908C19.4703 20.9835 19.4629 20.9738 19.4554 20.9738C19.4306 20.9568 19.4206 20.9665 19.4032 20.9811C19.3858 20.9981 19.361 21.0151 19.3361 21.0395C19.3187 21.0468 19.2938 21.0565 19.2416 21.0468C19.1994 21.0468 19.1298 21.0395 19.0552 21.0297L18.6301 20.9714C18.5953 20.9714 18.553 20.9641 18.5182 20.9641C18.4785 20.9665 18.4437 20.9738 18.4114 20.9908ZM18.7867 18.5899L18.7519 18.5729C18.7519 18.5729 18.7345 18.5656 18.7271 18.5656C18.7097 18.5656 18.7022 18.5656 18.6923 18.5729C18.6923 18.5802 18.6923 18.5899 18.6997 18.5972C18.6997 18.6045 18.7072 18.6142 18.7171 18.6313C18.7246 18.6386 18.7345 18.6483 18.7345 18.6653C18.742 18.6823 18.7519 18.6896 18.7519 18.7067C18.7519 18.7237 18.7345 18.7577 18.7171 18.7894C18.6997 18.8137 18.6823 18.8405 18.6649 18.8721C18.6475 18.8964 18.6227 18.9305 18.5978 18.9718L18.4263 19.271C18.4014 19.3051 18.384 19.3367 18.3666 19.3634C18.3492 19.3975 18.3417 19.4218 18.3243 19.4389C18.2895 19.5045 18.2647 19.5386 18.2398 19.5386C18.2324 19.5459 18.2224 19.5556 18.215 19.5556C18.2075 19.5483 18.1901 19.5483 18.1802 19.5483C18.1628 19.5483 18.1553 19.541 18.1454 19.541C18.1379 19.541 18.128 19.5483 18.1205 19.5483C18.113 19.5654 18.1205 19.5824 18.1379 19.5994C18.1628 19.6164 18.1901 19.6408 18.2224 19.6748L18.4362 19.8743C18.4437 19.8816 18.4536 19.8913 18.4536 19.8913C18.4611 19.8986 18.471 19.9083 18.471 19.9083C18.4884 19.9156 18.4959 19.9156 18.5058 19.9156C18.5058 19.9156 18.5133 19.9083 18.5133 19.8986H18.5207C18.5282 19.8816 18.5282 19.8573 18.5033 19.8232C18.4859 19.7891 18.4611 19.7478 18.4362 19.6894C18.4114 19.6383 18.4014 19.5897 18.4014 19.5483C18.4014 19.507 18.4089 19.4559 18.4437 19.4072L18.4785 19.3416C18.4859 19.3343 18.4959 19.3343 18.5133 19.3343C18.5207 19.3343 18.5381 19.3343 18.5481 19.3416L19.7413 20.0178C19.7935 20.0421 19.8258 20.0689 19.8432 20.0835C19.8507 20.1005 19.8606 20.1248 19.8507 20.1589C19.8432 20.1759 19.8432 20.1929 19.8333 20.2002C19.8258 20.2173 19.8159 20.2246 19.8159 20.2343C19.8084 20.2513 19.8084 20.2586 19.8084 20.2684C19.8084 20.2757 19.8159 20.2854 19.8333 20.2927C19.8581 20.3097 19.8755 20.2927 19.9004 20.2586C19.9079 20.2343 19.9253 20.2002 19.9427 20.1589C19.9601 20.1175 19.9849 20.0762 20.0098 20.0251C20.0446 19.974 20.0694 19.9327 20.1042 19.901C20.1291 19.867 20.1465 19.8354 20.1639 19.8086C20.1813 19.7745 20.1813 19.7502 20.1639 19.7429C20.1465 19.7356 20.139 19.7259 20.1291 19.7356C20.1216 19.7356 20.1117 19.7429 20.1042 19.7527C20.0968 19.76 20.0868 19.7697 20.0794 19.7867C20.0719 19.794 20.062 19.8037 20.0545 19.8208C20.0371 19.8281 20.0197 19.8451 20.0123 19.8451C20.0048 19.8524 19.9874 19.8524 19.9775 19.8524C19.9601 19.8451 19.9427 19.8451 19.9253 19.8354C19.9079 19.8281 19.8904 19.811 19.8656 19.8013L18.6649 19.1178C18.6575 19.1178 18.6475 19.1105 18.6475 19.1007C18.6401 19.0837 18.6401 19.0764 18.6475 19.0667L18.6649 19.0253C18.7072 18.9596 18.7494 18.9013 18.7842 18.8745C18.8265 18.8405 18.8787 18.8332 18.9384 18.8332C18.9732 18.8405 18.998 18.8502 19.0154 18.8575C19.0403 18.8648 19.0577 18.8648 19.0751 18.8745C19.0925 18.8745 19.1099 18.8818 19.1173 18.8745C19.1248 18.8745 19.1422 18.8745 19.1422 18.8575C19.1497 18.8502 19.1497 18.8332 19.1422 18.8234C19.1422 18.8161 19.1248 18.8064 19.0999 18.7894L18.7867 18.5899ZM19.4679 17.6728C19.4256 17.6655 19.3908 17.6558 19.3659 17.6485C19.3411 17.6412 19.3237 17.6485 19.3137 17.6655C19.3063 17.6826 19.3063 17.6899 19.3137 17.6996C19.3212 17.7069 19.3311 17.7239 19.3485 17.7409L20.3876 18.8332C20.4224 18.8745 20.4547 18.9086 20.4821 18.9329C20.4995 18.9669 20.5169 18.9913 20.5169 19.0253C20.5243 19.0424 20.5169 19.0594 20.5169 19.0764C20.5094 19.0934 20.4995 19.1007 20.4995 19.1178C20.492 19.1251 20.492 19.1421 20.4821 19.1518C20.4821 19.1591 20.4895 19.1688 20.5069 19.1761C20.5243 19.1932 20.5417 19.1834 20.5592 19.1518C20.5766 19.1348 20.584 19.1105 20.594 19.0861C20.6114 19.0521 20.6188 19.0278 20.6462 18.9864C20.671 18.9353 20.7058 18.894 20.7307 18.8623C20.7555 18.8283 20.7729 18.804 20.7829 18.7869C20.8003 18.7626 20.8003 18.7456 20.7754 18.7286C20.758 18.7213 20.7406 18.7213 20.7232 18.7359C20.7158 18.7432 20.6884 18.7699 20.6636 18.7942C20.6561 18.8186 20.6387 18.8283 20.6213 18.8356C20.6138 18.8356 20.5865 18.8356 20.5616 18.8186C20.5368 18.8015 20.4771 18.7602 20.4001 18.6775L20.2136 18.5023C20.2062 18.495 20.2062 18.4853 20.2062 18.478C20.2062 18.4707 20.2062 18.461 20.2062 18.461L20.3851 18.1618C20.3926 18.1447 20.41 18.1374 20.4274 18.1374L20.7928 18.2202C20.8525 18.2372 20.8947 18.2542 20.9121 18.2615C20.937 18.2785 20.9469 18.2956 20.9544 18.3126C20.9544 18.3296 20.937 18.3539 20.9196 18.3953C20.8947 18.4294 20.9022 18.4537 20.9271 18.461C20.9445 18.478 20.9619 18.4683 20.9793 18.4367C20.9867 18.4294 21.0041 18.3953 21.0215 18.3539C21.0464 18.3126 21.0737 18.2542 21.116 18.1861C21.1408 18.135 21.1682 18.1034 21.193 18.0693C21.2179 18.0353 21.2353 18.011 21.2453 17.9939C21.2701 17.9599 21.2701 17.9355 21.2453 17.9282C21.2279 17.921 21.2104 17.921 21.203 17.9355C21.1856 17.9526 21.1682 17.9696 21.1359 17.9866C21.1011 18.0037 21.0588 18.011 21.0166 18.0037C20.9743 18.0037 20.9146 17.9866 20.845 17.9793L19.4679 17.6728ZM19.7314 17.9818L20.2335 18.0912C20.2509 18.0985 20.2584 18.0985 20.2584 18.0985C20.2658 18.1058 20.2658 18.1058 20.2658 18.1156C20.2658 18.1229 20.2658 18.1326 20.2658 18.1326L20.1216 18.3734C20.1216 18.3807 20.1142 18.3904 20.1042 18.3807C20.0968 18.3807 20.0968 18.3807 20.0968 18.3807C20.0893 18.3734 20.0893 18.3734 20.0794 18.3637L19.714 18.0061C19.6966 17.9988 19.6966 17.9891 19.6966 17.9818C19.7065 17.9818 19.714 17.9818 19.7314 17.9818ZM20.4224 16.7558C20.4895 16.7971 20.5591 16.8214 20.6188 16.8312C20.671 16.8385 20.7307 16.8385 20.7804 16.8239C20.8326 16.8166 20.8823 16.7996 20.9345 16.7655C20.9867 16.7412 21.0464 16.7071 21.0961 16.6731C21.208 16.6147 21.2999 16.5806 21.3869 16.5636C21.4715 16.5563 21.5585 16.5709 21.633 16.6147C21.6753 16.639 21.7101 16.6658 21.735 16.6974C21.7598 16.7314 21.7872 16.7631 21.7946 16.8068C21.8021 16.8482 21.812 16.8823 21.8021 16.9236C21.8021 16.965 21.7946 16.999 21.7673 17.0404C21.7325 17.0988 21.6728 17.1401 21.5958 17.1742C21.5187 17.1985 21.4342 17.1985 21.3323 17.1742C21.3074 17.1742 21.2801 17.1669 21.2651 17.1571C21.2403 17.1498 21.2229 17.1401 21.2055 17.1328C21.1881 17.1255 21.1707 17.1255 21.1632 17.1255C21.1458 17.1255 21.1384 17.1255 21.1284 17.1425C21.121 17.1669 21.1359 17.1936 21.1881 17.2179C21.1881 17.2179 21.1955 17.2252 21.2055 17.2252C21.2229 17.2325 21.2303 17.2423 21.2477 17.2496C21.2726 17.2666 21.2999 17.2739 21.3248 17.2909C21.3497 17.308 21.377 17.325 21.4019 17.342C21.469 17.3834 21.546 17.3834 21.6231 17.3347C21.6902 17.2934 21.7598 17.2179 21.8195 17.1085C21.8617 17.0428 21.8866 16.9747 21.8966 16.8993C21.904 16.8336 21.8966 16.7582 21.8791 16.6901C21.8543 16.6317 21.8195 16.566 21.7772 16.5076C21.735 16.4566 21.6753 16.4079 21.5982 16.3666C21.5311 16.3252 21.4615 16.3009 21.4019 16.2911C21.3422 16.2741 21.2751 16.2741 21.2154 16.2839C21.1558 16.3009 21.0961 16.3179 21.029 16.3495C20.9693 16.3739 20.9022 16.4152 20.8251 16.459C20.7406 16.5174 20.6636 16.5514 20.6039 16.5587C20.5442 16.5758 20.4771 16.5587 20.4175 16.5247C20.3404 16.4833 20.2907 16.4249 20.2633 16.3568C20.2459 16.2911 20.2559 16.223 20.2981 16.1476C20.3329 16.0965 20.3752 16.0649 20.4249 16.0479C20.4771 16.0406 20.5442 16.0406 20.6213 16.0479C20.681 16.0552 20.7158 16.0649 20.7406 16.0722C20.7655 16.0722 20.7829 16.0722 20.7928 16.0552C20.8102 16.0309 20.8003 16.0138 20.768 15.9968C20.6064 15.9044 20.5119 15.8557 20.4871 15.863C20.4622 15.863 20.4274 15.8873 20.3851 15.9287C20.3329 15.9701 20.2907 16.0211 20.2484 16.0868C20.2136 16.1525 20.1888 16.2206 20.1714 16.2863C20.1639 16.3447 20.1714 16.403 20.1788 16.4614C20.1962 16.5198 20.231 16.5782 20.2633 16.6293C20.3031 16.6804 20.3528 16.7217 20.4224 16.7558Z" fill="black"/>
<path fill-rule="evenodd" clip-rule="evenodd" d="M20.3628 31.1004V31.0761C20.3628 31.0688 20.3628 31.0591 20.3554 31.0518C20.3554 31.0348 20.3479 31.0348 20.3305 31.0348C20.3231 31.0348 20.3131 31.0348 20.3131 31.0421C20.3057 31.0494 20.2957 31.0591 20.2883 31.0664C20.2883 31.0737 20.2808 31.0907 20.2709 31.1004C20.2634 31.1175 20.246 31.1248 20.2286 31.1248C20.2112 31.1321 20.1863 31.1418 20.1341 31.1418C20.0993 31.1418 20.067 31.1418 20.0223 31.1418C19.98 31.1345 19.9377 31.1345 19.8855 31.1345H19.4928C19.4505 31.1345 19.4083 31.1345 19.366 31.1345C19.3312 31.1418 19.2989 31.1418 19.2641 31.1418C19.187 31.1418 19.1373 31.1345 19.1199 31.1175C19.1124 31.1175 19.1025 31.1102 19.095 31.1004C19.095 31.0931 19.0876 31.0834 19.0876 31.0761C19.0801 31.0688 19.0702 31.0518 19.0702 31.0421C19.0627 31.0348 19.0528 31.0348 19.0453 31.0348C19.0279 31.0348 19.0105 31.0421 19.0105 31.0688C19.0031 31.0931 18.9931 31.1199 18.9857 31.1612L18.9086 31.4117C18.9011 31.419 18.9011 31.4287 18.9011 31.436C18.8937 31.4433 18.8937 31.453 18.8937 31.453C18.8937 31.47 18.9011 31.4773 18.9011 31.4773C18.9086 31.4846 18.9185 31.4846 18.926 31.4846C18.9509 31.4846 18.9782 31.4676 18.9931 31.4433C19.018 31.419 19.0453 31.3776 19.0776 31.3266C19.1199 31.2852 19.1622 31.2609 19.2044 31.2439C19.2467 31.2196 19.2989 31.2099 19.366 31.2099H19.4505C19.4679 31.2099 19.4754 31.2172 19.4853 31.2269C19.4953 31.2366 19.4928 31.2439 19.4928 31.2609V32.4451C19.4928 32.5034 19.4928 32.5375 19.4853 32.5545C19.4779 32.5715 19.4505 32.5885 19.4083 32.5958C19.3909 32.6031 19.3734 32.6031 19.356 32.6031C19.3386 32.6031 19.3212 32.6031 19.3138 32.6031C19.2964 32.6031 19.2889 32.6104 19.279 32.6104C19.2715 32.6177 19.2715 32.6274 19.2715 32.6347C19.2715 32.659 19.2889 32.6761 19.3386 32.6761C19.3635 32.6761 19.4058 32.6761 19.458 32.6688C19.5102 32.6615 19.5698 32.6615 19.637 32.6615C19.7041 32.6615 19.7637 32.6615 19.8085 32.6688C19.8607 32.6761 19.9029 32.6761 19.9353 32.6761C19.9775 32.6761 20.0024 32.6688 20.0024 32.642C20.0024 32.625 19.9949 32.6177 19.985 32.6177C19.985 32.6104 19.9676 32.6104 19.9601 32.6104C19.9427 32.6031 19.9353 32.6031 19.9179 32.6031C19.9005 32.6031 19.8831 32.6031 19.8582 32.5958C19.8408 32.5885 19.8234 32.5885 19.8159 32.5788C19.7985 32.5715 19.7911 32.5618 19.7911 32.5545C19.7836 32.5472 19.7836 32.5302 19.7836 32.5131C19.7762 32.4961 19.7762 32.4791 19.7762 32.4475V31.2561C19.7762 31.2488 19.7836 31.239 19.7936 31.2317C19.801 31.2245 19.811 31.2147 19.8184 31.2147H19.8706C19.9725 31.2147 20.0422 31.222 20.0919 31.239C20.1441 31.2463 20.1863 31.2804 20.2112 31.3314C20.2186 31.3557 20.2286 31.3825 20.236 31.3971C20.2435 31.4214 20.2435 31.4384 20.2534 31.4554C20.2534 31.4627 20.2609 31.4798 20.2709 31.4895C20.2783 31.4968 20.2883 31.4968 20.3057 31.4968C20.3231 31.4968 20.3305 31.4968 20.3405 31.4798C20.3405 31.4725 20.3479 31.4554 20.3479 31.4287L20.3628 31.1004Z" fill="black"/>
<path fill-rule="evenodd" clip-rule="evenodd" d="M21.4614 31.2074C21.444 31.1734 21.4366 31.1418 21.4266 31.1247C21.4266 31.1004 21.4092 31.0907 21.3844 31.0907C21.367 31.0907 21.3595 31.098 21.3496 31.1077C21.3496 31.115 21.3421 31.132 21.3322 31.1491L20.83 32.4086C20.8126 32.4596 20.7952 32.4912 20.7778 32.5253C20.7703 32.5496 20.743 32.5763 20.7107 32.5909C20.6933 32.5982 20.6759 32.608 20.6585 32.608C20.6411 32.608 20.6237 32.6153 20.6063 32.6153C20.5988 32.6153 20.5814 32.6152 20.5715 32.6225C20.564 32.6225 20.5541 32.6298 20.5541 32.6469C20.5541 32.6639 20.5715 32.6809 20.6137 32.6809C20.6311 32.6809 20.6659 32.6736 20.6983 32.6736C20.7331 32.6663 20.7753 32.6663 20.8176 32.6663C20.8847 32.6663 20.9444 32.6663 20.9891 32.6736C21.0413 32.6809 21.0736 32.6809 21.091 32.6809C21.1333 32.6809 21.1507 32.6736 21.1507 32.6469C21.1507 32.6298 21.1333 32.6225 21.1159 32.6128C21.091 32.6055 21.0637 32.6055 21.0214 32.5958C20.9866 32.5958 20.9692 32.5885 20.9543 32.5788C20.9468 32.5715 20.9369 32.5545 20.9369 32.5277C20.9369 32.5034 20.9543 32.4353 20.9891 32.3356L21.0662 32.1192C21.0662 32.1192 21.0662 32.1119 21.0736 32.1022C21.0811 32.1022 21.091 32.1022 21.0985 32.1022H21.4913C21.5161 32.1022 21.5335 32.1022 21.5335 32.1192L21.6603 32.4353C21.6777 32.4864 21.6851 32.518 21.6851 32.5447C21.6851 32.5691 21.6777 32.5788 21.6603 32.5861C21.6429 32.5934 21.6081 32.6031 21.5584 32.6031C21.5161 32.6031 21.4913 32.6104 21.4913 32.6444C21.4913 32.6615 21.5161 32.6687 21.5509 32.6687C21.5683 32.6687 21.6106 32.6687 21.6628 32.6614C21.715 32.6614 21.7896 32.6614 21.8766 32.6614C21.9362 32.6614 21.9959 32.6614 22.0381 32.6614C22.0804 32.6687 22.1152 32.6687 22.1401 32.6687C22.1823 32.6687 22.2072 32.6614 22.2072 32.6347C22.2072 32.6177 22.1898 32.6104 22.1724 32.6104C22.1475 32.6104 22.1202 32.6031 22.0879 32.5861C22.0456 32.5618 22.0207 32.535 21.9934 32.5034C21.976 32.4694 21.9586 32.4207 21.9337 32.3624L21.4614 31.2074ZM21.3073 31.543L21.4788 31.9685C21.4788 31.9855 21.4863 31.9928 21.4863 31.9928C21.4863 32.0001 21.4788 32.0001 21.4689 32.0098C21.4689 32.0098 21.4614 32.0171 21.4515 32.0171H21.1358C21.1184 32.0171 21.1184 32.0098 21.1184 32.0001V31.9928C21.1184 31.9855 21.1184 31.9855 21.1184 31.9758L21.2626 31.543C21.27 31.5259 21.28 31.5259 21.2874 31.5259C21.2899 31.5259 21.2998 31.5332 21.3073 31.543Z" fill="black"/>
<path fill-rule="evenodd" clip-rule="evenodd" d="M22.7144 31.1417C22.6895 31.1417 22.6721 31.149 22.6721 31.1758C22.6721 31.183 22.6796 31.1928 22.6895 31.2001C22.6895 31.2001 22.7069 31.2074 22.7144 31.2074C22.7318 31.2074 22.7392 31.2074 22.7566 31.2074C22.774 31.2074 22.7914 31.2074 22.8163 31.2147C22.8412 31.222 22.8586 31.2317 22.8685 31.2487C22.876 31.2657 22.8859 31.29 22.8859 31.3241C22.8859 31.3411 22.8859 31.3484 22.8859 31.3581C22.8785 31.3654 22.8785 31.3751 22.8785 31.3751L22.8262 32.2164C22.8262 32.2821 22.8188 32.3502 22.8188 32.3988C22.8113 32.4499 22.8014 32.4912 22.7939 32.5155C22.7865 32.5496 22.7765 32.5739 22.7591 32.5812C22.7417 32.5982 22.7169 32.6055 22.692 32.6055C22.6846 32.6055 22.6746 32.6055 22.6671 32.6055C22.6597 32.6055 22.6497 32.6055 22.6323 32.6055C22.6075 32.6055 22.5901 32.6128 22.5901 32.6395C22.5901 32.6638 22.6149 32.6809 22.6671 32.6809C22.692 32.6809 22.7194 32.6736 22.7517 32.6736C22.7865 32.6736 22.8188 32.6663 22.8635 32.6663C22.9157 32.6663 22.958 32.6736 22.9903 32.6736C23.0251 32.6736 23.0574 32.6809 23.0848 32.6809C23.137 32.6809 23.1618 32.6638 23.1618 32.6395C23.1618 32.6152 23.1444 32.6055 23.1022 32.6055C23.0947 32.6055 23.0848 32.6055 23.0773 32.6055C23.0773 32.6055 23.0699 32.6055 23.0599 32.6055C23.0003 32.6055 22.958 32.5885 22.9406 32.5544C22.9232 32.5131 22.9157 32.462 22.9157 32.3793C22.9157 32.3623 22.9157 32.3453 22.9232 32.321C22.9232 32.2967 22.9232 32.2699 22.9232 32.2456L22.9754 31.4943C22.9829 31.47 22.9829 31.4529 23.0003 31.4529C23.0003 31.4529 23.0077 31.4602 23.0177 31.487L23.4949 32.5958C23.4949 32.6128 23.5123 32.6201 23.5372 32.6201C23.5621 32.6201 23.5795 32.6128 23.5894 32.586L24.0592 31.4773C24.0667 31.4602 24.0667 31.4529 24.0766 31.4529C24.0841 31.4529 24.094 31.4602 24.094 31.487L24.1189 32.3866V32.445C24.1189 32.4693 24.1114 32.4961 24.1114 32.5204C24.1114 32.5374 24.104 32.5544 24.094 32.5617C24.0766 32.5787 24.0592 32.586 24.0418 32.586C24.017 32.5933 23.9896 32.5933 23.9474 32.5933C23.9126 32.5933 23.8952 32.6103 23.8952 32.6347C23.8952 32.659 23.92 32.6687 23.9623 32.6687C23.9872 32.6687 24.0294 32.6687 24.0816 32.6614C24.1338 32.6614 24.1935 32.6541 24.2606 32.6541C24.3277 32.6541 24.3799 32.6614 24.4321 32.6614C24.4744 32.6687 24.5166 32.6687 24.5514 32.6687C24.5763 32.6687 24.5862 32.6687 24.6036 32.6614C24.6111 32.6541 24.621 32.6444 24.621 32.6371C24.621 32.6201 24.6136 32.6128 24.6036 32.6031C24.5962 32.6031 24.5862 32.5958 24.5788 32.5958C24.5614 32.5958 24.544 32.5958 24.5266 32.5958C24.5092 32.5958 24.4843 32.5958 24.4669 32.5885C24.4321 32.5714 24.4147 32.5641 24.4073 32.5374C24.4073 32.5204 24.3998 32.4863 24.3998 32.445L24.365 31.3703V31.3119C24.365 31.2779 24.365 31.2609 24.3725 31.2463C24.3725 31.239 24.3899 31.2292 24.4147 31.222C24.4321 31.2147 24.4495 31.2049 24.4669 31.2049C24.4843 31.2049 24.5017 31.2049 24.5191 31.2049C24.5365 31.2049 24.544 31.1976 24.5539 31.1976C24.5614 31.1903 24.5713 31.1806 24.5713 31.1733C24.5713 31.149 24.5539 31.1393 24.5291 31.1393H24.1189C24.1015 31.1393 24.094 31.1393 24.0841 31.1466C24.0766 31.1539 24.0667 31.1636 24.0667 31.1806L23.6491 32.1484C23.6416 32.1654 23.6317 32.1824 23.6242 32.1824C23.6168 32.1824 23.6068 32.1654 23.6068 32.1484L23.1817 31.1636C23.1817 31.1466 23.1743 31.1466 23.1643 31.1393C23.1569 31.1393 23.1469 31.1393 23.1395 31.1393H22.7144V31.1417Z" fill="black"/>
<path fill-rule="evenodd" clip-rule="evenodd" d="M26.428 31.2171V31.2098C26.428 31.1855 26.4205 31.1684 26.4106 31.1514C26.4031 31.1441 26.3757 31.1344 26.3335 31.1344C26.3161 31.1344 26.249 31.1344 26.147 31.1417C26.0451 31.1417 25.9009 31.1417 25.722 31.1417C25.5778 31.1417 25.4585 31.1417 25.3814 31.1417C25.3043 31.1344 25.2621 31.1344 25.2447 31.1344C25.2099 31.1344 25.1925 31.1514 25.1925 31.1684C25.1925 31.1855 25.1925 31.1928 25.1999 31.1928C25.2074 31.2001 25.2173 31.2 25.2347 31.2098C25.2422 31.2098 25.2596 31.2098 25.277 31.2098C25.2944 31.2098 25.3118 31.2098 25.3292 31.2171C25.3541 31.2244 25.3715 31.2341 25.3814 31.2511C25.3913 31.2681 25.3889 31.2924 25.3889 31.3265V32.4426C25.3889 32.4936 25.3889 32.5252 25.3814 32.552C25.3739 32.5763 25.3391 32.5933 25.2969 32.603C25.2546 32.603 25.2198 32.6103 25.195 32.6103C25.1701 32.6103 25.1602 32.6176 25.1602 32.6346C25.1602 32.659 25.185 32.676 25.2273 32.676C25.2447 32.676 25.2695 32.676 25.3217 32.6687C25.3739 32.6687 25.4411 32.6687 25.5355 32.6687C25.7394 32.6687 25.9109 32.6687 26.0476 32.676C26.1843 32.6833 26.2788 32.6833 26.3459 32.6833C26.3708 32.6833 26.3882 32.6833 26.3981 32.6833C26.4056 32.676 26.423 32.676 26.423 32.6663C26.4304 32.659 26.4304 32.6492 26.4404 32.6419C26.4404 32.6346 26.4404 32.6176 26.4404 32.6006L26.4826 32.3599C26.4826 32.3526 26.4826 32.3356 26.4826 32.3258C26.4826 32.3185 26.4826 32.3185 26.4826 32.3185C26.4826 32.3185 26.4826 32.3113 26.4752 32.3015C26.4677 32.3015 26.4578 32.2942 26.4578 32.2942C26.4329 32.2942 26.4056 32.3112 26.3907 32.3453C26.3733 32.3793 26.3385 32.4207 26.3061 32.4693C26.2813 32.4936 26.2539 32.5204 26.2291 32.5349C26.2042 32.552 26.1769 32.569 26.1446 32.5763C26.1098 32.5836 26.0774 32.5933 26.0327 32.6006C25.9979 32.6006 25.9556 32.6006 25.9059 32.6006C25.8637 32.6006 25.8214 32.6006 25.7941 32.6006C25.7593 32.5933 25.7419 32.5836 25.7269 32.5763C25.7095 32.569 25.6921 32.552 25.6847 32.5252C25.6847 32.5082 25.6772 32.4839 25.6772 32.4426V31.9417C25.6772 31.9246 25.6847 31.9076 25.6946 31.9076C25.7021 31.9003 25.712 31.9003 25.7369 31.9003H25.8736C25.9407 31.9003 26.0004 31.9003 26.0451 31.9076C26.0874 31.9149 26.1222 31.9417 26.147 31.9733C26.1545 31.9976 26.1719 32.0243 26.1819 32.0486C26.1893 32.0657 26.1993 32.0827 26.1993 32.0997C26.2067 32.1167 26.2167 32.124 26.2241 32.1338C26.2241 32.141 26.2415 32.1508 26.249 32.1508C26.2738 32.1508 26.2912 32.1337 26.2912 32.1094C26.2912 32.0924 26.2838 32.0754 26.2838 32.0341C26.2838 32 26.2763 31.9587 26.2763 31.9003C26.2763 31.8493 26.2838 31.8079 26.2838 31.7666C26.2912 31.7253 26.2912 31.6839 26.2912 31.6572C26.2912 31.6329 26.2838 31.6231 26.2564 31.6231C26.239 31.6231 26.2316 31.6231 26.2216 31.6304C26.2142 31.6475 26.2142 31.6547 26.2042 31.6718C26.2042 31.6888 26.1968 31.6961 26.1868 31.7228C26.1794 31.7398 26.162 31.7569 26.1446 31.7739C26.1272 31.7812 26.0924 31.7909 26.0501 31.7982C25.9979 31.8055 25.9382 31.8152 25.8786 31.8152H25.7344C25.7095 31.8152 25.6921 31.8079 25.6822 31.8079C25.6822 31.8006 25.6747 31.7836 25.6747 31.7666V31.3654C25.6747 31.3314 25.6822 31.307 25.6822 31.29C25.6822 31.273 25.6896 31.256 25.707 31.239C25.7145 31.2317 25.7319 31.2219 25.7593 31.2219C25.7767 31.2146 25.8115 31.2146 25.8537 31.2146C26.0252 31.2146 26.152 31.239 26.2365 31.307C26.2713 31.3241 26.2887 31.3484 26.3037 31.3654C26.3211 31.3897 26.3285 31.4067 26.3385 31.4237C26.3459 31.4481 26.3559 31.4578 26.3633 31.4748C26.3708 31.4821 26.3807 31.4918 26.3981 31.4918C26.4155 31.4918 26.4329 31.4675 26.4329 31.4262V31.2171H26.428Z" fill="black"/>
<path fill-rule="evenodd" clip-rule="evenodd" d="M27.1266 31.1344C27.1017 31.1344 27.0843 31.1514 27.0843 31.1684C27.0843 31.1927 27.1017 31.2025 27.1266 31.2025C27.1614 31.2025 27.1937 31.2098 27.2285 31.2195C27.2633 31.2268 27.2807 31.2365 27.2807 31.2535C27.2881 31.2705 27.2881 31.2949 27.2881 31.3289V32.3453C27.2881 32.3963 27.2881 32.4377 27.2881 32.4693C27.2881 32.5033 27.2807 32.5276 27.2707 32.5447C27.2633 32.569 27.2459 32.586 27.2285 32.5957C27.2111 32.603 27.1862 32.603 27.1514 32.603H27.1266C27.0843 32.603 27.0669 32.62 27.0669 32.6443C27.0669 32.6687 27.0918 32.6784 27.144 32.6784C27.1688 32.6784 27.2036 32.6784 27.2384 32.6784C27.2633 32.6711 27.3055 32.6711 27.3403 32.6711C27.3925 32.6711 27.4249 32.6711 27.4671 32.6784C27.5019 32.6784 27.5342 32.6784 27.5616 32.6784C27.6138 32.6784 27.6461 32.6711 27.6461 32.6443C27.6461 32.62 27.6287 32.603 27.5939 32.603C27.5864 32.603 27.5765 32.603 27.569 32.603C27.5616 32.603 27.5516 32.6103 27.5442 32.6103C27.5094 32.6103 27.4845 32.603 27.4671 32.5933C27.4497 32.586 27.4323 32.5763 27.4249 32.5592C27.4174 32.5349 27.4075 32.5082 27.4075 32.4839C27.4075 32.4498 27.4 32.4182 27.4 32.3672V31.4164C27.4 31.3994 27.4075 31.3921 27.4174 31.3921C27.4174 31.3921 27.4174 31.3921 27.4249 31.3921L28.464 32.7003C28.4814 32.7246 28.4988 32.7416 28.5236 32.7416C28.5311 32.7416 28.541 32.7343 28.5584 32.7246C28.5659 32.7076 28.5659 32.7003 28.5659 32.6832V31.4578C28.5659 31.3751 28.5733 31.307 28.5833 31.2657C28.6007 31.2243 28.6355 31.2073 28.6852 31.2073H28.72C28.7449 31.2073 28.7548 31.2 28.7623 31.2C28.7697 31.1927 28.7697 31.183 28.7697 31.1757C28.7697 31.1514 28.7523 31.1344 28.7026 31.1344C28.6777 31.1344 28.6504 31.1344 28.6255 31.1417C28.5907 31.1417 28.5485 31.1417 28.5062 31.1417C28.464 31.1417 28.4217 31.1417 28.3869 31.1417C28.3521 31.1344 28.3198 31.1344 28.2924 31.1344C28.2328 31.1344 28.2079 31.1514 28.2079 31.1757C28.2079 31.183 28.2154 31.1927 28.2253 31.2C28.2328 31.2 28.2502 31.2073 28.2676 31.2073C28.3098 31.2073 28.3446 31.2073 28.3695 31.2146C28.3944 31.2146 28.4118 31.2219 28.4217 31.2389C28.4292 31.2462 28.4391 31.273 28.4466 31.2973C28.4466 31.3216 28.4466 31.3556 28.4466 31.4067C28.4466 31.414 28.4466 31.4237 28.4466 31.448C28.4466 31.4651 28.454 31.4894 28.454 31.5307V32.1969C28.454 32.214 28.4466 32.2213 28.4366 32.2213C28.4366 32.2213 28.4366 32.2213 28.4292 32.2213L27.5864 31.1538C27.579 31.1465 27.569 31.1368 27.5616 31.1368C27.5616 31.1295 27.5442 31.1295 27.5367 31.1295H27.1266V31.1344Z" fill="black"/>
<path fill-rule="evenodd" clip-rule="evenodd" d="M27.2461 16.1793C27.2809 16.2376 27.2983 16.3033 27.2883 16.3787C27.2883 16.4541 27.2635 16.5295 27.2212 16.605C27.179 16.6804 27.1094 16.7631 27.0348 16.8385C26.9503 16.9139 26.8483 16.9893 26.729 17.055C26.6097 17.1207 26.5078 17.1717 26.4059 17.1961C26.3039 17.2204 26.2095 17.2374 26.1249 17.2301C26.0404 17.2301 25.9708 17.2131 25.9112 17.179C25.844 17.145 25.7993 17.0963 25.767 17.0379C25.7322 16.9796 25.7148 16.9139 25.7148 16.8385C25.7148 16.7631 25.7396 16.6877 25.7819 16.6123C25.8242 16.5368 25.8938 16.4614 25.9783 16.3787C26.0628 16.3033 26.1647 16.2279 26.284 16.1622C26.3959 16.0966 26.5053 16.0528 26.6072 16.0211C26.7091 15.9968 26.8036 15.9798 26.8807 15.9871C26.9652 15.9871 27.0348 16.0041 27.1019 16.0382C27.1616 16.0698 27.2138 16.1209 27.2461 16.1793ZM25.8664 17.2715C25.9186 17.3226 25.9932 17.3639 26.0703 17.3882C26.1473 17.4223 26.2318 17.4296 26.3263 17.4393C26.4108 17.4393 26.5053 17.432 26.6072 17.4053C26.7017 17.3809 26.8036 17.3396 26.8981 17.2885C27.0099 17.2228 27.1118 17.1377 27.1889 17.0477C27.266 16.9552 27.3256 16.8652 27.3604 16.7558C27.3952 16.656 27.4126 16.5563 27.4126 16.4468C27.4052 16.3471 27.3704 16.2474 27.3182 16.1549C27.266 16.0625 27.1914 15.9871 27.1044 15.9287C27.0099 15.8703 26.908 15.829 26.8061 15.8119C26.6942 15.7876 26.5749 15.7876 26.4556 15.8119C26.3362 15.829 26.2169 15.8703 26.1051 15.936C26.0031 15.9944 25.9186 16.0528 25.849 16.1282C25.7819 16.2036 25.7222 16.279 25.6775 16.3617C25.6352 16.4444 25.6004 16.5295 25.593 16.6293C25.5855 16.7217 25.5855 16.8117 25.6104 16.9042L25.6178 16.9455C25.6253 16.9625 25.6253 16.9698 25.6178 16.9796C25.6178 16.9796 25.6104 16.9869 25.6004 16.9966L25.5482 17.0379C25.496 17.0793 25.4637 17.1207 25.4364 17.179C25.4115 17.2374 25.3941 17.2958 25.3842 17.3615C25.3842 17.4199 25.3916 17.4953 25.409 17.5609C25.4264 17.6364 25.4513 17.702 25.4935 17.7701C25.5358 17.8528 25.588 17.9112 25.6377 17.9453C25.68 17.9793 25.7148 17.9866 25.7396 17.9793C25.757 17.972 25.757 17.955 25.7471 17.9453C25.7471 17.938 25.7396 17.9283 25.7222 17.921C25.7048 17.9039 25.68 17.8869 25.6626 17.8553C25.6452 17.8139 25.6278 17.7799 25.6203 17.7312C25.6203 17.6801 25.6203 17.6388 25.6203 17.5804C25.6278 17.5293 25.6377 17.4807 25.6551 17.4296C25.68 17.3785 25.6974 17.3299 25.7322 17.2885L25.757 17.2374C25.7645 17.2374 25.7645 17.2301 25.7645 17.2301C25.772 17.2228 25.772 17.2228 25.772 17.2228C25.7794 17.2155 25.7894 17.2228 25.8068 17.2301L25.8664 17.2715ZM28.0316 17.8893C28.0664 17.865 28.0987 17.8553 28.1161 17.848C28.1335 17.848 28.1509 17.8553 28.1758 17.8723C28.1833 17.8893 28.2007 17.8966 28.2007 17.9137C28.2081 17.921 28.2181 17.938 28.2255 17.9477C28.233 17.955 28.2429 17.9647 28.2504 17.972C28.2578 17.972 28.2678 17.972 28.2852 17.9647C28.3026 17.9477 28.31 17.9307 28.2926 17.9064C28.2852 17.8991 28.2678 17.8723 28.2404 17.8407C28.2056 17.8066 28.1733 17.7482 28.1385 17.6826C28.0962 17.6169 28.0614 17.5585 28.054 17.5147C28.0366 17.4734 28.0192 17.449 28.0117 17.432C28.0043 17.4077 27.9869 17.4077 27.9595 17.415C27.9421 17.4223 27.9421 17.432 27.9347 17.4393C27.9347 17.4466 27.9421 17.4563 27.9421 17.4636C27.9496 17.4807 27.9496 17.488 27.9595 17.505C27.967 17.5123 27.9769 17.5293 27.9769 17.5561C27.9844 17.5804 27.9844 17.6072 27.9769 17.6145C27.9695 17.6315 27.9421 17.6485 27.8999 17.6728L27.0398 18.1569C26.9627 18.1983 26.8956 18.2396 26.8434 18.281C26.7837 18.3223 26.7489 18.3734 26.7166 18.4318C26.6818 18.5072 26.6644 18.5826 26.6818 18.6726C26.6892 18.7553 26.734 18.8478 26.7936 18.9475C26.8459 19.0399 26.9055 19.1153 26.9801 19.1567C27.0472 19.2078 27.1243 19.2321 27.2013 19.2321C27.2784 19.2321 27.3455 19.2151 27.4151 19.181C27.4822 19.1567 27.5593 19.1153 27.6463 19.0643L28.2504 18.7213C28.31 18.6872 28.3622 18.6629 28.4045 18.6386C28.4468 18.6215 28.4816 18.6045 28.5164 18.5972C28.5412 18.5899 28.5686 18.5899 28.5934 18.5972C28.6108 18.6045 28.6282 18.6215 28.6456 18.6483C28.6531 18.6726 28.6705 18.6896 28.6804 18.6994C28.6879 18.7067 28.7053 18.7067 28.7152 18.6994C28.7401 18.6823 28.7401 18.658 28.7227 18.624C28.7152 18.6167 28.7053 18.5996 28.6804 18.5656C28.663 18.5413 28.6456 18.5072 28.6208 18.4658C28.5959 18.4245 28.5785 18.3904 28.5611 18.3661C28.5536 18.3321 28.5362 18.315 28.5263 18.3004C28.5089 18.2761 28.4915 18.2664 28.4666 18.2834C28.4592 18.2834 28.4492 18.3004 28.4492 18.3077C28.4567 18.315 28.4567 18.3321 28.4666 18.3491C28.4741 18.3564 28.4741 18.3734 28.484 18.3904C28.4915 18.4075 28.4915 18.4245 28.4915 18.4415C28.484 18.4658 28.4567 18.4999 28.4144 18.534C28.3622 18.568 28.2951 18.6094 28.2007 18.658L27.604 18.9913C27.5195 19.0424 27.4499 19.0837 27.3828 19.108C27.3231 19.1421 27.2635 19.1494 27.1964 19.1494C27.077 19.1324 26.9826 19.0667 26.9055 18.9402C26.8633 18.8745 26.8459 18.8161 26.8384 18.7651C26.8384 18.714 26.8459 18.6653 26.8732 18.624C26.8981 18.5729 26.9329 18.5315 26.9851 18.4902C27.0373 18.4561 27.1044 18.4148 27.1814 18.3734L28.0316 17.8893ZM30.254 22.083C30.1769 22.1244 30.1272 22.1657 30.0924 22.2168C30.0576 22.2582 30.0253 22.3093 30.0153 22.3579C29.9979 22.409 29.9905 22.4674 29.9905 22.516C29.983 22.5744 29.983 22.6401 29.983 22.6985C29.9905 22.8225 29.9756 22.9247 29.9408 22.9977C29.906 23.0804 29.8562 23.1388 29.7792 23.1801C29.7369 23.2044 29.6947 23.2215 29.6524 23.2215C29.6101 23.2288 29.5679 23.2288 29.5256 23.2215C29.4834 23.2142 29.4486 23.1971 29.4138 23.1704C29.379 23.1534 29.3541 23.1193 29.3367 23.0877C29.2944 23.0293 29.2845 22.9539 29.3019 22.8785C29.3094 22.7958 29.3541 22.7204 29.4212 22.6523C29.4461 22.6279 29.4635 22.6109 29.4809 22.5939C29.4983 22.5866 29.5157 22.5695 29.5331 22.5598C29.5505 22.5428 29.5579 22.5355 29.5679 22.5258C29.5679 22.5185 29.5679 22.5014 29.5679 22.4917C29.5505 22.4674 29.5157 22.4747 29.466 22.499C29.466 22.499 29.4585 22.5063 29.4486 22.5063C29.4411 22.5136 29.4237 22.5233 29.4063 22.5404C29.3814 22.5477 29.3541 22.5647 29.3292 22.5744C29.3044 22.5914 29.277 22.6085 29.2447 22.6158C29.1776 22.6571 29.1428 22.7252 29.1503 22.8079C29.1503 22.8906 29.1851 22.9904 29.2447 23.0925C29.287 23.1582 29.3392 23.2166 29.3988 23.2604C29.451 23.3017 29.5182 23.3261 29.5853 23.3431C29.6524 23.3601 29.722 23.3674 29.7991 23.3504C29.8761 23.3431 29.9433 23.3163 30.0203 23.275C30.0874 23.2336 30.1396 23.1923 30.1819 23.1509C30.2242 23.0998 30.259 23.0512 30.2764 22.9928C30.3012 22.9344 30.3112 22.8688 30.3186 22.8006C30.3186 22.735 30.3261 22.6596 30.3186 22.5744C30.3186 22.4747 30.3186 22.392 30.3435 22.3336C30.3609 22.2752 30.4031 22.2241 30.4703 22.1925C30.5473 22.1414 30.6244 22.1341 30.6915 22.1511C30.7586 22.1584 30.8108 22.2095 30.8531 22.2752C30.8879 22.3336 30.8953 22.3847 30.8779 22.4333C30.8605 22.4844 30.8257 22.5428 30.776 22.6012C30.7512 22.6425 30.7238 22.6766 30.7089 22.6936C30.684 22.7106 30.684 22.7277 30.6915 22.752C30.699 22.769 30.7263 22.769 30.7586 22.752C30.9202 22.6596 31.0047 22.6012 31.0147 22.5768C31.0221 22.5598 31.0221 22.5185 31.0072 22.4601C30.9998 22.3944 30.9724 22.336 30.9301 22.2606C30.8953 22.2022 30.8456 22.1439 30.7934 22.1025C30.7412 22.0684 30.6915 22.0368 30.6318 22.0198C30.5722 22.0028 30.5125 22.0028 30.4454 22.0125C30.3833 22.0247 30.3136 22.0514 30.254 22.083ZM31.9245 24.2456L31.932 24.2383C31.9568 24.231 31.9742 24.2139 31.9842 24.1969C31.9916 24.1896 31.9842 24.1629 31.9668 24.1312C31.9593 24.1142 31.9245 24.0729 31.8822 23.9974C31.83 23.922 31.7629 23.815 31.6784 23.6715C31.6187 23.5547 31.5665 23.472 31.5342 23.4136C31.5094 23.3553 31.482 23.3139 31.482 23.3042C31.4646 23.2799 31.4472 23.2701 31.4223 23.2871C31.4049 23.2944 31.4049 23.2944 31.4049 23.3042C31.3975 23.3115 31.4049 23.3212 31.4049 23.3382C31.4124 23.3455 31.4124 23.3553 31.4223 23.3723C31.4298 23.3796 31.4398 23.3966 31.4398 23.4136C31.4398 23.438 31.4398 23.4647 31.4323 23.472C31.4149 23.489 31.39 23.5061 31.3552 23.5231L30.2316 24.158C30.1894 24.1823 30.1471 24.1993 30.1198 24.2091C30.0949 24.2164 30.0601 24.2091 30.0352 24.175C30.0178 24.141 30.0004 24.1239 29.983 24.0996C29.9756 24.0826 29.9582 24.0826 29.9408 24.0923C29.9159 24.1093 29.906 24.1337 29.9333 24.1677C29.9333 24.175 29.9507 24.2018 29.9756 24.2334C30.0004 24.2675 30.0352 24.3258 30.0775 24.3915C30.172 24.5496 30.249 24.6834 30.2987 24.7832C30.3509 24.8926 30.3932 24.9656 30.4181 25.0167C30.4355 25.0337 30.4429 25.0507 30.4429 25.058C30.4504 25.058 30.4603 25.0653 30.4678 25.0653C30.4752 25.0653 30.4926 25.0653 30.5026 25.0653C30.51 25.058 30.5274 25.0483 30.5548 25.041L30.8009 24.9315C30.8183 24.9242 30.8257 24.9242 30.8357 24.9145C30.8431 24.9145 30.8531 24.9145 30.8531 24.9145C30.8531 24.9072 30.8605 24.9072 30.8605 24.8975C30.8605 24.8902 30.8605 24.8805 30.8605 24.8732C30.8431 24.8561 30.8183 24.8488 30.776 24.8561C30.7412 24.8561 30.6816 24.8561 30.6219 24.8561C30.5796 24.8561 30.5448 24.8488 30.52 24.8391C30.4852 24.8318 30.4603 24.8148 30.4355 24.7978C30.4106 24.7807 30.3932 24.7564 30.3683 24.7321C30.3509 24.7078 30.3261 24.6737 30.3087 24.6323C30.2838 24.5983 30.2739 24.5667 30.2565 24.5399C30.249 24.5229 30.249 24.4986 30.249 24.4815C30.2565 24.4572 30.2664 24.4402 30.2838 24.4231C30.3012 24.4061 30.3261 24.3891 30.3609 24.3721L30.863 24.0875C30.8804 24.0802 30.8978 24.0704 30.9053 24.0704C30.9127 24.0777 30.9227 24.0875 30.9401 24.1045L30.9998 24.2139C31.0246 24.265 31.052 24.3064 31.0594 24.338C31.0669 24.3794 31.0594 24.4134 31.0346 24.4548C31.0172 24.4791 30.9998 24.5059 30.9824 24.5204C30.9649 24.5375 30.9575 24.5545 30.9401 24.5715C30.9326 24.5788 30.9152 24.5959 30.9152 24.6056C30.9078 24.6129 30.9078 24.6226 30.9152 24.6396C30.9227 24.6567 30.95 24.6567 30.9749 24.6396C30.9824 24.6323 31.0097 24.6226 31.042 24.5983C31.0768 24.574 31.1191 24.5472 31.1787 24.5156C31.2309 24.4913 31.2732 24.4645 31.3155 24.4499C31.3577 24.4256 31.4 24.4085 31.4273 24.3915C31.4522 24.3842 31.4621 24.3672 31.4447 24.3404C31.4373 24.3331 31.4273 24.3234 31.4199 24.3234C31.4025 24.3234 31.395 24.3307 31.3776 24.3404C31.3602 24.3404 31.3428 24.3477 31.3179 24.3477C31.3005 24.3477 31.2757 24.3477 31.2508 24.3404C31.2334 24.3404 31.2086 24.3234 31.1738 24.2894C31.1489 24.2553 31.1141 24.2139 31.0892 24.1653L31.0221 24.0558C31.0147 24.0388 31.0047 24.0218 31.0147 24.0145C31.0147 24.0072 31.0321 23.9974 31.0495 23.9902L31.4497 23.7566C31.4845 23.7396 31.5094 23.7323 31.5268 23.7226C31.5516 23.7153 31.569 23.7153 31.5864 23.7153C31.6038 23.7153 31.6113 23.7226 31.6287 23.7396C31.6461 23.7566 31.6635 23.781 31.6809 23.8053C31.7579 23.9391 31.7828 24.0558 31.7654 24.1556C31.7579 24.1896 31.7405 24.2139 31.7306 24.2383C31.7132 24.2626 31.6958 24.2796 31.6784 24.2967C31.6709 24.3137 31.6535 24.3307 31.6436 24.338C31.6361 24.355 31.6361 24.3623 31.6436 24.3721C31.6511 24.3891 31.6784 24.3891 31.7207 24.3648L31.9245 24.2456ZM31.9245 25.5543L32.3844 25.2964C32.4092 25.2794 32.4266 25.2721 32.444 25.2721C32.4614 25.2648 32.4788 25.2648 32.4963 25.2648C32.5037 25.2648 32.5211 25.2721 32.5385 25.2891C32.546 25.2964 32.5634 25.3232 32.5808 25.3475C32.633 25.4229 32.633 25.4983 32.5982 25.5737C32.5634 25.6491 32.4962 25.7148 32.3943 25.7732C32.1805 25.89 32.0289 25.8656 31.9344 25.6978C31.9096 25.6564 31.8922 25.6321 31.8922 25.6054C31.8822 25.5883 31.8996 25.5713 31.9245 25.5543ZM32.0264 25.9289C32.0861 25.9946 32.1706 26.0384 32.2651 26.0456C32.3595 26.0456 32.4515 26.0286 32.5559 25.9702C32.6678 25.9046 32.7424 25.8194 32.7697 25.7124C32.8045 25.6127 32.7772 25.4959 32.7026 25.3621C32.6678 25.311 32.6355 25.2526 32.6007 25.204C32.5584 25.1456 32.5236 25.0872 32.4888 25.0288C32.4639 24.9875 32.4465 24.9534 32.4291 24.9194C32.4217 24.8951 32.4043 24.878 32.4043 24.861C32.3869 24.844 32.3794 24.8269 32.3695 24.8196C32.362 24.8124 32.3446 24.8124 32.3272 24.8196C32.3198 24.8269 32.3098 24.8367 32.3098 24.844C32.3098 24.8513 32.3098 24.861 32.3173 24.8683C32.3173 24.8756 32.3247 24.8926 32.3347 24.9024C32.3421 24.9194 32.3421 24.9364 32.3521 24.9534C32.3595 24.9875 32.3521 25.0045 32.3446 25.0191C32.3372 25.0361 32.3098 25.0532 32.2676 25.0702L31.1514 25.7051C31.1265 25.7221 31.0992 25.7391 31.0843 25.7464C31.0669 25.7537 31.0495 25.7537 31.042 25.7537C31.0246 25.761 31.0172 25.7537 30.9998 25.7464C30.9923 25.7464 30.9749 25.7294 30.9575 25.7124C30.95 25.7051 30.9401 25.6954 30.9326 25.6881C30.9252 25.671 30.9152 25.6637 30.9152 25.654C30.9078 25.6467 30.8978 25.6467 30.8904 25.637C30.8829 25.637 30.873 25.637 30.8655 25.6443C30.8407 25.6613 30.8307 25.6856 30.8481 25.7197C30.8556 25.727 30.8829 25.7537 30.9078 25.7854C30.9326 25.8267 30.9674 25.8681 31.0022 25.9362C31.037 25.9946 31.0619 26.0456 31.0793 26.087C31.0967 26.1211 31.1042 26.1527 31.1141 26.1624C31.139 26.1965 31.1564 26.2038 31.1812 26.1867C31.2061 26.1794 31.2061 26.1527 31.1887 26.1113C31.1713 26.087 31.1638 26.07 31.1638 26.0456C31.1638 26.0286 31.1638 26.0116 31.1713 26.0043C31.1887 25.9873 31.1961 25.9702 31.2135 25.9629C31.2309 25.9459 31.2558 25.9386 31.2807 25.9216L31.7579 25.654C31.7828 25.637 31.8002 25.637 31.8176 25.6613L31.8251 25.6856C31.8499 25.7197 31.8599 25.7513 31.8499 25.7781C31.8425 25.8024 31.8251 25.8365 31.7977 25.8778L31.3627 26.4105C31.3453 26.4349 31.3279 26.4616 31.3204 26.4689C31.313 26.4859 31.313 26.503 31.3279 26.5273C31.3353 26.5443 31.3453 26.5613 31.3627 26.5784C31.3701 26.5954 31.3875 26.6124 31.3975 26.6295C31.4149 26.6635 31.4323 26.6878 31.4398 26.7122C31.4472 26.7365 31.4646 26.7633 31.4746 26.7778C31.482 26.7949 31.492 26.8022 31.4994 26.8119C31.5069 26.8192 31.5168 26.8119 31.5243 26.8119C31.5417 26.7949 31.5491 26.7876 31.5417 26.7608C31.5342 26.7365 31.5243 26.7097 31.5243 26.6781C31.5168 26.6538 31.5317 26.627 31.5591 26.5954C31.5839 26.5541 31.6187 26.503 31.6709 26.4446L31.927 26.1113C31.9518 26.0773 31.9792 26.0529 31.9941 26.0189C32.0115 25.997 32.019 25.9629 32.0264 25.9289ZM33.5701 27.0041C33.595 26.9797 33.6224 26.953 33.6373 26.9384C33.6547 26.9214 33.6621 26.9043 33.6547 26.8873C33.6472 26.8703 33.6298 26.863 33.6199 26.8703C33.6025 26.8703 33.5851 26.8703 33.5677 26.8776L32.0761 27.2108C32.0239 27.2181 31.9817 27.2279 31.9494 27.2352C31.9071 27.2425 31.8723 27.2352 31.8474 27.2279C31.83 27.2206 31.8126 27.2035 31.8052 27.1938C31.7977 27.1768 31.7878 27.1695 31.7803 27.1598C31.7729 27.1427 31.7629 27.1354 31.7555 27.1354C31.748 27.1281 31.7381 27.1281 31.7207 27.1354C31.7033 27.1427 31.6958 27.1695 31.7132 27.1938C31.7306 27.2108 31.7381 27.2352 31.7654 27.2595C31.7828 27.2838 31.8002 27.3106 31.8251 27.3422C31.8499 27.4006 31.8773 27.4419 31.8922 27.476C31.9096 27.5173 31.917 27.5417 31.927 27.5587C31.9444 27.5927 31.9618 27.6 31.9866 27.583C32.004 27.5757 32.0115 27.5587 32.004 27.5417C32.004 27.5246 31.9966 27.4906 31.9792 27.459C31.9717 27.4346 31.9717 27.4176 31.9717 27.4006C31.9717 27.3933 31.9891 27.3763 32.014 27.3592C32.0388 27.3422 32.1085 27.3179 32.2178 27.2935L32.4739 27.2279C32.4813 27.2279 32.4913 27.2279 32.4987 27.2279C32.4987 27.2352 32.5062 27.2352 32.5062 27.2449L32.6852 27.5368C32.6926 27.5611 32.6926 27.5781 32.6852 27.5879L32.4291 27.8555C32.3869 27.9065 32.3521 27.9309 32.3272 27.9382C32.3098 27.9552 32.285 27.9552 32.275 27.9455C32.2576 27.9382 32.2327 27.9114 32.2153 27.8798C32.1905 27.8457 32.1731 27.8384 32.1482 27.8457C32.1234 27.8628 32.1234 27.8798 32.1408 27.9041C32.1482 27.9211 32.1656 27.9455 32.2004 27.9868C32.2253 28.0282 32.2601 28.0793 32.3024 28.1449C32.3272 28.196 32.3446 28.2374 32.362 28.269C32.3794 28.303 32.3869 28.3347 32.4043 28.3517C32.4217 28.3858 32.4465 28.3931 32.4639 28.3858C32.4813 28.3785 32.4813 28.3614 32.4813 28.3444C32.4739 28.3274 32.4639 28.2933 32.4739 28.269C32.4739 28.2179 32.4913 28.1863 32.5161 28.1522C32.541 28.1182 32.5758 28.0768 32.6181 28.0282L33.5701 27.0041ZM33.16 27.0795L32.8095 27.4468C32.802 27.4638 32.7921 27.4638 32.7921 27.4711C32.7846 27.4711 32.7747 27.4711 32.7747 27.4711C32.7672 27.4638 32.7573 27.4638 32.7573 27.4541L32.6131 27.2206C32.6131 27.2035 32.6131 27.1962 32.6205 27.1962C32.6205 27.1962 32.6205 27.1889 32.628 27.1889C32.628 27.1889 32.6355 27.1889 32.6454 27.1816L33.1475 27.0479C33.155 27.0479 33.165 27.0479 33.1724 27.0552C33.1774 27.0552 33.1774 27.0722 33.16 27.0795Z" fill="black"/>
<path fill-rule="evenodd" clip-rule="evenodd" d="M29.4534 19.9325C29.4882 19.9082 29.513 19.8984 29.5379 19.8814C29.5627 19.8741 29.5627 19.8571 29.5553 19.8401C29.5478 19.8328 29.5379 19.823 29.5205 19.823C29.5031 19.823 29.4857 19.8158 29.4608 19.8158L27.7481 19.7744C27.6884 19.7744 27.6362 19.7671 27.5939 19.7671C27.5517 19.7671 27.5169 19.7501 27.4821 19.7331C27.4647 19.7258 27.4473 19.7161 27.4398 19.699C27.4323 19.682 27.4224 19.6747 27.4149 19.665C27.4075 19.648 27.3975 19.6407 27.3901 19.631C27.3727 19.6237 27.3652 19.6237 27.3478 19.631C27.323 19.631 27.323 19.648 27.3404 19.682C27.3478 19.699 27.3652 19.7234 27.3826 19.7477C27.4075 19.772 27.4249 19.7987 27.4423 19.8303C27.4771 19.8887 27.5019 19.93 27.5094 19.9641C27.5268 20.0054 27.5442 20.0297 27.5517 20.0467C27.5691 20.0711 27.5865 20.0808 27.6113 20.0808C27.6287 20.0735 27.6362 20.0638 27.6362 20.0467C27.6362 20.0297 27.6287 20.0054 27.6113 19.9714C27.6039 19.9471 27.6039 19.93 27.6113 19.913C27.6113 19.9057 27.6287 19.896 27.6536 19.8887C27.6884 19.8814 27.7729 19.8814 27.8997 19.8717H28.1905C28.198 19.8717 28.2079 19.879 28.2154 19.879C28.2229 19.8863 28.2229 19.8863 28.2328 19.896L28.4043 20.1878C28.4217 20.2121 28.4217 20.2291 28.4043 20.2291L28.0886 20.4115C28.0364 20.4358 27.9942 20.4528 27.9768 20.4625C27.9419 20.4625 27.9245 20.4625 27.9096 20.4552C27.8922 20.4479 27.8674 20.4212 27.85 20.3799C27.8251 20.3458 27.8077 20.3288 27.7729 20.3385C27.7481 20.3458 27.7481 20.3628 27.7655 20.3896C27.7729 20.4066 27.7903 20.4309 27.8177 20.4723C27.8525 20.5136 27.8848 20.5647 27.9196 20.6303C27.9544 20.6814 27.9718 20.7227 27.9867 20.7543C27.9942 20.7884 28.0116 20.8127 28.0215 20.837C28.0464 20.871 28.0638 20.888 28.0986 20.8783C28.116 20.871 28.116 20.8613 28.106 20.8443C28.0986 20.82 28.0986 20.8029 28.106 20.7689C28.1135 20.7349 28.1309 20.7033 28.1657 20.6765C28.1905 20.6595 28.2427 20.6254 28.2925 20.5938L29.4534 19.9325ZM28.986 19.9082L28.5609 20.1489C28.5535 20.1489 28.5435 20.1562 28.5361 20.1562C28.5361 20.1562 28.5286 20.1562 28.5187 20.1562C28.5112 20.1489 28.5112 20.1489 28.5013 20.1391L28.3645 19.8984C28.3571 19.8911 28.3571 19.8814 28.3645 19.8814C28.372 19.8814 28.372 19.8814 28.372 19.8814C28.3795 19.8741 28.3894 19.8741 28.3969 19.8741H28.9761C28.9935 19.8741 29.0009 19.8741 29.0009 19.8814C29.0109 19.8911 29.0034 19.8911 28.986 19.9082Z" fill="black"/>
<path fill-rule="evenodd" clip-rule="evenodd" d="M29.717 20.5331H29.7245C29.7494 20.516 29.7668 20.499 29.7767 20.4917C29.7842 20.4747 29.7767 20.4577 29.7593 20.4261C29.7518 20.4091 29.7245 20.3604 29.6748 20.2851C29.6226 20.2097 29.5555 20.1027 29.4709 19.9592C29.4113 19.8498 29.4535 19.9179 29.4187 19.8595C29.3839 19.8012 29.4113 19.8668 29.4013 19.8522C29.3839 19.8279 29.3665 19.8182 29.3417 19.8352C29.3342 19.8425 29.3243 19.8522 29.3243 19.8522C29.3243 19.8595 29.3243 19.8693 29.3317 19.8863C29.3317 19.8936 29.3392 19.9033 29.3491 19.9203C29.3566 19.9276 29.3566 19.9446 29.3566 19.9617C29.3641 19.986 29.3218 19.9033 29.3143 19.9203C29.2969 19.9276 29.2795 19.9446 29.2373 19.9714L28.1634 20.5793C28.1112 20.6036 28.0789 20.6206 28.0515 20.6303C28.0267 20.6303 27.9993 20.623 27.9744 20.589C27.9496 20.5647 27.9322 20.5379 27.9222 20.5233C27.9048 20.499 27.8874 20.499 27.87 20.5063C27.8452 20.5233 27.8452 20.5477 27.8626 20.5817C27.87 20.589 27.8874 20.6157 27.9148 20.6473C27.9396 20.6814 27.9744 20.7397 28.0167 20.8054C28.1112 20.9634 28.0938 20.9391 28.1435 21.0461C28.1957 21.1458 28.238 21.2285 28.2628 21.2795C28.2802 21.2966 28.2877 21.3039 28.2877 21.3136C28.2951 21.3209 28.3051 21.3306 28.3125 21.3306C28.32 21.3306 28.3299 21.3306 28.3473 21.3233C28.3548 21.3233 28.3722 21.316 28.3896 21.3063L28.6357 21.2066C28.6431 21.1993 28.6605 21.1896 28.6705 21.1896C28.678 21.1823 28.678 21.1823 28.678 21.1823C28.6854 21.1823 28.6854 21.175 28.6854 21.1653C28.6854 21.1555 28.6854 21.158 28.6854 21.1482C28.678 21.1312 28.6506 21.1239 28.6083 21.1239C28.5661 21.1312 28.5139 21.1312 28.4542 21.1239C28.412 21.1239 28.3772 21.1166 28.3523 21.1069C28.3175 21.0996 28.2926 21.0826 28.2752 21.0656C28.2504 21.0485 28.223 21.0242 28.2081 20.9999C28.1833 20.9659 28.1659 20.9343 28.141 20.9002C28.1236 20.8662 28.1062 20.8346 28.0987 20.8078C28.0913 20.7835 28.0913 20.7665 28.0913 20.7495C28.0913 20.7252 28.0987 20.7081 28.1161 20.6911C28.1335 20.6741 28.1584 20.6571 28.1932 20.6401L28.678 20.3653C28.6954 20.358 28.7128 20.358 28.7202 20.358C28.7277 20.358 28.7376 20.3653 28.7451 20.392L28.8047 20.4917C28.8395 20.5428 28.8569 20.5914 28.8718 20.6255C28.8793 20.6595 28.8718 20.7008 28.847 20.7422C28.8296 20.7665 28.8122 20.7835 28.7948 20.8005C28.7873 20.8248 28.7699 20.8346 28.7525 20.8516C28.7451 20.8589 28.7351 20.8759 28.7277 20.8856C28.7277 20.8929 28.7277 20.9027 28.7277 20.9197C28.7451 20.9367 28.7625 20.9367 28.7873 20.9197C28.8047 20.9124 28.8221 20.9027 28.8544 20.8783C28.8893 20.8613 28.9315 20.8273 28.9812 20.803C29.0334 20.7786 29.0757 20.7519 29.118 20.7373C29.1602 20.713 29.195 20.696 29.2298 20.679C29.2472 20.6717 29.2547 20.6546 29.2373 20.6376C29.2373 20.6206 29.2199 20.6133 29.2124 20.6206C29.205 20.6206 29.1876 20.6206 29.1702 20.6279C29.1528 20.6279 29.1354 20.6352 29.118 20.6352C29.0931 20.6352 29.0757 20.6352 29.0508 20.6279C29.0334 20.6279 29.0086 20.6109 28.9738 20.5768C28.9489 20.5428 28.9141 20.5015 28.8893 20.4528L28.8221 20.3434C28.8147 20.3191 28.8047 20.3094 28.8147 20.3021C28.8147 20.2948 28.8321 20.2851 28.8495 20.2778L29.2422 20.0516C29.2671 20.0443 29.2944 20.0273 29.3094 20.0176C29.3268 20.0103 29.3442 20.0103 29.3616 20.0103C29.379 20.0176 29.3964 20.0273 29.4138 20.0346C29.4212 20.0516 29.4386 20.0759 29.466 20.11C29.543 20.234 29.5679 20.3507 29.543 20.4528C29.543 20.4869 29.5256 20.5112 29.5182 20.5355C29.5008 20.5598 29.4834 20.5768 29.4759 20.5939C29.4585 20.6109 29.4511 20.6182 29.4411 20.6352C29.4337 20.6425 29.4337 20.6595 29.4411 20.6692C29.4486 20.6863 29.4759 20.6863 29.5182 20.6619L29.717 20.5331Z" fill="black"/>
</g>
<path d="M44.6188 37.2654L43.8834 36.5878L44.6188 37.2654C45.8742 35.9029 46.4495 34.2032 46.7274 32.0276C47 29.8927 47 27.1637 47 23.6566V23.5835V23.5104C47 20.0032 47 17.2742 46.7274 15.1393C46.4495 12.9638 45.8742 11.264 44.6188 9.90153L43.8834 10.5791L44.6188 9.90152C44.4525 9.72106 44.2789 9.54747 44.0985 9.38119C42.736 8.12582 41.0362 7.55048 38.8607 7.27263C36.7258 6.99998 33.9968 6.99999 30.4896 7L30.4165 7H17.5835L17.5104 7C14.0032 6.99999 11.2742 6.99998 9.13929 7.27263C6.96375 7.55048 5.26401 8.12582 3.90153 9.38119C3.72106 9.54747 3.54747 9.72106 3.38119 9.90153C2.12582 11.264 1.55048 12.9638 1.27263 15.1393C0.999977 17.2742 0.999987 20.0032 1 23.5104L1 23.5835L1 23.6565C0.999987 27.1637 0.999977 29.8927 1.27263 32.0276C1.55048 34.2032 2.12582 35.9029 3.38119 37.2654C3.54747 37.4459 3.72106 37.6195 3.90153 37.7857C5.26401 39.0411 6.96375 39.6165 9.13929 39.8943C11.2742 40.167 14.0032 40.167 17.5104 40.1669H17.5835H30.4165H30.4896C33.9968 40.167 36.7258 40.167 38.8607 39.8943C41.0362 39.6165 42.736 39.0411 44.0985 37.7857C44.2789 37.6195 44.4525 37.4459 44.6188 37.2654Z" stroke="#042B60" stroke-width="2"/>
<defs>
<clipPath id="clip0_164_2474">
<path d="M2 23.5835C2 16.4454 2 12.8763 4.11661 10.5791C4.26442 10.4187 4.41872 10.2644 4.57914 10.1166C6.87635 8 10.4454 8 17.5835 8H30.4165C37.5546 8 41.1237 8 43.4209 10.1166C43.5813 10.2644 43.7356 10.4187 43.8834 10.5791C46 12.8763 46 16.4454 46 23.5835C46 30.7216 46 34.2906 43.8834 36.5878C43.7356 36.7482 43.5813 36.9025 43.4209 37.0503C41.1237 39.1669 37.5546 39.1669 30.4165 39.1669H17.5835C10.4454 39.1669 6.87635 39.1669 4.57914 37.0503C4.41872 36.9025 4.26442 36.7482 4.11661 36.5878C2 34.2906 2 30.7216 2 23.5835Z" fill="white"/>
</clipPath>
</defs>
</svg>
