<svg width="48" height="48" viewBox="0 0 48 48" fill="none" xmlns="http://www.w3.org/2000/svg">
<g clip-path="url(#clip0_164_2467)">
<path d="M46 8H2V39.1659H46V8Z" fill="white"/>
<path d="M32.7842 8H46V39.1659H2L32.7842 8Z" fill="#6F91CB"/>
<path d="M2 29.8282V19.1909V8H23.978L2 29.8282Z" fill="#039340"/>
<path d="M35 31.2842H38.1904L39.185 28.2577L40.1779 31.2842H43.3455L40.7916 33.1405L41.7731 36.1671L39.1736 34.2979L36.5952 36.1671L37.567 33.1292L35 31.2842Z" fill="#F3E600"/>
</g>
<path d="M3.90186 37.785L4.57406 37.0554L3.90187 37.785C5.26431 39.0402 6.96396 39.6155 9.13935 39.8933C11.2742 40.1659 14.003 40.1659 17.51 40.1659H17.5829H30.4171H30.49C33.997 40.1659 36.7258 40.1659 38.8606 39.8933C41.036 39.6155 42.7357 39.0402 44.0981 37.785C44.2788 37.6185 44.4526 37.4447 44.6191 37.264C45.8743 35.9016 46.4496 34.202 46.7274 32.0266C47 29.8918 47 27.163 47 23.6561V23.583V23.5098C47 20.003 47 17.2741 46.7274 15.1394C46.4496 12.964 45.8743 11.2643 44.6191 9.90187C44.4526 9.72117 44.2788 9.54736 44.0981 9.38088C42.7357 8.12567 41.036 7.5504 38.8606 7.2726C36.7258 6.99998 33.997 6.99999 30.4901 7L30.4171 7H17.5829L17.5099 7C14.003 6.99999 11.2742 6.99998 9.13935 7.2726C6.96396 7.5504 5.26431 8.12567 3.90187 9.38088C3.72116 9.54736 3.54736 9.72116 3.38088 9.90187C2.12567 11.2643 1.5504 12.964 1.2726 15.1394C0.999977 17.2742 0.999987 20.003 1 23.5099L1 23.583L1 23.656C0.999987 27.1629 0.999977 29.8917 1.2726 32.0266C1.5504 34.202 2.12567 35.9016 3.38088 37.264C3.54736 37.4447 3.72116 37.6185 3.90186 37.785Z" stroke="#042B60" stroke-width="2"/>
<defs>
<clipPath id="clip0_164_2467">
<path d="M2 23.583C2 16.4454 2 12.8766 4.11634 10.5794C4.26432 10.4188 4.41881 10.2643 4.57944 10.1163C6.87658 8 10.4454 8 17.5829 8H30.4171C37.5546 8 41.1234 8 43.4206 10.1163C43.5812 10.2643 43.7357 10.4188 43.8837 10.5794C46 12.8766 46 16.4454 46 23.583C46 30.7205 46 34.2893 43.8837 36.5865C43.7357 36.7471 43.5812 36.9016 43.4206 37.0496C41.1234 39.1659 37.5546 39.1659 30.4171 39.1659H17.5829C10.4454 39.1659 6.87658 39.1659 4.57944 37.0496C4.41881 36.9016 4.26432 36.7471 4.11634 36.5865C2 34.2893 2 30.7205 2 23.583Z" fill="white"/>
</clipPath>
</defs>
</svg>
