<svg width="48" height="48" viewBox="0 0 48 48" fill="none" xmlns="http://www.w3.org/2000/svg">
<g clip-path="url(#clip0_164_2460)">
<path d="M46 8H2V39.1662H46V8Z" fill="#2B286C"/>
<path d="M24.1231 11.8956L5.92859 23.4891L24.1231 35.0673L42.3461 23.4891L24.1231 11.8956Z" fill="#FEFEFF"/>
<path d="M24.1314 31.1797C28.3931 31.1797 31.8479 27.7539 31.8479 23.528C31.8479 19.3021 28.3931 15.8763 24.1314 15.8763C19.8697 15.8763 16.4149 19.3021 16.4149 23.528C16.4149 27.7539 19.8697 31.1797 24.1314 31.1797Z" fill="#019247"/>
<path d="M21.3574 24.3742L19.6029 29.7246L24.1231 26.4413L28.6901 29.7022L26.9523 24.3742L31.46 21.1288H25.8847L24.1314 15.877L22.3853 21.1288H16.8016L21.3574 24.3742Z" fill="#F6C215"/>
</g>
<path d="M3.38097 9.90177L4.11641 10.5794L3.38097 9.90177C2.12571 11.2642 1.55042 12.9639 1.27261 15.1393C0.999977 17.2742 0.999987 20.003 1 23.51L1 23.5831L1 23.6561C0.999987 27.1631 0.999977 29.892 1.27261 32.0268C1.55042 34.2023 2.12571 35.902 3.38097 37.2644C3.54739 37.445 3.72114 37.6188 3.90177 37.7852C5.26423 39.0405 6.9639 39.6158 9.13934 39.8936C11.2742 40.1662 14.003 40.1662 17.51 40.1662H17.5831H30.4169H30.49C33.997 40.1662 36.7258 40.1662 38.8607 39.8936C41.0361 39.6158 42.7358 39.0405 44.0982 37.7852C44.2789 37.6188 44.4526 37.445 44.619 37.2644L43.8836 36.5868L44.619 37.2644C45.8743 35.902 46.4496 34.2023 46.7274 32.0268C47 29.892 47 27.1632 47 23.6562V23.5831V23.51C47 20.003 47 17.2742 46.7274 15.1393C46.4496 12.9639 45.8743 11.2642 44.619 9.90177L43.8864 10.5767L44.619 9.90176C44.4526 9.72113 44.2789 9.54739 44.0982 9.38097C42.7358 8.12571 41.0361 7.55042 38.8607 7.27261C36.7258 6.99998 33.9969 6.99999 30.49 7L30.4169 7H17.5831L17.51 7C14.0031 6.99999 11.2742 6.99998 9.13934 7.27261C6.9639 7.55042 5.26423 8.12571 3.90177 9.38097L4.57935 10.1164L3.90177 9.38097C3.72114 9.54739 3.54739 9.72114 3.38097 9.90177Z" stroke="#042B60" stroke-width="2"/>
<defs>
<clipPath id="clip0_164_2460">
<path d="M2 23.5831C2 16.4454 2 12.8765 4.11641 10.5794C4.26435 10.4188 4.41879 10.2643 4.57935 10.1164C6.87651 8 10.4454 8 17.5831 8H30.4169C37.5546 8 41.1235 8 43.4206 10.1164C43.5812 10.2643 43.7357 10.4188 43.8836 10.5794C46 12.8765 46 16.4454 46 23.5831C46 30.7208 46 34.2897 43.8836 36.5868C43.7357 36.7474 43.5812 36.9018 43.4206 37.0498C41.1235 39.1662 37.5546 39.1662 30.4169 39.1662H17.5831C10.4454 39.1662 6.87651 39.1662 4.57935 37.0498C4.41879 36.9018 4.26435 36.7474 4.11641 36.5868C2 34.2897 2 30.7208 2 23.5831Z" fill="white"/>
</clipPath>
</defs>
</svg>
