<svg width="64" height="64" viewBox="0 0 64 64" fill="none" xmlns="http://www.w3.org/2000/svg">
<g clip-path="url(#clip0_4125_46880)">
<path fill-rule="evenodd" clip-rule="evenodd" d="M36.1949 22.0385C38.4863 24.0702 40.9465 25.7276 43.2501 26.7738L38.7243 29.0117L37.4959 31.2496C35.6844 30.0949 33.7931 28.5891 31.9994 26.8486L31.9489 26.8991C30.1708 28.6182 28.2986 30.1062 26.5046 31.2496L25.2762 29.0117L20.7504 26.7738C23.0217 25.7422 25.4455 24.1165 27.7093 22.1236L27.7941 22.0389C26.9582 20.8989 26.1986 19.7167 25.5453 18.5125C25.4106 18.264 25.2798 18.0096 25.1538 17.7501H8.82715V50.2499H54.6252V17.75H38.8467C38.7205 18.0095 38.5899 18.2639 38.4552 18.5124C37.8104 19.7012 37.0617 20.8686 36.2385 21.995L36.1949 22.0385Z" fill="#DADADA"/>
<path fill-rule="evenodd" clip-rule="evenodd" d="M3.74999 62.75H60.25C61.625 62.75 62.75 61.625 62.75 60.25V55.875H39.5L38.25 57.125H25.75L24.5 55.875H1.25V60.25C1.25 61.625 2.375 62.75 3.74999 62.75Z" stroke="#0083CA" stroke-width="2" stroke-miterlimit="22.9256" stroke-linecap="round" stroke-linejoin="round"/>
<path d="M60.2498 55.2497V14.625C60.2498 13.25 59.1247 12.125 57.7498 12.125H41.247M22.7528 12.125H6.24999C4.87512 12.125 3.75 13.2501 3.75 14.625V55.2497" stroke="#0083CA" stroke-width="2" stroke-miterlimit="22.9256" stroke-linecap="round" stroke-linejoin="round"/>
<path d="M27.709 22.1239C25.4451 24.1169 23.0215 25.7426 20.75 26.7741L25.2759 29.012L26.5042 31.25C28.2982 30.1066 30.1705 28.6186 31.9486 26.8995M36.2383 21.9954C37.0615 20.869 37.8101 19.7016 38.4549 18.5128C42.018 11.9433 42.7148 1.25 32 1.25C21.2852 1.25 21.982 11.9433 25.545 18.5128C28.3609 23.7046 33.1571 28.4849 37.4956 31.25L38.724 29.0121L43.2499 26.7743C37.9099 24.3491 31.7283 18.6396 28.7605 12.596C26.4789 7.9495 27.6295 1.85487 31.9999 1.85487C36.3702 1.85487 37.5209 7.9495 35.2393 12.596C34.398 14.3091 33.2984 15.9955 32.033 17.5877" stroke="#0083CA" stroke-width="2" stroke-miterlimit="22.9256" stroke-linecap="round" stroke-linejoin="round"/>
<path d="M36.199 9.30628C34.9223 8.62716 33.4742 8.26953 31.9999 8.26953C30.5257 8.26953 29.0774 8.62703 27.8008 9.30628" stroke="#0083CA" stroke-width="2" stroke-miterlimit="22.9256" stroke-linecap="round" stroke-linejoin="round"/>
<path d="M14.8506 44.248H48.6005" stroke="#0083CA" stroke-width="2" stroke-miterlimit="22.9256" stroke-linecap="round" stroke-linejoin="round"/>
<path d="M20.2021 38.2441H43.2501" stroke="#0083CA" stroke-width="2" stroke-miterlimit="22.9256" stroke-linecap="round" stroke-linejoin="round"/>
</g>
<defs>
<clipPath id="clip0_4125_46880">
<rect width="64" height="64" fill="white"/>
</clipPath>
</defs>
</svg>
