<svg width="128" height="56" viewBox="0 0 128 56" fill="none" xmlns="http://www.w3.org/2000/svg">
<g clip-path="url(#clip0_4334_28401)">
<path d="M11.6932 37.0566V55.7482H8.8057L8.67272 54.1921L7.058 55.4127C6.38361 55.8134 5.61424 56.0091 4.7309 56.0091C3.23015 56.0091 2.07135 55.4034 1.2355 54.2014C0.409139 52.9994 -0.00878906 51.3502 -0.00878906 49.2536C-0.00878906 47.1571 0.475628 45.4706 1.43496 44.2873C2.3943 43.1039 3.70507 42.5076 5.36729 42.5076C6.25064 42.5076 7.08649 42.7125 7.88436 43.1318V44.9209C7.35245 44.6413 6.76355 44.5016 6.10816 44.5016C4.07551 44.5016 3.06868 46.0856 3.06868 49.2536C3.06868 50.8843 3.31564 52.0583 3.81905 52.7851C4.32247 53.5119 5.06334 53.8753 6.05117 53.8753C6.85853 53.8753 7.73238 53.5398 8.67272 52.8596V37.0566H11.6932Z" fill="white"/>
<path d="M25.1613 49.8782H16.8787C16.9642 51.2293 17.3536 52.2263 18.028 52.8785C18.7024 53.5308 19.6047 53.8476 20.716 53.8476C22.1123 53.8476 23.4896 53.4935 24.8478 52.7854V54.9657C23.4896 55.6552 21.9223 56 20.1366 56C18.0565 56 16.4798 55.4037 15.3969 54.211C14.3236 53.0183 13.7822 51.369 13.7822 49.2539C13.7822 47.1388 14.3331 45.4895 15.4254 44.2968C16.5178 43.1042 18.085 42.5078 20.1366 42.5078C20.6875 42.5078 21.2005 42.5544 21.6849 42.6383C22.1693 42.7221 22.6537 42.8805 23.1286 43.1042C23.6035 43.3278 24.012 43.6166 24.3444 43.9614C24.6769 44.3061 24.9523 44.772 25.1613 45.3497C25.3702 45.9274 25.4747 46.589 25.4747 47.3344C25.4747 47.996 25.3702 48.8439 25.1613 49.8782ZM22.5112 48.2476C22.5777 47.968 22.6157 47.6233 22.6157 47.2133C22.6157 46.6636 22.5302 46.1883 22.3687 45.797C22.1978 45.4057 21.9888 45.1261 21.7229 44.9491C21.4569 44.772 21.2099 44.6602 20.9725 44.595C20.735 44.5391 20.4786 44.5018 20.2221 44.5018C18.1895 44.5018 17.0782 45.7877 16.8882 48.3687L22.5207 48.2383L22.5112 48.2476Z" fill="white"/>
<path d="M30.4796 45.0139C30.1661 45.2654 30.0047 45.5916 30.0047 45.9829C30.0047 46.4115 30.2326 46.7842 30.6791 47.0824C31.1255 47.3806 31.6764 47.6508 32.3223 47.8744C32.9682 48.098 33.6141 48.3589 34.2694 48.6385C34.9248 48.9273 35.4757 49.356 35.9222 49.9243C36.3686 50.4927 36.5965 51.1916 36.5965 52.0022C36.5965 53.2322 36.1311 54.2012 35.2098 54.9187C34.2884 55.6361 33.1011 55.9995 31.6479 55.9995C30.0807 55.9995 28.5989 55.6921 27.2027 55.0864L26.9082 52.7756C28.3899 53.5024 29.8812 53.8658 31.3819 53.8658C32.0848 53.8658 32.6167 53.7074 32.9682 53.3999C33.3196 53.0924 33.5001 52.7104 33.5001 52.2538C33.5001 51.7972 33.2816 51.4525 32.8352 51.1357C32.3983 50.8282 31.8569 50.5486 31.2205 50.3064C30.5841 50.0641 29.9477 49.7939 29.3018 49.505C28.6559 49.2069 28.1145 48.7782 27.6776 48.2099C27.2406 47.6415 27.0127 46.9426 27.0127 46.132C27.0127 44.9579 27.4591 44.0541 28.3615 43.4298C29.2638 42.8055 30.3941 42.498 31.7524 42.498C33.2531 42.498 34.6779 42.7496 36.0361 43.2528L35.3997 45.2282L35.2193 45.3307C34.089 44.8648 32.9872 44.6318 31.9138 44.6318C31.2775 44.6318 30.8025 44.753 30.4891 45.0045L30.4796 45.0139Z" fill="white"/>
<path d="M38.7064 38.1851C39.0198 37.8869 39.4472 37.7285 39.9791 37.7285C40.5111 37.7285 40.91 37.8776 41.2329 38.1851C41.5559 38.4926 41.7268 38.8653 41.7268 39.3125C41.7268 39.7598 41.5654 40.1418 41.2329 40.44C40.91 40.7382 40.4921 40.8966 39.9791 40.8966C39.4662 40.8966 39.0293 40.7475 38.7064 40.44C38.3929 40.1418 38.2314 39.7598 38.2314 39.3125C38.2314 38.8653 38.3929 38.4833 38.7064 38.1851ZM41.4799 55.7398H38.4879V42.7601H41.4799V55.7398Z" fill="white"/>
<path d="M55.3465 37.0566V55.7482H52.459L52.326 54.1921L50.7113 55.4127C50.0369 55.8134 49.2676 56.0091 48.3842 56.0091C46.8835 56.0091 45.7247 55.4034 44.8888 54.2014C44.0625 52.9994 43.6445 51.3502 43.6445 49.2536C43.6445 47.1571 44.1289 45.4706 45.0883 44.2873C46.0476 43.1039 47.3584 42.5076 49.0206 42.5076C49.904 42.5076 50.7398 42.7125 51.5377 43.1318V44.9209C51.0058 44.6413 50.4169 44.5016 49.7615 44.5016C47.7288 44.5016 46.722 46.0856 46.722 49.2536C46.722 50.8843 46.969 52.0583 47.4724 52.7851C47.9758 53.5119 48.7167 53.8753 49.7045 53.8753C50.5119 53.8753 51.3857 53.5398 52.326 52.8596V37.0566H55.3465Z" fill="white"/>
<path d="M68.8156 49.8782H60.533C60.6185 51.2293 61.0079 52.2263 61.6823 52.8785C62.3567 53.5308 63.259 53.8476 64.3703 53.8476C65.7666 53.8476 67.1439 53.4935 68.5021 52.7854V54.9657C67.1439 55.6552 65.5766 56 63.7909 56C61.7108 56 60.1341 55.4037 59.0512 54.211C57.9779 53.0183 57.4365 51.369 57.4365 49.2539C57.4365 47.1388 57.9874 45.4895 59.0797 44.2968C60.1721 43.1042 61.7393 42.5078 63.7909 42.5078C64.3418 42.5078 64.8547 42.5544 65.3392 42.6383C65.8236 42.7221 66.308 42.8805 66.7829 43.1042C67.2578 43.3278 67.6663 43.6166 67.9987 43.9614C68.3311 44.3061 68.6066 44.772 68.8156 45.3497C69.0245 45.9274 69.129 46.589 69.129 47.3344C69.129 47.996 69.0245 48.8439 68.8156 49.8782ZM66.1655 48.2476C66.232 47.968 66.27 47.6233 66.27 47.2133C66.27 46.6636 66.1845 46.1883 66.023 45.797C65.8521 45.4057 65.6431 45.1261 65.3772 44.9491C65.1112 44.772 64.8642 44.6602 64.6268 44.595C64.3893 44.5391 64.1329 44.5018 63.8764 44.5018C61.8438 44.5018 60.7325 45.7877 60.5425 48.3687L66.175 48.2383L66.1655 48.2476Z" fill="white"/>
<path d="M74.211 45.0232H74.268L75.4553 43.2807C76.1772 42.7589 76.937 42.498 77.7349 42.498C78.2098 42.498 78.7037 42.5633 79.2166 42.703L78.2383 45.3213C77.8299 45.2188 77.4405 45.1629 77.051 45.1629C75.9967 45.1629 75.0469 45.5916 74.2205 46.4302V55.72H71.2285V42.7403H74.0875L74.2205 44.9952L74.211 45.0232Z" fill="white"/>
<path d="M85.2664 55.3287C84.5635 55.7759 83.7656 55.9995 82.8823 55.9995C81.809 55.9995 80.9351 55.6921 80.2607 55.0771C79.5863 54.4621 79.2539 53.6608 79.2539 52.6731C79.2539 50.735 80.4792 49.5237 82.9298 49.0391L86.9001 48.2099V46.9147C86.9001 45.3213 86.0547 44.5293 84.364 44.5293C83.0438 44.5293 81.714 44.7995 80.3937 45.3307L80.2132 45.2002L81.0111 43.0944C82.4074 42.6937 83.7466 42.498 85.0289 42.498C86.5107 42.498 87.6979 42.8149 88.5908 43.4578C89.4836 44.1007 89.9301 44.9859 89.9301 46.132V55.7386H87.0426L86.9096 54.0242L85.2664 55.3193V55.3287ZM84.0791 50.4275C83.4807 50.6045 83.0532 50.8002 82.7968 51.0332C82.5403 51.2661 82.4169 51.6388 82.4169 52.1327C82.4169 52.6265 82.5878 53.0551 82.9203 53.3533C83.2527 53.6515 83.6801 53.7912 84.1931 53.7912C85.0384 53.7912 85.9503 53.3719 86.9191 52.524V49.6448L84.0886 50.4275H84.0791Z" fill="white"/>
<path d="M91.5176 43.5982L92.9708 42.7689L94.823 39.9922H95.9628V42.7689H98.9263V44.8468H95.9628V52.3476C95.9628 52.8321 96.0768 53.1862 96.3048 53.4005C96.5327 53.6148 96.8937 53.7266 97.3876 53.7266C97.967 53.7266 98.5084 53.6335 99.0023 53.4378V55.5622C98.2994 55.8604 97.4826 56.0002 96.5707 56.0002C95.3359 56.0002 94.4241 55.7486 93.8447 55.2454C93.2653 54.7423 92.9708 53.9037 92.9708 52.7296V44.8374H91.5176V43.5889V43.5982Z" fill="white"/>
<path d="M105.879 55.3287C105.176 55.7759 104.378 55.9995 103.495 55.9995C102.421 55.9995 101.547 55.6921 100.873 55.0771C100.199 54.4621 99.8662 53.6608 99.8662 52.6731C99.8662 50.735 101.092 49.5237 103.542 49.0391L107.512 48.2099V46.9147C107.512 45.3213 106.667 44.5293 104.976 44.5293C103.656 44.5293 102.326 44.7995 101.006 45.3307L100.826 45.2002L101.623 43.0944C103.02 42.6937 104.359 42.498 105.641 42.498C107.123 42.498 108.31 42.8149 109.203 43.4578C110.096 44.1007 110.542 44.9859 110.542 46.132V55.7386H107.655L107.522 54.0242L105.879 55.3193V55.3287ZM104.691 50.4275C104.093 50.6045 103.666 50.8002 103.409 51.0332C103.153 51.2661 103.029 51.6388 103.029 52.1327C103.029 52.6265 103.2 53.0551 103.533 53.3533C103.865 53.6515 104.292 53.7912 104.805 53.7912C105.651 53.7912 106.563 53.3719 107.531 52.524V49.6448L104.701 50.4275H104.691Z" fill="white"/>
<path fill-rule="evenodd" clip-rule="evenodd" d="M124.704 20.4433C124.704 20.4433 125.73 20.583 128 20.6855C125.835 18.589 116.251 5.56273 108.12 5.56273C104.14 5.56273 102.136 8.19035 101.148 10.7434C100.455 9.3178 99.6478 8.34875 99.6478 7.08153C99.6478 4.96639 105.793 2.86057 105.793 2.86057C105.793 2.86057 101.443 0 96.7602 0C89.7505 0 90.2444 8.67488 90.2444 8.67488C90.2444 8.67488 87.2239 5.56273 83.2346 5.56273C70.8012 5.56273 65.8336 19.7724 54.8914 19.4276C55.8888 20.0706 59.1277 20.8346 61.4168 20.6203C60.3625 20.816 58.7858 21.5614 58.3014 22.4373C61.8442 22.4373 69.7469 22.7448 77.8775 20.4246C72.5869 25.214 59.2797 27.1521 54.1221 26.6303C54.1221 26.6303 61.9107 33.7398 73.2328 33.7398C88.9241 33.7398 102.165 25.6706 102.165 15.2067C102.165 14.3028 102.763 7.45424 108.12 7.45424C114.123 7.45424 123.935 18.8126 123.935 18.8126C123.935 18.8126 122.909 18.9245 120.848 18.8126C122.482 20.378 123.033 21.2446 123.033 21.2446C123.033 21.2446 119.67 21.9993 117.467 21.9993C114.883 21.9993 107.427 21.2632 103.77 17.6013C103.637 18.384 103.438 19.1574 103.162 19.9215C114.237 26.7141 122.083 22.8845 126.424 22.1671C125.493 21.0862 124.695 20.4433 124.695 20.4433H124.704ZM73.2328 31.8389C65.7671 31.8389 60.0396 28.3541 60.0396 28.3541C74.2111 26.6769 82.2942 21.8782 80.8695 16.8652C78.9793 18.8965 69.9274 20.4992 64.1144 20.4992C65.3491 20.0519 66.413 18.9431 66.413 18.8033C65.5581 19.0922 63.7914 19.2413 62.4996 19.1108C69.3005 16.1943 74.3441 7.44493 83.2536 7.44493C88.0882 7.44493 90.4248 12.2809 92.7994 13.3524C92.201 12.0013 90.3963 1.8822 96.7697 1.8822C99.0778 1.8822 101.319 2.75807 101.319 2.75807C101.319 2.75807 97.7386 4.49118 97.7386 7.08153C97.7386 9.88619 100.246 11.2186 100.246 15.1973C100.246 24.4779 87.8793 31.8389 73.2423 31.8389H73.2328Z" fill="white"/>
</g>
<defs>
<clipPath id="clip0_4334_28401">
<rect width="128" height="56" fill="white"/>
</clipPath>
</defs>
</svg>
