<svg width="256" height="169" viewBox="0 0 256 169" fill="none" xmlns="http://www.w3.org/2000/svg">
<g clip-path="url(#clip0_4327_20555)">
<path d="M23.4068 75.3203V113.306H17.6278L17.3552 110.138L14.1205 112.618C12.7757 113.433 11.231 113.831 9.45006 113.831C6.45155 113.831 4.12543 112.618 2.45354 110.174C0.799815 107.73 -0.0361328 104.38 -0.0361328 100.125C-0.0361328 95.8705 0.927025 92.4303 2.85334 90.0223C4.77965 87.6142 7.39654 86.4192 10.7222 86.4192C12.4849 86.4192 14.1568 86.8356 15.756 87.6866V91.3259C14.702 90.7646 13.5208 90.4749 12.2123 90.4749C8.15979 90.4749 6.12444 93.6977 6.12444 100.125C6.12444 103.439 6.61511 105.829 7.63278 107.295C8.63228 108.78 10.1406 109.504 12.1033 109.504C13.7207 109.504 15.4834 108.816 17.337 107.44V75.3203H23.3704H23.4068Z" fill="white"/>
<path d="M50.3568 101.374H33.7832C33.965 104.108 34.7282 106.154 36.0912 107.458C37.4541 108.78 39.2351 109.432 41.4703 109.432C44.2508 109.432 47.013 108.707 49.7389 107.277V111.713C47.013 113.125 43.8873 113.813 40.3073 113.813C36.1457 113.813 32.9836 112.6 30.8392 110.174C28.6767 107.748 27.6045 104.38 27.6045 100.089C27.6045 95.7979 28.6949 92.4483 30.8938 90.0221C33.0745 87.5959 36.2184 86.3828 40.3073 86.3828C41.3976 86.3828 42.4335 86.4733 43.3966 86.6544C44.3598 86.8355 45.323 87.1433 46.2861 87.5959C47.2311 88.0486 48.0489 88.6279 48.7213 89.3341C49.3937 90.0402 49.9388 90.9817 50.3568 92.1586C50.7748 93.3355 50.9929 94.6753 50.9929 96.1962C50.9929 97.536 50.7748 99.2561 50.3568 101.356M45.0685 98.0249C45.2139 97.4636 45.2866 96.7575 45.2866 95.9246C45.2866 94.802 45.1231 93.8424 44.7778 93.0458C44.4507 92.2491 44.0145 91.6878 43.4875 91.3257C42.9605 90.9817 42.4517 90.7282 41.9792 90.6196C41.5067 90.4928 40.9978 90.4385 40.4708 90.4385C36.4183 90.4385 34.183 93.0639 33.8014 98.2965L45.0867 98.0249H45.0685Z" fill="white"/>
<path d="M60.9882 91.4896C60.3522 91.9965 60.025 92.6664 60.025 93.4631C60.025 94.3503 60.4794 95.0926 61.3698 95.7082C62.2603 96.3238 63.3688 96.867 64.6591 97.3196C65.9494 97.7723 67.2396 98.2974 68.5481 98.8768C69.8565 99.4561 70.9651 100.325 71.8555 101.484C72.746 102.643 73.2003 104.055 73.2003 105.703C73.2003 108.201 72.2735 110.175 70.4199 111.641C68.5663 113.108 66.2038 113.832 63.2961 113.832C60.1523 113.832 57.1901 113.217 54.4097 111.985L53.8281 107.296C56.7903 108.763 59.7706 109.505 62.7691 109.505C64.1866 109.505 65.2406 109.197 65.9494 108.563C66.6581 107.93 67.0034 107.151 67.0034 106.246C67.0034 105.341 66.5672 104.616 65.6768 103.983C64.7863 103.349 63.7141 102.788 62.442 102.299C61.1699 101.81 59.8978 101.267 58.6076 100.669C57.3173 100.072 56.2269 99.2027 55.3546 98.0258C54.4642 96.867 54.028 95.4547 54.028 93.8071C54.028 91.4171 54.9185 89.5884 56.7358 88.321C58.5349 87.0536 60.7883 86.4199 63.5142 86.4199C66.5127 86.4199 69.3659 86.9269 72.0918 87.9408L70.8197 91.9603L70.4562 92.1776C68.2028 91.218 65.9857 90.7472 63.8413 90.7472C62.5692 90.7472 61.6243 91.0007 60.9882 91.5077" fill="white"/>
<path d="M77.4524 77.6011C78.0885 76.9855 78.9244 76.6777 79.9966 76.6777C81.0688 76.6777 81.8502 76.9855 82.5045 77.6011C83.1587 78.2167 83.4858 78.9772 83.4858 79.9006C83.4858 80.824 83.1587 81.5844 82.5045 82.2C81.8502 82.8156 81.0143 83.1234 79.9966 83.1234C78.9789 83.1234 78.0885 82.8156 77.4524 82.2C76.8164 81.5844 76.4893 80.824 76.4893 79.9006C76.4893 78.9772 76.7982 78.2167 77.4524 77.6011ZM83.0133 113.288H77.0344V86.9075H83.0133V113.288Z" fill="white"/>
<path d="M110.764 75.3203V113.306H104.985L104.712 110.138L101.477 112.618C100.133 113.433 98.5878 113.831 96.8251 113.831C93.8265 113.831 91.5004 112.618 89.8285 110.174C88.1748 107.73 87.3389 104.38 87.3389 100.125C87.3389 95.8705 88.302 92.4303 90.2283 90.0223C92.1547 87.6142 94.7715 86.4192 98.0971 86.4192C99.8599 86.4192 101.532 86.8356 103.131 87.6866V91.3259C102.077 90.7646 100.896 90.4749 99.5873 90.4749C95.5348 90.4749 93.4994 93.6977 93.4994 100.125C93.4994 103.439 94.0083 105.829 95.0078 107.295C96.0073 108.78 97.5156 109.504 99.4783 109.504C101.096 109.504 102.84 108.816 104.712 107.44V75.3203H110.745H110.764Z" fill="white"/>
<path d="M137.713 101.374H121.14C121.322 104.108 122.085 106.154 123.448 107.458C124.811 108.78 126.592 109.432 128.827 109.432C131.607 109.432 134.37 108.707 137.077 107.277V111.713C134.352 113.125 131.226 113.813 127.646 113.813C123.484 113.813 120.322 112.6 118.16 110.174C116.015 107.748 114.925 104.38 114.925 100.089C114.925 95.7979 116.015 92.4483 118.214 90.0221C120.395 87.5959 123.539 86.3828 127.646 86.3828C128.736 86.3828 129.772 86.4733 130.735 86.6544C131.698 86.8355 132.661 87.1433 133.625 87.5959C134.57 88.0486 135.387 88.6279 136.06 89.3341C136.732 90.0402 137.277 90.9817 137.695 92.1586C138.113 93.3355 138.331 94.6753 138.331 96.1962C138.331 97.536 138.113 99.2561 137.695 101.356M132.407 98.0249C132.552 97.4636 132.625 96.7575 132.625 95.9246C132.625 94.802 132.462 93.8424 132.116 93.0458C131.789 92.2491 131.353 91.6878 130.826 91.3257C130.299 90.9817 129.79 90.7282 129.318 90.6196C128.845 90.4928 128.336 90.4385 127.809 90.4385C123.757 90.4385 121.522 93.0639 121.14 98.2965L132.425 98.0249H132.407Z" fill="white"/>
<path d="M148.508 91.5062H148.617L150.998 87.9756C152.452 86.9255 153.96 86.4004 155.559 86.4004C156.504 86.4004 157.504 86.5452 158.521 86.8168L156.559 92.1399C155.741 91.9227 154.959 91.8321 154.178 91.8321C152.052 91.8321 150.162 92.7012 148.508 94.4213V113.306H142.529V86.9255H148.254L148.526 91.5062H148.508Z" fill="white"/>
<path d="M170.642 112.455C169.225 113.379 167.644 113.831 165.881 113.831C163.736 113.831 161.974 113.198 160.647 111.948C159.302 110.699 158.63 109.069 158.63 107.078C158.63 103.149 161.083 100.686 165.99 99.6906L173.931 98.0068V95.3633C173.931 92.1224 172.241 90.511 168.843 90.511C166.19 90.511 163.555 91.0541 160.901 92.1405L160.52 91.8689L162.101 87.5959C164.899 86.7811 167.571 86.3828 170.151 86.3828C173.114 86.3828 175.494 87.0346 177.275 88.3382C179.056 89.6419 179.947 91.4525 179.947 93.77V113.288H174.168L173.913 109.812L170.624 112.455H170.642ZM168.261 102.479C167.062 102.841 166.208 103.239 165.699 103.71C165.19 104.181 164.936 104.941 164.936 105.955C164.936 106.969 165.263 107.838 165.935 108.436C166.608 109.033 167.444 109.323 168.48 109.323C170.17 109.323 171.987 108.454 173.931 106.734V100.886L168.261 102.461V102.479Z" fill="white"/>
<path d="M183.127 88.6102L186.035 86.9264L189.742 81.2773H192.013V86.9264H197.938V91.145H192.013V106.39C192.013 107.368 192.25 108.092 192.704 108.527C193.158 108.961 193.885 109.178 194.867 109.178C196.03 109.178 197.102 108.979 198.101 108.599V112.926C196.684 113.524 195.066 113.832 193.231 113.832C190.76 113.832 188.942 113.325 187.779 112.311C186.616 111.297 186.035 109.577 186.035 107.187V91.145H183.127V88.6102Z" fill="white"/>
<path d="M211.876 112.455C210.459 113.379 208.878 113.831 207.115 113.831C204.971 113.831 203.208 113.198 201.881 111.948C200.537 110.699 199.864 109.069 199.864 107.078C199.864 103.149 202.318 100.686 207.224 99.6906L215.166 98.0068V95.3633C215.166 92.1224 213.476 90.511 210.077 90.511C207.424 90.511 204.789 91.0541 202.136 92.1405L201.754 91.8689L203.335 87.5959C206.134 86.7811 208.805 86.3828 211.386 86.3828C214.348 86.3828 216.729 87.0346 218.51 88.3382C220.29 89.6419 221.181 91.4525 221.181 93.77V113.288H215.402L215.148 109.812L211.858 112.455H211.876ZM209.496 102.479C208.296 102.841 207.442 103.239 206.933 103.71C206.425 104.181 206.17 104.941 206.17 105.955C206.17 106.969 206.497 107.838 207.17 108.436C207.842 109.033 208.678 109.323 209.714 109.323C211.404 109.323 213.221 108.454 215.166 106.734V100.886L209.496 102.461V102.479Z" fill="white"/>
<path d="M76.053 135.105H74.6537C74.6537 134.671 74.6173 134.363 74.5446 134.182C74.472 134.001 74.3629 133.892 74.2539 133.856C74.1267 133.82 73.9086 133.801 73.5997 133.801H72.164V143.18C72.164 143.633 72.2185 143.905 72.3457 144.031C72.473 144.158 72.8546 144.212 73.4725 144.212V145.878H68.3296V144.212C68.9474 144.212 69.3291 144.158 69.4563 144.031C69.5835 143.905 69.638 143.615 69.638 143.18V133.801H68.2023C67.8752 133.801 67.6572 133.801 67.5481 133.856C67.4391 133.892 67.3301 134.001 67.2574 134.182C67.1847 134.363 67.1483 134.671 67.1483 135.105H65.749V131.701H76.0712V135.105H76.053Z" fill="white"/>
<path d="M80.8693 137.278L81.887 135.793C82.3413 135.431 82.9228 135.25 83.5952 135.25C83.9769 135.25 84.3585 135.304 84.7583 135.413L83.995 137.513C83.6679 137.423 83.359 137.386 83.0501 137.386C82.2505 137.386 81.5054 137.767 80.8148 138.509V143.162C80.8148 143.597 80.8875 143.886 81.051 144.013C81.2146 144.14 81.6871 144.194 82.4867 144.194V145.86H77.2529V144.194C77.8163 144.194 78.1434 144.122 78.2706 144.013C78.3796 143.886 78.4523 143.597 78.4523 143.162V138.165C78.4523 137.712 78.3978 137.441 78.2706 137.314C78.1616 137.187 77.8163 137.133 77.2529 137.133V135.467H80.7058L80.8148 137.278H80.8511H80.8693Z" fill="white"/>
<path d="M91.1363 144.502L89.8824 145.588C89.3735 145.914 88.7375 146.077 87.9924 146.077C87.1383 146.077 86.4477 145.824 85.9207 145.335C85.3937 144.846 85.1211 144.194 85.1211 143.398C85.1211 141.841 86.1751 140.845 88.265 140.392L91.1545 139.813V138.781C91.1545 138.219 91.0091 137.749 90.7365 137.423C90.4639 137.079 89.9187 136.916 89.1373 136.916C88.1378 136.916 87.1383 137.151 86.0842 137.622L85.848 137.368L86.4841 135.721C87.5926 135.395 88.6466 135.25 89.6643 135.25C90.8455 135.25 91.7723 135.503 92.4811 136.01C93.1898 136.517 93.5351 137.242 93.5351 138.147V143.253C93.5351 143.47 93.5351 143.633 93.5533 143.724C93.5533 143.814 93.6078 143.905 93.6805 143.995C93.7532 144.086 93.8622 144.14 94.0258 144.158C94.1893 144.176 94.4074 144.194 94.7163 144.194V145.86C94.153 146.005 93.5714 146.059 92.9354 146.059C92.372 146.059 91.9541 145.932 91.6815 145.679C91.4089 145.425 91.2272 145.027 91.1545 144.466M91.1545 140.953L88.6648 141.641C87.9379 141.859 87.5744 142.329 87.5744 143.017C87.5744 143.434 87.7198 143.76 87.9742 143.959C88.2468 144.176 88.5921 144.285 89.0101 144.285C89.8097 144.285 90.5184 143.941 91.1363 143.271V140.953H91.1545Z" fill="white"/>
<path d="M98.8236 136.844L100.096 135.757C100.605 135.431 101.222 135.268 101.931 135.268C103.112 135.268 104.039 135.757 104.693 136.771C105.348 137.767 105.693 139.071 105.693 140.682C105.693 142.384 105.275 143.706 104.421 144.665C103.585 145.625 102.44 146.096 101.022 146.096C100.023 146.096 99.0598 145.824 98.1875 145.263L97.6424 145.987H96.4611V134.417C96.4611 133.983 96.4066 133.693 96.2794 133.566C96.1704 133.44 95.8251 133.385 95.2617 133.385V131.72L98.1875 130.887H98.8236V136.844ZM98.8236 137.839V144.158C99.496 144.484 100.15 144.629 100.786 144.629C102.458 144.629 103.294 143.307 103.294 140.664C103.294 139.36 103.094 138.419 102.676 137.839C102.258 137.26 101.64 136.97 100.804 136.97C100.059 136.97 99.3869 137.26 98.8236 137.821" fill="white"/>
<path d="M112.981 144.502L111.727 145.588C111.218 145.914 110.582 146.077 109.837 146.077C108.983 146.077 108.292 145.824 107.747 145.335C107.202 144.846 106.947 144.194 106.947 143.398C106.947 141.841 108.001 140.845 110.091 140.392L112.981 139.813V138.781C112.981 138.219 112.835 137.749 112.563 137.423C112.29 137.079 111.763 136.916 110.982 136.916C109.982 136.916 108.964 137.151 107.929 137.622L107.692 137.368L108.328 135.721C109.437 135.395 110.491 135.25 111.509 135.25C112.69 135.25 113.617 135.503 114.325 136.01C115.034 136.517 115.379 137.242 115.379 138.147V143.253C115.379 143.47 115.379 143.633 115.398 143.724C115.398 143.814 115.452 143.905 115.525 143.995C115.598 144.086 115.707 144.14 115.87 144.158C116.034 144.176 116.252 144.194 116.561 144.194V145.86C115.997 146.005 115.416 146.059 114.78 146.059C114.216 146.059 113.798 145.932 113.526 145.679C113.253 145.425 113.071 145.027 112.999 144.466M112.999 140.953L110.509 141.641C109.782 141.859 109.419 142.329 109.419 143.017C109.419 143.434 109.546 143.76 109.819 143.959C110.091 144.176 110.436 144.285 110.854 144.285C111.654 144.285 112.363 143.941 112.981 143.271V140.953H112.999Z" fill="white"/>
<path d="M121.104 130.887V143.181C121.104 143.615 121.158 143.905 121.267 144.032C121.376 144.158 121.722 144.213 122.267 144.213V145.878H117.542V144.213C118.105 144.213 118.432 144.158 118.542 144.032C118.651 143.905 118.705 143.615 118.705 143.181V134.435C118.705 133.983 118.651 133.711 118.542 133.584C118.432 133.458 118.105 133.403 117.542 133.403V131.738L120.468 130.905H121.104V130.887Z" fill="white"/>
<path d="M133.134 138.238V143.181C133.134 143.615 133.188 143.905 133.316 144.032C133.425 144.158 133.77 144.213 134.333 144.213V145.878H130.771V138.69C130.771 137.658 130.299 137.133 129.372 137.133C128.681 137.133 127.882 137.423 126.919 137.984V143.162C126.919 143.597 126.973 143.887 127.1 144.013C127.209 144.14 127.555 144.195 128.118 144.195V145.86H123.375V144.195C123.938 144.195 124.265 144.14 124.393 144.013C124.52 143.887 124.574 143.597 124.574 143.162V134.417C124.574 133.983 124.52 133.693 124.393 133.566C124.265 133.44 123.938 133.385 123.375 133.385V131.72L126.301 130.887H126.919V136.862H126.955L127.973 135.848C128.7 135.449 129.427 135.268 130.153 135.268C131.026 135.268 131.753 135.522 132.298 136.029C132.843 136.536 133.134 137.278 133.134 138.256" fill="white"/>
<path d="M140.33 146.077C138.731 146.077 137.55 145.607 136.75 144.665C135.951 143.724 135.551 142.384 135.551 140.664C135.551 138.944 135.951 137.604 136.75 136.662C137.55 135.721 138.749 135.25 140.33 135.25C141.911 135.25 143.092 135.721 143.892 136.662C144.692 137.604 145.091 138.944 145.091 140.664C145.091 142.384 144.692 143.724 143.892 144.665C143.092 145.607 141.893 146.077 140.33 146.077ZM140.33 136.916C139.458 136.916 138.84 137.224 138.477 137.839C138.113 138.455 137.95 139.396 137.95 140.664C137.95 141.931 138.131 142.873 138.477 143.488C138.84 144.104 139.458 144.412 140.33 144.412C141.203 144.412 141.802 144.104 142.166 143.488C142.529 142.873 142.693 141.931 142.693 140.664C142.693 139.396 142.511 138.455 142.166 137.839C141.82 137.224 141.203 136.916 140.33 136.916Z" fill="white"/>
<path d="M156.032 136.99C155.141 136.99 154.469 137.334 153.996 138.022C153.542 138.71 153.306 139.597 153.306 140.683C153.306 141.932 153.56 142.856 154.087 143.471C154.614 144.069 155.323 144.377 156.25 144.377C157.176 144.377 158.194 144.069 159.194 143.453V145.264C158.194 145.825 157.049 146.097 155.777 146.097C154.251 146.097 153.051 145.608 152.179 144.648C151.325 143.671 150.889 142.349 150.889 140.683C150.889 139.017 151.325 137.678 152.197 136.718C153.069 135.758 154.305 135.27 155.904 135.27C157.013 135.27 158.121 135.469 159.194 135.867V138.329H157.812C157.812 137.442 157.213 136.99 156.032 136.99Z" fill="white"/>
<path d="M165.445 146.077C163.846 146.077 162.665 145.607 161.865 144.665C161.066 143.724 160.666 142.384 160.666 140.664C160.666 138.944 161.066 137.604 161.865 136.662C162.665 135.721 163.864 135.25 165.445 135.25C167.026 135.25 168.208 135.721 169.007 136.662C169.807 137.604 170.207 138.944 170.207 140.664C170.207 142.384 169.807 143.724 169.007 144.665C168.208 145.607 167.008 146.077 165.445 146.077ZM165.445 136.916C164.573 136.916 163.955 137.224 163.592 137.839C163.228 138.455 163.065 139.396 163.065 140.664C163.065 141.931 163.247 142.873 163.592 143.488C163.937 144.104 164.555 144.412 165.445 144.412C166.336 144.412 166.917 144.104 167.281 143.488C167.644 142.873 167.808 141.931 167.808 140.664C167.808 139.396 167.626 138.455 167.281 137.839C166.936 137.224 166.318 136.916 165.445 136.916Z" fill="white"/>
<path d="M175.058 130.887V143.181C175.058 143.615 175.112 143.905 175.222 144.032C175.331 144.158 175.676 144.213 176.221 144.213V145.878H171.496V144.213C172.059 144.213 172.387 144.158 172.496 144.032C172.605 143.905 172.659 143.615 172.659 143.181V134.435C172.659 133.983 172.605 133.711 172.496 133.584C172.387 133.458 172.059 133.403 171.496 133.403V131.738L174.422 130.905H175.058V130.887Z" fill="white"/>
<path d="M186.744 139.125C186.744 139.705 186.653 140.393 186.489 141.189H179.947C180.038 142.257 180.347 143.054 180.892 143.579C181.437 144.104 182.146 144.358 183 144.358C183.509 144.358 184.072 144.267 184.709 144.086C185.345 143.905 185.872 143.688 186.308 143.434V145.245C185.308 145.806 184.054 146.078 182.546 146.078C181.038 146.078 179.766 145.589 178.875 144.611C177.985 143.634 177.53 142.312 177.53 140.646C177.53 138.98 177.966 137.64 178.821 136.681C179.693 135.721 180.91 135.232 182.528 135.232C182.964 135.232 183.364 135.269 183.745 135.341C184.127 135.413 184.509 135.54 184.89 135.721C185.272 135.902 185.581 136.138 185.853 136.409C186.108 136.681 186.326 137.061 186.508 137.532C186.671 138.003 186.762 138.528 186.762 139.125M179.965 139.958L184.436 139.831C184.472 139.542 184.509 139.27 184.509 139.017C184.509 138.564 184.436 138.202 184.309 137.894C184.182 137.586 184 137.369 183.782 137.242C183.564 137.115 183.364 137.025 183.182 136.989C183 136.952 182.819 136.934 182.619 136.934C181.001 136.934 180.111 137.948 179.965 139.976" fill="white"/>
<path d="M187.924 137.133V136.246L189.069 135.467L190.741 133.24H191.432V135.467H193.776V137.133H191.432V143.198C191.432 143.597 191.523 143.868 191.704 144.031C191.886 144.194 192.177 144.285 192.577 144.285C193.031 144.285 193.449 144.194 193.831 144.013V145.751C193.267 145.987 192.631 146.113 191.904 146.113C190.923 146.113 190.214 145.914 189.742 145.534C189.287 145.136 189.051 144.484 189.051 143.542V137.169H187.906L187.924 137.133Z" fill="white"/>
<path d="M198.555 135.469V143.182C198.555 143.616 198.61 143.906 198.737 144.033C198.846 144.16 199.191 144.214 199.755 144.214V145.88H195.012V144.214C195.575 144.214 195.902 144.141 196.029 144.033C196.157 143.906 196.211 143.616 196.211 143.182V138.185C196.211 137.732 196.157 137.46 196.029 137.334C195.92 137.207 195.575 137.153 195.012 137.153V135.487H198.574L198.555 135.469ZM195.811 132.662C195.811 132.336 195.939 132.047 196.175 131.811C196.411 131.576 196.738 131.449 197.12 131.449C197.501 131.449 197.829 131.576 198.065 131.811C198.301 132.047 198.428 132.336 198.428 132.662C198.428 132.988 198.301 133.296 198.065 133.531C197.81 133.767 197.501 133.875 197.12 133.875C196.738 133.875 196.411 133.767 196.175 133.531C195.939 133.296 195.811 133.006 195.811 132.662Z" fill="white"/>
<path d="M211.114 135.469V137.134C210.677 137.134 210.387 137.189 210.241 137.279C210.096 137.37 209.969 137.569 209.86 137.877L207.243 146.006H204.135L201.682 138.04C201.555 137.678 201.427 137.424 201.282 137.316C201.137 137.207 200.846 137.153 200.392 137.153V135.487H203.554L205.88 143.526L205.916 143.562L208.224 135.487H211.114V135.469Z" fill="white"/>
<path d="M216.456 146.077C214.875 146.077 213.676 145.607 212.876 144.665C212.077 143.724 211.677 142.384 211.677 140.664C211.677 138.944 212.077 137.604 212.876 136.662C213.676 135.721 214.875 135.25 216.456 135.25C218.037 135.25 219.218 135.721 220.018 136.662C220.818 137.604 221.217 138.944 221.217 140.664C221.217 142.384 220.818 143.724 220.018 144.665C219.218 145.607 218.019 146.077 216.456 146.077ZM216.456 136.916C215.584 136.916 214.966 137.224 214.603 137.839C214.257 138.455 214.076 139.396 214.076 140.664C214.076 141.931 214.257 142.873 214.603 143.488C214.966 144.104 215.584 144.412 216.456 144.412C217.328 144.412 217.928 144.104 218.292 143.488C218.637 142.873 218.819 141.931 218.819 140.664C218.819 139.396 218.637 138.455 218.292 137.839C217.928 137.224 217.328 136.916 216.456 136.916Z" fill="white"/>
<path d="M95.5343 156.398C94.8438 156.398 94.3168 156.543 93.9896 156.851C93.6625 157.14 93.499 157.502 93.499 157.955C93.499 158.426 93.717 158.842 94.1714 159.222C94.6257 159.585 95.1709 159.929 95.7887 160.254C96.4066 160.562 97.0427 160.888 97.6969 161.214C98.3511 161.54 98.8963 162.029 99.3324 162.681C99.7686 163.332 99.9867 164.093 99.9867 164.98C99.9867 166.193 99.5323 167.153 98.6237 167.895C97.7151 168.637 96.5702 169.018 95.1527 169.018C93.5717 169.018 92.1178 168.692 90.7549 168.04V165.849C92.3723 166.646 93.8079 167.044 95.0618 167.044C95.8433 167.044 96.4248 166.881 96.7882 166.537C97.1699 166.211 97.3516 165.759 97.3516 165.197C97.3516 164.636 97.1335 164.183 96.6792 163.785C96.2431 163.387 95.6979 163.025 95.08 162.717C94.4621 162.409 93.8079 162.101 93.1719 161.775C92.5176 161.449 91.9725 160.997 91.5363 160.381C91.082 159.784 90.8639 159.059 90.8639 158.227C90.8639 157.032 91.3001 156.09 92.1542 155.42C93.0083 154.75 94.0987 154.406 95.4071 154.406C96.8428 154.406 98.2421 154.732 99.605 155.384V158.009H98.2057C98.2057 156.923 97.2971 156.38 95.5162 156.38" fill="white"/>
<path d="M107.293 167.424L106.039 168.51C105.53 168.836 104.894 168.999 104.167 168.999C103.313 168.999 102.622 168.764 102.077 168.257C101.532 167.768 101.277 167.116 101.277 166.32C101.277 164.762 102.331 163.767 104.421 163.314L107.311 162.735V161.703C107.311 161.141 107.165 160.67 106.893 160.345C106.62 160.001 106.093 159.838 105.312 159.838C104.312 159.838 103.295 160.073 102.259 160.544L102.022 160.29L102.658 158.643C103.749 158.317 104.821 158.172 105.839 158.172C107.002 158.172 107.947 158.425 108.655 158.932C109.364 159.439 109.71 160.164 109.71 161.069V166.175C109.71 166.392 109.71 166.555 109.728 166.645C109.728 166.736 109.782 166.826 109.855 166.917C109.928 167.008 110.037 167.062 110.2 167.08C110.364 167.098 110.582 167.116 110.873 167.116V168.782C110.309 168.927 109.728 168.981 109.092 168.981C108.528 168.981 108.11 168.854 107.838 168.601C107.565 168.347 107.383 167.949 107.311 167.388M107.311 163.875L104.821 164.563C104.094 164.781 103.731 165.251 103.731 165.939C103.731 166.356 103.858 166.682 104.13 166.881C104.403 167.098 104.748 167.207 105.166 167.207C105.966 167.207 106.675 166.863 107.293 166.193V163.875H107.311Z" fill="white"/>
<path d="M121.54 158.372V166.085C121.54 166.52 121.594 166.81 121.703 166.936C121.812 167.063 122.158 167.117 122.703 167.117V168.783H119.25L119.141 167.389H119.105L118.105 168.403C117.378 168.801 116.651 168.982 115.906 168.982C115.034 168.982 114.325 168.729 113.78 168.222C113.235 167.715 112.962 166.973 112.962 165.995V161.052C112.962 160.599 112.908 160.328 112.78 160.201C112.671 160.074 112.326 160.02 111.763 160.02V158.354H115.306V165.542C115.306 166.574 115.779 167.099 116.706 167.099C117.396 167.099 118.214 166.81 119.123 166.248V161.052C119.123 160.599 119.068 160.328 118.959 160.201C118.85 160.074 118.505 160.02 117.96 160.02V158.354H121.503L121.54 158.372ZM116.415 156.471L118.668 154.805C119.014 154.57 119.304 154.443 119.541 154.443C119.813 154.443 120.049 154.516 120.213 154.679C120.395 154.842 120.467 155.041 120.467 155.312C120.467 155.729 120.231 156.037 119.759 156.236L116.815 157.34L116.397 156.489L116.415 156.471Z" fill="white"/>
<path d="M133.261 153.791V166.085C133.261 166.519 133.315 166.809 133.424 166.936C133.533 167.063 133.86 167.117 134.424 167.117V168.783H130.971L130.862 167.407L129.608 168.493C129.099 168.837 128.481 169 127.754 169C126.591 169 125.664 168.493 125.01 167.497C124.356 166.501 124.011 165.198 124.011 163.586C124.011 161.884 124.411 160.563 125.192 159.603C125.973 158.643 127.027 158.173 128.318 158.173C129.281 158.173 130.135 158.426 130.862 158.915V157.195C130.862 156.978 130.862 156.833 130.844 156.76C130.844 156.67 130.789 156.597 130.717 156.507C130.644 156.416 130.535 156.362 130.371 156.344C130.208 156.326 129.99 156.308 129.699 156.308V154.642L132.625 153.809H133.261V153.791ZM130.88 166.284V160.345C130.299 159.947 129.626 159.766 128.899 159.766C127.264 159.766 126.428 161.033 126.428 163.586C126.428 164.89 126.628 165.831 127.046 166.411C127.464 166.99 128.081 167.28 128.899 167.28C129.517 167.28 130.189 166.954 130.88 166.302" fill="white"/>
<path d="M144.947 162.047C144.947 162.626 144.856 163.314 144.692 164.111H138.15C138.241 165.179 138.55 165.975 139.095 166.501C139.64 167.026 140.331 167.279 141.203 167.279C141.712 167.279 142.275 167.189 142.911 167.008C143.547 166.826 144.092 166.609 144.51 166.356V168.166C143.511 168.728 142.257 168.999 140.749 168.999C139.24 168.999 137.968 168.51 137.06 167.551C136.169 166.573 135.715 165.251 135.715 163.586C135.715 161.92 136.151 160.58 137.005 159.62C137.877 158.661 139.095 158.172 140.712 158.172C141.149 158.172 141.548 158.208 141.93 158.281C142.312 158.353 142.693 158.48 143.075 158.661C143.456 158.842 143.765 159.077 144.038 159.349C144.292 159.62 144.51 160.001 144.692 160.453C144.856 160.924 144.947 161.449 144.947 162.047ZM138.15 162.879L142.621 162.753C142.657 162.463 142.693 162.191 142.693 161.938C142.693 161.503 142.621 161.123 142.493 160.815C142.366 160.508 142.184 160.29 141.966 160.164C141.748 160.037 141.548 159.946 141.367 159.91C141.185 159.874 141.003 159.838 140.803 159.838C139.186 159.838 138.295 160.852 138.15 162.879Z" fill="white"/>
<path d="M159.993 162.047C159.993 162.626 159.903 163.314 159.739 164.111H153.197C153.288 165.179 153.597 165.975 154.142 166.501C154.687 167.026 155.396 167.279 156.25 167.279C156.759 167.279 157.322 167.189 157.958 167.008C158.594 166.826 159.139 166.609 159.557 166.356V168.166C158.558 168.728 157.304 168.999 155.796 168.999C154.287 168.999 153.015 168.51 152.107 167.551C151.216 166.573 150.762 165.251 150.762 163.586C150.762 161.92 151.198 160.58 152.052 159.62C152.924 158.661 154.142 158.172 155.759 158.172C156.195 158.172 156.595 158.208 156.977 158.281C157.358 158.353 157.74 158.48 158.122 158.661C158.503 158.842 158.812 159.077 159.085 159.349C159.357 159.62 159.557 160.001 159.739 160.453C159.903 160.924 159.993 161.449 159.993 162.047ZM153.197 162.879L157.667 162.753C157.704 162.463 157.722 162.191 157.722 161.938C157.722 161.503 157.649 161.123 157.522 160.815C157.395 160.508 157.213 160.29 156.995 160.164C156.777 160.037 156.577 159.946 156.395 159.91C156.214 159.874 156.032 159.838 155.832 159.838C154.215 159.838 153.324 160.852 153.179 162.879" fill="white"/>
<path d="M177.258 161.142V166.085C177.258 166.519 177.312 166.809 177.439 166.936C177.548 167.062 177.894 167.117 178.457 167.117V168.782H174.895V161.594C174.895 160.562 174.423 160.037 173.496 160.037C172.823 160.037 172.042 160.327 171.115 160.888V166.067C171.115 166.501 171.17 166.791 171.297 166.918C171.424 167.044 171.751 167.099 172.315 167.099V168.764H168.753V161.576C168.753 160.544 168.298 160.019 167.39 160.019C166.736 160.019 165.936 160.309 164.991 160.87V166.048C164.991 166.483 165.045 166.773 165.173 166.899C165.3 167.026 165.627 167.08 166.19 167.08V168.746H161.447V167.08C162.011 167.08 162.338 167.008 162.465 166.899C162.592 166.773 162.647 166.483 162.647 166.048V161.051C162.647 160.599 162.592 160.327 162.465 160.2C162.338 160.074 162.011 160.019 161.447 160.019V158.353H164.9L165.009 159.748H165.045L166.081 158.734C166.808 158.335 167.535 158.154 168.262 158.154C169.661 158.154 170.534 158.752 170.915 159.929H170.952L172.151 158.734C172.878 158.335 173.605 158.154 174.332 158.154C175.204 158.154 175.931 158.408 176.476 158.915C177.021 159.422 177.312 160.164 177.312 161.142" fill="white"/>
<path d="M185.18 158.372V157.702C185.18 156.851 185.289 156.127 185.526 155.566C185.762 155.005 186.107 154.57 186.598 154.298C187.088 154.009 187.615 153.828 188.197 153.719C188.76 153.629 189.487 153.574 190.341 153.574V155.421L190.069 155.566C189.651 155.439 189.269 155.385 188.906 155.385C188.015 155.385 187.561 155.928 187.561 156.996V158.372H189.851V160.038H187.561V166.085C187.561 166.52 187.634 166.81 187.797 166.936C187.961 167.063 188.433 167.117 189.233 167.117V168.783H183.999V167.117C184.562 167.117 184.889 167.045 184.999 166.936C185.108 166.81 185.162 166.52 185.162 166.085V160.038H183.999V159.151L185.162 158.372H185.18Z" fill="white"/>
<path d="M195.721 168.999C194.14 168.999 192.94 168.528 192.141 167.587C191.341 166.645 190.941 165.306 190.941 163.586C190.941 161.865 191.341 160.526 192.141 159.584C192.94 158.643 194.14 158.172 195.721 158.172C197.302 158.172 198.483 158.643 199.283 159.584C200.082 160.526 200.482 161.865 200.482 163.586C200.482 165.306 200.082 166.645 199.283 167.587C198.483 168.528 197.284 168.999 195.721 168.999ZM195.721 159.838C194.849 159.838 194.231 160.145 193.867 160.761C193.522 161.377 193.34 162.318 193.34 163.586C193.34 164.853 193.522 165.794 193.867 166.41C194.231 167.026 194.83 167.333 195.721 167.333C196.611 167.333 197.193 167.026 197.556 166.41C197.92 165.794 198.083 164.853 198.083 163.586C198.083 162.318 197.902 161.377 197.556 160.761C197.211 160.145 196.593 159.838 195.721 159.838Z" fill="white"/>
<path d="M207.042 159.892C206.152 159.892 205.479 160.236 205.007 160.924C204.553 161.612 204.316 162.499 204.316 163.586C204.316 164.835 204.571 165.758 205.098 166.374C205.625 166.971 206.334 167.279 207.26 167.279C208.187 167.279 209.205 166.971 210.204 166.356V168.166C209.205 168.728 208.06 168.999 206.788 168.999C205.261 168.999 204.062 168.51 203.19 167.551C202.317 166.573 201.899 165.251 201.899 163.586C201.899 161.92 202.336 160.58 203.208 159.62C204.08 158.661 205.316 158.172 206.915 158.172C208.024 158.172 209.132 158.371 210.204 158.769V161.232H208.823C208.823 160.345 208.224 159.892 207.042 159.892Z" fill="white"/>
<path d="M216.456 168.999C214.875 168.999 213.676 168.528 212.876 167.587C212.077 166.645 211.677 165.306 211.677 163.586C211.677 161.865 212.077 160.526 212.876 159.584C213.676 158.643 214.875 158.172 216.456 158.172C218.037 158.172 219.218 158.643 220.018 159.584C220.818 160.526 221.217 161.865 221.217 163.586C221.217 165.306 220.818 166.645 220.018 167.587C219.218 168.528 218.019 168.999 216.456 168.999ZM216.456 159.838C215.584 159.838 214.966 160.145 214.603 160.761C214.257 161.377 214.076 162.318 214.076 163.586C214.076 164.853 214.257 165.794 214.603 166.41C214.966 167.026 215.584 167.333 216.456 167.333C217.328 167.333 217.928 167.026 218.292 166.41C218.637 165.794 218.819 164.853 218.819 163.586C218.819 162.318 218.637 161.377 218.292 160.761C217.928 160.145 217.328 159.838 216.456 159.838Z" fill="white"/>
<path d="M249.403 41.5535C249.403 41.5535 251.438 41.8431 256 42.0423C251.675 37.7874 232.484 11.2986 216.219 11.2986C208.26 11.2986 204.244 16.6579 202.263 21.8362C200.863 18.9392 199.264 16.9657 199.264 14.3766C199.264 10.0674 211.567 5.7944 211.567 5.7944C211.567 5.7944 202.862 -0.0175781 193.485 -0.0175781C179.456 -0.0175781 180.455 17.6175 180.455 17.6175C180.455 17.6175 174.404 11.2986 166.426 11.2986C141.547 11.2986 131.607 40.1774 109.709 39.4713C111.708 40.7749 118.177 42.332 122.757 41.8975C120.631 42.2777 117.487 43.7986 116.524 45.573C123.611 45.573 139.421 46.1886 155.704 41.481C145.128 51.222 118.486 55.1509 108.164 54.0827C108.164 54.0827 123.738 68.5312 146.418 68.5312C177.82 68.5312 204.316 52.1273 204.316 30.871C204.316 29.0423 205.516 15.1189 216.238 15.1189C228.25 15.1189 247.895 38.1858 247.895 38.1858C247.895 38.1858 245.841 38.4211 241.716 38.1858C244.987 41.3724 246.077 43.1287 246.077 43.1287C246.077 43.1287 239.335 44.6677 234.919 44.6677C229.74 44.6677 214.838 43.1649 207.515 35.7415C207.242 37.3348 206.842 38.91 206.315 40.449C228.486 54.2457 244.169 46.4601 252.874 45.0298C251.02 42.8209 249.421 41.5172 249.421 41.5172M146.418 64.6746C131.48 64.6746 120.013 57.5771 120.013 57.5771C148.362 54.1732 164.536 44.4142 161.683 34.2206C157.903 38.3487 139.803 41.6078 128.154 41.6078C130.626 40.7025 132.752 38.4574 132.752 38.1677C131.044 38.7652 127.5 39.0548 124.901 38.8014C138.513 32.8626 148.599 15.1008 166.426 15.1008C176.094 15.1008 180.782 24.9142 185.526 27.105C184.344 24.3529 180.71 3.78465 193.467 3.78465C198.083 3.78465 202.572 5.57713 202.572 5.57713C202.572 5.57713 195.393 9.08966 195.393 14.3585C195.393 20.0618 200.427 22.7777 200.427 30.8529C200.427 49.7192 175.676 64.6746 146.381 64.6746" fill="white"/>
</g>
<defs>
<clipPath id="clip0_4327_20555">
<rect width="256" height="169" fill="white"/>
</clipPath>
</defs>
</svg>
