<svg width="64" height="64" viewBox="0 0 64 64" fill="none" xmlns="http://www.w3.org/2000/svg">
<path d="M57.6008 31.9748C59.2008 30.2625 59.2008 23.9343 59.2008 23.9343C59.2008 13.6069 53.4796 1.59948 32.0008 1.59961C10.522 1.59974 4.80078 15.8938 4.80078 25.7211C4.80078 25.7211 4.80078 28.5253 6.40078 31.9996C7.22502 30.2128 8.09775 31.0817 9.74623 31.0817C9.74623 27.8262 12.8201 25.7211 14.6917 25.7211C19.6371 25.7211 20.0008 28.5253 32.0008 28.5253C44.8008 28.5253 49.4179 25.7211 49.4179 25.7211C52.5789 25.7211 54.0727 29.1886 54.3038 31.0814C54.3038 31.0814 56.7765 31.0814 57.6008 31.9748Z" fill="#B1D6E4"/>
<path fill-rule="evenodd" clip-rule="evenodd" d="M9.59766 38.0757V30.9242C9.59766 27.9638 11.8909 25.5996 14.6982 25.5996C14.6982 25.5996 23.9271 28.4071 31.9977 28.4456C40.0684 28.4841 49.2334 25.5996 49.2334 25.5996C52.0767 25.5996 54.3977 27.9069 54.3977 30.9242V38.0757C54.3977 40.918 53.7997 43.6952 52.6512 46.2672C50.9117 50.1637 48.0177 53.3633 44.5297 55.5873C40.7572 57.9928 36.4023 59.1996 31.9977 59.1996C27.5932 59.1996 23.2383 57.9926 19.4657 55.5872C15.9776 53.3631 13.0836 50.1634 11.344 46.2669C10.1956 43.695 9.59766 40.9179 9.59766 38.0757Z" stroke="#042B60" stroke-width="2" stroke-miterlimit="22.9256" stroke-linecap="round" stroke-linejoin="round"/>
<path d="M9.59922 39.9994H7.74394C5.23403 39.9994 3.19922 37.8504 3.19922 35.1994C3.19922 32.5484 5.2339 30.3994 7.74394 30.3994H9.01393" stroke="#042B60" stroke-width="2" stroke-miterlimit="22.9256" stroke-linecap="round" stroke-linejoin="round"/>
<path d="M54.3984 39.9994H56.2537C58.7638 39.9994 60.7984 37.8504 60.7984 35.1994C60.7984 32.5484 58.7638 30.3994 56.2537 30.3994H54.9837" stroke="#042B60" stroke-width="2" stroke-miterlimit="22.9256" stroke-linecap="round" stroke-linejoin="round"/>
<path d="M29.5898 44.7543C30.0379 45.4186 30.9645 45.8393 31.9792 45.8393C33.0299 45.8393 33.9825 45.3886 34.4108 44.6885" stroke="#042B60" stroke-width="2" stroke-miterlimit="22.9256" stroke-linecap="round" stroke-linejoin="round"/>
<path d="M41.7266 35.4414V37.4644" stroke="#042B60" stroke-width="2" stroke-miterlimit="22.9256" stroke-linecap="round" stroke-linejoin="round"/>
<path d="M22.2734 35.4414V37.4644" stroke="#042B60" stroke-width="2" stroke-miterlimit="22.9256" stroke-linecap="round" stroke-linejoin="round"/>
</svg>
