<svg width="65" height="64" viewBox="0 0 65 64" fill="none" xmlns="http://www.w3.org/2000/svg">
<path fill-rule="evenodd" clip-rule="evenodd" d="M10.4214 32.1969C16.317 32.1969 24.8768 29.9012 33.0508 19.2391C41.2247 29.9012 49.7845 32.1969 55.6801 32.1969H57.8935C59.1268 32.1969 60.2466 32.7354 61.0508 33.6V33.5505C61.0458 27.1656 60.0692 21.5916 58.2411 16.9149C58.2411 16.9149 54.6508 20 50.6508 16.8C44.2508 20.8 39.2609 13.3414 44.2508 10.4C39.4508 7.2 45.0776 2.42695 45.0776 2.42695C41.5529 0.828637 37.5189 0 33.0508 0C15.8389 0 5.06744 12.2896 5.05078 33.5503V33.6C5.855 32.7354 6.97471 32.1969 8.20809 32.1969H10.4214Z" fill="#B1D6E4"/>
<path fill-rule="evenodd" clip-rule="evenodd" d="M15.8707 52.6018C13.3412 49.7102 11.2612 46.27 9.81838 42.4159L7.0339 43.0747C7.02853 43.076 7.02298 43.0773 7.01761 43.0785L7.00122 43.1097C0.637027 49.9261 2.82351 58.1269 5.30086 63.1034C8.96784 62.49 14.0141 59.0156 15.6428 53.0347L15.8707 52.6018Z" fill="#B1D6E4"/>
<path fill-rule="evenodd" clip-rule="evenodd" d="M48.4457 52.6018C50.9752 49.7102 53.0552 46.27 54.498 42.4159L57.2825 43.0747C57.2879 43.076 57.2934 43.0773 57.2988 43.0785L57.3152 43.1097C63.6794 49.9261 61.4929 58.1269 59.0155 63.1034C55.3486 62.49 50.3023 59.0156 48.6736 53.0347L48.4457 52.6018Z" fill="#B1D6E4"/>
<path fill-rule="evenodd" clip-rule="evenodd" d="M10.0469 38.6804V32.0002C10.65 32.0002 26.65 32.0002 33.05 19.2002C41.05 32.0002 54.4534 32.0002 54.4534 32.0002V38.6804C54.4534 41.3605 53.8607 43.9792 52.7223 46.4044C50.9981 50.0785 48.1295 53.0955 44.6721 55.1927C40.9328 57.4608 36.6161 58.5988 32.2502 58.5988C27.8844 58.5988 23.5677 57.4607 19.8282 55.1925C16.3708 53.0954 13.5022 50.0783 11.7778 46.4042C10.6396 43.9791 10.0469 41.3604 10.0469 38.6804Z" stroke="#042B60" stroke-width="2" stroke-miterlimit="22.9256" stroke-linecap="round" stroke-linejoin="round"/>
<path d="M10.2912 42.4717H8.15382C5.26222 42.4717 2.91797 40.1276 2.91797 37.2358C2.91797 34.3441 5.26208 32 8.15382 32H9.61694" stroke="#042B60" stroke-width="2" stroke-miterlimit="22.9256" stroke-linecap="round" stroke-linejoin="round"/>
<path d="M54.2109 42.4717H56.3484C59.2401 42.4717 61.5842 40.1276 61.5842 37.2358C61.5842 34.3441 59.2401 32 56.3484 32H54.8852" stroke="#042B60" stroke-width="2" stroke-miterlimit="22.9256" stroke-linecap="round" stroke-linejoin="round"/>
<path d="M29.8398 43.1547C30.2879 43.819 31.2145 44.2396 32.2292 44.2396C33.2799 44.2396 34.2325 43.7889 34.6608 43.0889" stroke="#042B60" stroke-width="2" stroke-miterlimit="22.9256" stroke-linecap="round" stroke-linejoin="round"/>
<path d="M41.9766 37.042V39.065" stroke="#042B60" stroke-width="2" stroke-miterlimit="22.9256" stroke-linecap="round" stroke-linejoin="round"/>
<path d="M22.5234 37.042V39.065" stroke="#042B60" stroke-width="2" stroke-miterlimit="22.9256" stroke-linecap="round" stroke-linejoin="round"/>
<ellipse cx="50.6492" cy="10.4002" rx="3.2" ry="3.2" fill="#B1D6E4"/>
<path d="M44.6696 3.58168L43.8327 4.41858C42.13 6.12126 42.57 9.57722 44.8329 10.4001C42.57 11.223 42.13 14.679 43.8327 16.3816L44.6696 17.2185C46.3722 18.9212 49.8282 18.4812 50.6511 16.2183C51.474 18.4812 54.9299 18.9212 56.6326 17.2185L57.4695 16.3816C59.1722 14.679 58.7322 11.223 56.4693 10.4001C58.7322 9.57722 59.1722 6.12126 57.4695 4.41858L56.6326 3.58168C54.9299 1.87901 51.474 2.31898 50.6511 4.58195C49.8282 2.31898 46.3722 1.87901 44.6696 3.58168Z" stroke="#042B60" stroke-width="2" stroke-miterlimit="22.9256" stroke-linecap="round" stroke-linejoin="round"/>
</svg>
