<svg width="64" height="64" viewBox="0 0 64 64" fill="none" xmlns="http://www.w3.org/2000/svg">
<path d="M4.99818 42.5742C-0.499921 34.999 2.14133 24.2891 11.1161 24.2891C12.6609 24.2891 14.1128 24.8914 15.3878 25.9493C16.6628 24.8914 18.116 24.2891 19.6595 24.2891C21.3172 24.2891 22.8708 24.6467 24.2098 25.4072M15.3859 25.9487C15.3859 23.9819 15.3859 21.7311 15.3859 20.0633C15.3859 17.0653 13.3517 14.4488 10.4454 13.7109M8.56479 24.6015L8.56102 24.5989C6.53436 23.5373 5.16902 21.4128 5.16902 18.9883H9.05295C12.5516 18.9883 15.3864 21.8231 15.3864 25.3218" stroke="white" stroke-width="2" stroke-miterlimit="10" stroke-linecap="round" stroke-linejoin="round"/>
<path d="M2.30078 47.5938H61.7003C59.7653 52.0261 55.343 55.1232 50.1966 55.1232H13.8045C8.65812 55.1232 4.23584 52.0261 2.30078 47.5938Z" fill="#064A89"/>
<path d="M36 23.0007C32 20.9998 26.2123 20.3206 21.6311 24.1428C16.2473 28.6354 15.0895 36.4405 18.9032 42.2734C20.0848 42.2734 42.949 42.2734 42.949 42.2734C34 42.2732 28 36.5 28 36.5C28 36.5 35.167 24.4198 36 23.0007Z" fill="#064A89"/>
<path d="M45.2713 8L58.6657 29.6135L58.6144 29.6425C51.1509 36.305 39.559 36.3412 32.0503 29.7512L31.999 29.7222C33.1578 27.8258 44.0483 10.0016 45.2713 8Z" fill="#064A89"/>
<path d="M29.999 22.1954V20.9405C29.999 17.4757 32.8087 14.666 36.2735 14.666M13.8029 55.1232C6.83922 55.1232 1.25391 49.473 1.25391 42.5742C2.52475 42.5742 60.9879 42.5742 62.7441 42.5742C62.7441 49.461 57.17 55.1232 50.1951 55.1232H13.8029ZM62.6657 36.2358C62.6558 36.2191 45.7615 7.53387 45.2505 6.66602C44.3875 8.1523 28.4818 35.5459 27.999 36.3773C38.0101 44.787 52.6572 44.7844 62.6657 36.2358Z" stroke="white" stroke-width="2" stroke-miterlimit="10" stroke-linecap="round" stroke-linejoin="round"/>
<path d="M42.8317 23.9993C42.8317 24.4596 42.4586 24.8327 41.9984 24.8327C41.5381 24.8327 41.165 24.4596 41.165 23.9993C41.165 23.5391 41.5381 23.166 41.9984 23.166C42.4586 23.166 42.8317 23.5391 42.8317 23.9993ZM46.1657 29.3333C46.1657 29.7936 45.7926 30.1667 45.3324 30.1667C44.8721 30.1667 44.499 29.7936 44.499 29.3333C44.499 28.8731 44.8721 28.5 45.3324 28.5C45.7926 28.5 46.1657 28.8731 46.1657 29.3333ZM48.8317 23.9993C48.8317 24.4596 48.4586 24.8327 47.9984 24.8327C47.5381 24.8327 47.165 24.4596 47.165 23.9993C47.165 23.5391 47.5381 23.166 47.9984 23.166C48.4586 23.166 48.8317 23.5391 48.8317 23.9993ZM46.1657 18.6654C46.1657 19.1256 45.7926 19.4987 45.3324 19.4987C44.8721 19.4987 44.499 19.1256 44.499 18.6654C44.499 18.2051 44.8721 17.832 45.3324 17.832C45.7926 17.832 46.1657 18.2051 46.1657 18.6654Z" stroke="white" stroke-miterlimit="10" stroke-linecap="round" stroke-linejoin="round"/>
</svg>
