<svg width="230" height="43" viewBox="0 0 230 43" fill="none" xmlns="http://www.w3.org/2000/svg">
<path d="M117.57 18.0851L115.802 19.6167C115.066 20.088 114.182 20.3236 113.181 20.3236C111.973 20.3236 110.972 19.9996 110.206 19.2927C109.411 18.5858 109.028 17.6727 109.028 16.5535C109.028 14.3444 110.53 12.9305 113.564 12.312L117.57 11.4873V10.0145C117.57 9.21927 117.363 8.57127 116.981 8.1C116.568 7.62873 115.832 7.36364 114.742 7.36364C113.328 7.36364 111.914 7.71709 110.442 8.36509L110.118 8.01164L111.001 5.68473C112.533 5.24291 114.035 5.00727 115.478 5.00727C117.128 5.00727 118.424 5.39018 119.425 6.09709C120.427 6.83345 120.927 7.83491 120.927 9.13091V16.7302C120.927 17.5549 121.222 17.9673 121.841 17.9673C122.135 17.9673 122.43 17.9084 122.783 17.7611V19.6462C122.076 20.1175 121.251 20.3236 120.279 20.3236C118.748 20.3236 117.864 19.5873 117.57 18.0851ZM117.57 13.1073L114.006 14.0793C112.975 14.3738 112.474 15.0218 112.474 16.0233C112.474 16.6124 112.651 17.0836 113.034 17.3782C113.417 17.6727 113.917 17.82 114.536 17.82C115.655 17.82 116.686 17.3487 117.57 16.3767V13.1073Z" fill="#B1D6E4"/>
<path d="M97.9472 7.51091L99.5966 5.832C100.598 5.30182 101.629 5.00727 102.66 5.00727C103.897 5.00727 104.898 5.39018 105.664 6.09709C106.43 6.804 106.842 7.86436 106.842 9.21927V20.0291H103.485V9.86727C103.485 8.39455 102.837 7.65818 101.541 7.65818C100.598 7.65818 99.5083 8.07054 98.2123 8.86582V20.0291H94.8544V9.86727C94.8544 8.39455 94.2065 7.65818 92.9399 7.65818C91.9679 7.65818 90.8486 8.07054 89.5526 8.86582V20.0291H86.2243V5.30182H89.4054L89.5526 7.27527H89.6115L91.0548 5.832C92.0563 5.30182 93.0872 5.00727 94.1181 5.00727C96.0915 5.00727 97.3581 5.86145 97.8883 7.51091H97.9472Z" fill="#B1D6E4"/>
<path d="M79.0751 18.0851L77.3078 19.6167C76.5715 20.088 75.6878 20.3236 74.6864 20.3236C73.4787 20.3236 72.4773 19.9996 71.7115 19.2927C70.9162 18.5858 70.5333 17.6727 70.5333 16.5535C70.5333 14.3444 72.0355 12.9305 75.0693 12.312L79.0751 11.4873V10.0145C79.0751 9.21927 78.8689 8.57127 78.486 8.1C78.0736 7.62873 77.3373 7.36364 76.2475 7.36364C74.8336 7.36364 73.4198 7.71709 71.9471 8.36509L71.6231 8.01164L72.5067 5.68473C74.0384 5.24291 75.5405 5.00727 76.9838 5.00727C78.6333 5.00727 79.9293 5.39018 80.9307 6.09709C81.9322 6.83345 82.4329 7.83491 82.4329 9.13091V16.7302C82.4329 17.5549 82.7275 17.9673 83.346 17.9673C83.6405 17.9673 83.9351 17.9084 84.2885 17.7611V19.6462C83.5816 20.1175 82.7569 20.3236 81.7849 20.3236C80.2533 20.3236 79.3696 19.5873 79.0751 18.0851ZM79.0751 13.1073L75.5111 14.0793C74.4802 14.3738 73.9795 15.0218 73.9795 16.0233C73.9795 16.6124 74.1562 17.0836 74.5391 17.3782C74.922 17.6727 75.4227 17.82 76.0413 17.82C77.1605 17.82 78.1915 17.3487 79.0751 16.3767V13.1073Z" fill="#B1D6E4"/>
<path d="M64.6635 7.86436H64.7225L66.1657 5.77309C66.8137 5.27236 67.609 5.00727 68.581 5.00727C69.1112 5.00727 69.6414 5.09564 70.201 5.24291L69.1112 8.21782C68.6988 8.1 68.257 8.04109 67.8152 8.04109C66.6665 8.04109 65.6061 8.57127 64.6635 9.63164V20.0291H61.3352V5.30182H64.5163L64.6635 7.86436Z" fill="#B1D6E4"/>
<path d="M51.9654 20.3236C49.7269 20.3236 48.0185 19.6756 46.8992 18.3207C45.78 16.9953 45.2203 15.1102 45.2203 12.6655C45.2203 10.2502 45.78 8.36509 46.8992 7.01018C48.0185 5.68473 49.7269 5.00727 51.9654 5.00727C54.1745 5.00727 55.8534 5.68473 56.9727 7.01018C58.092 8.36509 58.681 10.2502 58.681 12.6655C58.681 15.1102 58.092 16.9953 56.9727 18.3207C55.8534 19.6756 54.1745 20.3236 51.9654 20.3236ZM51.9654 7.36364C50.7283 7.36364 49.8447 7.80545 49.344 8.68909C48.8432 9.57273 48.6076 10.8982 48.6076 12.6655C48.6076 14.4622 48.8432 15.7876 49.344 16.6713C49.8447 17.5549 50.7283 17.9673 51.9654 17.9673C53.173 17.9673 54.0272 17.5549 54.528 16.6713C55.0287 15.7876 55.2938 14.4622 55.2938 12.6655C55.2938 10.8982 55.0287 9.57273 54.528 8.68909C54.0272 7.80545 53.173 7.36364 51.9654 7.36364Z" fill="#B1D6E4"/>
<path d="M33.9641 7.27527H34.023L35.4663 5.832C36.4677 5.30182 37.4986 5.00727 38.5295 5.00727C39.7666 5.00727 40.7681 5.39018 41.5339 6.09709C42.2997 6.804 42.7121 7.86436 42.7121 9.21927V20.0291H39.3543V9.86727C39.3543 8.39455 38.7063 7.65818 37.4103 7.65818C36.4088 7.65818 35.2601 8.07054 33.9641 8.86582V20.0291H30.6357V5.30182H33.8168L33.9641 7.27527Z" fill="#B1D6E4"/>
<path d="M23.4865 18.0851L21.7193 19.6167C20.9829 20.088 20.0993 20.3236 19.0978 20.3236C17.8902 20.3236 16.8887 19.9996 16.1229 19.2927C15.3276 18.5858 14.9447 17.6727 14.9447 16.5535C14.9447 14.3444 16.4469 12.9305 19.4807 12.312L23.4865 11.4873V10.0145C23.4865 9.21927 23.2804 8.57127 22.8975 8.1C22.4851 7.62873 21.7487 7.36364 20.6589 7.36364C19.2451 7.36364 17.8313 7.71709 16.3585 8.36509L16.0345 8.01164L16.9182 5.68473C18.4498 5.24291 19.952 5.00727 21.3953 5.00727C23.0447 5.00727 24.3407 5.39018 25.3422 6.09709C26.3436 6.83345 26.8444 7.83491 26.8444 9.13091V16.7302C26.8444 17.5549 27.1389 17.9673 27.7575 17.9673C28.052 17.9673 28.3466 17.9084 28.7 17.7611V19.6462C27.9931 20.1175 27.1684 20.3236 26.1964 20.3236C24.6647 20.3236 23.7811 19.5873 23.4865 18.0851ZM23.4865 13.1073L19.9225 14.0793C18.8916 14.3738 18.3909 15.0218 18.3909 16.0233C18.3909 16.6124 18.5676 17.0836 18.9505 17.3782C19.3335 17.6727 19.8342 17.82 20.4527 17.82C21.572 17.82 22.6029 17.3487 23.4865 16.3767V13.1073Z" fill="#B1D6E4"/>
<path d="M0 0H6.77455C9.21927 0 11.0455 0.559636 12.2236 1.62C13.4018 2.68036 13.9909 4.18254 13.9909 6.09709C13.9909 8.04109 13.4018 9.60218 12.2236 10.7215C11.0455 11.8702 9.21927 12.4298 6.77455 12.4298H3.53455V20.0291H0V0ZM3.53455 9.48436H6.77455C8.07055 9.48436 8.98364 9.21927 9.51382 8.65964C10.044 8.12945 10.3091 7.27527 10.3091 6.09709C10.3091 4.94836 10.044 4.12364 9.51382 3.65236C8.98364 3.18109 8.07055 2.94545 6.77455 2.94545H3.53455V9.48436Z" fill="#B1D6E4"/>
<path d="M224.967 35.3058L223.593 36.4971C223.02 36.8636 222.333 37.0469 221.554 37.0469C220.614 37.0469 219.835 36.7949 219.24 36.2451C218.621 35.6952 218.323 34.9851 218.323 34.1145C218.323 32.3963 219.492 31.2967 221.851 30.8156L224.967 30.1742V29.0287C224.967 28.4102 224.807 27.9062 224.509 27.5396C224.188 27.1731 223.615 26.9669 222.768 26.9669C221.668 26.9669 220.569 27.2418 219.423 27.7458L219.171 27.4709L219.858 25.6611C221.05 25.3174 222.218 25.1342 223.341 25.1342C224.623 25.1342 225.631 25.432 226.41 25.9818C227.189 26.5545 227.579 27.3334 227.579 28.3414V34.252C227.579 34.8934 227.808 35.2142 228.289 35.2142C228.518 35.2142 228.747 35.1683 229.022 35.0538V36.52C228.472 36.8865 227.831 37.0469 227.075 37.0469C225.883 37.0469 225.196 36.4742 224.967 35.3058ZM224.967 31.4342L222.195 32.1902C221.393 32.4192 221.004 32.9232 221.004 33.7022C221.004 34.1603 221.141 34.5269 221.439 34.756C221.737 34.9851 222.126 35.0996 222.607 35.0996C223.478 35.0996 224.28 34.7331 224.967 33.9771V31.4342Z" fill="white"/>
<path d="M213.427 27.0356C212.419 27.0356 211.686 27.4251 211.182 28.1811C210.678 28.9371 210.449 29.8992 210.449 31.0905C210.449 33.7938 211.457 35.1454 213.519 35.1454C214.573 35.1454 215.649 34.8247 216.749 34.1374V36.1305C215.649 36.7491 214.389 37.0469 213.015 37.0469C211.342 37.0469 210.06 36.52 209.166 35.4662C208.25 34.4123 207.814 32.9462 207.814 31.0905C207.814 29.2578 208.273 27.7916 209.235 26.7378C210.174 25.684 211.526 25.1342 213.29 25.1342C214.504 25.1342 215.695 25.3632 216.886 25.7985L216.428 27.448L216.13 27.7C215.168 27.2647 214.275 27.0356 213.427 27.0356Z" fill="white"/>
<path d="M202.656 22.2709C202.656 21.9044 202.771 21.6066 203.046 21.3317C203.32 21.0797 203.664 20.9422 204.099 20.9422C204.512 20.9422 204.855 21.0797 205.13 21.3317C205.405 21.6066 205.543 21.9044 205.543 22.2709C205.543 22.6604 205.405 22.9811 205.13 23.2331C204.855 23.4851 204.512 23.5997 204.099 23.5997C203.664 23.5997 203.32 23.4851 203.046 23.2331C202.771 22.9811 202.656 22.6604 202.656 22.2709ZM205.405 25.3637V36.8182H202.816V25.3637H205.405Z" fill="white"/>
<path d="M196.792 27.3563H196.838L197.96 25.7298C198.464 25.3403 199.083 25.1342 199.839 25.1342C200.251 25.1342 200.664 25.2029 201.099 25.3174L200.251 27.6312C199.93 27.5396 199.587 27.4938 199.243 27.4938C198.35 27.4938 197.525 27.9062 196.792 28.7309V36.8178H194.203V25.3632H196.677L196.792 27.3563Z" fill="white"/>
<path d="M185.636 27.196V26.2109L186.896 25.3632L188.728 22.912H189.484V25.3632H192.05V27.196H189.484V33.8625C189.484 34.2978 189.576 34.5956 189.759 34.7789C189.942 34.9622 190.263 35.0538 190.721 35.0538C191.225 35.0538 191.706 34.9622 192.119 34.756V36.6574C191.5 36.9323 190.79 37.0469 189.988 37.0469C188.912 37.0469 188.133 36.8407 187.629 36.4054C187.125 35.9931 186.896 35.26 186.896 34.2062V27.196H185.636Z" fill="white"/>
<path d="M178.128 23.2785L180.602 21.4458C180.969 21.1938 181.289 21.0563 181.564 21.0563C181.862 21.0563 182.114 21.148 182.297 21.3083C182.481 21.4916 182.595 21.7207 182.595 21.9956C182.595 22.4538 182.32 22.7974 181.816 23.0036L178.586 24.2178L178.128 23.2785ZM180.648 35.3058L179.25 36.4971C178.701 36.8636 178.036 37.0469 177.234 37.0469C176.295 37.0469 175.516 36.7949 174.921 36.2451C174.302 35.6952 174.004 34.9851 174.004 34.1145C174.004 32.3963 175.173 31.2967 177.509 30.8156L180.648 30.1742V29.0287C180.648 28.4102 180.487 27.9062 180.167 27.5396C179.846 27.1731 179.273 26.9669 178.426 26.9669C177.349 26.9669 176.249 27.2418 175.104 27.7458L174.852 27.4709L175.539 25.6611C176.73 25.3174 177.899 25.1342 179.021 25.1342C180.304 25.1342 181.312 25.432 182.091 25.9818C182.847 26.5545 183.237 27.3334 183.237 28.3414V34.252C183.237 34.8934 183.466 35.2142 183.97 35.2142C184.176 35.2142 184.428 35.1683 184.703 35.0538V36.52C184.153 36.8865 183.511 37.0469 182.755 37.0469C181.541 37.0469 180.831 36.4742 180.648 35.3058ZM180.648 31.4342L177.876 32.1902C177.074 32.4192 176.685 32.9232 176.685 33.7022C176.685 34.1603 176.822 34.5269 177.12 34.756C177.418 34.9851 177.807 35.0996 178.288 35.0996C179.159 35.0996 179.961 34.7331 180.648 33.9771V31.4342Z" fill="white"/>
<path d="M169.098 22.2709C169.098 21.9044 169.212 21.6066 169.487 21.3317C169.762 21.0797 170.106 20.9422 170.541 20.9422C170.954 20.9422 171.297 21.0797 171.572 21.3317C171.847 21.6066 171.984 21.9044 171.984 22.2709C171.984 22.6604 171.847 22.9811 171.572 23.2331C171.297 23.4851 170.954 23.5997 170.541 23.5997C170.106 23.5997 169.762 23.4851 169.487 23.2331C169.212 22.9811 169.098 22.6604 169.098 22.2709ZM171.847 25.3637V36.8182H169.258V25.3637H171.847Z" fill="white"/>
<path d="M166.306 20.3232V36.8178H163.809L163.694 35.3058L162.32 36.4971C161.747 36.8636 161.06 37.0469 160.281 37.0469C158.998 37.0469 157.99 36.4971 157.257 35.3974C156.524 34.2978 156.18 32.8774 156.18 31.0905C156.18 29.2349 156.592 27.7687 157.463 26.7149C158.333 25.6611 159.479 25.1342 160.899 25.1342C161.907 25.1342 162.824 25.4091 163.694 25.9589V21.2396L165.619 20.3232H166.306ZM161.518 35.1454C162.205 35.1454 162.915 34.8018 163.694 34.0687V27.5167C163.007 27.1043 162.297 26.8982 161.518 26.8982C159.708 26.8982 158.815 28.2956 158.815 31.0905C158.815 32.5338 159.021 33.5647 159.479 34.2062C159.937 34.8476 160.602 35.1454 161.518 35.1454Z" fill="white"/>
<path d="M154.358 29.3952C154.358 30.0367 154.266 30.7927 154.083 31.6632H146.913C147.004 32.8545 147.348 33.7251 147.943 34.2978C148.539 34.8705 149.295 35.1454 150.257 35.1454C150.807 35.1454 151.426 35.0538 152.136 34.8476C152.823 34.6643 153.419 34.4123 153.877 34.1374V36.1305C152.777 36.7491 151.403 37.0469 149.753 37.0469C148.035 37.0469 146.684 36.52 145.721 35.4432C144.736 34.3894 144.255 32.9232 144.255 31.0905C144.255 29.2578 144.713 27.7916 145.676 26.7378C146.615 25.684 147.966 25.1342 149.73 25.1342C150.189 25.1342 150.647 25.18 151.059 25.2487C151.472 25.3403 151.907 25.4778 152.319 25.6611C152.732 25.8672 153.075 26.1192 153.373 26.4171C153.648 26.7378 153.9 27.1502 154.083 27.6542C154.266 28.1582 154.358 28.7538 154.358 29.3952ZM146.913 30.3116L151.815 30.1742C151.861 29.8534 151.884 29.5556 151.884 29.2807C151.884 28.7996 151.792 28.3872 151.655 28.0436C151.517 27.7229 151.311 27.4709 151.082 27.3334C150.83 27.196 150.601 27.0814 150.418 27.0356C150.234 26.9898 150.028 26.9669 149.822 26.9669C148.035 26.9669 147.073 28.0894 146.913 30.3116Z" fill="white"/>
<path d="M131.991 21.2396H137.26C139.162 21.2396 140.582 21.6749 141.498 22.4996C142.415 23.3243 142.873 24.4927 142.873 25.9818C142.873 27.4938 142.415 28.708 141.498 29.5785C140.582 30.472 139.162 30.9072 137.26 30.9072H134.74V36.8178H131.991V21.2396ZM134.74 28.6163H137.26C138.268 28.6163 138.978 28.4102 139.391 27.9749C139.803 27.5625 140.009 26.8982 140.009 25.9818C140.009 25.0883 139.803 24.4469 139.391 24.0803C138.978 23.7138 138.268 23.5305 137.26 23.5305H134.74V28.6163Z" fill="white"/>
<path d="M121.138 35.3058L119.763 36.4971C119.191 36.8636 118.503 37.0469 117.724 37.0469C116.785 37.0469 116.006 36.7949 115.411 36.2451C114.792 35.6952 114.494 34.9851 114.494 34.1145C114.494 32.3963 115.663 31.2967 118.022 30.8156L121.138 30.1742V29.0287C121.138 28.4102 120.978 27.9062 120.68 27.5396C120.359 27.1731 119.786 26.9669 118.939 26.9669C117.839 26.9669 116.739 27.2418 115.594 27.7458L115.342 27.4709L116.029 25.6611C117.22 25.3174 118.389 25.1342 119.511 25.1342C120.794 25.1342 121.802 25.432 122.581 25.9818C123.36 26.5545 123.75 27.3334 123.75 28.3414V34.252C123.75 34.8934 123.979 35.2142 124.46 35.2142C124.689 35.2142 124.918 35.1683 125.193 35.0538V36.52C124.643 36.8865 124.002 37.0469 123.246 37.0469C122.054 37.0469 121.367 36.4742 121.138 35.3058ZM121.138 31.4342L118.366 32.1902C117.564 32.4192 117.175 32.9232 117.175 33.7022C117.175 34.1603 117.312 34.5269 117.61 34.756C117.908 34.9851 118.297 35.0996 118.778 35.0996C119.649 35.0996 120.451 34.7331 121.138 33.9771V31.4342Z" fill="white"/>
<path d="M109.588 22.2709C109.588 21.9044 109.702 21.6066 109.977 21.3317C110.252 21.0797 110.596 20.9422 111.031 20.9422C111.444 20.9422 111.787 21.0797 112.062 21.3317C112.337 21.6066 112.474 21.9044 112.474 22.2709C112.474 22.6604 112.337 22.9811 112.062 23.2331C111.787 23.4851 111.444 23.5997 111.031 23.5997C110.596 23.5997 110.252 23.4851 109.977 23.2331C109.702 22.9811 109.588 22.6604 109.588 22.2709ZM112.337 25.3637V36.8182H109.748V25.3637H112.337Z" fill="white"/>
<path d="M100.229 34.6185L104.467 35.0538C106.666 35.2829 107.789 36.3596 107.789 38.2382C107.789 39.3378 107.308 40.2542 106.346 40.9872C105.383 41.7203 103.94 42.0869 101.97 42.0869C100.137 42.0869 98.8314 41.8578 98.0067 41.3538C97.182 40.8498 96.7925 40.2083 96.7925 39.4065C96.7925 38.6276 97.1591 37.9174 97.938 37.2531L99.0376 37.5738L98.8772 38.6047C98.8772 39.292 99.1292 39.7502 99.6332 40.0251C100.137 40.3 100.893 40.4145 101.901 40.4145C104.055 40.4145 105.154 39.8418 105.154 38.6505C105.154 38.2611 105.04 37.9632 104.834 37.7571C104.605 37.5738 104.238 37.4363 103.711 37.3676L99.6791 36.9782C99.0376 36.9323 98.5794 36.7491 98.3045 36.4283C98.0067 36.1076 97.8692 35.7411 97.8692 35.3058C97.8692 34.4352 98.442 33.6792 99.5874 32.992C98.0754 32.3047 97.3194 31.0218 97.3194 29.1891C97.3194 27.9978 97.7089 27.0127 98.5107 26.2567C99.3125 25.5236 100.435 25.1342 101.901 25.1342C102.543 25.1342 103.138 25.2029 103.642 25.3403L107.331 25.1342V26.7378H105.819C106.3 27.4022 106.552 28.2269 106.552 29.1891C106.552 30.5178 106.139 31.5716 105.361 32.3276C104.559 33.0836 103.436 33.4502 101.993 33.4502C101.626 33.4502 101.283 33.4272 100.962 33.3814L100.229 34.6185ZM101.855 26.8523C101.168 26.8523 100.641 27.0585 100.298 27.4709C99.9311 27.8832 99.7707 28.4102 99.7707 29.0287C99.7707 30.8385 100.527 31.732 102.039 31.732C103.413 31.732 104.123 30.9302 104.123 29.3265C104.123 28.5247 103.917 27.9062 103.528 27.4938C103.138 27.0814 102.589 26.8523 101.855 26.8523Z" fill="white"/>
<path d="M90.2151 37.0469C88.474 37.0469 87.1453 36.5429 86.2747 35.4891C85.4042 34.4582 84.9689 32.992 84.9689 31.0905C84.9689 29.212 85.4042 27.7458 86.2747 26.692C87.1453 25.6611 88.474 25.1342 90.2151 25.1342C91.9333 25.1342 93.2391 25.6611 94.1096 26.692C94.9802 27.7458 95.4384 29.212 95.4384 31.0905C95.4384 32.992 94.9802 34.4582 94.1096 35.4891C93.2391 36.5429 91.9333 37.0469 90.2151 37.0469ZM90.2151 26.9669C89.2529 26.9669 88.5656 27.3105 88.1762 27.9978C87.7867 28.6851 87.6035 29.716 87.6035 31.0905C87.6035 32.488 87.7867 33.5189 88.1762 34.2062C88.5656 34.8934 89.2529 35.2142 90.2151 35.2142C91.1544 35.2142 91.8187 34.8934 92.2082 34.2062C92.5976 33.5189 92.8038 32.488 92.8038 31.0905C92.8038 29.716 92.5976 28.6851 92.2082 27.9978C91.8187 27.3105 91.1544 26.9669 90.2151 26.9669Z" fill="white"/>
<path d="M81.491 20.3232H82.1783V34.252C82.1783 34.8934 82.4074 35.2141 82.8885 35.2141C83.1176 35.2141 83.3467 35.1683 83.6216 35.0538V36.7491C83.1176 36.9552 82.5219 37.0469 81.8347 37.0469C81.1474 37.0469 80.6205 36.8865 80.2081 36.5658C79.7958 36.2451 79.5896 35.7411 79.5896 35.0538V21.2396L81.491 20.3232Z" fill="white"/>
<path d="M72.0042 37.0469C70.2631 37.0469 68.9343 36.5429 68.0638 35.4891C67.1933 34.4582 66.758 32.992 66.758 31.0905C66.758 29.212 67.1933 27.7458 68.0638 26.692C68.9343 25.6611 70.2631 25.1342 72.0042 25.1342C73.7223 25.1342 75.0282 25.6611 75.8987 26.692C76.7693 27.7458 77.2274 29.212 77.2274 31.0905C77.2274 32.992 76.7693 34.4582 75.8987 35.4891C75.0282 36.5429 73.7223 37.0469 72.0042 37.0469ZM72.0042 26.9669C71.042 26.9669 70.3547 27.3105 69.9652 27.9978C69.5758 28.6851 69.3925 29.716 69.3925 31.0905C69.3925 32.488 69.5758 33.5189 69.9652 34.2062C70.3547 34.8934 71.042 35.2142 72.0042 35.2142C72.9434 35.2142 73.6078 34.8934 73.9973 34.2062C74.3867 33.5189 74.5929 32.488 74.5929 31.0905C74.5929 29.716 74.3867 28.6851 73.9973 27.9978C73.6078 27.3105 72.9434 26.9669 72.0042 26.9669Z" fill="white"/>
<path d="M61.7663 27.0356C60.7583 27.0356 60.0252 27.4251 59.5212 28.1811C59.0172 28.9371 58.7881 29.8992 58.7881 31.0905C58.7881 33.7938 59.7961 35.1454 61.8579 35.1454C62.9118 35.1454 63.9885 34.8247 65.0881 34.1374V36.1305C63.9885 36.7491 62.7285 37.0469 61.354 37.0469C59.6816 37.0469 58.3987 36.52 57.5052 35.4662C56.5889 34.4123 56.1536 32.9462 56.1536 31.0905C56.1536 29.2578 56.6118 27.7916 57.5739 26.7378C58.5132 25.684 59.8649 25.1342 61.6289 25.1342C62.843 25.1342 64.0343 25.3632 65.2256 25.7985L64.7674 27.448L64.4696 27.7C63.5074 27.2647 62.6139 27.0356 61.7663 27.0356Z" fill="white"/>
<path d="M47.0551 26.8982H47.1009L48.2235 25.7756C49.0024 25.3632 49.8042 25.1342 50.606 25.1342C51.5682 25.1342 52.3471 25.432 52.9427 25.9818C53.5384 26.5316 53.8591 27.3563 53.8591 28.4102V36.8178H51.2475V28.9142C51.2475 27.7687 50.7435 27.196 49.7355 27.196C48.9565 27.196 48.0631 27.5167 47.0551 28.1352V36.8178H44.4664V25.3632H46.9405L47.0551 26.8982Z" fill="white"/>
<path d="M35.5234 37.0469C31.2165 37.0469 29.063 34.3436 29.063 28.9142C29.063 26.3483 29.567 24.4011 30.598 23.0494C31.606 21.6978 33.2554 21.0105 35.5234 21.0105C37.7685 21.0105 39.395 21.6978 40.426 23.0494C41.434 24.4011 41.9609 26.3483 41.9609 28.9142C41.9609 34.3436 39.8074 37.0469 35.5234 37.0469ZM35.5234 23.1869C34.1947 23.1869 33.2554 23.6451 32.7285 24.5156C32.1787 25.4091 31.9267 26.8752 31.9267 28.9142C31.9267 30.9989 32.1787 32.5109 32.7285 33.4501C33.2783 34.4123 34.1947 34.8705 35.5234 34.8705C36.8292 34.8705 37.7456 34.4123 38.2954 33.4501C38.8223 32.5109 39.0972 30.9989 39.0972 28.9142C39.0972 26.8752 38.8223 25.4091 38.2954 24.5156C37.7456 23.6451 36.8292 23.1869 35.5234 23.1869Z" fill="white"/>
<path d="M18.8971 35.3058L17.5226 36.4971C16.9499 36.8636 16.2626 37.0469 15.4837 37.0469C14.5444 37.0469 13.7655 36.7949 13.1699 36.2451C12.5513 35.6952 12.2535 34.9851 12.2535 34.1145C12.2535 32.3963 13.4219 31.2967 15.7815 30.8156L18.8971 30.1742V29.0287C18.8971 28.4102 18.7368 27.9062 18.439 27.5396C18.1182 27.1731 17.5455 26.9669 16.6979 26.9669C15.5982 26.9669 14.4986 27.2418 13.3531 27.7458L13.1011 27.4709L13.7884 25.6611C14.9797 25.3174 16.148 25.1342 17.2706 25.1342C18.5535 25.1342 19.5615 25.432 20.3404 25.9818C21.1193 26.5545 21.5088 27.3334 21.5088 28.3414V34.252C21.5088 34.8934 21.7379 35.2142 22.219 35.2142C22.448 35.2142 22.6771 35.1683 22.952 35.0538V36.52C22.4022 36.8865 21.7608 37.0469 21.0048 37.0469C19.8135 37.0469 19.1262 36.4742 18.8971 35.3058ZM18.8971 31.4342L16.1251 32.1902C15.3233 32.4192 14.9339 32.9232 14.9339 33.7022C14.9339 34.1603 15.0713 34.5269 15.3691 34.756C15.667 34.9851 16.0564 35.0996 16.5375 35.0996C17.408 35.0996 18.2099 34.7331 18.8971 33.9771V31.4342Z" fill="white"/>
<path d="M10.1258 20.3232V36.8178H7.62873L7.51418 35.3058L6.13964 36.4971C5.56691 36.8636 4.87964 37.0469 4.10073 37.0469C2.81782 37.0469 1.80982 36.4971 1.07673 35.3974C0.343636 34.2978 0 32.8774 0 31.0905C0 29.2349 0.412364 27.7687 1.28291 26.7149C2.15345 25.6611 3.29891 25.1342 4.71927 25.1342C5.72727 25.1342 6.64364 25.4091 7.51418 25.9589V21.2396L9.43855 20.3232H10.1258ZM5.33782 35.1454C6.02509 35.1454 6.73527 34.8018 7.51418 34.0687V27.5167C6.82691 27.1043 6.11673 26.8982 5.33782 26.8982C3.528 26.8982 2.63455 28.2956 2.63455 31.0905C2.63455 32.5338 2.84073 33.5647 3.29891 34.2062C3.75709 34.8476 4.42145 35.1454 5.33782 35.1454Z" fill="white"/>
</svg>
