<svg width="64" height="64" viewBox="0 0 64 64" fill="none" xmlns="http://www.w3.org/2000/svg">
<path d="M45.4141 46.762L58.6792 43.559C62.7906 42.6447 63.8587 47.5698 60.5262 48.7742C58.2355 49.5752 47.9295 53.9762 40.8342 56.6365C35.7307 58.55 34.1872 58.8059 28.8126 58.5495L20.6419 58.1599L19.1694 60.5001M1 60.5001L5.15451 52.024C11.9916 38.0747 25.408 45.0795 31.7094 44.4972C33.0578 44.3727 41.2357 43.4415 42.5843 43.3168C43.9916 43.1868 45.2462 44.2715 45.3723 45.7271C45.4985 47.1827 44.346 48.046 43.0428 48.6102C39.6256 50.0897 35.9082 51.3801 32.7901 52.1124M14.1622 26.0249L11.4746 26.7449M16.0732 30.8272L13.6637 32.2183M47.4268 30.8272L49.8363 32.2183M49.338 26.0249L52.0255 26.7449M43.6171 9.41751L46.0266 8.02638M40.3082 4.96725L42.2756 3M19.8829 9.41751L17.4734 8.02638M23.1919 4.96725L21.2245 3M31.7501 3.03487L38.076 13.4628L49.9482 16.2567L41.9855 25.4954L42.9972 37.6501L31.7501 32.9319L20.5029 37.6501L21.5145 25.4954L13.5518 16.2567L25.424 13.4628L31.7501 3.03487Z" stroke="#0083CA" stroke-width="2" stroke-miterlimit="22.9256" stroke-linecap="round" stroke-linejoin="round"/>
<path fill-rule="evenodd" clip-rule="evenodd" d="M34.8885 17.85L40.7794 19.2363L36.8283 23.8206L37.3303 29.8516L31.7496 27.5104L26.1689 29.8516L26.6709 23.8206L22.7197 19.2363L28.6107 17.85L31.7496 12.6758L34.8885 17.85Z" fill="#DADADA"/>
</svg>
