<svg width="64" height="64" viewBox="0 0 64 64" fill="none" xmlns="http://www.w3.org/2000/svg">
<g clip-path="url(#clip0_4125_46877)">
<path fill-rule="evenodd" clip-rule="evenodd" d="M41.333 44.7395C41.5007 44.9158 41.7335 45.0156 41.9769 45.0156H58.4146C61.3012 45.0156 63.6412 42.6755 63.6412 39.789V24.2091C63.6412 21.3226 61.3012 18.9825 58.4146 18.9825H5.33301C5.33301 18.9825 17.067 22.1759 19.5552 22.6658L41.333 44.7395Z" fill="#DADADA"/>
<path d="M44.1278 17.7778C44.1278 17.7778 44.1278 7.9835 44.1278 5.58788C44.1278 3.19225 42.1856 1.25 39.7899 1.25H24.2101C21.8145 1.25 19.8724 3.19225 19.8724 5.58788V17.7778M19.8724 44.1277H5.58775C3.19212 44.1277 1.25 42.1856 1.25 39.79V24.2101C1.25 21.8145 3.19212 19.8724 5.58775 19.8724L19.8724 22.6667L40.8889 44.1277M19.8724 44.1277V58.4123C19.8724 60.8079 21.8145 62.75 24.2101 62.75H39.7899C42.1856 62.75 44.1278 60.8079 44.1278 58.4123M19.8724 44.1277H40.8889M44.1278 58.4123V46.2222M44.1278 58.4123L40.8889 44.1277" stroke="#0083CA" stroke-width="2" stroke-miterlimit="10" stroke-linecap="round" stroke-linejoin="round"/>
</g>
<defs>
<clipPath id="clip0_4125_46877">
<rect width="64" height="64" fill="white"/>
</clipPath>
</defs>
</svg>
