<svg width="64" height="64" viewBox="0 0 64 64" fill="none" xmlns="http://www.w3.org/2000/svg">
<path d="M55.2197 13.8047H57.73C59.1169 13.8047 60.2402 14.9281 60.2402 16.3148V50.2027" stroke="#0083CA" stroke-width="2" stroke-miterlimit="10" stroke-linecap="round" stroke-linejoin="round"/>
<path d="M3.75977 50.2026V16.3148C3.75977 14.9281 4.88302 13.8047 6.26989 13.8047H8.78014" stroke="#0083CA" stroke-width="2" stroke-miterlimit="10" stroke-linecap="round" stroke-linejoin="round"/>
<path d="M7.52539 50.1447V7.52905C7.52539 5.45292 9.21452 3.76367 11.2906 3.76367H52.7091C54.7853 3.76367 56.4744 5.45292 56.4744 7.52905V50.1447H7.52539Z" fill="#DADADA"/>
<path d="M26.3518 35.1421H13.8008V33.887C13.8008 30.4211 16.6104 27.6113 20.0763 27.6113C23.5422 27.6113 26.3518 30.4211 26.3518 33.887V35.1421Z" stroke="#0083CA" stroke-width="2" stroke-miterlimit="10" stroke-linecap="round" stroke-linejoin="round"/>
<path d="M20.0768 27.6106C22.1563 27.6106 23.842 25.9248 23.842 23.8453C23.842 21.7658 22.1563 20.0801 20.0768 20.0801C17.9973 20.0801 16.3115 21.7658 16.3115 23.8453C16.3115 25.9248 17.9973 27.6106 20.0768 27.6106Z" stroke="#0083CA" stroke-width="2" stroke-miterlimit="10" stroke-linecap="round" stroke-linejoin="round"/>
<path d="M53.9642 58.9889H10.0356C5.1835 58.9889 1.25 55.0554 1.25 50.2031H62.75C62.75 55.0554 58.8165 58.9889 53.9642 58.9889Z" stroke="#0083CA" stroke-width="2" stroke-miterlimit="10" stroke-linecap="round" stroke-linejoin="round"/>
<path d="M13.8008 42.6719H50.1988" stroke="#0083CA" stroke-width="2" stroke-miterlimit="10" stroke-linecap="round" stroke-linejoin="round"/>
<path d="M31.3721 40.1621V45.1826" stroke="#0083CA" stroke-width="2" stroke-miterlimit="10" stroke-linecap="round" stroke-linejoin="round"/>
<path d="M45.1789 15.0593H18.8216C17.4353 15.0593 16.3115 13.9356 16.3115 12.5492C16.3115 11.1628 17.4353 10.0391 18.8216 10.0391H45.1788C46.5651 10.0391 47.689 11.1628 47.689 12.5492C47.689 13.9356 46.5653 15.0593 45.1789 15.0593Z" stroke="#0083CA" stroke-width="2" stroke-miterlimit="10" stroke-linecap="round" stroke-linejoin="round"/>
<path d="M31.3721 20.0801H50.1986" stroke="#0083CA" stroke-width="2" stroke-miterlimit="10" stroke-linecap="round" stroke-linejoin="round"/>
<path d="M31.3721 25.0996H50.1986" stroke="#0083CA" stroke-width="2" stroke-miterlimit="10" stroke-linecap="round" stroke-linejoin="round"/>
<path d="M31.3721 30.1211H50.1986" stroke="#0083CA" stroke-width="2" stroke-miterlimit="10" stroke-linecap="round" stroke-linejoin="round"/>
<path d="M31.3721 35.1406H50.1986" stroke="#0083CA" stroke-width="2" stroke-miterlimit="10" stroke-linecap="round" stroke-linejoin="round"/>
</svg>
