<svg width="24" height="24" fill="none" xmlns="http://www.w3.org/2000/svg"><path d="M8.354 6.117a.844.844 0 0 0-.151 1.561l.175.098 3.241.048c1.783.027 3.25.05 3.26.052.011.002-1.908 1.934-4.265 4.294-4.71 4.717-4.453 4.432-4.401 4.877a.844.844 0 0 0 .74.74c.445.052.16.309 4.877-4.401 2.36-2.357 4.292-4.276 4.294-4.265.002.01.025 1.477.051 3.259l.048 3.24.098.176c.381.682 1.347.582 1.56-.161.047-.163-.074-8.647-.126-8.849-.053-.202-.339-.488-.541-.541-.088-.022-1.533-.057-3.374-.082-1.771-.023-3.706-.051-4.3-.061-.594-.011-1.128-.004-1.186.015" fill-rule="evenodd" fill="#000"/></svg>