<svg width="24" height="24" fill="none" xmlns="http://www.w3.org/2000/svg"><path d="M4.48 1.186c-1.617.26-2.823 1.358-3.224 2.934-.073.29-.076.555-.076 7.88s.003 7.59.076 7.88c.369 1.45 1.414 2.495 2.864 2.864.29.073.555.076 7.88.076s7.59-.003 7.88-.076c1.45-.369 2.495-1.414 2.864-2.864.073-.29.076-.555.076-7.88s-.003-7.59-.076-7.88c-.368-1.445-1.334-2.419-2.844-2.867-.226-.067-.679-.071-7.78-.077-4.147-.003-7.585.001-7.64.01m14.967 1.712c.439.093.697.239 1.055.599.357.357.509.626.601 1.063.082.387.082 14.493 0 14.88-.092.438-.244.706-.601 1.062-.356.357-.624.509-1.062.601-.392.084-14.494.082-14.887-.001-.439-.093-.697-.24-1.056-.599-.359-.359-.506-.617-.599-1.056-.084-.398-.084-14.496 0-14.894.093-.439.24-.697.599-1.056.353-.354.617-.506 1.038-.597.375-.082 14.527-.084 14.912-.002M7.075 6.053c-.248.07-.568.281-.734.483-.546.666-.399 1.694.309 2.162a1.452 1.452 0 0 0 2.118-.569c.121-.245.132-.298.132-.649 0-.349-.011-.403-.13-.646a1.417 1.417 0 0 0-1.22-.817 1.654 1.654 0 0 0-.475.036m7.365 3.768a3.033 3.033 0 0 0-1.749 1.119l-.088.12-.002-.43-.001-.43h-2.4V18h2.4l.001-2.23c0-2.463.009-2.573.244-3.014.267-.5.677-.728 1.315-.731.326-.002.411.012.6.1.307.143.446.272.597.556.226.423.24.607.242 3.089L15.6 18H18v-2.697c0-1.693-.016-2.814-.043-3.01-.186-1.36-1.002-2.253-2.26-2.472-.422-.074-.907-.074-1.257 0M6 14.1V18h3v-7.8H6v3.9" fill="#031D40" fill-rule="evenodd"/></svg>