
<svg width="22" height="22" fill="none" xmlns="http://www.w3.org/2000/svg"><path d="M2.696.187c-.338.05-.575.13-.945.317-.278.142-.402.235-.691.522-.364.361-.539.617-.703 1.029-.218.547-.21.33-.21 5.934 0 4.308.008 5.174.052 5.4.189.964.759 1.72 1.616 2.142.549.27.635.284 1.797.3.653.009 1.073.001 1.155-.024.335-.1.564-.43.567-.813.001-.206-.015-.268-.11-.421a.944.944 0 0 0-.29-.29l-.18-.111-.956-.019-.956-.018-.231-.107a1.353 1.353 0 0 1-.665-.702c-.077-.204-.077-.215-.067-5.381l.009-5.177.09-.183c.115-.234.372-.49.607-.606l.183-.091 5.177-.009c5.152-.01 5.178-.009 5.379.066.282.105.544.352.691.651l.12.244.02.954c.012.576.036.992.06 1.048a.928.928 0 0 0 .782.511c.337 0 .721-.279.807-.586.02-.071.036-.549.036-1.064-.001-.813-.01-.975-.075-1.246C15.51 1.389 14.696.554 13.612.246l-.284-.08L8.122.16C5.258.157 2.817.169 2.696.187m5.847 6.029a3.005 3.005 0 0 0-1.603.911 2.923 2.923 0 0 0-.641 1.086l-.121.349v10.853l.086.275c.354 1.132 1.284 1.947 2.426 2.125.203.031 1.643.04 5.482.031l5.206-.012.274-.084c.15-.047.423-.161.605-.255.273-.14.396-.234.7-.538.328-.328.391-.412.561-.756.356-.72.334-.316.335-6.176 0-3.361-.013-5.178-.038-5.335a3.022 3.022 0 0 0-2.355-2.472c-.248-.051-.876-.058-5.479-.055-4.168.003-5.247.014-5.438.053m10.861 1.769c.299.147.546.409.651.69.074.199.075.246.075 5.306 0 3.206-.014 5.152-.036 5.233a1.483 1.483 0 0 1-.459.667c-.381.288.064.267-5.647.267H8.892l-.211-.085a1.41 1.41 0 0 1-.709-.674l-.107-.231-.01-5.076c-.011-5.639-.025-5.29.235-5.674.071-.104.214-.248.318-.319.368-.252.051-.239 5.673-.231l5.079.007.244.12" fill="#FABB00" fill-rule="evenodd"/></svg>