<svg width="24" height="24" fill="none" xmlns="http://www.w3.org/2000/svg"><path d="M11.66 3.236a1.04 1.04 0 0 0-.268.189c-.244.26-.232.031-.232 4.462v4.05l-1.31-1.306c-.962-.959-1.358-1.328-1.49-1.388a.84.84 0 0 0-1.117 1.117c.117.26 4.137 4.28 4.397 4.397a.877.877 0 0 0 .72 0c.26-.117 4.28-4.137 4.397-4.397a.84.84 0 0 0-1.117-1.117c-.132.06-.528.429-1.49 1.388l-1.31 1.306-.001-4.058c-.001-3.866-.004-4.067-.075-4.219-.196-.424-.692-.615-1.104-.424m-7 9a1.04 1.04 0 0 0-.268.189c-.239.255-.232.16-.232 3.146 0 1.791.015 2.816.043 2.972.201 1.101 1.153 2.053 2.254 2.254.332.06 10.754.06 11.086 0 1.101-.201 2.053-1.153 2.254-2.254.028-.156.043-1.181.043-2.972 0-2.381-.008-2.753-.062-2.882a.84.84 0 0 0-1.352-.297c-.259.246-.244.076-.266 3.108l-.02 2.76-.095.209a1.206 1.206 0 0 1-.627.595c-.191.073-.38.076-5.418.076s-5.227-.003-5.418-.076a1.206 1.206 0 0 1-.627-.595l-.095-.209-.02-2.76c-.018-2.473-.027-2.772-.086-2.88-.22-.397-.702-.566-1.094-.384" fill-rule="evenodd" fill="#000"/></svg>