<svg width="24" height="24" viewBox="0 0 24 24" fill="none" xmlns="http://www.w3.org/2000/svg">
<mask id="path-1-inside-1_1534_40404" fill="white">
<path fill-rule="evenodd" clip-rule="evenodd" d="M12 21.3C17.1362 21.3 21.3 17.1362 21.3 12C21.3 6.86375 17.1362 2.7 12 2.7C6.86375 2.7 2.7 6.86375 2.7 12C2.7 17.1362 6.86375 21.3 12 21.3ZM12 23C18.0751 23 23 18.0751 23 12C23 5.92487 18.0751 1 12 1C5.92487 1 1 5.92487 1 12C1 18.0751 5.92487 23 12 23ZM10.15 10C10.15 9.53056 10.5306 9.15 11 9.15H12.25C12.7194 9.15 13.1 9.53056 13.1 10V15.15H15C15.4694 15.15 15.85 15.5306 15.85 16C15.85 16.4694 15.4694 16.85 15 16.85H12.25H9.5C9.03056 16.85 8.65 16.4694 8.65 16C8.65 15.5306 9.03056 15.15 9.5 15.15H11.4V10.85H11C10.5306 10.85 10.15 10.4694 10.15 10ZM12 8C12.5523 8 13 7.55228 13 7C13 6.44772 12.5523 6 12 6C11.4477 6 11 6.44772 11 7C11 7.55228 11.4477 8 12 8Z"/>
</mask>
<path fill-rule="evenodd" clip-rule="evenodd" d="M12 21.3C17.1362 21.3 21.3 17.1362 21.3 12C21.3 6.86375 17.1362 2.7 12 2.7C6.86375 2.7 2.7 6.86375 2.7 12C2.7 17.1362 6.86375 21.3 12 21.3ZM12 23C18.0751 23 23 18.0751 23 12C23 5.92487 18.0751 1 12 1C5.92487 1 1 5.92487 1 12C1 18.0751 5.92487 23 12 23ZM10.15 10C10.15 9.53056 10.5306 9.15 11 9.15H12.25C12.7194 9.15 13.1 9.53056 13.1 10V15.15H15C15.4694 15.15 15.85 15.5306 15.85 16C15.85 16.4694 15.4694 16.85 15 16.85H12.25H9.5C9.03056 16.85 8.65 16.4694 8.65 16C8.65 15.5306 9.03056 15.15 9.5 15.15H11.4V10.85H11C10.5306 10.85 10.15 10.4694 10.15 10ZM12 8C12.5523 8 13 7.55228 13 7C13 6.44772 12.5523 6 12 6C11.4477 6 11 6.44772 11 7C11 7.55228 11.4477 8 12 8Z" fill="#FABB00"/>
<path d="M13.1 15.15H12.1V16.15H13.1V15.15ZM11.4 15.15V16.15H12.4V15.15H11.4ZM11.4 10.85H12.4V9.85H11.4V10.85ZM20.3 12C20.3 16.584 16.584 20.3 12 20.3V22.3C17.6885 22.3 22.3 17.6885 22.3 12H20.3ZM12 3.7C16.584 3.7 20.3 7.41604 20.3 12H22.3C22.3 6.31147 17.6885 1.7 12 1.7V3.7ZM3.7 12C3.7 7.41604 7.41604 3.7 12 3.7V1.7C6.31147 1.7 1.7 6.31147 1.7 12H3.7ZM12 20.3C7.41604 20.3 3.7 16.584 3.7 12H1.7C1.7 17.6885 6.31147 22.3 12 22.3V20.3ZM22 12C22 17.5228 17.5228 22 12 22V24C18.6274 24 24 18.6274 24 12H22ZM12 2C17.5228 2 22 6.47715 22 12H24C24 5.37258 18.6274 0 12 0V2ZM2 12C2 6.47715 6.47715 2 12 2V0C5.37258 0 0 5.37258 0 12H2ZM12 22C6.47715 22 2 17.5228 2 12H0C0 18.6274 5.37258 24 12 24V22ZM11 8.15C9.97827 8.15 9.15 8.97827 9.15 10H11.15C11.15 10.0828 11.0828 10.15 11 10.15V8.15ZM12.25 8.15H11V10.15H12.25V8.15ZM14.1 10C14.1 8.97827 13.2717 8.15 12.25 8.15V10.15C12.1672 10.15 12.1 10.0828 12.1 10H14.1ZM14.1 15.15V10H12.1V15.15H14.1ZM15 14.15H13.1V16.15H15V14.15ZM16.85 16C16.85 14.9783 16.0217 14.15 15 14.15V16.15C14.9172 16.15 14.85 16.0828 14.85 16H16.85ZM15 17.85C16.0217 17.85 16.85 17.0217 16.85 16H14.85C14.85 15.9172 14.9172 15.85 15 15.85V17.85ZM12.25 17.85H15V15.85H12.25V17.85ZM9.5 17.85H12.25V15.85H9.5V17.85ZM7.65 16C7.65 17.0217 8.47827 17.85 9.5 17.85V15.85C9.58284 15.85 9.65 15.9172 9.65 16H7.65ZM9.5 14.15C8.47827 14.15 7.65 14.9783 7.65 16H9.65C9.65 16.0828 9.58284 16.15 9.5 16.15V14.15ZM11.4 14.15H9.5V16.15H11.4V14.15ZM10.4 10.85V15.15H12.4V10.85H10.4ZM11 11.85H11.4V9.85H11V11.85ZM9.15 10C9.15 11.0217 9.97827 11.85 11 11.85V9.85C11.0828 9.85 11.15 9.91716 11.15 10H9.15ZM12 7V9C13.1046 9 14 8.10457 14 7H12ZM12 7H14C14 5.89543 13.1046 5 12 5V7ZM12 7V5C10.8954 5 10 5.89543 10 7H12ZM12 7H10C10 8.10457 10.8954 9 12 9V7Z" fill="#042B60" mask="url(#path-1-inside-1_1534_40404)"/>
</svg>
