<svg width="24" height="24" fill="none" xmlns="http://www.w3.org/2000/svg"><path d="M11.66 4.236a1.04 1.04 0 0 0-.268.189c-.241.257-.232.118-.232 3.574v3.161l-3.17.001c-3 .001-3.179.005-3.33.075a.839.839 0 0 0 .029 1.542c.13.054.542.062 3.31.062h3.161l.001 3.17c.001 3 .005 3.179.075 3.33a.839.839 0 0 0 1.542-.029c.054-.13.062-.542.062-3.31V12.84l3.17-.001c3-.001 3.179-.005 3.33-.075a.837.837 0 0 0 0-1.528c-.151-.07-.33-.074-3.33-.075l-3.17-.001-.001-3.17c-.001-3-.005-3.179-.075-3.33a.838.838 0 0 0-1.104-.424" fill-rule="evenodd" fill="#000"/></svg>