<svg width="24" height="24" fill="none" xmlns="http://www.w3.org/2000/svg"><path d="M10.18 4.206c-.176.02-.516.083-.756.14a6.834 6.834 0 0 0-5.077 8.23c.539 2.283 2.195 4.113 4.433 4.897.705.248 1.335.346 2.22.346 1.13 0 1.842-.152 2.856-.608.396-.178.977-.519 1.204-.707l.12-.099 1.64 1.635c1.224 1.221 1.686 1.656 1.82 1.717a.84.84 0 0 0 1.117-1.117c-.061-.134-.496-.596-1.717-1.82l-1.635-1.64.099-.12c.188-.227.529-.808.707-1.204.456-1.014.608-1.726.608-2.856 0-.885-.098-1.515-.346-2.22-1.074-3.064-4.061-4.937-7.293-4.574m1.789 1.738a5.121 5.121 0 0 1 2.655 1.416c1.449 1.438 1.896 3.485 1.191 5.46-.463 1.298-1.695 2.529-2.997 2.995-1.671.599-3.401.374-4.797-.624a5.227 5.227 0 0 1-2.086-3.259c-.092-.474-.092-1.39 0-1.864A5.14 5.14 0 0 1 7.376 7.36a5.167 5.167 0 0 1 3.184-1.494c.302-.029 1.074.014 1.409.078" fill-rule="evenodd" fill="#000"/></svg>