<svg width="24" height="24" viewBox="0 0 24 24" fill="none" xmlns="http://www.w3.org/2000/svg">
<path d="M15.998 12.9V17.1C15.998 20.6 14.598 22 11.098 22H6.89805C3.39805 22 1.99805 20.6 1.99805 17.1V12.9C1.99805 9.4 3.39805 8 6.89805 8H11.098C14.598 8 15.998 9.4 15.998 12.9Z" fill="#FFD500"/>
<path d="M17.0986 2H12.8986C9.81548 2 8.36954 3.09409 8.06831 5.73901C8.00529 6.29235 8.46356 6.75 9.02047 6.75H11.0986C15.2986 6.75 17.2486 8.7 17.2486 12.9V14.9781C17.2486 15.535 17.7062 15.9933 18.2596 15.9303C20.9045 15.629 21.9986 14.1831 21.9986 11.1V6.9C21.9986 3.4 20.5986 2 17.0986 2Z" fill="#FFD500"/>
</svg>
