<svg width="16" height="17" fill="none" xmlns="http://www.w3.org/2000/svg"><path d="M7.807.67c-.227.024-.329.057-.589.191-.274.141-.583.432-.794.747-.089.133-.454.827-.812 1.541-.63 1.258-.654 1.301-.778 1.391-.07.05-.149.099-.176.109-.027.01-.585.108-1.24.218s-1.281.228-1.391.262c-.58.181-1.058.553-1.263.983-.295.616-.201 1.3.27 1.968.067.095.551.605 1.074 1.133.524.528.973 1.001.998 1.05.1.198.088.295-.169 1.404-.341 1.471-.379 1.722-.325 2.148.062.498.187.79.459 1.077.465.492 1.143.613 1.94.345.3-.101.554-.237 1.653-.889.549-.325 1.035-.61 1.08-.634a.645.645 0 0 1 .259-.042c.211 0 .122-.046 1.424.727 1.073.637 1.382.794 1.764.897.304.082.748.1.996.04.935-.227 1.392-1.189 1.157-2.433a60.579 60.579 0 0 0-.278-1.238 18.711 18.711 0 0 1-.239-1.122c0-.048.023-.151.053-.229.047-.125.153-.241.948-1.034.916-.913 1.16-1.188 1.327-1.493.417-.762.309-1.622-.272-2.156a2.7 2.7 0 0 0-.636-.403c-.292-.125-.543-.179-1.731-.375a41.757 41.757 0 0 1-1.174-.204 1.204 1.204 0 0 1-.176-.109c-.123-.089-.148-.134-.777-1.389-.358-.714-.71-1.388-.783-1.499C9.138.936 8.517.597 7.807.67m.39 1.605c.163.164.278.371.877 1.59.291.593.577 1.16.636 1.261.274.468.829.878 1.347.993.101.022.657.119 1.236.215 1.163.193 1.246.21 1.4.286.275.135.29.24.083.553-.043.066-.525.57-1.069 1.12-.922.931-.998 1.015-1.101 1.215a2.063 2.063 0 0 0-.256 1.039l-.003.346.259 1.107c.29 1.242.327 1.444.303 1.649-.026.225-.05.253-.196.231-.255-.038-.515-.171-1.651-.843-1.268-.751-1.381-.804-1.818-.848a2.688 2.688 0 0 0-.804.051c-.24.064-.437.168-1.416.748-1.22.723-1.324.78-1.553.85-.341.103-.375.075-.373-.318 0-.226.03-.38.274-1.427.221-.942.277-1.226.288-1.442a2.186 2.186 0 0 0-.145-.895c-.137-.37-.272-.532-1.318-1.585-.836-.841-.993-1.012-1.052-1.141-.086-.186-.073-.258.062-.35.161-.111.388-.163 1.5-.347a49.982 49.982 0 0 0 1.236-.214 2.23 2.23 0 0 0 1.229-.823c.063-.089.394-.721.735-1.403.631-1.264.791-1.547.941-1.665.127-.1.213-.089.349.047" fill-rule="evenodd" fill="#000"/></svg>