<svg width="64" height="59" viewBox="0 0 64 59" fill="none" xmlns="http://www.w3.org/2000/svg">
<path d="M62.38 0H1.38C0.72 0.37 0.33 0.83 0 1.5V2.38L0.5 3.32L23.44 31.13L23.5 56.95C23.61 58.04 24.02 58.43 24.87 59.01H25.87L39 52.57C39.76 52.12 40.29 51.77 40.38 50.82C40.56 48.91 40.34 46.53 40.37 44.56C40.44 40.07 40.51 35.52 40.59 31.03L63.37 3.43L64 2.37V1.62C63.7 0.74 63.26 0.3 62.38 0ZM37.25 28.57C36.75 29.16 36.55 29.8 36.49 30.56L36.47 49.11L27.49 53.5V30.19C27.49 29.73 27.03 28.94 26.74 28.57C19.86 20.23 12.91 11.91 6.12 3.5H57.87C51.08 11.91 44.14 20.23 37.25 28.57Z" fill="#020202"/>
</svg>
