<?xml version="1.0" encoding="UTF-8"?>
<svg id="Camada_1" data-name="Camada 1" xmlns="http://www.w3.org/2000/svg" viewBox="0 0 269.88 67.12">
  <path d="M238.75,25.07c.29.38.75,1.16.75,1.62v23.31l8.98-4.39.02-18.55c.06-.76.26-1.41.76-1.99,6.89-8.34,13.84-16.66,20.62-25.07h-51.75c6.79,8.41,13.73,16.73,20.62,25.07Z" fill="none"/>
  <path d="M137.75,30.07c.29.38.75,1.16.75,1.62v23.31l8.98-4.39.02-18.55c.06-.76.26-1.41.76-1.99,6.89-8.34,13.84-16.66,20.62-25.07h-51.75c6.79,8.41,13.73,16.73,20.62,25.07Z" fill="none"/>
  <path d="M62.38,8.12H1.38c-.66.37-1.04.83-1.38,1.5v.88l.5.94,22.94,27.81.06,25.82c.11,1.09.52,1.48,1.37,2.06h1l13.13-6.44c.76-.45,1.29-.8,1.38-1.75.18-1.91-.04-4.29-.01-6.26.07-4.49.14-9.04.22-13.53l22.78-27.6.63-1.06v-.75c-.3-.88-.74-1.32-1.62-1.62ZM37.25,37.07c-.5.59-.7,1.23-.76,1.99l-.02,18.55-8.98,4.39v-23.31c0-.46-.46-1.25-.75-1.62-6.89-8.34-13.84-16.66-20.62-25.07h51.75c-6.79,8.41-13.73,16.73-20.62,25.07Z" fill="#020202"/>
</svg>