<svg width="64" height="64" viewBox="0 0 64 64" fill="none" xmlns="http://www.w3.org/2000/svg">
<g clip-path="url(#clip0_4125_46881)">
<path fill-rule="evenodd" clip-rule="evenodd" d="M48.1248 27.4999C48.1248 16.1091 38.8907 6.875 27.4999 6.875C16.1091 6.875 6.875 16.1091 6.875 27.4999C6.875 38.8907 16.1091 48.1248 27.4999 48.1248C33.5115 48.1248 38.9224 45.553 42.6921 41.4494C42.6481 37.9953 43.8915 34.8703 47.2406 33.493C47.8156 31.5965 48.1248 29.5843 48.1248 27.4999ZM19.3237 16.2085C20.1139 15.4182 21.3014 15.2677 22.2431 15.7567C22.5632 14.7451 23.5093 14.0117 24.6269 14.0117C25.7444 14.0117 26.6905 14.745 27.0108 15.7567C27.9524 15.2677 29.14 15.4182 29.9302 16.2085C30.7204 16.9987 30.8709 18.1862 30.3819 19.1278C31.3935 19.4479 32.1269 20.3942 32.1269 21.5117C32.1269 22.6292 31.3937 23.5753 30.3819 23.8956C30.8709 24.8372 30.7204 26.0248 29.9302 26.8149C29.1399 27.6052 27.9524 27.7557 27.0108 27.2667C26.6907 28.2783 25.7444 29.0115 24.6269 29.0115C23.5094 29.0115 22.5633 28.2783 22.2431 27.2667C21.3014 27.7557 20.1138 27.6052 19.3237 26.8149C18.5335 26.0248 18.383 24.8372 18.872 23.8956C17.8603 23.5754 17.127 22.6292 17.127 21.5117C17.127 20.3942 17.8602 19.4481 18.872 19.1278C18.383 18.1862 18.5335 16.9987 19.3237 16.2085ZM29.5384 35.7549C31.0917 35.7549 32.3509 37.0141 32.3509 38.5674C32.3509 40.1206 31.0917 41.3799 29.5384 41.3799C27.9852 41.3799 26.7259 40.1206 26.7259 38.5674C26.7259 37.0141 27.9852 35.7549 29.5384 35.7549Z" fill="#DADADA"/>
<path d="M43.9496 47.9563C39.2868 51.7058 33.4831 53.7498 27.4999 53.7498C13.0025 53.7498 1.25 41.9973 1.25 27.4999C1.25 13.0025 13.0025 1.25 27.4999 1.25C41.9973 1.25 53.7498 13.0025 53.7498 27.4999C53.7498 29.1128 53.6012 30.7223 53.3057 32.3079" stroke="#0083CA" stroke-width="2" stroke-miterlimit="22.9256" stroke-linecap="round" stroke-linejoin="round"/>
<path d="M47.209 53.624C44.9451 55.617 42.5215 57.2428 40.25 58.2744L44.7759 60.5122L46.0042 62.7501C47.7982 61.6068 49.6705 60.1187 51.4486 58.3996M55.7384 53.4954C56.5616 52.369 57.3102 51.2016 57.955 50.0127C61.518 43.4432 62.2149 32.75 51.5 32.75C40.7851 32.75 41.482 43.4432 45.045 50.0127C47.8609 55.2046 52.6572 59.9849 56.9956 62.75L58.224 60.5121L62.7499 58.2743C57.4099 55.8491 51.2282 50.1396 48.2605 44.096C45.9789 39.4495 47.1295 33.3547 51.4999 33.3547C55.8702 33.3547 57.0209 39.4494 54.7393 44.096C53.898 45.8093 52.7985 47.4955 51.533 49.0877" stroke="#0083CA" stroke-width="2" stroke-miterlimit="22.9256" stroke-linecap="round" stroke-linejoin="round"/>
<path d="M55.699 40.8063C54.4223 40.127 52.9742 39.7695 51.4999 39.7695C50.0257 39.7695 48.5774 40.127 47.3008 40.8063" stroke="#0083CA" stroke-width="2" stroke-miterlimit="22.9256" stroke-linecap="round" stroke-linejoin="round"/>
<path fill-rule="evenodd" clip-rule="evenodd" d="M24.627 14.0117C25.7445 14.0117 26.6906 14.745 27.0108 15.7567C27.9525 15.2677 29.1401 15.4182 29.9302 16.2085C30.7205 16.9987 30.871 18.1862 30.382 19.1278C31.3936 19.448 32.127 20.3942 32.127 21.5117C32.127 22.6292 31.3937 23.5753 30.382 23.8956C30.871 24.8372 30.7205 26.0248 29.9302 26.815C29.14 27.6052 27.9525 27.7557 27.0108 27.2667C26.6907 28.2783 25.7445 29.0116 24.627 29.0116C23.5095 29.0116 22.5633 28.2783 22.2431 27.2667C21.3015 27.7557 20.1138 27.6052 19.3237 26.815C18.5335 26.0248 18.383 24.8372 18.872 23.8956C17.8603 23.5755 17.127 22.6292 17.127 21.5117C17.127 20.3942 17.8602 19.4481 18.872 19.1278C18.383 18.1862 18.5335 16.9986 19.3237 16.2085C20.114 15.4182 21.3015 15.2677 22.2431 15.7567C22.5633 14.745 23.5095 14.0117 24.627 14.0117Z" stroke="#0083CA" stroke-width="2" stroke-miterlimit="22.9256" stroke-linecap="round" stroke-linejoin="round"/>
<path d="M25.3984 19.7344H25.3996" stroke="#0083CA" stroke-width="2" stroke-miterlimit="22.9256" stroke-linecap="round" stroke-linejoin="round"/>
<path d="M31.5267 40.5551C32.625 39.4568 32.625 37.676 31.5267 36.5777C30.4284 35.4793 28.6476 35.4793 27.5493 36.5777C26.4509 37.676 26.4509 39.4568 27.5493 40.5551C28.6476 41.6535 30.4284 41.6535 31.5267 40.5551Z" stroke="#0083CA" stroke-width="2" stroke-miterlimit="22.9256" stroke-linecap="round" stroke-linejoin="round"/>
<path d="M29.5381 35.1309V34.5137" stroke="#0083CA" stroke-width="2" stroke-miterlimit="22.9256" stroke-linecap="round" stroke-linejoin="round"/>
<path d="M26.5618 36.8495L26.0273 36.541" stroke="#0083CA" stroke-width="2" stroke-miterlimit="22.9256" stroke-linecap="round" stroke-linejoin="round"/>
<path d="M26.5618 40.2852L26.0273 40.5938" stroke="#0083CA" stroke-width="2" stroke-miterlimit="22.9256" stroke-linecap="round" stroke-linejoin="round"/>
<path d="M29.5381 42.0039V42.6212" stroke="#0083CA" stroke-width="2" stroke-miterlimit="22.9256" stroke-linecap="round" stroke-linejoin="round"/>
<path d="M32.5156 40.2852L33.0501 40.5938" stroke="#0083CA" stroke-width="2" stroke-miterlimit="22.9256" stroke-linecap="round" stroke-linejoin="round"/>
<path d="M32.5156 36.8496L33.0501 36.541" stroke="#0083CA" stroke-width="2" stroke-miterlimit="22.9256" stroke-linecap="round" stroke-linejoin="round"/>
<path d="M39.4746 20.4746H39.4756" stroke="#0083CA" stroke-width="2" stroke-miterlimit="22.9256" stroke-linecap="round" stroke-linejoin="round"/>
<path d="M38.7246 29.0996H38.7257" stroke="#0083CA" stroke-width="2" stroke-miterlimit="22.9256" stroke-linecap="round" stroke-linejoin="round"/>
<path d="M17.0684 34.6309H17.0695" stroke="#0083CA" stroke-width="2" stroke-miterlimit="22.9256" stroke-linecap="round" stroke-linejoin="round"/>
</g>
<defs>
<clipPath id="clip0_4125_46881">
<rect width="64" height="64" fill="white"/>
</clipPath>
</defs>
</svg>
