<svg width="24" height="24" fill="none" xmlns="http://www.w3.org/2000/svg"><path d="M5.66 5.236a.84.84 0 0 0-.417 1.124c.062.138.716.816 2.808 2.91L10.779 12l-2.728 2.73c-2.092 2.094-2.746 2.772-2.808 2.91a.84.84 0 0 0 1.117 1.117c.138-.062.816-.716 2.91-2.808L12 13.221l2.73 2.728c2.094 2.092 2.772 2.746 2.91 2.808a.84.84 0 0 0 1.117-1.117c-.062-.138-.716-.816-2.808-2.91L13.221 12l2.728-2.73c2.092-2.094 2.746-2.772 2.808-2.91a.84.84 0 0 0-1.117-1.117c-.138.062-.816.716-2.91 2.808L12 10.779 9.27 8.051C7.176 5.959 6.498 5.305 6.36 5.243a.863.863 0 0 0-.7-.007" fill-rule="evenodd" fill="#000"/></svg>