<svg width="64" height="64" viewBox="0 0 64 64" fill="none" xmlns="http://www.w3.org/2000/svg">
<path fill-rule="evenodd" clip-rule="evenodd" d="M13.875 41.25H33.2501V29.0417H40.1251V15H13.875V41.25Z" fill="#DADADA"/>
<path d="M45.7499 47.1666V57.75C45.7499 60.5 43.4999 62.75 40.7499 62.75H13.25C10.4999 62.75 8.25 60.5 8.25 57.75V6.24998C8.25 3.49999 10.5 1.25 13.25 1.25H40.7499C43.5 1.25 45.7499 3.49999 45.7499 6.24998V28.4166" stroke="#0083CA" stroke-width="2" stroke-miterlimit="22.9256" stroke-linecap="round" stroke-linejoin="round"/>
<path d="M8.875 6.875H19.5C19.5 8.24999 20.625 9.37487 21.9998 9.37487H31.9998C33.3748 9.37487 34.4998 8.24999 34.4998 6.875H45.1247" stroke="#0083CA" stroke-width="2" stroke-miterlimit="22.9256" stroke-linecap="round" stroke-linejoin="round"/>
<path d="M8.875 57.125H45.1249" stroke="#0083CA" stroke-width="2" stroke-miterlimit="22.9256" stroke-linecap="round" stroke-linejoin="round"/>
<path d="M13.875 46.541H20.4376" stroke="#0083CA" stroke-width="2" stroke-miterlimit="22.9256" stroke-linecap="round" stroke-linejoin="round"/>
<path d="M13.875 51.834H27.0001" stroke="#0083CA" stroke-width="2" stroke-miterlimit="22.9256" stroke-linecap="round" stroke-linejoin="round"/>
<path fill-rule="evenodd" clip-rule="evenodd" d="M39.7917 46.541H55.75V29.041H33.25V50.5826L39.7917 46.541Z" stroke="#0083CA" stroke-width="2" stroke-miterlimit="22.9256" stroke-linecap="round" stroke-linejoin="round"/>
<path d="M38.875 34.9785H50.125" stroke="#0083CA" stroke-width="2" stroke-miterlimit="22.9256" stroke-linecap="round" stroke-linejoin="round"/>
<path d="M38.875 40.6035H50.125" stroke="#0083CA" stroke-width="2" stroke-miterlimit="22.9256" stroke-linecap="round" stroke-linejoin="round"/>
</svg>
