<svg width="24" height="24"  xmlns="http://www.w3.org/2000/svg"><path d="M5.66 3.277A2.76 2.76 0 0 0 3.352 5.26c-.088.307-.092.376-.092 1.74 0 1.364.004 1.433.092 1.74a2.797 2.797 0 0 0 1.908 1.908c.307.088.376.092 1.74.092 1.364 0 1.433-.004 1.74-.092a2.797 2.797 0 0 0 1.908-1.908c.088-.307.092-.376.092-1.74 0-1.364-.004-1.433-.092-1.74A2.807 2.807 0 0 0 8.76 3.357c-.276-.081-.4-.088-1.58-.099-.704-.006-1.388.002-1.52.019m10 0a2.76 2.76 0 0 0-2.308 1.983c-.088.307-.092.376-.092 1.74 0 1.364.004 1.433.092 1.74a2.797 2.797 0 0 0 1.908 1.908c.307.088.376.092 1.74.092 1.364 0 1.433-.004 1.74-.092a2.797 2.797 0 0 0 1.908-1.908c.088-.307.092-.376.092-1.74 0-1.364-.004-1.433-.092-1.74a2.807 2.807 0 0 0-1.888-1.903c-.276-.081-.4-.088-1.58-.099-.704-.006-1.388.002-1.52.019M8.454 4.841c.29.109.596.415.705.705.075.201.081.309.081 1.454 0 1.45-.014 1.523-.366 1.874-.351.352-.424.366-1.874.366-1.45 0-1.523-.014-1.874-.366-.36-.36-.372-.423-.358-1.951.011-1.248.016-1.31.099-1.465.157-.293.484-.573.773-.661.055-.016.662-.032 1.348-.034 1.162-.003 1.264.003 1.466.078m10 0c.29.109.596.415.705.705.075.201.081.309.081 1.454 0 1.45-.014 1.523-.366 1.874-.351.352-.424.366-1.874.366-1.45 0-1.523-.014-1.874-.366-.36-.36-.372-.423-.358-1.951.011-1.248.016-1.31.099-1.465.157-.293.484-.573.773-.661.055-.016.662-.032 1.348-.034 1.162-.003 1.264.003 1.466.078M5.66 13.277a2.76 2.76 0 0 0-2.308 1.983c-.088.307-.092.376-.092 1.74 0 1.364.004 1.433.092 1.74a2.797 2.797 0 0 0 1.908 1.908c.307.088.376.092 1.74.092 1.364 0 1.433-.004 1.74-.092a2.797 2.797 0 0 0 1.908-1.908c.088-.307.092-.376.092-1.74 0-1.364-.004-1.433-.092-1.74a2.807 2.807 0 0 0-1.888-1.903c-.276-.081-.4-.088-1.58-.099-.704-.006-1.388.002-1.52.019m10 0a2.76 2.76 0 0 0-2.308 1.983c-.088.307-.092.376-.092 1.74 0 1.364.004 1.433.092 1.74a2.797 2.797 0 0 0 1.908 1.908c.307.088.376.092 1.74.092 1.364 0 1.433-.004 1.74-.092a2.797 2.797 0 0 0 1.908-1.908c.088-.307.092-.376.092-1.74 0-1.364-.004-1.433-.092-1.74a2.807 2.807 0 0 0-1.888-1.903c-.276-.081-.4-.088-1.58-.099-.704-.006-1.388.002-1.52.019m-7.206 1.564c.29.109.596.415.705.705.075.201.081.309.081 1.454 0 1.45-.014 1.523-.366 1.874-.351.352-.424.366-1.874.366-1.45 0-1.523-.014-1.874-.366-.36-.36-.372-.423-.358-1.951.011-1.248.016-1.31.099-1.465.157-.293.484-.573.773-.661.055-.016.662-.032 1.348-.034 1.162-.003 1.264.003 1.466.078m10 0c.29.109.596.415.705.705.075.201.081.309.081 1.454 0 1.45-.014 1.523-.366 1.874-.351.352-.424.366-1.874.366-1.45 0-1.523-.014-1.874-.366-.36-.36-.372-.423-.358-1.951.011-1.248.016-1.31.099-1.465.157-.293.484-.573.773-.661.055-.016.662-.032 1.348-.034 1.162-.003 1.264.003 1.466.078" /></svg>