<svg width="128" height="56" viewBox="0 0 128 56" fill="none" xmlns="http://www.w3.org/2000/svg">
<g clip-path="url(#clip0_1527_40273)">
<path d="M11.6942 37.0547V55.7462H8.80667L8.6737 54.1901L7.05897 55.4108C6.38459 55.8114 5.61522 56.0071 4.73187 56.0071C3.23113 56.0071 2.07233 55.4014 1.23647 54.1994C0.410116 52.9974 -0.0078125 51.3482 -0.0078125 49.2517C-0.0078125 47.1552 0.476604 45.4687 1.43594 44.2853C2.39527 43.1019 3.70605 42.5056 5.36826 42.5056C6.25161 42.5056 7.08747 42.7106 7.88533 43.1299V44.9189C7.35342 44.6394 6.76452 44.4996 6.10914 44.4996C4.07649 44.4996 3.06966 46.0836 3.06966 49.2517C3.06966 50.8823 3.31662 52.0564 3.82003 52.7831C4.32344 53.5099 5.06432 53.8733 6.05215 53.8733C6.85951 53.8733 7.73336 53.5379 8.6737 52.8577V37.0547H11.6942Z" fill="#878787"/>
<path d="M25.1603 49.8782H16.8777C16.9632 51.2293 17.3526 52.2263 18.027 52.8785C18.7014 53.5308 19.6037 53.8476 20.7151 53.8476C22.1113 53.8476 23.4886 53.4935 24.8468 52.7854V54.9657C23.4886 55.6552 21.9214 56 20.1357 56C18.0555 56 16.4788 55.4037 15.396 54.211C14.3227 53.0183 13.7812 51.369 13.7812 49.2539C13.7812 47.1388 14.3322 45.4895 15.4245 44.2968C16.5168 43.1042 18.084 42.5078 20.1357 42.5078C20.6866 42.5078 21.1995 42.5544 21.6839 42.6383C22.1683 42.7221 22.6527 42.8805 23.1276 43.1042C23.6026 43.3278 24.011 43.6166 24.3434 43.9614C24.6759 44.3061 24.9513 44.772 25.1603 45.3497C25.3693 45.9274 25.4737 46.589 25.4737 47.3344C25.4737 47.996 25.3693 48.8439 25.1603 49.8782ZM22.5103 48.2476C22.5767 47.968 22.6147 47.6233 22.6147 47.2133C22.6147 46.6636 22.5292 46.1883 22.3678 45.797C22.1968 45.4057 21.9878 45.1261 21.7219 44.9491C21.4559 44.772 21.209 44.6602 20.9715 44.595C20.7341 44.5391 20.4776 44.5018 20.2211 44.5018C18.1885 44.5018 17.0772 45.7877 16.8872 48.3687L22.5197 48.2383L22.5103 48.2476Z" fill="#878787"/>
<path d="M30.4776 45.0158C30.1642 45.2674 30.0027 45.5935 30.0027 45.9849C30.0027 46.4135 30.2307 46.7862 30.6771 47.0844C31.1235 47.3825 31.6744 47.6527 32.3203 47.8764C32.9662 48.1 33.6121 48.3609 34.2675 48.6404C34.9229 48.9293 35.4738 49.3579 35.9202 49.9263C36.3666 50.4947 36.5946 51.1935 36.5946 52.0042C36.5946 53.2341 36.1292 54.2032 35.2078 54.9206C34.2865 55.6381 33.0992 56.0015 31.6459 56.0015C30.0787 56.0015 28.597 55.694 27.2007 55.0884L26.9062 52.7775C28.388 53.5043 29.8792 53.8677 31.38 53.8677C32.0829 53.8677 32.6148 53.7093 32.9662 53.4018C33.3176 53.0943 33.4981 52.7123 33.4981 52.2557C33.4981 51.7992 33.2797 51.4544 32.8332 51.1376C32.3963 50.8301 31.8549 50.5506 31.2185 50.3083C30.5821 50.0661 29.9457 49.7958 29.2998 49.507C28.654 49.2088 28.1125 48.7802 27.6756 48.2118C27.2387 47.6434 27.0107 46.9446 27.0107 46.1339C27.0107 44.9599 27.4572 44.0561 28.3595 43.4318C29.2618 42.8075 30.3922 42.5 31.7504 42.5C33.2512 42.5 34.6759 42.7516 36.0342 43.2547L35.3978 45.2301L35.2173 45.3326C34.087 44.8667 32.9852 44.6338 31.9119 44.6338C31.2755 44.6338 30.8006 44.7549 30.4871 45.0065L30.4776 45.0158Z" fill="#878787"/>
<path d="M38.7054 38.1831C39.0188 37.885 39.4463 37.7266 39.9782 37.7266C40.5101 37.7266 40.909 37.8756 41.232 38.1831C41.5549 38.4906 41.7259 38.8633 41.7259 39.3106C41.7259 39.7578 41.5644 40.1399 41.232 40.438C40.909 40.7362 40.4911 40.8946 39.9782 40.8946C39.4653 40.8946 39.0283 40.7455 38.7054 40.438C38.3919 40.1399 38.2305 39.7578 38.2305 39.3106C38.2305 38.8633 38.3919 38.4813 38.7054 38.1831ZM41.4789 55.7379H38.4869V42.7582H41.4789V55.7379Z" fill="#878787"/>
<path d="M55.3465 37.0547V55.7462H52.459L52.326 54.1901L50.7113 55.4108C50.0369 55.8114 49.2676 56.0071 48.3842 56.0071C46.8835 56.0071 45.7247 55.4014 44.8888 54.1994C44.0625 52.9974 43.6445 51.3482 43.6445 49.2517C43.6445 47.1552 44.1289 45.4687 45.0883 44.2853C46.0476 43.1019 47.3584 42.5056 49.0206 42.5056C49.904 42.5056 50.7398 42.7106 51.5377 43.1299V44.9189C51.0058 44.6394 50.4169 44.4996 49.7615 44.4996C47.7288 44.4996 46.722 46.0836 46.722 49.2517C46.722 50.8823 46.969 52.0564 47.4724 52.7831C47.9758 53.5099 48.7167 53.8733 49.7045 53.8733C50.5119 53.8733 51.3857 53.5379 52.326 52.8577V37.0547H55.3465Z" fill="#878787"/>
<path d="M68.8165 49.8782H60.534C60.6195 51.2293 61.0089 52.2263 61.6833 52.8785C62.3577 53.5308 63.26 53.8476 64.3713 53.8476C65.7676 53.8476 67.1448 53.4935 68.5031 52.7854V54.9657C67.1448 55.6552 65.5776 56 63.7919 56C61.7118 56 60.135 55.4037 59.0522 54.211C57.9789 53.0183 57.4375 51.369 57.4375 49.2539C57.4375 47.1388 57.9884 45.4895 59.0807 44.2968C60.173 43.1042 61.7403 42.5078 63.7919 42.5078C64.3428 42.5078 64.8557 42.5544 65.3401 42.6383C65.8246 42.7221 66.309 42.8805 66.7839 43.1042C67.2588 43.3278 67.6672 43.6166 67.9997 43.9614C68.3321 44.3061 68.6076 44.772 68.8165 45.3497C69.0255 45.9274 69.13 46.589 69.13 47.3344C69.13 47.996 69.0255 48.8439 68.8165 49.8782ZM66.1665 48.2476C66.233 47.968 66.271 47.6233 66.271 47.2133C66.271 46.6636 66.1855 46.1883 66.024 45.797C65.8531 45.4057 65.6441 45.1261 65.3781 44.9491C65.1122 44.772 64.8652 44.6602 64.6278 44.595C64.3903 44.5391 64.1338 44.5018 63.8774 44.5018C61.8447 44.5018 60.7334 45.7877 60.5435 48.3687L66.176 48.2383L66.1665 48.2476Z" fill="#878787"/>
<path d="M74.209 45.0251H74.266L75.4533 43.2827C76.1752 42.7609 76.9351 42.5 77.7329 42.5C78.2079 42.5 78.7018 42.5652 79.2147 42.705L78.2364 45.3233C77.8279 45.2208 77.4385 45.1649 77.0491 45.1649C75.9947 45.1649 75.0449 45.5935 74.2185 46.4321V55.722H71.2266V42.7423H74.0856L74.2185 44.9972L74.209 45.0251Z" fill="#878787"/>
<path d="M85.2664 55.3306C84.5635 55.7779 83.7656 56.0015 82.8823 56.0015C81.809 56.0015 80.9351 55.694 80.2607 55.079C79.5863 54.4641 79.2539 53.6627 79.2539 52.675C79.2539 50.7369 80.4792 49.5256 82.9298 49.0411L86.9001 48.2118V46.9166C86.9001 45.3233 86.0547 44.5313 84.364 44.5313C83.0438 44.5313 81.714 44.8015 80.3937 45.3326L80.2132 45.2022L81.0111 43.0963C82.4074 42.6957 83.7466 42.5 85.0289 42.5C86.5107 42.5 87.6979 42.8168 88.5908 43.4597C89.4836 44.1027 89.9301 44.9879 89.9301 46.1339V55.7406H87.0426L86.9096 54.0261L85.2664 55.3213V55.3306ZM84.0791 50.4294C83.4807 50.6065 83.0532 50.8022 82.7968 51.0351C82.5403 51.2681 82.4169 51.6408 82.4169 52.1346C82.4169 52.6285 82.5878 53.0571 82.9203 53.3552C83.2527 53.6534 83.6801 53.7932 84.1931 53.7932C85.0384 53.7932 85.9503 53.3739 86.9191 52.526V49.6468L84.0886 50.4294H84.0791Z" fill="#878787"/>
<path d="M91.5156 43.5982L92.9689 42.7689L94.8211 39.9922H95.9609V42.7689H98.9244V44.8468H95.9609V52.3476C95.9609 52.8321 96.0748 53.1862 96.3028 53.4005C96.5308 53.6148 96.8917 53.7266 97.3856 53.7266C97.965 53.7266 98.5064 53.6335 99.0003 53.4378V55.5622C98.2975 55.8604 97.4806 56.0002 96.5688 56.0002C95.334 56.0002 94.4221 55.7486 93.8427 55.2454C93.2633 54.7423 92.9689 53.9037 92.9689 52.7296V44.8374H91.5156V43.5889V43.5982Z" fill="#878787"/>
<path d="M105.88 55.3306C105.177 55.7779 104.379 56.0015 103.496 56.0015C102.422 56.0015 101.548 55.694 100.874 55.079C100.2 54.4641 99.8672 53.6627 99.8672 52.675C99.8672 50.7369 101.092 49.5256 103.543 49.0411L107.513 48.2118V46.9166C107.513 45.3233 106.668 44.5313 104.977 44.5313C103.657 44.5313 102.327 44.8015 101.007 45.3326L100.827 45.2022L101.624 43.0963C103.021 42.6957 104.36 42.5 105.642 42.5C107.124 42.5 108.311 42.8168 109.204 43.4597C110.097 44.1027 110.543 44.9879 110.543 46.1339V55.7406H107.656L107.523 54.0261L105.88 55.3213V55.3306ZM104.692 50.4294C104.094 50.6065 103.667 50.8022 103.41 51.0351C103.154 51.2681 103.03 51.6408 103.03 52.1346C103.03 52.6285 103.201 53.0571 103.534 53.3552C103.866 53.6534 104.293 53.7932 104.806 53.7932C105.652 53.7932 106.564 53.3739 107.532 52.526V49.6468L104.702 50.4294H104.692Z" fill="#878787"/>
<path fill-rule="evenodd" clip-rule="evenodd" d="M124.703 20.4433C124.703 20.4433 125.729 20.583 127.999 20.6855C125.834 18.589 116.25 5.56273 108.119 5.56273C104.14 5.56273 102.135 8.19035 101.148 10.7434C100.454 9.3178 99.6468 8.34875 99.6468 7.08153C99.6468 4.96639 105.792 2.86057 105.792 2.86057C105.792 2.86057 101.442 0 96.7593 0C89.7495 0 90.2434 8.67488 90.2434 8.67488C90.2434 8.67488 87.2229 5.56273 83.2336 5.56273C70.8002 5.56273 65.8326 19.7724 54.8905 19.4276C55.8878 20.0706 59.1267 20.8346 61.4158 20.6203C60.3615 20.816 58.7848 21.5614 58.3004 22.4373C61.8433 22.4373 69.7459 22.7448 77.8765 20.4246C72.5859 25.214 59.2787 27.1521 54.1211 26.6303C54.1211 26.6303 61.9098 33.7398 73.2318 33.7398C88.9231 33.7398 102.164 25.6706 102.164 15.2067C102.164 14.3028 102.762 7.45424 108.119 7.45424C114.122 7.45424 123.934 18.8126 123.934 18.8126C123.934 18.8126 122.908 18.9245 120.847 18.8126C122.481 20.378 123.032 21.2446 123.032 21.2446C123.032 21.2446 119.669 21.9993 117.466 21.9993C114.882 21.9993 107.426 21.2632 103.769 17.6013C103.636 18.384 103.437 19.1574 103.161 19.9215C114.236 26.7141 122.082 22.8845 126.423 22.1671C125.492 21.0862 124.694 20.4433 124.694 20.4433H124.703ZM73.2318 31.8389C65.7661 31.8389 60.0386 28.3541 60.0386 28.3541C74.2101 26.6769 82.2933 21.8782 80.8685 16.8652C78.9783 18.8965 69.9264 20.4992 64.1134 20.4992C65.3482 20.0519 66.412 18.9431 66.412 18.8033C65.5571 19.0922 63.7904 19.2413 62.4987 19.1108C69.2995 16.1943 74.3431 7.44493 83.2526 7.44493C88.0873 7.44493 90.4239 12.2809 92.7984 13.3524C92.2 12.0013 90.3954 1.8822 96.7688 1.8822C99.0769 1.8822 101.318 2.75807 101.318 2.75807C101.318 2.75807 97.7376 4.49118 97.7376 7.08153C97.7376 9.88619 100.245 11.2186 100.245 15.1973C100.245 24.4779 87.8783 31.8389 73.2413 31.8389H73.2318Z" fill="#0083CA"/>
</g>
<defs>
<clipPath id="clip0_1527_40273">
<rect width="128" height="56" fill="white"/>
</clipPath>
</defs>
</svg>
