<svg width="64" height="64" viewBox="0 0 64 64" fill="none" xmlns="http://www.w3.org/2000/svg">
<g clip-path="url(#clip0_1981_14371)">
<path d="M38.9044 20.0766V7.52563C38.9044 5.44613 37.2187 3.76025 35.1392 3.76025H32.6289" stroke="#042B60" stroke-width="2" stroke-miterlimit="10" stroke-linecap="round" stroke-linejoin="round"/>
<path d="M25.3359 25.3331C24.9656 23.2228 22.9512 21.351 22.3392 20.7396L18.5126 17.118C16.9551 15.6416 16.9551 13.2503 18.5126 11.7739C20.0727 10.2974 22.5993 10.2974 24.1594 11.7739C25.7169 13.2503 25.7169 15.6416 24.1594 17.118L20.3327 20.7397C19.7208 21.3511 17.7063 23.2228 17.3359 25.3332" stroke="#042B60" stroke-width="2" stroke-miterlimit="10" stroke-linecap="round" stroke-linejoin="round"/>
<path d="M32.6297 6.27037H29.651C28.5234 6.27037 27.6094 5.35625 27.6094 4.22875V3.29163C27.6094 2.164 28.5235 1.25 29.651 1.25H32.6297V6.27037Z" stroke="#042B60" stroke-width="2" stroke-miterlimit="10" stroke-linecap="round" stroke-linejoin="round"/>
<path d="M3.76172 20.0766V7.52563C3.76172 5.44613 5.44747 3.76025 7.52709 3.76025H10.0373" stroke="#042B60" stroke-width="2" stroke-miterlimit="10" stroke-linecap="round" stroke-linejoin="round"/>
<path d="M10.0391 6.27037H13.0178C14.1454 6.27037 15.0594 5.35625 15.0594 4.22875V3.29163C15.0594 2.164 14.1453 1.25 13.0178 1.25H10.0391V6.27037Z" stroke="#042B60" stroke-width="2" stroke-miterlimit="10" stroke-linecap="round" stroke-linejoin="round"/>
<path d="M25.097 39.8057V42.1038C25.097 43.802 23.7203 45.1788 22.022 45.1788H20.6414C18.9432 45.1788 17.5664 43.802 17.5664 42.1038V39.8057" stroke="#042B60" stroke-width="2" stroke-miterlimit="10" stroke-linecap="round" stroke-linejoin="round"/>
<path d="M55.222 62.7502C59.3811 62.7502 62.7527 59.3786 62.7527 55.2196C62.7527 51.0605 59.3811 47.689 55.222 47.689C51.063 47.689 47.6914 51.0605 47.6914 55.2196C47.6914 59.3786 51.063 62.7502 55.222 62.7502Z" stroke="#042B60" stroke-width="2" stroke-miterlimit="10" stroke-linecap="round" stroke-linejoin="round"/>
<path d="M21.332 45.1784V52.7091C21.332 58.2544 25.8274 62.7499 31.3728 62.7499C36.9182 62.7499 41.4135 58.2546 41.4135 52.7091V39.5304C41.4135 35.7179 44.5042 32.6274 48.3167 32.6274C52.1292 32.6274 55.2197 35.7181 55.2197 39.5304V47.6886" stroke="#042B60" stroke-width="2" stroke-miterlimit="10" stroke-linecap="round" stroke-linejoin="round"/>
<path d="M55.2212 57.73C56.6076 57.73 57.7314 56.6061 57.7314 55.2197C57.7314 53.8333 56.6076 52.7095 55.2212 52.7095C53.8348 52.7095 52.7109 53.8333 52.7109 55.2197C52.7109 56.6061 53.8348 57.73 55.2212 57.73Z" fill="#B1D6E4"/>
<path d="M21.3316 41.4084C9.56937 41.4084 0 31.839 0 20.0767V18.8267H3.4035C5.5395 18.8267 7.358 20.3604 7.7275 22.4735C8.884 29.0874 14.6054 33.8878 21.3317 33.8878C28.058 33.8878 33.7794 29.0874 34.9359 22.4735C35.3054 20.3604 37.1239 18.8267 39.2599 18.8267H42.6634V20.0767C42.6632 31.839 33.0939 41.4084 21.3316 41.4084Z" fill="#B1D6E4"/>
</g>
<defs>
<clipPath id="clip0_1981_14371">
<rect width="64" height="64" fill="white"/>
</clipPath>
</defs>
</svg>
