<svg width="64" height="64" viewBox="0 0 64 64" fill="none" xmlns="http://www.w3.org/2000/svg">
<g clip-path="url(#clip0_4125_46865)">
<path d="M31.9999 44.0448C25.3589 44.0448 19.9561 38.6419 19.9561 32.0009C19.9561 25.3599 25.3589 19.957 31.9999 19.957C38.6409 19.957 44.0438 25.3599 44.0438 32.0009C44.0438 38.6419 38.6409 44.0448 31.9999 44.0448Z" fill="#DADADA"/>
<path d="M2.23145 48.2807L6.98195 49.9047L8.60607 45.1543" stroke="#0083CA" stroke-width="2" stroke-miterlimit="10" stroke-linecap="round" stroke-linejoin="round"/>
<path d="M6.99713 49.904C3.37988 44.861 1.25 38.6796 1.25 32C1.25 15.0173 15.0173 1.25 32 1.25C38.6796 1.25 44.861 3.37988 49.904 6.99713" stroke="#0083CA" stroke-width="2" stroke-miterlimit="10" stroke-linecap="round" stroke-linejoin="round"/>
<path d="M61.7692 15.7197L57.0187 14.0957L55.3945 18.8461" stroke="#0083CA" stroke-width="2" stroke-miterlimit="10" stroke-linecap="round" stroke-linejoin="round"/>
<path d="M57.0026 14.0957C60.6198 19.1387 62.7497 25.3201 62.7497 31.9997C62.7497 48.9825 48.9825 62.7497 31.9997 62.7497C25.3201 62.7497 19.1387 60.6198 14.0957 57.0026" stroke="#0083CA" stroke-width="2" stroke-miterlimit="10" stroke-linecap="round" stroke-linejoin="round"/>
<path d="M53.3366 36.4153V27.5863H47.5768C47.2306 26.3621 46.743 25.1972 46.1343 24.1093L50.2087 20.0349L43.9657 13.7919L39.8913 17.8663C38.8035 17.2577 37.6387 16.7701 36.4145 16.4238V10.6641H27.5855V16.4238C26.3612 16.7701 25.1963 17.2577 24.1086 17.8663L20.0342 13.7919L13.7912 20.0349L17.8656 24.1093C17.257 25.1972 16.7693 26.3619 16.4231 27.5863H10.6631V36.4153H16.4228C16.7691 37.6396 17.2567 38.8044 17.8653 39.8922L13.791 43.9666L20.034 50.2096L24.1083 46.1352C25.1962 46.7438 26.361 47.2314 27.5853 47.5777V53.3374H36.4143V47.5777C37.6386 47.2314 38.8035 46.7438 39.8912 46.1352L43.9656 50.2096L50.2086 43.9666L46.1342 39.8922C46.7428 38.8043 47.2305 37.6396 47.5767 36.4153H53.3366Z" stroke="#0083CA" stroke-width="2" stroke-miterlimit="10" stroke-linecap="round" stroke-linejoin="round"/>
<path d="M32 26.3516V31.9996H36.3929" stroke="#0083CA" stroke-width="2" stroke-miterlimit="10" stroke-linecap="round" stroke-linejoin="round"/>
</g>
<defs>
<clipPath id="clip0_4125_46865">
<rect width="64" height="64" fill="white"/>
</clipPath>
</defs>
</svg>
