<svg width="24" height="24" fill="none" xmlns="http://www.w3.org/2000/svg"><path d="M14.538 3.26c-.511.258-.619.954-.208 1.342.244.231.251.232 1.967.262l1.589.029-2.281 2.283c-1.736 1.739-2.3 2.327-2.362 2.464a.84.84 0 0 0 1.117 1.117c.137-.062.725-.626 2.464-2.362l2.283-2.281.029 1.589c.025 1.436.035 1.602.103 1.733.175.34.451.5.819.477.321-.021.541-.168.687-.463l.104-.21-.039-2.67c-.035-2.347-.048-2.689-.107-2.829a.74.74 0 0 0-.421-.432c-.166-.074-.305-.082-2.2-.112-3.334-.054-3.312-.054-3.544.063M9.64 13.243c-.137.062-.725.626-2.464 2.362l-2.283 2.281-.029-1.589c-.025-1.436-.035-1.602-.103-1.733-.175-.34-.451-.5-.819-.477-.321.021-.541.168-.687.463l-.104.21.039 2.67c.035 2.353.047 2.689.107 2.829.09.216.208.336.422.432.17.077.307.082 2.85.119l2.671.039.21-.104c.523-.26.636-.954.22-1.347-.244-.231-.251-.232-1.967-.262l-1.589-.029 2.281-2.283c1.736-1.739 2.3-2.327 2.362-2.464a.84.84 0 0 0-1.117-1.117" fill-rule="evenodd" fill="#000"/></svg>