<svg width="48" height="48" viewBox="0 0 48 48" fill="none" xmlns="http://www.w3.org/2000/svg">
<g clip-path="url(#clip0_164_2643)">
<path d="M46 7.99902H2V39.1657H46V7.99902Z" fill="#273578"/>
<path d="M46 23.582H2V39.1651H46V23.582Z" fill="#F2E60E"/>
<path d="M2 39.1657L24 23.582L46 39.1657H2Z" fill="#00994B"/>
<path d="M24.0017 12.6741L25.7379 17.9199L31.0714 18.0093L26.8097 21.365L28.3494 26.6991L24.0017 23.5164L19.6446 26.6991L21.2001 21.365L16.9286 18.0053L22.2654 17.9199L24.0017 12.6741Z" fill="white"/>
</g>
<path d="M44.6189 37.2641L43.8835 36.5865L44.6189 37.2641C45.8742 35.9016 46.4495 34.2019 46.7274 32.0264C47 29.8915 47 27.1625 47 23.6555V23.5824V23.5093C47 20.0022 47 17.2732 46.7274 15.1383C46.4495 12.9628 45.8742 11.2631 44.6189 9.90064C44.4526 9.72011 44.2789 9.54647 44.0984 9.38014C42.7359 8.12481 41.0362 7.54948 38.8607 7.27165C36.7258 6.999 33.9968 6.99901 30.4897 6.99902L30.4167 6.99902H17.5833L17.5103 6.99902C14.0032 6.99901 11.2742 6.999 9.13931 7.27165C6.9638 7.54948 5.26409 8.12481 3.90161 9.38014C3.72109 9.54647 3.54744 9.72011 3.38111 9.90064C2.12578 11.2631 1.55046 12.9628 1.27262 15.1383C0.999977 17.2732 0.999987 20.0022 1 23.5093L1 23.5824L1 23.6554C0.999987 27.1625 0.999977 29.8915 1.27262 32.0264C1.55046 34.2019 2.12578 35.9016 3.38111 37.2641C3.54744 37.4446 3.72109 37.6182 3.90161 37.7846C5.26408 39.0399 6.9638 39.6152 9.13931 39.8931C11.2742 40.1657 14.0032 40.1657 17.5102 40.1657H17.5833H30.4167H30.4898C33.9968 40.1657 36.7258 40.1657 38.8607 39.8931C41.0362 39.6152 42.7359 39.0399 44.0984 37.7846C44.2789 37.6182 44.4526 37.4446 44.6189 37.2641Z" stroke="#042B60" stroke-width="2"/>
<defs>
<clipPath id="clip0_164_2643">
<path d="M2 23.5824C2 16.4444 2 12.8754 4.11654 10.5782C4.26439 10.4178 4.41874 10.2634 4.57921 10.1156C6.8764 7.99902 10.4454 7.99902 17.5833 7.99902H30.4167C37.5546 7.99902 41.1236 7.99902 43.4208 10.1156C43.5813 10.2634 43.7356 10.4178 43.8835 10.5782C46 12.8754 46 16.4444 46 23.5824C46 30.7203 46 34.2893 43.8835 36.5865C43.7356 36.7469 43.5813 36.9013 43.4208 37.0491C41.1236 39.1657 37.5546 39.1657 30.4167 39.1657H17.5833C10.4454 39.1657 6.8764 39.1657 4.57921 37.0491C4.41874 36.9013 4.26439 36.7469 4.11654 36.5865C2 34.2893 2 30.7203 2 23.5824Z" fill="white"/>
</clipPath>
</defs>
</svg>
