<svg width="48" height="48" viewBox="0 0 48 48" fill="none" xmlns="http://www.w3.org/2000/svg">
<g clip-path="url(#clip0_164_2307)">
<path d="M46 8H2V39.1667H46V8Z" fill="#009B3A"/>
<path d="M5.92859 23.4587L24.1886 35.0215L42.4486 23.4587L24.1886 11.8959L5.92859 23.4587Z" fill="#FEDF00"/>
<path d="M23.8428 31.0945C28.0954 31.0945 31.5428 27.6759 31.5428 23.4587C31.5428 19.2416 28.0954 15.8229 23.8428 15.8229C19.5902 15.8229 16.1428 19.2416 16.1428 23.4587C16.1428 27.6759 19.5902 31.0945 23.8428 31.0945Z" fill="white"/>
<path fill-rule="evenodd" clip-rule="evenodd" d="M26.8402 19.3345C25.0527 19.0535 23.2401 19.0851 21.4524 19.3469L21.3062 19.3683L21.9266 17.8957L21.9721 17.8883C22.6884 17.7717 23.4122 17.6918 24.1386 17.6894C24.8664 17.6869 25.5923 17.7659 26.3093 17.8861L26.354 17.8936L26.9899 19.358L26.8402 19.3345H26.8402Z" fill="#5B4431"/>
<path fill-rule="evenodd" clip-rule="evenodd" d="M26.2945 19.1253L26.2292 18.8669L26.2392 18.868C26.3982 18.8849 26.557 18.9042 26.7154 18.926L26.7192 18.9266L26.8362 19.196C26.6559 19.1695 26.4753 19.1459 26.2945 19.1253ZM26.6747 18.8505C26.2949 18.7995 25.9131 18.7629 25.5307 18.7383L25.5252 18.738L25.4838 18.4899L25.4926 18.4905C25.8549 18.5164 26.2165 18.5541 26.5761 18.6054L26.58 18.6059L26.6869 18.8522L26.6747 18.8505ZM26.5353 18.5296C26.4025 18.5112 26.2693 18.4945 26.136 18.4796L26.1312 18.4791L26.0671 18.2256L26.0771 18.2268C26.1956 18.2409 26.314 18.2565 26.432 18.2735L26.4359 18.274L26.5476 18.5313L26.5353 18.5296ZM26.3912 18.1976C26.0697 18.1524 25.7466 18.1179 25.4229 18.0933L25.4175 18.0929L25.374 17.8326L25.3831 17.8335C25.6888 17.8665 25.9932 17.9099 26.2964 17.9607L26.3001 17.9613L26.4034 18.1993L26.3912 18.1976ZM25.3023 17.8251L25.3462 18.0877L25.3374 18.087C24.9577 18.0602 24.5769 18.0469 24.1963 18.0464L24.1893 18.0464L24.1891 17.765H24.1961C24.5638 17.7659 24.9313 17.7875 25.2971 17.8245L25.3023 17.8251ZM24.1197 17.7651L24.1199 18.0465L24.1129 18.0465C23.7532 18.0478 23.3935 18.0604 23.0346 18.0842C23.0096 18.0859 22.9845 18.0876 22.9595 18.0894L22.9507 18.09L22.9945 17.8276L22.9998 17.8271C23.3696 17.7898 23.741 17.7673 24.1127 17.7652L24.1197 17.7651ZM22.9228 17.8351L22.8794 18.0953L22.874 18.0957C22.5457 18.1206 22.2182 18.1552 21.8921 18.1998L21.8801 18.2015L21.9803 17.9635L21.9841 17.9629C22.2928 17.9126 22.6027 17.8693 22.9138 17.836L22.9228 17.8351ZM21.8526 18.2753C21.9742 18.2582 22.096 18.2426 22.2179 18.2284L22.2279 18.2272L22.1623 18.4867L22.1575 18.4872C22.0214 18.5023 21.8855 18.519 21.7499 18.5374L21.7378 18.5391L21.8487 18.2759L21.8526 18.2753ZM21.7105 18.6128C22.0734 18.5625 22.4381 18.5244 22.8035 18.4974L22.8124 18.4968L22.771 18.7448L22.7655 18.7451C22.3809 18.7708 21.9971 18.8077 21.6149 18.8577L21.6029 18.8593L21.7065 18.6133L21.7105 18.6128ZM21.5756 18.9329C21.735 18.9115 21.8946 18.8925 22.0544 18.8756L22.0643 18.8746L21.9975 19.1404C21.8169 19.1607 21.6363 19.1833 21.4559 19.2081L21.5717 18.9334L21.5756 18.9329ZM22.0712 19.1323L22.1378 18.867L22.1427 18.8665C22.571 18.8235 23.001 18.7959 23.4312 18.7809L23.4391 18.7807L23.4155 19.0294C22.967 19.0489 22.5187 19.0836 22.0712 19.1323ZM23.4856 19.0266L23.5091 18.7784L23.5152 18.7782C23.6083 18.7753 23.7014 18.773 23.7945 18.7713C24.1229 18.7652 24.4514 18.7658 24.7798 18.7743L24.786 18.7744L24.8092 19.0194C24.3681 19.0063 23.9267 19.009 23.4856 19.0266ZM24.8792 19.0216L24.8559 18.7763L24.8638 18.7766C25.2935 18.7894 25.7231 18.8157 26.1508 18.8588L26.1557 18.8593L26.2208 19.1171C25.7744 19.0681 25.3269 19.0366 24.8792 19.0216ZM25.9933 18.217L26.0575 18.4711L26.0476 18.47C25.6427 18.4272 25.2361 18.4001 24.8291 18.3867L24.823 18.3865L24.8013 18.1275L24.8092 18.1277C25.2032 18.1428 25.5967 18.172 25.9885 18.2164L25.9933 18.217ZM24.7314 18.125L24.7531 18.3844L24.7453 18.3842C24.3613 18.3733 23.9769 18.3746 23.5929 18.3867L23.542 18.3884L23.5639 18.1267L23.57 18.1264C23.9549 18.1128 24.3403 18.1121 24.7252 18.1248L24.7314 18.125ZM23.4939 18.1293L23.4721 18.3909L23.4659 18.3911C23.0584 18.4066 22.6514 18.435 22.2459 18.4777L22.236 18.4787L22.3016 18.2188L22.3065 18.2183C22.5502 18.1912 22.7945 18.1697 23.0392 18.1534C23.1881 18.1435 23.337 18.1356 23.4861 18.1296L23.4939 18.1293ZM22.8891 18.4913C23.1242 18.4751 23.3596 18.4635 23.5951 18.456C23.7676 18.4506 23.9401 18.4473 24.1127 18.4464L24.1197 18.4463L24.1199 18.6981L24.113 18.6982C24.0064 18.6987 23.8997 18.7 23.7932 18.702C23.4788 18.7078 23.1646 18.72 22.8509 18.7396L22.8422 18.7402L22.8836 18.4917L22.8891 18.4913ZM24.1961 18.4461C24.6 18.4457 25.004 18.458 25.407 18.4847L25.4125 18.485L25.454 18.7336L25.4453 18.7331C25.0295 18.7083 24.6128 18.6974 24.1963 18.6979H24.1893L24.1892 18.4461L24.1961 18.4461Z" fill="url(#paint0_linear_164_2307)"/>
<path fill-rule="evenodd" clip-rule="evenodd" d="M24.1439 18.2938C24.2814 18.2938 24.3575 18.3954 24.394 18.5066L24.568 19.0367C24.4014 19.0351 23.9317 19.0301 23.765 19.0329L23.8941 18.5066C23.922 18.3929 24.0064 18.2938 24.1439 18.2938Z" fill="#5B4431"/>
<path fill-rule="evenodd" clip-rule="evenodd" d="M23.6628 18.9712C23.6734 18.8704 23.6814 18.7701 23.6988 18.67C23.7428 18.4161 23.8504 18.1624 24.1496 18.1624C24.2514 18.1624 24.3451 18.1915 24.4213 18.2603C24.6019 18.4234 24.6128 18.7429 24.6364 18.9691L24.6444 19.0467L24.5663 19.0456C24.537 19.0452 24.5077 19.0448 24.4784 19.0446L24.416 19.044L24.4099 18.9819C24.4011 18.8918 24.3967 18.8021 24.3827 18.7124C24.3614 18.5756 24.3184 18.3929 24.1472 18.3929C24.1079 18.3929 24.0719 18.4022 24.0406 18.4267C23.9138 18.5256 23.9088 18.8346 23.8955 18.983L23.8899 19.0451L23.8274 19.0461C23.7961 19.0466 23.7647 19.0471 23.7334 19.0478L23.6546 19.0494L23.6628 18.9712Z" fill="#5B4431"/>
<path fill-rule="evenodd" clip-rule="evenodd" d="M23.8261 18.9761C23.8463 18.752 23.8468 18.3229 24.147 18.3229C24.456 18.3229 24.4566 18.7454 24.4789 18.9746C24.5083 18.9749 24.5377 18.9752 24.5671 18.9756C24.5374 18.6899 24.5278 18.2311 24.1494 18.2311C23.7796 18.2311 23.7613 18.6971 23.7318 18.9779C23.7632 18.9772 23.7947 18.9766 23.8261 18.9761Z" fill="#DCC89C"/>
<path fill-rule="evenodd" clip-rule="evenodd" d="M24.0762 29.859C23.898 29.5175 23.4677 29.2261 23.1446 29.0285C22.6597 28.7321 22.1397 28.4793 21.6373 28.212C21.1544 27.955 20.656 27.677 20.227 27.338C19.8586 27.0469 19.5087 26.6811 19.3681 26.2261C19.3246 26.0856 19.3026 25.9409 19.3026 25.794C19.3026 25.1104 19.5426 24.4963 19.8001 23.8741C19.992 23.4104 20.2662 22.8183 20.209 22.3086C20.1507 21.7893 19.7842 21.4326 19.3608 21.1621L19.2857 21.1141L20.7008 19.3113L20.7318 19.306C22.9998 18.9235 25.3029 18.8738 27.5677 19.3063L27.5976 19.312L29.012 21.1141L28.9369 21.1621C28.5135 21.4326 28.147 21.7893 28.0888 22.3086C28.0316 22.8183 28.3058 23.4104 28.4977 23.8741C28.7552 24.4963 28.9951 25.1104 28.9951 25.794C28.9951 25.9409 28.9731 26.0856 28.9297 26.2261C28.789 26.6811 28.4392 27.0469 28.0708 27.338C27.6418 27.677 27.1434 27.955 26.6604 28.212C26.1581 28.4793 25.6381 28.7321 25.1532 29.0285C24.83 29.2261 24.3997 29.5175 24.2215 29.859L24.1489 29.9982L24.0763 29.859H24.0762Z" fill="#3F4446"/>
<path fill-rule="evenodd" clip-rule="evenodd" d="M24.1489 29.8221C23.4682 28.5175 19.3843 27.7508 19.3843 25.7939C19.3843 23.837 21.4472 22.399 19.4053 21.0944L20.7456 19.3854C23.1493 18.9799 25.4155 18.9773 27.5522 19.3854L28.8925 21.0944C26.8506 22.399 28.9135 23.837 28.9135 25.7939C28.9135 27.7508 24.8296 28.5175 24.1489 29.8221H24.1489Z" fill="url(#paint1_radial_164_2307)"/>
<path fill-rule="evenodd" clip-rule="evenodd" d="M24.0917 29.2273C23.8742 29.018 23.6171 28.8435 23.3596 28.6861C22.8653 28.3838 22.3426 28.1296 21.8311 27.8574C21.1523 27.4962 19.9964 26.8778 19.7586 26.1085C19.727 26.0063 19.7109 25.9008 19.7109 25.7939C19.7109 25.1723 19.9436 24.5927 20.1781 24.0263C20.4037 23.481 20.6753 22.8663 20.6078 22.2642C20.5527 21.7736 20.287 21.3907 19.9125 21.0784L19.8523 21.0283L20.9243 19.6824L20.9557 19.6774C23.0726 19.335 25.2256 19.2906 27.3404 19.6739L27.3707 19.6794L28.4452 21.0283L28.385 21.0784C28.0105 21.3907 27.7448 21.7736 27.6897 22.2642C27.6221 22.8663 27.8937 23.481 28.1194 24.0263C28.3538 24.5927 28.5866 25.1723 28.5866 25.7939C28.5866 26.7471 27.2029 27.4655 26.4664 27.8574C25.9549 28.1296 25.4322 28.3838 24.9379 28.6861C24.6803 28.8435 24.4233 29.018 24.2058 29.2273L24.1487 29.2822L24.0917 29.2273H24.0917Z" fill="#3F4446"/>
<path fill-rule="evenodd" clip-rule="evenodd" d="M24.1489 29.1697C24.3742 28.9528 24.6452 28.7703 24.895 28.6176C25.3888 28.3157 25.9163 28.0586 26.4278 27.7865C27.1186 27.4189 28.5051 26.7047 28.5051 25.7939C28.5051 25.1845 28.2738 24.6119 28.044 24.0567C27.8119 23.4961 27.5393 22.874 27.6087 22.2553C27.6671 21.7348 27.9507 21.3352 28.3324 21.0169L27.3258 19.7531C25.2188 19.3712 23.0788 19.4157 20.9691 19.7569L19.9654 21.0169C20.3471 21.3352 20.6307 21.7348 20.6891 22.2553C20.7586 22.874 20.4859 23.4961 20.2538 24.0567C20.0241 24.6119 19.7927 25.1845 19.7927 25.7939C19.7927 25.893 19.8075 25.9902 19.8368 26.085C20.0661 26.8266 21.2235 27.4425 21.8701 27.7865C22.3815 28.0586 22.909 28.3157 23.4028 28.6176C23.6527 28.7703 23.9237 28.9528 24.1489 29.1697H24.1489Z" fill="#00923E"/>
<path fill-rule="evenodd" clip-rule="evenodd" d="M22.5675 17.2443V17.1985C22.5675 17.1556 22.5675 17.1127 22.5675 17.0698V16.9944L22.6427 16.987C22.8431 16.9672 23.0439 16.9507 23.2449 16.9377L23.3336 16.9319L23.5997 17.1838L23.7663 17.179C23.7663 17.1625 23.7663 17.1461 23.7663 17.1296C23.7663 17.0859 23.7663 17.0423 23.7663 16.9987V16.9164L23.8487 16.9155C24.049 16.9133 24.2493 16.913 24.4496 16.9146L24.5324 16.9152V16.9978C24.5324 17.0413 24.5324 17.0849 24.5324 17.1284C24.5324 17.1447 24.5324 17.1609 24.5324 17.1772L24.7015 17.1814L24.965 16.9319V16.9293L25.0536 16.9349C25.2546 16.9475 25.4554 16.9638 25.6559 16.9834L25.7311 16.9908V17.0662C25.7311 17.1089 25.7311 17.1516 25.7311 17.1943V17.2438L26.1637 17.0473L26.2609 17.0636C26.4623 17.0972 26.6631 17.1341 26.8633 17.174L26.9304 17.1874V17.2556C26.9304 17.297 26.9304 17.3384 26.9304 17.3798C26.9304 17.4211 26.9304 17.4624 26.9304 17.5038V17.5243L26.9208 17.5424L26.7788 17.8475L26.609 17.9952L26.5806 18.0166L26.5455 18.011C25.8286 17.8963 25.1078 17.8268 24.3817 17.8148C23.5071 17.8003 22.6412 17.8704 21.7775 18.0059L21.7427 18.0114L21.7145 17.9903L21.515 17.842L21.3778 17.5415L21.3688 17.5237V17.5038C21.3688 17.4624 21.3688 17.4211 21.3688 17.3798C21.3688 17.3384 21.3688 17.297 21.3688 17.2556V17.1871L21.4361 17.174C21.6362 17.1349 21.8368 17.0987 22.0381 17.066L22.1349 17.0502L22.5675 17.2443Z" fill="#5B4431"/>
<path fill-rule="evenodd" clip-rule="evenodd" d="M22.0516 17.4015C22.2512 17.3735 22.4508 17.3488 22.651 17.3272C22.651 17.2842 22.651 17.2414 22.651 17.1986C22.651 17.1557 22.651 17.1128 22.651 17.0698C22.8506 17.0501 23.0502 17.0337 23.2503 17.0208C23.2503 17.0642 23.2503 17.1076 23.2503 17.1509C23.2503 17.1943 23.2503 17.2376 23.2503 17.281C23.45 17.2716 23.6495 17.2648 23.8497 17.2603C23.8497 17.2167 23.8497 17.1732 23.8497 17.1296C23.8497 17.086 23.8497 17.0424 23.8497 16.9988C24.0493 16.9966 24.2489 16.9962 24.4491 16.9978C24.4491 17.0415 24.4491 17.085 24.4491 17.1284C24.4491 17.1719 24.4491 17.2154 24.4491 17.2589C24.6487 17.2624 24.8483 17.2685 25.0484 17.2773C25.0484 17.2341 25.0484 17.1908 25.0484 17.1477C25.0484 17.1044 25.0484 17.0612 25.0484 17.0179C25.2481 17.0305 25.4477 17.0466 25.6478 17.0663C25.6478 17.1091 25.6478 17.1517 25.6478 17.1944C25.6478 17.2371 25.6478 17.2798 25.6478 17.3225C25.8474 17.3443 26.047 17.3694 26.2472 17.3982C26.2472 17.3561 26.2472 17.314 26.2472 17.2719C26.2472 17.2299 26.2472 17.1879 26.2472 17.1457C26.4468 17.1791 26.6469 17.2157 26.8471 17.2557C26.8471 17.2971 26.8471 17.3385 26.8471 17.3798C26.8471 17.4211 26.8471 17.4624 26.8471 17.5038C26.8129 17.569 26.7786 17.6342 26.745 17.6996L26.7416 17.699C25.8556 17.5588 24.9677 17.4771 24.0702 17.4798C23.2242 17.4822 22.3869 17.5598 21.5519 17.6933L21.5504 17.695C21.5174 17.6314 21.4847 17.5676 21.4522 17.5038C21.4522 17.4624 21.4522 17.4211 21.4522 17.3798C21.4522 17.3385 21.4522 17.2971 21.4522 17.2557C21.6518 17.2167 21.8514 17.1807 22.0516 17.1481C22.0516 17.1904 22.0516 17.2326 22.0516 17.2748C22.0516 17.317 22.0516 17.3592 22.0516 17.4015Z" fill="url(#paint2_linear_164_2307)"/>
<path fill-rule="evenodd" clip-rule="evenodd" d="M21.1539 21.4519L21.0715 21.7201L20.8029 21.7195L21.0205 21.8848L20.937 22.1527L21.1539 21.9865L21.3709 22.1527L21.2874 21.8848L21.505 21.7195L21.2364 21.7201L21.1539 21.4519Z" fill="white"/>
<path fill-rule="evenodd" clip-rule="evenodd" d="M20.9278 23.2589L20.8453 23.5271L20.5768 23.5266L20.7943 23.6918L20.7109 23.9597L20.9278 23.7936L21.1448 23.9597L21.0613 23.6918L21.2788 23.5266L21.0103 23.5271L20.9278 23.2589Z" fill="white"/>
<path fill-rule="evenodd" clip-rule="evenodd" d="M20.6353 24.8779L20.5528 25.1462L20.2842 25.1456L20.5018 25.3108L20.4183 25.5786L20.6353 25.4126L20.8522 25.5786L20.7688 25.3108L20.9863 25.1456L20.7178 25.1462L20.6353 24.8779Z" fill="white"/>
<path fill-rule="evenodd" clip-rule="evenodd" d="M24.1312 27.6952L24.0487 27.9634L23.7802 27.9628L23.9977 28.1281L23.9142 28.3959L24.1312 28.2298L24.3482 28.3959L24.2646 28.1281L24.4823 27.9628L24.2137 27.9634L24.1312 27.6952Z" fill="white"/>
<path fill-rule="evenodd" clip-rule="evenodd" d="M25.7506 27.0383L25.6684 27.3066L25.3998 27.306L25.6173 27.4712L25.5338 27.7391L25.7506 27.573L25.9677 27.7391L25.8842 27.4712L26.1017 27.306L25.8331 27.3066L25.7506 27.0383Z" fill="white"/>
<path fill-rule="evenodd" clip-rule="evenodd" d="M22.4961 27.0383L22.5785 27.3066L22.8471 27.306L22.6295 27.4712L22.713 27.7391L22.4961 27.573L22.2791 27.7391L22.3626 27.4712L22.145 27.306L22.4135 27.3066L22.4961 27.0383Z" fill="white"/>
<path fill-rule="evenodd" clip-rule="evenodd" d="M21.2083 26.1753L21.2908 26.4435L21.5593 26.4429L21.3417 26.6082L21.4252 26.876L21.2083 26.7099L20.9913 26.876L21.0748 26.6082L20.8572 26.4429L21.1258 26.4435L21.2083 26.1753Z" fill="white"/>
<path fill-rule="evenodd" clip-rule="evenodd" d="M27.4917 27.1792L20.4914 20.2533L20.5646 20.1702L27.5796 27.1106L27.4917 27.1792Z" fill="#3F4446"/>
<path fill-rule="evenodd" clip-rule="evenodd" d="M24.1484 20.3487C24.7122 20.3487 25.2362 20.5117 25.6826 20.8544C27.7576 22.4479 27.2403 27.2223 24.1484 27.2223C23.5722 27.2223 23.0374 27.0541 22.585 26.6988C20.5362 25.09 21.0842 20.3486 24.1484 20.3486V20.3487Z" fill="#3F4446"/>
<path fill-rule="evenodd" clip-rule="evenodd" d="M24.1485 20.4935C27.6489 20.4935 27.6719 27.0775 24.1485 27.0775C20.6251 27.0775 20.6481 20.4935 24.1485 20.4935Z" fill="#3F4446"/>
<path fill-rule="evenodd" clip-rule="evenodd" d="M26.7794 23.9122H21.5154C21.4721 22.225 22.3523 20.4934 24.1474 20.4934C25.9425 20.4934 26.8227 22.225 26.7794 23.9122H26.7794Z" fill="url(#paint3_radial_164_2307)"/>
<path fill-rule="evenodd" clip-rule="evenodd" d="M21.5146 23.7365H22.9956V23.8001H21.5136V23.7859H21.5141C21.5141 23.7694 21.5144 23.7529 21.5146 23.7365Z" fill="#B49700"/>
<path fill-rule="evenodd" clip-rule="evenodd" d="M21.5272 23.4485L23.0029 23.7407L22.9904 23.8031L21.5229 23.5125C21.5242 23.4911 21.5257 23.4698 21.5272 23.4485Z" fill="#B49700"/>
<path fill-rule="evenodd" clip-rule="evenodd" d="M21.5596 23.1487L23.0094 23.7464L22.985 23.8052L21.5509 23.2139C21.5537 23.1921 21.5565 23.1704 21.5596 23.1487Z" fill="#B49700"/>
<path fill-rule="evenodd" clip-rule="evenodd" d="M21.618 22.8246L23.0151 23.7534L22.9798 23.8063L21.6039 22.8916C21.6085 22.8692 21.6132 22.8469 21.618 22.8246Z" fill="#B49700"/>
<path fill-rule="evenodd" clip-rule="evenodd" d="M21.7149 22.464L23.0204 23.762L22.9754 23.807L21.6939 22.5328C21.7007 22.5098 21.7078 22.4868 21.7149 22.464Z" fill="#B49700"/>
<path fill-rule="evenodd" clip-rule="evenodd" d="M21.8703 22.0573L23.024 23.7717L22.9711 23.8071L21.8401 22.1265C21.85 22.1032 21.86 22.0802 21.8703 22.0573Z" fill="#B49700"/>
<path fill-rule="evenodd" clip-rule="evenodd" d="M22.1167 21.6082L23.0265 23.7825L22.9677 23.807L22.0751 21.6737C22.0887 21.6516 22.1026 21.6298 22.1167 21.6082Z" fill="#B49700"/>
<path fill-rule="evenodd" clip-rule="evenodd" d="M22.4919 21.1519L23.0277 23.7706L22.9652 23.7831L22.438 21.2059C22.4557 21.1877 22.4737 21.1696 22.4919 21.1519Z" fill="#B49700"/>
<path fill-rule="evenodd" clip-rule="evenodd" d="M23.0159 20.7694L23.0276 23.7802L22.9639 23.7805L22.9523 20.8048C22.9733 20.7927 22.9945 20.7809 23.0159 20.7694Z" fill="#B49700"/>
<path fill-rule="evenodd" clip-rule="evenodd" d="M23.6639 20.5388L23.026 23.7852L22.9635 23.7732L23.5963 20.5528C23.6187 20.5478 23.6412 20.5432 23.6639 20.5388Z" fill="#B49700"/>
<path fill-rule="evenodd" clip-rule="evenodd" d="M24.3807 20.5036L23.0229 23.7914L22.9639 23.7676L24.3139 20.4987C24.3363 20.5001 24.3586 20.5017 24.3807 20.5036Z" fill="#B49700"/>
<path fill-rule="evenodd" clip-rule="evenodd" d="M25.0993 20.6821L23.0186 23.7987L22.9654 23.764L25.0394 20.6575C25.0596 20.6654 25.0795 20.6736 25.0993 20.6821Z" fill="#B49700"/>
<path fill-rule="evenodd" clip-rule="evenodd" d="M25.7295 21.0884L23.0134 23.807L22.968 23.7627L25.6816 21.0466C25.6977 21.0603 25.7137 21.0742 25.7295 21.0884Z" fill="#B49700"/>
<path fill-rule="evenodd" clip-rule="evenodd" d="M26.211 21.6597L23.0071 23.8255L22.9714 23.7729L26.1767 21.6061C26.1883 21.6238 26.1997 21.6417 26.211 21.6597Z" fill="#B49700"/>
<path fill-rule="evenodd" clip-rule="evenodd" d="M26.5355 22.3327L23.0003 23.8222L22.9755 23.7636L26.5137 22.2728C26.5211 22.2927 26.5284 22.3126 26.5355 22.3327Z" fill="#B49700"/>
<path fill-rule="evenodd" clip-rule="evenodd" d="M26.7202 23.0492L22.9931 23.8171L22.9802 23.7548L26.7094 22.9865C26.7131 23.0073 26.7167 23.0282 26.7202 23.0492Z" fill="#B49700"/>
<path fill-rule="evenodd" clip-rule="evenodd" d="M26.7816 23.7812L22.9862 23.8105L22.9857 23.7469L26.781 23.7177C26.7814 23.7389 26.7814 23.7601 26.7817 23.7812H26.7816Z" fill="#B49700"/>
<path fill-rule="evenodd" clip-rule="evenodd" d="M22.9958 22.8207C23.5327 22.8207 23.968 23.2539 23.968 23.788H22.0236C22.0236 23.2539 22.459 22.8207 22.9958 22.8207Z" fill="#B49700"/>
<path fill-rule="evenodd" clip-rule="evenodd" d="M22.9956 22.9032C23.4883 22.9032 23.888 23.2895 23.888 23.7658H22.1031C22.1031 23.2895 22.5027 22.9032 22.9956 22.9032Z" fill="#F8C100"/>
<path fill-rule="evenodd" clip-rule="evenodd" d="M24.2812 24.7736C24.1963 24.5811 24.7205 24.2162 24.8021 24.0591C24.9603 23.7546 23.9314 23.8195 23.9595 23.7984L21.5321 23.7852C21.5399 23.7855 21.5322 23.7913 21.5137 23.8012C21.5139 23.9266 21.5196 24.052 21.53 24.1766C22.1396 24.1964 22.9251 24.16 22.9445 24.276C22.9497 24.3076 23.0761 24.2424 23.0458 24.2762C22.7668 24.5864 23.1124 25.122 23.4654 25.3966C24.5625 26.2503 24.1614 26.73 23.2729 26.9228C23.535 27.0222 23.8263 27.0774 24.1473 27.0774C25.1604 27.0774 25.8797 26.5325 26.308 25.7568C25.6511 25.4956 24.5393 25.3591 24.2812 24.7736Z" fill="url(#paint4_linear_164_2307)"/>
<path fill-rule="evenodd" clip-rule="evenodd" d="M21.5146 23.7176C22.3529 23.7178 23.1912 23.7164 24.0296 23.7164H24.4825L24.0504 23.8508C23.824 23.9211 23.5355 24.0453 23.4677 24.2957C23.4165 24.4848 23.498 24.7108 23.574 24.8831C23.6851 25.1353 23.8295 25.3769 23.9537 25.6236C24.1807 26.0742 24.3767 26.5907 24.1462 27.0774C22.3611 27.0767 21.4873 25.3856 21.5146 23.7176Z" fill="#3F4446"/>
<path fill-rule="evenodd" clip-rule="evenodd" d="M24.0297 23.7852C22.2761 24.3302 24.7116 25.8172 24.0702 27.0751C22.3606 27.0273 21.5109 25.4067 21.5136 23.7854C22.2546 23.7854 23.2429 23.7852 24.0297 23.7852Z" fill="url(#paint5_linear_164_2307)"/>
<path fill-rule="evenodd" clip-rule="evenodd" d="M25.4788 22.9923C25.8511 22.9526 25.7984 22.1979 26.461 22.1908C26.4679 22.1907 26.4748 22.1909 26.4816 22.1913C26.6879 22.7056 26.7874 23.2875 26.7802 23.8669H24.1191H24.0226L24.0532 23.7756C24.1081 23.6117 24.2337 23.4271 24.3413 23.2928C24.4275 23.1852 24.5285 23.0766 24.6382 22.9926C24.7212 22.9291 24.8384 22.858 24.9477 22.8756C25.023 22.8878 25.0988 22.9081 25.1725 22.9278C25.2377 22.9452 25.4166 22.9989 25.4788 22.9923Z" fill="#3F4446"/>
<path fill-rule="evenodd" clip-rule="evenodd" d="M25.4863 23.0605C25.3845 23.0713 25.1129 22.9718 24.9368 22.9433C24.6958 22.9045 24.2221 23.4898 24.1193 23.7968H26.7814C26.7802 23.2675 26.6894 22.7386 26.5102 22.2633C26.4943 22.2607 26.4782 22.2592 26.4619 22.2594C25.8397 22.266 25.9161 23.0147 25.4863 23.0605Z" fill="#00923E"/>
<path fill-rule="evenodd" clip-rule="evenodd" d="M22.5206 25.7069C22.2323 25.1197 22.2333 24.5455 22.8487 24.1988L23.0642 24.0774L22.9435 24.293C22.8984 24.3737 22.8726 24.4609 22.882 24.5539C22.9106 24.8366 23.2816 25.1255 23.4884 25.289L23.6049 25.3811L23.4594 25.4113C23.1731 25.4706 22.8639 25.5613 22.6234 25.7328L22.5567 25.7804L22.5206 25.7069Z" fill="#3F4446"/>
<path fill-rule="evenodd" clip-rule="evenodd" d="M22.5831 25.6747C22.2503 24.9968 22.3956 24.532 22.883 24.2574C22.6611 24.6539 22.9778 24.9719 23.4453 25.3417C23.1151 25.4101 22.8154 25.509 22.5831 25.6747Z" fill="white"/>
<path fill-rule="evenodd" clip-rule="evenodd" d="M23.3328 25.6781H23.1813C23.182 25.6753 23.1824 25.6724 23.1824 25.6694V25.5862C23.1824 25.5669 23.1665 25.5511 23.1472 25.5511H23.0636C23.0442 25.5511 23.0284 25.5669 23.0284 25.5862V25.6694C23.0284 25.6724 23.0288 25.6753 23.0295 25.6781H22.4247V25.6256H22.3066V25.6781H22.174C22.1396 25.7052 22.1396 25.7388 22.174 25.7789C22.5464 25.8411 22.9327 25.8411 23.3328 25.7789C23.3673 25.7453 23.3673 25.7117 23.3328 25.6781Z" fill="#3F4446"/>
<path fill-rule="evenodd" clip-rule="evenodd" d="M26.0693 26.1249C25.4946 25.8301 24.6989 25.7672 24.2546 25.3017C23.8033 24.829 23.7199 24.3009 24.0731 23.7485L24.0939 23.7161L26.7809 23.7477C26.7894 24.6177 26.5527 25.4909 26.0693 26.1249Z" fill="#3F4446"/>
<path fill-rule="evenodd" clip-rule="evenodd" d="M24.1315 23.7852C23.8904 24.1656 23.7597 24.6913 24.3048 25.2673C24.737 25.7242 25.529 25.7847 26.1108 26.089C26.5538 25.4718 26.7767 24.6456 26.7808 23.8166L24.1315 23.7852Z" fill="url(#paint6_linear_164_2307)"/>
<path fill-rule="evenodd" clip-rule="evenodd" d="M26.7811 23.8045L25.3782 23.8046H25.1367L25.3413 23.6765C25.5245 23.5618 25.6611 23.4255 25.8067 23.2689C25.9013 23.1673 26.0224 23.0262 26.165 22.9989C26.1948 22.9933 26.2249 22.9923 26.255 22.9959C26.3337 23.0053 26.4127 23.0209 26.4904 23.0363C26.5577 23.0495 26.6251 23.0634 26.6928 23.0747C26.7025 23.0763 26.7134 23.0781 26.7248 23.0799C26.7622 23.3181 26.7813 23.5613 26.7811 23.8045Z" fill="#3F4446"/>
<path fill-rule="evenodd" clip-rule="evenodd" d="M26.7358 23.1508C26.6001 23.133 26.3926 23.0816 26.2468 23.0643C25.9907 23.0337 25.8502 23.4392 25.3782 23.7347L26.7803 23.7347C26.7775 23.5389 26.7629 23.3434 26.7358 23.1508Z" fill="#00923E"/>
<path fill-rule="evenodd" clip-rule="evenodd" d="M22.8064 22.0049H23.1592V22.1914H22.8064V22.0049Z" fill="#F8C300"/>
<path fill-rule="evenodd" clip-rule="evenodd" d="M22.9806 21.6274C23.0488 21.6274 23.1041 21.6825 23.1041 21.7504C23.1041 21.8183 23.0488 21.8734 22.9806 21.8734C22.9123 21.8734 22.857 21.8183 22.857 21.7504C22.857 21.6825 22.9123 21.6274 22.9806 21.6274Z" fill="#3F4446"/>
<path fill-rule="evenodd" clip-rule="evenodd" d="M22.9956 21.6953C23.034 21.6953 23.0652 21.7263 23.0652 21.7646C23.0652 21.8028 23.034 21.8338 22.9956 21.8338C22.9572 21.8338 22.926 21.8028 22.926 21.7646C22.926 21.7263 22.9572 21.6953 22.9956 21.6953Z" fill="url(#paint7_linear_164_2307)"/>
<path fill-rule="evenodd" clip-rule="evenodd" d="M22.754 23.144L22.8075 22.2589H23.163L23.2175 23.144H22.754Z" fill="#3F4446"/>
<path fill-rule="evenodd" clip-rule="evenodd" d="M22.8271 23.075L22.8724 22.3269H23.0982L23.1442 23.075H22.8271Z" fill="url(#paint8_linear_164_2307)"/>
<path fill-rule="evenodd" clip-rule="evenodd" d="M22.7203 22.1218H23.2453V22.3872H22.7203V22.1218Z" fill="#3F4446"/>
<path fill-rule="evenodd" clip-rule="evenodd" d="M22.7892 22.1898H23.1765V22.3181H22.7892V22.1898Z" fill="url(#paint9_linear_164_2307)"/>
<path fill-rule="evenodd" clip-rule="evenodd" d="M22.7558 22.5251H23.4293V23.7893H22.5416V22.5251H22.7558Z" fill="#3F4446"/>
<path fill-rule="evenodd" clip-rule="evenodd" d="M22.6104 22.593H22.7175V22.6996H22.8247V22.593H22.9318V22.6996H23.0389V22.593H23.1461V22.6996H23.2532V22.593H23.3603V22.6996V23.7201H22.6104V22.6996V22.593Z" fill="url(#paint10_linear_164_2307)"/>
<path fill-rule="evenodd" clip-rule="evenodd" d="M22.9814 23.3618C23.0396 23.3618 23.0822 23.4194 23.0822 23.4828C23.0822 23.5532 23.0822 23.6603 23.0822 23.7306H22.8807V23.4828C22.8807 23.4194 22.9232 23.3618 22.9814 23.3618Z" fill="#3F4446"/>
<path fill-rule="evenodd" clip-rule="evenodd" d="M23.0952 23.1757H22.8922V22.9769H23.0952V23.1757Z" fill="#3F4446"/>
<path fill-rule="evenodd" clip-rule="evenodd" d="M22.5743 22.8239H23.3964V22.8954H22.5743V22.8239Z" fill="#3F4446"/>
<path fill-rule="evenodd" clip-rule="evenodd" d="M22.5743 23.22H23.3964V23.2916H22.5743V23.22Z" fill="#3F4446"/>
<path fill-rule="evenodd" clip-rule="evenodd" d="M23.025 21.9843V22.1918H22.9468V21.9843H23.025Z" fill="#3F4446"/>
<path fill-rule="evenodd" clip-rule="evenodd" d="M22.9826 21.75C23.0999 21.75 23.2317 21.8249 23.2317 21.9538V22.0405H22.7335V21.9538C22.7335 21.8249 22.8652 21.75 22.9826 21.75Z" fill="#3F4446"/>
<path fill-rule="evenodd" clip-rule="evenodd" d="M22.9825 21.818H22.9825C23.0816 21.818 23.1627 21.8789 23.1627 21.9532V21.9714H22.8023V21.9532C22.8023 21.8789 22.8834 21.818 22.9825 21.818Z" fill="url(#paint11_linear_164_2307)"/>
<path fill-rule="evenodd" clip-rule="evenodd" d="M22.8631 21.9827V22.192H22.7849V21.9827H22.8631Z" fill="#3F4446"/>
<path fill-rule="evenodd" clip-rule="evenodd" d="M23.1873 21.9843V22.1918H23.1091V21.9843H23.1873Z" fill="#3F4446"/>
<path fill-rule="evenodd" clip-rule="evenodd" d="M24.2803 21.5288C24.5164 21.5242 24.7495 21.5462 24.9727 21.6277C25.164 21.6975 25.3313 21.8053 25.4788 21.9452L25.5868 22.0476L25.0784 22.1052L25.0544 22.0783C24.8344 21.8315 24.5554 21.7885 24.255 21.701C24.2029 21.6858 24.1024 21.6717 24.1131 21.5941C24.1238 21.5163 24.2258 21.5298 24.2803 21.5288Z" fill="#3F4446"/>
<path fill-rule="evenodd" clip-rule="evenodd" d="M24.2816 21.5981C24.5104 21.5937 24.7341 21.6144 24.9487 21.6927C25.1157 21.7537 25.2771 21.8495 25.4309 21.9954L25.1063 22.0322C24.8711 21.7684 24.5772 21.7225 24.2744 21.6343C24.1475 21.5973 24.1525 21.6006 24.2816 21.5981Z" fill="white"/>
<path fill-rule="evenodd" clip-rule="evenodd" d="M25.8303 21.7513C25.874 21.7766 25.9069 21.8289 25.9102 21.8778C25.9476 21.9317 25.949 22.0215 25.8888 22.0605C25.7906 22.1241 25.6879 22.1308 25.5878 22.1625C25.6379 22.3215 25.7214 22.4764 25.716 22.6469C25.7151 22.6798 25.712 22.7128 25.7074 22.7455C25.6743 22.9826 25.5579 23.1917 25.517 23.4216C25.5089 23.4671 25.5175 23.5586 25.4415 23.5612C25.3643 23.5638 25.3676 23.4732 25.3595 23.4278C25.3309 23.2664 25.319 23.0977 25.3009 22.9345C25.2841 22.7826 25.2521 22.4878 25.167 22.3532C25.1104 22.3184 25.0497 22.2907 24.987 22.2688L24.9854 22.2682L24.984 22.2676C24.9429 22.251 24.8869 22.2437 24.8411 22.2396C24.7967 22.2507 24.7437 22.2566 24.6999 22.2687L24.5944 22.2978L24.6129 22.1902C24.6215 22.1396 24.64 22.0896 24.6608 22.0425C24.7018 21.9499 24.7745 21.8865 24.8789 21.8943L25.1978 21.8281L25.2073 21.8287C25.2634 21.8326 25.3236 21.8176 25.3763 21.7993C25.4349 21.7791 25.4911 21.7525 25.5471 21.7259C25.5897 21.7055 25.6448 21.6772 25.6909 21.6683C25.7473 21.6573 25.8078 21.6992 25.8303 21.7513H25.8303Z" fill="#3F4446"/>
<path fill-rule="evenodd" clip-rule="evenodd" d="M25.2025 21.8978C25.3917 21.911 25.6138 21.7538 25.7041 21.7363C25.7345 21.7304 25.7894 21.7817 25.7626 21.8076C25.7452 21.8244 25.6426 21.8626 25.6135 21.878C25.5942 21.8881 25.7581 21.802 25.7798 21.8053C25.8255 21.8122 25.8539 21.8878 25.8336 21.9037C25.8336 21.9037 25.6876 21.9434 25.6435 21.9635C25.6031 21.982 25.7652 21.907 25.8336 21.9037C25.8581 21.9025 25.8857 21.9797 25.851 22.0023C25.7482 22.0689 25.612 22.0719 25.5036 22.1201C25.5447 22.2854 25.6519 22.4739 25.6466 22.6446C25.6382 22.911 25.4929 23.1602 25.4486 23.4094C25.4312 23.507 25.4479 23.5287 25.4279 23.4157C25.3703 23.0906 25.3669 22.5162 25.2164 22.3023C25.1549 22.2629 25.086 22.2299 25.01 22.2033C24.9699 22.1871 24.9116 22.1758 24.8351 22.1694C24.7937 22.1808 24.7157 22.1974 24.6743 22.2088C24.6877 22.1313 24.737 21.946 24.8826 21.9643L25.2025 21.8978Z" fill="white"/>
<path fill-rule="evenodd" clip-rule="evenodd" d="M24.8764 22.1085C24.8989 22.1102 24.9184 22.0926 24.9201 22.0691C24.9215 22.0454 24.9049 22.025 24.8824 22.0232C24.86 22.0214 24.8405 22.0392 24.8389 22.0627C24.8371 22.0863 24.854 22.1068 24.8764 22.1085Z" fill="#3F4446"/>
<path fill-rule="evenodd" clip-rule="evenodd" d="M25.4602 22.5413L25.6015 23.0258L25.5583 23.0718L25.4068 22.5568L25.4602 22.5413Z" fill="#3F4446"/>
<path fill-rule="evenodd" clip-rule="evenodd" d="M25.5233 22.4382L25.6697 22.7452L25.6418 22.8107L25.4731 22.4621L25.5233 22.4382Z" fill="#3F4446"/>
<path fill-rule="evenodd" clip-rule="evenodd" d="M25.8319 21.8043L25.6005 21.915L25.5768 21.8648L25.7759 21.7708L25.8319 21.8043Z" fill="#3F4446"/>
<path fill-rule="evenodd" clip-rule="evenodd" d="M25.8821 21.9402L25.6324 21.9994L25.6198 21.9453L25.857 21.8878L25.8821 21.9402Z" fill="#3F4446"/>
<path fill-rule="evenodd" clip-rule="evenodd" d="M25.108 25.1129C25.1353 25.005 25.1629 24.9168 25.215 24.8267L25.0865 24.9539L25.0472 24.915L25.1496 24.8136C25.0746 24.8577 25.01 24.9153 24.9526 24.9866L24.9495 25.0013L24.9499 25.0193L24.9739 25.261L25.0944 25.1352L25.1034 25.1255L25.1079 25.1137L25.1081 25.1129H25.108ZM25.4433 24.9414C25.4462 25.0484 25.4495 25.1553 25.4529 25.2623L25.5032 25.1467L25.5032 25.1399L25.5008 25.136C25.482 25.0659 25.4663 25.0023 25.4433 24.9414ZM25.4572 25.3916C25.4673 25.6965 25.4782 26.0014 25.4844 26.3064L25.4856 26.3625H25.1672L25.2005 25.3792L25.1567 25.2785L25.1588 25.4364L25.1032 25.4371L25.1013 25.2868L25.0473 25.4287L24.9953 25.4093L25.0526 25.2589L24.9453 25.3709L24.905 25.3331L24.9233 25.3139L24.9072 25.1517L24.8649 25.3095L24.8112 25.2954L24.8524 25.1416L24.7616 25.271L24.7159 25.2396L24.8171 25.0955L24.6773 25.1845L24.6473 25.1383L24.7785 25.0547L24.7342 25.0639L24.7182 25.0919L24.6858 25.0739L24.6264 25.0862L24.6151 25.0323L24.631 25.029L24.5976 24.9974L24.7325 24.8579L24.5674 24.9533L24.5394 24.9058L24.7204 24.8012L24.518 24.8463L24.5058 24.7926L24.6726 24.7554L24.5018 24.7496L24.5037 24.6946L24.6942 24.7012L24.5113 24.642L24.5286 24.5897L24.71 24.6484L24.6144 24.5843L24.5998 24.5866L24.5977 24.5731L24.549 24.5405L24.5802 24.4949L24.6274 24.5266L24.7488 24.5075L24.5725 24.4884L24.5786 24.4337L24.7785 24.4554L24.598 24.3778L24.6202 24.3274L24.802 24.4056L24.6521 24.2774L24.6885 24.2358L24.8375 24.3633L24.7312 24.1942L24.7716 24.1693L24.7824 24.1433L24.8394 24.1664L24.8334 24.1438L24.8568 24.1377L24.8112 24.1043L24.8443 24.0601L25.0178 24.1873L24.8893 24.0215L24.9335 23.9881L25.0735 24.1688L24.9965 23.9572L25.0488 23.9386L25.1137 24.1168L25.0969 23.9284L25.1522 23.9236L25.1707 24.1313L25.212 23.9248L25.2665 23.9354L25.2256 24.1402L25.2869 24.0226L25.2668 23.9839L25.3162 23.9587L25.3182 23.9625L25.3243 23.9509L25.3737 23.9761L25.3495 24.0226L25.4148 24.148L25.3739 23.9433L25.4284 23.9326L25.4697 24.1391L25.4882 23.9314L25.5436 23.9362L25.5268 24.1247L25.5917 23.9464L25.6439 23.9651L25.5669 24.1767L25.707 23.9959L25.7511 24.0294L25.6227 24.1951L25.7962 24.0679L25.8293 24.1121L25.793 24.1387L25.8126 24.1438L25.8049 24.1727L25.8581 24.1512L25.8653 24.1687L25.8677 24.1652L25.9148 24.1942L25.8086 24.3633L25.9576 24.2358L25.9939 24.2774L25.8441 24.4056L26.0259 24.3274L26.048 24.3778L25.8676 24.4554L26.0675 24.4337L26.0736 24.4884L25.8973 24.5075L26.0328 24.5288L26.0834 24.4949L26.1145 24.5405L26.0463 24.5862L26.0462 24.5866L26.0458 24.5865L25.9534 24.6484L26.1349 24.5897L26.1521 24.642L25.9693 24.7012L26.1598 24.6946L26.1616 24.7496L25.9908 24.7554L26.1577 24.7926L26.1454 24.8463L25.9431 24.8012L26.1241 24.9058L26.0961 24.9533L25.931 24.8579L26.0659 24.9974L26.0325 25.029L26.0484 25.0323L26.0371 25.0862L25.9777 25.0739L25.9452 25.0919L25.9293 25.0639L25.885 25.0547L26.0162 25.1383L25.9861 25.1845L25.8463 25.0955L25.9475 25.2396L25.9019 25.271L25.811 25.1416L25.8523 25.2954L25.7986 25.3095L25.7562 25.1517L25.7401 25.3139L25.7585 25.3331L25.7182 25.3709L25.6109 25.2589L25.6682 25.4093L25.6162 25.4287L25.5622 25.2869L25.5603 25.4371L25.5047 25.4364L25.5068 25.2785L25.4576 25.3916H25.4572ZM25.2049 25.2502L25.2149 24.9541C25.1946 25.0052 25.1792 25.0583 25.1641 25.1176C25.1627 25.1236 25.1612 25.1293 25.1591 25.1351L25.1598 25.1467L25.2049 25.2502H25.2049ZM25.6731 24.5378C25.6258 24.5566 25.5693 24.5825 25.5165 24.6142L25.6934 24.5843L25.7028 24.6385L25.5522 24.664C25.6239 24.6663 25.6951 24.6773 25.7627 24.6998L25.7698 24.7019L25.7777 24.6996L25.9652 24.5739L25.7084 24.5336L25.6879 24.5309L25.6731 24.5378ZM25.4213 24.6119C25.4942 24.5564 25.5841 24.5134 25.658 24.4845L25.6661 24.4803L25.6675 24.4715L25.7225 24.2654L25.5117 24.3506L25.4995 24.3556L25.4911 24.3669C25.4521 24.4262 25.4226 24.4878 25.4004 24.5519L25.5536 24.3774L25.5956 24.4134L25.4213 24.6119ZM25.7111 24.9843C25.6496 24.9054 25.5776 24.8451 25.4925 24.8005L25.6089 24.9201L25.5689 24.9582L25.4648 24.8513C25.5046 24.931 25.5249 25.0125 25.5502 25.1063L25.5557 25.1262L25.5688 25.1352L25.6893 25.261L25.7132 25.0193L25.7156 25.0004L25.7111 24.9843H25.7111ZM25.3582 24.5056C25.3801 24.4485 25.4077 24.3933 25.4425 24.3399L25.4452 24.3334L25.4445 24.3255L25.318 24.0826L25.1956 24.3177L25.1979 24.3319C25.244 24.4011 25.278 24.4732 25.3027 24.5487L25.3029 24.3055L25.3584 24.3056L25.3583 24.5056H25.3582ZM25.7419 24.7509C25.6835 24.7319 25.6222 24.7221 25.5603 24.7194L25.6935 24.7625L25.6762 24.8148L25.5658 24.779C25.6451 24.8283 25.7131 24.8922 25.7715 24.9725L25.7734 24.9752L25.7736 24.9756L25.8926 25.0002L25.7607 24.7685L25.7538 24.7568L25.7417 24.7509H25.7419ZM25.7402 24.1987L25.7474 24.172L25.6747 24.2253L25.7402 24.1987ZM25.7869 24.2393L25.762 24.3327L25.8323 24.2209L25.7869 24.2393ZM25.1492 24.359L25.1415 24.3489L25.1283 24.3428L24.9214 24.2591L24.9781 24.4715L24.9876 24.4845C25.0702 24.5168 25.1727 24.5667 25.2492 24.6321L25.2511 24.6324L25.0509 24.4281L25.0909 24.3899L25.2425 24.5447C25.2197 24.4803 25.1892 24.4185 25.1492 24.359H25.1492ZM24.9666 24.535L24.9526 24.5307L24.9371 24.5336L24.6946 24.5717L24.8854 24.6996L24.8933 24.7011L24.9006 24.7002C24.9674 24.6788 25.0378 24.6671 25.1086 24.664L24.9578 24.6385L24.9672 24.5843L25.1232 24.6107L24.9666 24.535ZM25.0988 24.78L24.9857 24.8177L24.9679 24.7656L25.1073 24.7191C25.0439 24.7222 24.9811 24.7326 24.9213 24.7513L24.9108 24.7577L24.9022 24.7685L24.7703 25.0002L24.8897 24.9755L24.8942 24.9698L24.9 24.9639L24.9 24.9638L24.9001 24.9638C24.9582 24.8893 25.0235 24.828 25.0988 24.78ZM24.7565 24.9125L24.6471 25.0257L24.698 25.0151L24.7565 24.9125ZM24.857 24.233L24.8086 24.2134L24.8836 24.3327L24.857 24.233ZM24.9037 24.1924L24.9654 24.2174L24.897 24.1673L24.9037 24.1924ZM25.9651 25.0151L26.016 25.0257L25.9066 24.9125L25.9651 25.0151Z" fill="#3F4446"/>
<path fill-rule="evenodd" clip-rule="evenodd" d="M25.279 24.71L25.2248 26.3218H25.429C25.4179 25.7757 25.3934 25.256 25.3824 24.71C25.3426 24.6556 25.3093 24.6677 25.279 24.71Z" fill="#3F4446"/>
<path fill-rule="evenodd" clip-rule="evenodd" d="M25.2789 24.7098L25.2763 24.7874L25.3859 24.8698L25.3838 24.7814L25.2824 24.7051L25.2789 24.7098H25.2789ZM25.2278 26.2298L25.225 26.3145L25.2345 26.3216H25.3499L25.2278 26.2298ZM25.2335 26.0601L25.2307 26.1448L25.4283 26.2935L25.4262 26.2051L25.2334 26.0601H25.2335ZM25.2392 25.8904L25.2364 25.9751L25.4241 26.1163L25.4217 26.0277L25.2392 25.8904ZM25.2449 25.7207L25.2421 25.8054L25.4192 25.9386L25.4165 25.8497L25.2449 25.7207ZM25.2506 25.5511L25.2478 25.6358L25.4136 25.7605L25.4107 25.6715L25.2506 25.5511ZM25.2563 25.3814L25.2535 25.4661L25.4078 25.5821L25.4048 25.4931L25.2563 25.3814ZM25.262 25.2117L25.2592 25.2964L25.4019 25.4037L25.3989 25.3147L25.262 25.2117ZM25.2678 25.042L25.2649 25.1267L25.3961 25.2254L25.3933 25.1365L25.2678 25.042ZM25.2734 24.8723L25.2706 24.957L25.3907 25.0473L25.3882 24.9586L25.2734 24.8723Z" fill="#957F66"/>
<path fill-rule="evenodd" clip-rule="evenodd" d="M21.7644 17.9181C21.6884 17.8612 21.6408 17.8267 21.5648 17.7698C23.3625 17.4822 24.9148 17.4887 26.7283 17.7755L26.5585 17.9232C24.9231 17.6617 23.4383 17.6553 21.7644 17.9181H21.7644Z" fill="url(#paint12_linear_164_2307)"/>
<path fill-rule="evenodd" clip-rule="evenodd" d="M25.8877 17.2664L26.1634 17.1446V17.1456C26.1634 17.1877 26.1634 17.2298 26.1634 17.2719C26.1634 17.282 26.1634 17.2922 26.1634 17.3024C26.0716 17.2897 25.9797 17.2777 25.8877 17.2664ZM22.1345 17.1446V17.1481C22.1345 17.1903 22.1345 17.2326 22.1345 17.2748C22.1345 17.2852 22.1345 17.2956 22.1345 17.306C22.2289 17.2932 22.3233 17.2811 22.4178 17.2698L22.1345 17.1446ZM23.4916 17.1875L23.3333 17.0353V17.1509C23.3333 17.1652 23.3333 17.1795 23.3333 17.1938C23.3861 17.1916 23.4388 17.1894 23.4916 17.1875ZM24.8093 17.1847L24.9646 17.0353V17.1476C24.9646 17.1619 24.9646 17.1762 24.9646 17.1904C24.9129 17.1884 24.8611 17.1864 24.8093 17.1847Z" fill="#DCC89C"/>
<path fill-rule="evenodd" clip-rule="evenodd" d="M22.9324 18.8976C22.8546 18.9051 22.7765 18.9066 22.6987 18.9131L22.4905 18.9303L22.5093 18.7225C22.5242 18.5577 22.5513 18.3944 22.5662 18.2296L22.5702 18.186L22.5942 18.1494C22.6706 18.0327 22.8094 17.9513 22.9513 17.9893C23.0387 18.0127 23.1043 18.0759 23.1398 18.1578L23.1587 18.2015L23.1529 18.2489C23.1324 18.4143 23.1105 18.5795 23.0898 18.7449L23.0723 18.8841L22.9324 18.8976Z" fill="#5B4431"/>
<path fill-rule="evenodd" clip-rule="evenodd" d="M22.9241 18.8095C22.8469 18.817 22.769 18.8185 22.6916 18.8249L22.5875 18.8335L22.5969 18.7296C22.6119 18.5647 22.6389 18.4016 22.6539 18.2367L22.6559 18.2149L22.6678 18.1966C22.7233 18.1119 22.824 18.0451 22.9287 18.0731C22.99 18.0896 23.0346 18.1346 23.0594 18.1918L23.0688 18.2136L23.0659 18.2373C23.0454 18.4027 23.0236 18.5678 23.0028 18.7332L22.9941 18.8028L22.9241 18.8095Z" fill="#DCC89C"/>
<path fill-rule="evenodd" clip-rule="evenodd" d="M22.9155 18.7214C22.9382 18.5405 22.9562 18.4066 22.9786 18.2257C22.9327 18.1197 22.8126 18.1346 22.7412 18.2437C22.7245 18.4272 22.7008 18.5531 22.6842 18.7367C22.7777 18.7289 22.8434 18.7284 22.9155 18.7214Z" fill="#5B4431"/>
<path fill-rule="evenodd" clip-rule="evenodd" d="M25.3195 18.8976C25.3973 18.9051 25.4754 18.9066 25.5532 18.9131L25.7614 18.9303L25.7426 18.7225C25.7277 18.5577 25.7006 18.3944 25.6857 18.2296L25.6817 18.186L25.6577 18.1494C25.5813 18.0327 25.4424 17.9513 25.3006 17.9893C25.2132 18.0127 25.1476 18.0759 25.1121 18.1578L25.0931 18.2015L25.099 18.2489C25.1195 18.4143 25.1414 18.5795 25.1622 18.7449L25.1796 18.8841L25.3195 18.8976Z" fill="#5B4431"/>
<path fill-rule="evenodd" clip-rule="evenodd" d="M25.3278 18.8095C25.405 18.817 25.4829 18.8185 25.5603 18.8249L25.6644 18.8335L25.655 18.7296C25.6401 18.5647 25.613 18.4016 25.5981 18.2367L25.5962 18.2149L25.5842 18.1966C25.5288 18.1119 25.4281 18.0451 25.3233 18.0731C25.262 18.0896 25.2175 18.1346 25.1927 18.1918L25.1832 18.2136L25.1862 18.2373C25.2066 18.4027 25.2285 18.5678 25.2493 18.7332L25.258 18.8028L25.328 18.8095H25.3278Z" fill="#DCC89C"/>
<path fill-rule="evenodd" clip-rule="evenodd" d="M25.3364 18.7214C25.3136 18.5405 25.2956 18.4066 25.2733 18.2257C25.3192 18.1197 25.4392 18.1346 25.5106 18.2437C25.5273 18.4272 25.551 18.5531 25.5676 18.7367C25.4741 18.7289 25.4085 18.7284 25.3364 18.7214Z" fill="#5B4431"/>
</g>
<path d="M44.6189 37.2651L43.8835 36.5875L44.6189 37.2651C45.8742 35.9026 46.4495 34.2029 46.7274 32.0274C47 29.8925 47 27.1635 47 23.6564V23.5833V23.5102C47 20.0031 47 17.2742 46.7274 15.1393C46.4495 12.9638 45.8742 11.2641 44.6189 9.90161C44.4526 9.72109 44.2789 9.54744 44.0984 9.38111C42.7359 8.12578 41.0362 7.55046 38.8607 7.27262C36.7258 6.99998 33.9968 6.99999 30.4897 7L30.4167 7H17.5833L17.5103 7C14.0032 6.99999 11.2742 6.99998 9.13931 7.27262C6.9638 7.55046 5.26409 8.12578 3.90161 9.38111C3.72109 9.54744 3.54744 9.72109 3.38111 9.90161C2.12578 11.2641 1.55046 12.9638 1.27262 15.1393C0.999977 17.2742 0.999987 20.0032 1 23.5103L1 23.5833L1 23.6564C0.999987 27.1635 0.999977 29.8925 1.27262 32.0274C1.55046 34.2029 2.12578 35.9026 3.38111 37.2651C3.54744 37.4456 3.72109 37.6192 3.90161 37.7856C5.26408 39.0409 6.9638 39.6162 9.13931 39.894C11.2742 40.1667 14.0032 40.1667 17.5102 40.1667H17.5833H30.4167H30.4898C33.9968 40.1667 36.7258 40.1667 38.8607 39.894C41.0362 39.6162 42.7359 39.0409 44.0984 37.7856C44.2789 37.6192 44.4526 37.4456 44.6189 37.2651Z" stroke="#042B60" stroke-width="2"/>
<defs>
<linearGradient id="paint0_linear_164_2307" x1="21.456" y1="18.4866" x2="26.8362" y2="18.4866" gradientUnits="userSpaceOnUse">
<stop stop-color="#C0A062"/>
<stop offset="0.501961" stop-color="#CEB27C"/>
<stop offset="1" stop-color="#CEB27C"/>
</linearGradient>
<radialGradient id="paint1_radial_164_2307" cx="0" cy="0" r="1" gradientUnits="userSpaceOnUse" gradientTransform="translate(24.1489 24.3997) scale(9.42707 9.32698)">
<stop stop-color="white"/>
<stop offset="1" stop-color="#E8E8E7"/>
</radialGradient>
<linearGradient id="paint2_linear_164_2307" x1="21.4522" y1="17.3479" x2="26.847" y2="17.3479" gradientUnits="userSpaceOnUse">
<stop stop-color="#C0A062"/>
<stop offset="0.501961" stop-color="#DCC89C"/>
<stop offset="1" stop-color="#DCC89C"/>
</linearGradient>
<radialGradient id="paint3_radial_164_2307" cx="0" cy="0" r="1" gradientUnits="userSpaceOnUse" gradientTransform="translate(23.1842 23.331) scale(4.34616 4.30007)">
<stop stop-color="#FFFCC8"/>
<stop offset="0.4" stop-color="#7FCFD6"/>
<stop offset="1" stop-color="#00A3E4"/>
</radialGradient>
<linearGradient id="paint4_linear_164_2307" x1="26.3081" y1="25.416" x2="21.5136" y2="25.416" gradientUnits="userSpaceOnUse">
<stop stop-color="#F5C491"/>
<stop offset="1" stop-color="#F5C491"/>
</linearGradient>
<linearGradient id="paint5_linear_164_2307" x1="21.5109" y1="25.4301" x2="24.7115" y2="25.4301" gradientUnits="userSpaceOnUse">
<stop stop-color="#42929D"/>
<stop offset="1" stop-color="#42929D"/>
</linearGradient>
<linearGradient id="paint6_linear_164_2307" x1="26.7808" y1="24.9371" x2="23.7597" y2="24.9371" gradientUnits="userSpaceOnUse">
<stop stop-color="#BB825B"/>
<stop offset="1" stop-color="#BB825B"/>
</linearGradient>
<linearGradient id="paint7_linear_164_2307" x1="22.926" y1="21.7646" x2="23.0652" y2="21.7646" gradientUnits="userSpaceOnUse">
<stop stop-color="#C2C1C1"/>
<stop offset="1" stop-color="#C2C1C1"/>
</linearGradient>
<linearGradient id="paint8_linear_164_2307" x1="22.8271" y1="22.7009" x2="23.1442" y2="22.7009" gradientUnits="userSpaceOnUse">
<stop stop-color="#C2C1C1"/>
<stop offset="1" stop-color="#C2C1C1"/>
</linearGradient>
<linearGradient id="paint9_linear_164_2307" x1="22.7892" y1="22.254" x2="23.1765" y2="22.254" gradientUnits="userSpaceOnUse">
<stop stop-color="#C2C1C1"/>
<stop offset="1" stop-color="#C2C1C1"/>
</linearGradient>
<linearGradient id="paint10_linear_164_2307" x1="22.6104" y1="23.1565" x2="23.3603" y2="23.1565" gradientUnits="userSpaceOnUse">
<stop stop-color="#C2C1C1"/>
<stop offset="1" stop-color="#C2C1C1"/>
</linearGradient>
<linearGradient id="paint11_linear_164_2307" x1="22.8023" y1="21.8947" x2="23.1627" y2="21.8947" gradientUnits="userSpaceOnUse">
<stop stop-color="#C2C1C1"/>
<stop offset="1" stop-color="#C2C1C1"/>
</linearGradient>
<linearGradient id="paint12_linear_164_2307" x1="21.5648" y1="17.7027" x2="26.7283" y2="17.7027" gradientUnits="userSpaceOnUse">
<stop stop-color="#968247"/>
<stop offset="0.501961" stop-color="#A69464"/>
<stop offset="1" stop-color="#A69464"/>
</linearGradient>
<clipPath id="clip0_164_2307">
<path d="M2 23.5833C2 16.4454 2 12.8764 4.11654 10.5792C4.26439 10.4187 4.41874 10.2644 4.57921 10.1165C6.8764 8 10.4454 8 17.5833 8H30.4167C37.5546 8 41.1236 8 43.4208 10.1165C43.5813 10.2644 43.7356 10.4187 43.8835 10.5792C46 12.8764 46 16.4454 46 23.5833C46 30.7213 46 34.2903 43.8835 36.5875C43.7356 36.7479 43.5813 36.9023 43.4208 37.0501C41.1236 39.1667 37.5546 39.1667 30.4167 39.1667H17.5833C10.4454 39.1667 6.8764 39.1667 4.57921 37.0501C4.41874 36.9023 4.26439 36.7479 4.11654 36.5875C2 34.2903 2 30.7213 2 23.5833Z" fill="white"/>
</clipPath>
</defs>
</svg>
