<svg width="48" height="48" viewBox="0 0 48 48" fill="none" xmlns="http://www.w3.org/2000/svg">
<g clip-path="url(#clip0_164_2563)">
<path fill-rule="evenodd" clip-rule="evenodd" d="M2 8H45.9988V39.1658H2V8Z" fill="#312783"/>
<path fill-rule="evenodd" clip-rule="evenodd" d="M2.0011 26.7567H45.9999V39.1666H2.0011V26.7567Z" fill="white"/>
<path fill-rule="evenodd" clip-rule="evenodd" d="M23.3446 28.64H24.6553V30.9924H26.8398V32.3054H24.6553V37.2834H23.3446V32.3054H21.1605V30.9924H23.3446V28.64Z" fill="#E30613"/>
<path fill-rule="evenodd" clip-rule="evenodd" d="M23.9998 8.95911L24.3802 9.94653L25.4351 10.0041L24.6153 10.6717L24.887 11.6942L23.9998 11.1193L23.1132 11.6942L23.3849 10.6717L22.5651 10.0041L23.62 9.94653L23.9998 8.95911Z" fill="#FFED00"/>
<path fill-rule="evenodd" clip-rule="evenodd" d="M24.0001 12.848C34.2957 12.848 42.9399 18.8249 45.022 26.7563H43.6418C41.5591 19.5663 33.5343 14.1836 24.0001 14.1836C14.466 14.1836 6.44167 19.5668 4.35851 26.7568H2.97827C5.06039 18.8249 13.7045 12.848 24.0001 12.848Z" fill="#E30613"/>
<path fill-rule="evenodd" clip-rule="evenodd" d="M23.9995 14.1841C33.5337 14.1841 41.5585 19.5668 43.6412 26.7568H42.2489C40.1668 20.3097 32.7665 15.5197 23.9995 15.5197C15.2326 15.5197 7.83281 20.3097 5.75017 26.7568H4.35791C6.44107 19.5668 14.4654 14.1841 23.9995 14.1841Z" fill="#FFED00"/>
<path fill-rule="evenodd" clip-rule="evenodd" d="M23.9999 15.5197C32.7668 15.5197 40.1671 20.3097 42.2492 26.7568H40.8428C38.7628 21.0542 31.9928 16.8552 23.9999 16.8552C16.0069 16.8552 9.23689 21.0537 7.15686 26.7568H5.75049C7.83313 20.3097 15.2329 15.5197 23.9999 15.5197Z" fill="#009640"/>
<path fill-rule="evenodd" clip-rule="evenodd" d="M23.9997 17.9983L24.1393 19.3648L25.462 18.2899L25.069 19.6056L26.7022 19.1197L25.8362 20.1847L27.5306 20.3616L26.3238 21.0135L27.8211 21.8265L26.4576 21.9663L27.5306 23.2915L26.2172 22.8977L26.7022 24.5333L25.6392 23.6663L25.462 25.3632L24.8114 24.1548L23.9997 25.6548L23.8602 24.2888L22.5375 25.3632L22.9305 24.0475L21.2978 24.5333L22.1633 23.4684L20.4694 23.2915L21.6762 22.6396L20.1783 21.8265L21.5424 21.6867L20.4694 20.3616L21.7828 20.7553L21.2978 19.1197L22.3608 19.9868L22.5375 18.2899L23.1881 19.4983L23.9997 17.9983Z" fill="#FFED00"/>
</g>
<path d="M3.38108 9.90165C2.12577 11.2641 1.55045 12.9638 1.27262 15.1393C0.999977 17.2742 0.999987 20.0031 1 23.5102L1 23.5833L1 23.6563C0.999987 27.1634 0.999977 29.8923 1.27262 32.0272C1.55045 34.2027 2.12577 35.9024 3.38108 37.2649C3.54743 37.4455 3.7211 37.6191 3.90165 37.7855C5.26412 39.0408 6.96382 39.6161 9.13931 39.8939C11.2742 40.1666 14.0031 40.1666 17.5102 40.1665H17.5833H30.4167H30.4898C33.9969 40.1666 36.7258 40.1666 38.8607 39.8939C41.0362 39.6161 42.7359 39.0408 44.0984 37.7855C44.2789 37.6191 44.4526 37.4455 44.6189 37.2649C45.8742 35.9024 46.4496 34.2027 46.7274 32.0272C47 29.8924 47 27.1634 47 23.6564V23.5833V23.5102C47 20.0031 47 17.2742 46.7274 15.1393C46.4496 12.9638 45.8742 11.2641 44.6189 9.90166C44.4526 9.7211 44.2789 9.54743 44.0984 9.38108C42.7359 8.12577 41.0362 7.55045 38.8607 7.27262C36.7258 6.99998 33.9968 6.99999 30.4898 7L30.4167 7H17.5833L17.5102 7C14.0031 6.99999 11.2742 6.99998 9.13931 7.27262C6.96382 7.55045 5.26412 8.12577 3.90165 9.38108C3.7211 9.54743 3.54743 9.7211 3.38108 9.90165Z" stroke="#042B60" stroke-width="2"/>
<defs>
<clipPath id="clip0_164_2563">
<path d="M2 23.5833C2 16.4454 2 12.8764 4.11651 10.5792C4.26438 10.4188 4.41875 10.2644 4.57924 10.1165C6.87643 8 10.4454 8 17.5833 8H30.4167C37.5546 8 41.1236 8 43.4208 10.1165C43.5812 10.2644 43.7356 10.4188 43.8835 10.5792C46 12.8764 46 16.4454 46 23.5833C46 30.7212 46 34.2901 43.8835 36.5873C43.7356 36.7478 43.5812 36.9022 43.4208 37.05C41.1236 39.1666 37.5546 39.1666 30.4167 39.1666H17.5833C10.4454 39.1666 6.87643 39.1666 4.57924 37.05C4.41875 36.9022 4.26438 36.7478 4.11651 36.5873C2 34.2901 2 30.7212 2 23.5833Z" fill="white"/>
</clipPath>
</defs>
</svg>
