<svg width="48" height="48" viewBox="0 0 48 48" fill="none" xmlns="http://www.w3.org/2000/svg">
<g clip-path="url(#clip0_164_2495)">
<path fill-rule="evenodd" clip-rule="evenodd" d="M2 39.1667H45.9998V8H2V39.1667Z" fill="#010101"/>
<path fill-rule="evenodd" clip-rule="evenodd" d="M16.6668 39.1667H46V8H16.6668V39.1667Z" fill="#ED1C24"/>
<path fill-rule="evenodd" clip-rule="evenodd" d="M25.8334 24.8247V22.0684H26.4053L27.549 23.9081V22.0684H28.0328V24.8247H27.5047L26.361 23.0284V24.8247H25.8334ZM28.6495 24.8247V22.0684H30.7176V22.5341H29.2214V23.1451H30.5857V23.6107H29.2214V24.3596H30.7614V24.8253L28.6495 24.8247ZM32.5213 23.8067V23.3486H33.7531V24.4465C33.6212 24.5556 33.445 24.6576 33.225 24.7444C33.005 24.8242 32.7851 24.8681 32.5651 24.8681C32.257 24.8681 31.9932 24.8101 31.7732 24.6863C31.597 24.5702 31.4213 24.3955 31.2894 24.1702C31.2013 23.945 31.1576 23.6976 31.1576 23.436C31.1576 23.1522 31.2013 22.8977 31.3338 22.6724C31.4657 22.4472 31.6419 22.2795 31.8619 22.1564C32.0381 22.069 32.2581 22.0256 32.5218 22.0256C32.8737 22.0256 33.138 22.0912 33.3137 22.2367C33.5337 22.3821 33.6656 22.5786 33.7099 22.8331L33.138 22.9351C33.0942 22.8043 33.0499 22.6952 32.918 22.6149C32.8299 22.5351 32.698 22.4988 32.5218 22.4988C32.2581 22.4988 32.0818 22.5715 31.95 22.724C31.7737 22.8841 31.73 23.1093 31.73 23.4148C31.73 23.7421 31.7737 23.9895 31.95 24.1491C32.0818 24.3162 32.2581 24.3965 32.5218 24.3965C32.6537 24.3965 32.7418 24.3748 32.8737 24.3309C33.0056 24.2799 33.0937 24.2218 33.1818 24.1637V23.8072L32.5213 23.8067ZM34.1493 23.4648C34.1493 23.1809 34.1931 22.9487 34.2812 22.7593C34.325 22.6138 34.4131 22.4901 34.545 22.374C34.6331 22.2649 34.765 22.1851 34.8969 22.1341C35.0731 22.0614 35.2487 22.025 35.4687 22.025C35.9087 22.025 36.2168 22.1488 36.4806 22.3957C36.7006 22.6502 36.8325 22.9991 36.8325 23.4501C36.8325 23.8935 36.7006 24.243 36.4806 24.4899C36.2168 24.7444 35.9087 24.8681 35.5125 24.8681C35.0725 24.8681 34.7644 24.7444 34.5007 24.4899C34.2812 24.243 34.1493 23.9011 34.1493 23.4648ZM34.7212 23.4431C34.7212 23.7556 34.8093 23.9885 34.9412 24.1556C35.0731 24.3157 35.2493 24.3955 35.4693 24.3955C35.733 24.3955 35.9093 24.3157 36.0411 24.1556C36.173 23.9955 36.2611 23.7556 36.2611 23.4355C36.2611 23.1153 36.173 22.883 36.0411 22.73C35.9093 22.5699 35.733 22.4972 35.4693 22.4972C35.2493 22.4972 35.0731 22.5699 34.9412 22.737C34.8093 22.8906 34.7212 23.1305 34.7212 23.4431Z" fill="white"/>
<path d="M2.05 8.05H45.9498V39.1133H2.05V8.05Z" stroke="#E0E6EB" stroke-width="0.1" stroke-miterlimit="2.6131"/>
</g>
<path d="M44.6189 37.2651L43.8835 36.5875L44.6189 37.2651C45.8742 35.9026 46.4495 34.2029 46.7274 32.0274C47 29.8925 47 27.1635 47 23.6564V23.5833V23.5102C47 20.0031 47 17.2742 46.7274 15.1393C46.4495 12.9638 45.8742 11.2641 44.6189 9.90161C44.4526 9.72109 44.2789 9.54744 44.0984 9.38111C42.7359 8.12578 41.0362 7.55046 38.8607 7.27262C36.7258 6.99998 33.9968 6.99999 30.4897 7L30.4167 7H17.5833L17.5103 7C14.0032 6.99999 11.2742 6.99998 9.13931 7.27262C6.9638 7.55046 5.26409 8.12578 3.90161 9.38111C3.72109 9.54744 3.54744 9.72109 3.38111 9.90161C2.12578 11.2641 1.55046 12.9638 1.27262 15.1393C0.999977 17.2742 0.999987 20.0032 1 23.5103L1 23.5833L1 23.6564C0.999987 27.1635 0.999977 29.8925 1.27262 32.0274C1.55046 34.2029 2.12578 35.9026 3.38111 37.2651C3.54744 37.4456 3.72109 37.6192 3.90161 37.7856C5.26408 39.0409 6.9638 39.6162 9.13931 39.894C11.2742 40.1667 14.0032 40.1667 17.5102 40.1667H17.5833H30.4167H30.4898C33.9968 40.1667 36.7258 40.1667 38.8607 39.894C41.0362 39.6162 42.7359 39.0409 44.0984 37.7856C44.2789 37.6192 44.4526 37.4456 44.6189 37.2651Z" stroke="#042B60" stroke-width="2"/>
<defs>
<clipPath id="clip0_164_2495">
<path d="M2 23.5833C2 16.4454 2 12.8764 4.11654 10.5792C4.26439 10.4187 4.41874 10.2644 4.57921 10.1165C6.8764 8 10.4454 8 17.5833 8H30.4167C37.5546 8 41.1236 8 43.4208 10.1165C43.5813 10.2644 43.7356 10.4187 43.8835 10.5792C46 12.8764 46 16.4454 46 23.5833C46 30.7213 46 34.2903 43.8835 36.5875C43.7356 36.7479 43.5813 36.9023 43.4208 37.0501C41.1236 39.1667 37.5546 39.1667 30.4167 39.1667H17.5833C10.4454 39.1667 6.8764 39.1667 4.57921 37.0501C4.41874 36.9023 4.26439 36.7479 4.11654 36.5875C2 34.2903 2 30.7213 2 23.5833Z" fill="white"/>
</clipPath>
</defs>
</svg>
