<svg width="48" height="48" viewBox="0 0 48 48" fill="none" xmlns="http://www.w3.org/2000/svg">
<g clip-path="url(#clip0_164_2574)">
<path fill-rule="evenodd" clip-rule="evenodd" d="M2 39.1667H46V8H2V39.1667Z" fill="#FED500"/>
<path fill-rule="evenodd" clip-rule="evenodd" d="M2 10.617H46V8H2V10.617Z" fill="#56A145"/>
<path fill-rule="evenodd" clip-rule="evenodd" d="M2 15.3754H46V12.7583H2V15.3754Z" fill="#56A145"/>
<path fill-rule="evenodd" clip-rule="evenodd" d="M2 20.1335H46V17.5165H2V20.1335Z" fill="#56A145"/>
<path fill-rule="evenodd" clip-rule="evenodd" d="M2 24.8918H46V22.2748H2V24.8918Z" fill="#56A145"/>
<path fill-rule="evenodd" clip-rule="evenodd" d="M2 29.65H46V27.033H2V29.65Z" fill="#56A145"/>
<path fill-rule="evenodd" clip-rule="evenodd" d="M2 34.4083H46V31.7913H2V34.4083Z" fill="#56A145"/>
<path fill-rule="evenodd" clip-rule="evenodd" d="M2 39.1665H46V36.5494H2V39.1665Z" fill="#56A145"/>
<path fill-rule="evenodd" clip-rule="evenodd" d="M2 20.1316H20.8571V8H2V20.1316Z" fill="#2B3189"/>
<path d="M3.7322 19.4028H3.59959V18.589C3.56749 18.6181 3.52571 18.6479 3.47424 18.677C3.42216 18.7062 3.37613 18.7284 3.33435 18.743V18.6193C3.40823 18.5855 3.47302 18.5452 3.52874 18.4974C3.58445 18.4495 3.6232 18.4034 3.64682 18.3585H3.7322V19.4028Z" fill="white"/>
<path d="M4.07263 19.1281L4.20525 19.1112C4.22039 19.1835 4.24643 19.2354 4.28276 19.2675C4.31909 19.2996 4.36391 19.3153 4.41659 19.3153C4.47896 19.3153 4.53165 19.2943 4.57464 19.2529C4.61764 19.2115 4.63883 19.1596 4.63883 19.0983C4.63883 19.0394 4.61885 18.9916 4.57949 18.9531C4.53952 18.9151 4.48926 18.8959 4.42749 18.8959C4.40266 18.8959 4.37117 18.9006 4.33423 18.9099L4.34877 18.7979C4.35785 18.799 4.36451 18.799 4.36996 18.799C4.42628 18.799 4.47715 18.785 4.52256 18.7565C4.56798 18.7279 4.59039 18.6841 4.59039 18.6252C4.59039 18.5785 4.57404 18.5394 4.54134 18.5085C4.50863 18.4776 4.46625 18.4624 4.41417 18.4624C4.36269 18.4624 4.3197 18.4782 4.28518 18.5091C4.25067 18.5406 4.22887 18.5873 4.21918 18.6497L4.08656 18.6269C4.10291 18.5412 4.13985 18.4753 4.19677 18.428C4.2543 18.3808 4.32576 18.3574 4.41114 18.3574C4.46988 18.3574 4.52438 18.3697 4.57404 18.3942C4.62369 18.4187 4.66184 18.4519 4.68788 18.4939C4.71392 18.5359 4.72724 18.5809 4.72724 18.6281C4.72724 18.673 4.71453 18.7139 4.6897 18.7506C4.66487 18.7874 4.62732 18.8171 4.57827 18.8387C4.64186 18.8527 4.69151 18.8825 4.72724 18.9268C4.76236 18.9717 4.78053 19.0277 4.78053 19.0948C4.78053 19.1858 4.74601 19.2628 4.67759 19.3258C4.60916 19.3888 4.52196 19.4203 4.41659 19.4203C4.32212 19.4203 4.2434 19.3929 4.18042 19.3387C4.11744 19.285 4.08172 19.2144 4.07263 19.1281Z" fill="white"/>
<path d="M5.3833 19.403V18.3628H5.75511C5.83929 18.3628 5.90348 18.3675 5.94708 18.378C6.00884 18.392 6.06153 18.4165 6.10573 18.4526C6.16266 18.4987 6.20505 18.5582 6.23351 18.6306C6.26197 18.7029 6.2759 18.7852 6.2759 18.8779C6.2759 18.9567 6.26621 19.0267 6.24743 19.0879C6.22806 19.1492 6.20383 19.1994 6.17356 19.2396C6.14388 19.2799 6.11058 19.3108 6.07546 19.3341C6.03973 19.3569 5.99673 19.3744 5.94647 19.3861C5.89621 19.3977 5.83808 19.4036 5.77328 19.4036H5.3833V19.403ZM5.52621 19.2799H5.75693C5.82839 19.2799 5.8841 19.2735 5.92467 19.2606C5.96524 19.2478 5.99734 19.2297 6.02156 19.207C6.05547 19.1743 6.08212 19.1305 6.10089 19.0751C6.11966 19.0203 6.12935 18.9532 6.12935 18.8744C6.12935 18.7653 6.11058 18.6819 6.07364 18.6236C6.0367 18.5652 5.99128 18.5261 5.9386 18.5063C5.90045 18.4923 5.83868 18.4847 5.7539 18.4847H5.52682V19.2799H5.52621Z" fill="white"/>
<path d="M6.47595 19.403V18.3628H7.25652V18.4853H6.61886V18.8038H7.21595V18.9258H6.61886V19.2799H7.28195V19.4024H6.47595V19.403Z" fill="white"/>
<path d="M7.89441 19.403V18.3628H8.10939L8.36494 19.0996C8.38855 19.1685 8.40551 19.2198 8.41641 19.2536C8.42852 19.2157 8.4479 19.1603 8.47394 19.0868L8.73252 18.3628H8.92448V19.403H8.78702V18.532L8.47333 19.403H8.34435L8.03187 18.5174V19.403H7.89441Z" fill="white"/>
<path d="M9.03613 19.403L9.45094 18.3628H9.60475L10.0468 19.403H9.88392L9.75796 19.0879H9.30621L9.18752 19.403H9.03613ZM9.348 18.9759H9.71436L9.60173 18.6877C9.56721 18.6002 9.54178 18.5285 9.52543 18.4719C9.5115 18.5384 9.49212 18.6049 9.46729 18.6708L9.348 18.9759Z" fill="white"/>
<path d="M10.1631 19.403V18.3628H10.6421C10.7384 18.3628 10.8116 18.3721 10.8619 18.3908C10.9122 18.4095 10.9521 18.4427 10.9818 18.49C11.0115 18.5372 11.0266 18.5897 11.0266 18.6469C11.0266 18.721 11.0018 18.7828 10.9521 18.8336C10.9025 18.8843 10.8262 18.9164 10.7226 18.9298C10.7602 18.9473 10.7892 18.9649 10.8086 18.9818C10.8504 19.0185 10.8898 19.0646 10.9273 19.12L11.115 19.403H10.9352L10.7923 19.1865C10.7505 19.1241 10.716 19.0763 10.6893 19.043C10.6621 19.0098 10.6378 18.987 10.6167 18.9736C10.5955 18.9602 10.5737 18.9514 10.5513 18.9462C10.5349 18.9427 10.5083 18.9415 10.4719 18.9415H10.306V19.4036H10.1631V19.403ZM10.306 18.8219H10.613C10.6784 18.8219 10.7293 18.8155 10.7662 18.8027C10.8032 18.7898 10.831 18.7688 10.8504 18.7402C10.8698 18.7117 10.8789 18.6807 10.8789 18.6469C10.8789 18.5979 10.8601 18.5571 10.8231 18.5256C10.7862 18.4941 10.7275 18.4783 10.6475 18.4783H10.306V18.8219Z" fill="white"/>
<path d="M12.0214 19.0386L12.1643 19.0736C12.1347 19.1869 12.0808 19.2734 12.0026 19.3324C11.9245 19.392 11.8294 19.4217 11.7174 19.4217C11.6012 19.4217 11.5067 19.399 11.4334 19.3534C11.3607 19.3078 11.305 19.2412 11.2669 19.1548C11.2287 19.0683 11.21 18.9749 11.21 18.8756C11.21 18.7669 11.2312 18.6723 11.2742 18.5917C11.3171 18.5111 11.3783 18.4497 11.4576 18.4077C11.537 18.3656 11.6242 18.3446 11.7192 18.3446C11.827 18.3446 11.9179 18.3709 11.9917 18.424C12.0656 18.4772 12.1165 18.552 12.1456 18.6478L12.0051 18.6799C11.9802 18.604 11.9439 18.5491 11.8961 18.5146C11.8482 18.4801 11.7883 18.4626 11.7162 18.4626C11.6332 18.4626 11.5636 18.4819 11.5079 18.5204C11.4522 18.559 11.4128 18.6104 11.3904 18.6752C11.368 18.7401 11.3565 18.8067 11.3565 18.875C11.3565 18.9638 11.3698 19.0409 11.3965 19.1069C11.4231 19.1729 11.4649 19.2226 11.5212 19.2553C11.5775 19.288 11.6387 19.3043 11.7047 19.3043C11.7846 19.3043 11.8525 19.2821 11.9082 19.2377C11.9639 19.1933 12.002 19.1262 12.0214 19.0386ZM11.5915 19.5129L11.6296 19.3873H11.7283L11.7041 19.4632C11.7459 19.4679 11.7774 19.4802 11.7986 19.5006C11.8198 19.521 11.8301 19.5432 11.8301 19.5678C11.8301 19.6034 11.8125 19.635 11.7768 19.6618C11.741 19.6887 11.6884 19.7027 11.6169 19.7027C11.5763 19.7027 11.5412 19.6998 11.5109 19.6939L11.5188 19.611C11.5503 19.6128 11.5733 19.6139 11.5878 19.6139C11.6339 19.6139 11.6666 19.6075 11.6853 19.5952C11.6993 19.5859 11.7065 19.5742 11.7065 19.5602C11.7065 19.5514 11.7035 19.5438 11.698 19.5374C11.6926 19.531 11.6817 19.5251 11.6666 19.5205C11.6514 19.5158 11.6266 19.5135 11.5915 19.5129Z" fill="white"/>
<path d="M12.2968 18.8953C12.2968 18.7226 12.3446 18.5872 12.4409 18.4898C12.5372 18.3924 12.6613 18.3434 12.8133 18.3434C12.9132 18.3434 13.0028 18.3661 13.0828 18.4122C13.1627 18.4583 13.2239 18.5219 13.2656 18.6042C13.3074 18.6864 13.3286 18.7792 13.3286 18.8836C13.3286 18.9892 13.3068 19.0837 13.2626 19.1665C13.2184 19.2499 13.156 19.313 13.0749 19.3555C12.9938 19.3981 12.9066 19.4197 12.8127 19.4197C12.711 19.4197 12.6201 19.3958 12.5402 19.3485C12.4603 19.3013 12.3997 19.2365 12.3585 19.1549C12.3173 19.0732 12.2968 18.9868 12.2968 18.8953ZM12.4439 18.8976C12.4439 19.023 12.479 19.1216 12.5487 19.1939C12.6189 19.2663 12.7061 19.3019 12.8121 19.3019C12.9199 19.3019 13.0083 19.2657 13.0779 19.1928C13.1476 19.1199 13.1821 19.0166 13.1821 18.8824C13.1821 18.7978 13.1669 18.7237 13.1373 18.6607C13.1076 18.5977 13.064 18.5487 13.0071 18.5137C12.9502 18.4787 12.886 18.4618 12.8145 18.4618C12.7134 18.4618 12.6262 18.4951 12.5535 18.5621C12.4808 18.6292 12.4439 18.7412 12.4439 18.8976Z" fill="white"/>
<path d="M13.9325 19.403V18.3628H14.3043C14.3885 18.3628 14.4527 18.3675 14.4963 18.378C14.558 18.392 14.6107 18.4165 14.6549 18.4526C14.7119 18.4987 14.7542 18.5582 14.7827 18.6306C14.8112 18.7029 14.8251 18.7852 14.8251 18.8779C14.8251 18.9567 14.8154 19.0267 14.7966 19.0879C14.7773 19.1492 14.753 19.1994 14.7228 19.2396C14.6931 19.2799 14.6598 19.3108 14.6247 19.3341C14.5889 19.3569 14.5459 19.3744 14.4957 19.3861C14.4454 19.3977 14.3873 19.4036 14.3225 19.4036H13.9325V19.403ZM14.0754 19.2799H14.3061C14.3776 19.2799 14.4333 19.2735 14.4739 19.2606C14.5144 19.2478 14.5465 19.2297 14.5708 19.207C14.6047 19.1743 14.6313 19.1305 14.6501 19.0751C14.6689 19.0203 14.6785 18.9532 14.6785 18.8744C14.6785 18.7653 14.6598 18.6819 14.6228 18.6236C14.5859 18.5652 14.5405 18.5261 14.4878 18.5063C14.4496 18.4923 14.3879 18.4847 14.3031 18.4847H14.076V19.2799H14.0754Z" fill="white"/>
<path d="M15.0251 19.403V18.3628H15.8057V18.4853H15.1681V18.8038H15.7651V18.9258H15.1681V19.2799H15.8311V19.4024H15.0251V19.403Z" fill="white"/>
<path d="M16.8925 19.4028H16.7599V18.589C16.7278 18.6181 16.686 18.6479 16.6345 18.677C16.5824 18.7062 16.5364 18.7284 16.4946 18.743V18.6193C16.5685 18.5855 16.6333 18.5452 16.689 18.4974C16.7447 18.4495 16.7835 18.4034 16.8071 18.3585H16.8925V19.4028Z" fill="white"/>
<path d="M17.4365 18.8386C17.3814 18.8194 17.3408 18.7914 17.3142 18.7558C17.2875 18.7196 17.2742 18.677 17.2742 18.6269C17.2742 18.551 17.3026 18.4874 17.359 18.4361C17.4153 18.3848 17.4904 18.3585 17.5842 18.3585C17.6787 18.3585 17.7544 18.3848 17.8119 18.4379C17.8695 18.4909 17.8979 18.5545 17.8979 18.6304C17.8979 18.6788 17.8846 18.7208 17.8586 18.7564C17.8325 18.792 17.7925 18.8194 17.7387 18.8392C17.8047 18.8602 17.8555 18.8935 17.89 18.9402C17.9246 18.9868 17.9421 19.0417 17.9421 19.1064C17.9421 19.1951 17.9094 19.2703 17.844 19.3304C17.7786 19.3905 17.6926 19.4214 17.5861 19.4214C17.4795 19.4214 17.3935 19.3911 17.3281 19.3304C17.2627 19.2698 17.23 19.1939 17.23 19.1029C17.23 19.0352 17.2475 18.9787 17.2833 18.9332C17.3202 18.8865 17.3705 18.855 17.4365 18.8386ZM17.3674 19.1023C17.3674 19.1385 17.3765 19.1741 17.3941 19.2079C17.4123 19.2418 17.4389 19.2686 17.474 19.2873C17.5091 19.3059 17.5473 19.3153 17.5885 19.3153C17.6521 19.3153 17.7041 19.2954 17.7453 19.2563C17.7865 19.2173 17.8071 19.1671 17.8071 19.1064C17.8071 19.0452 17.7859 18.9938 17.7435 18.9536C17.7011 18.9133 17.6478 18.8935 17.5842 18.8935C17.5219 18.8935 17.4704 18.9133 17.4292 18.953C17.388 18.9932 17.3674 19.0428 17.3674 19.1023ZM17.4098 18.6222C17.4098 18.6712 17.4262 18.7115 17.4589 18.743C17.4916 18.7745 17.5346 18.7896 17.5873 18.7896C17.6381 18.7896 17.6799 18.7739 17.7126 18.743C17.7453 18.712 17.7617 18.6741 17.7617 18.6292C17.7617 18.5825 17.7447 18.5429 17.7114 18.5114C17.6775 18.4793 17.6357 18.4635 17.5861 18.4635C17.5352 18.4635 17.4934 18.4793 17.4601 18.5102C17.4268 18.5411 17.4098 18.5785 17.4098 18.6222Z" fill="white"/>
<path d="M18.7683 19.2797V19.4022H18.0544C18.0532 19.3712 18.0586 19.3421 18.0701 19.3135C18.0883 19.2668 18.1173 19.2207 18.1573 19.1752C18.1973 19.1297 18.2554 19.0772 18.3305 19.0177C18.448 18.925 18.5273 18.8515 18.5685 18.7972C18.6097 18.7429 18.6302 18.6916 18.6302 18.6438C18.6302 18.593 18.6115 18.5504 18.5739 18.5154C18.5364 18.4804 18.4873 18.4635 18.4268 18.4635C18.3632 18.4635 18.3117 18.4822 18.2736 18.5189C18.2354 18.5557 18.216 18.607 18.2154 18.6724L18.0792 18.6589C18.0883 18.5609 18.1234 18.4863 18.1846 18.4349C18.2457 18.3836 18.3275 18.3579 18.4298 18.3579C18.5334 18.3579 18.6157 18.3853 18.6757 18.4408C18.7356 18.4962 18.7665 18.5644 18.7665 18.6467C18.7665 18.6881 18.7574 18.7295 18.7398 18.7692C18.7223 18.8089 18.6926 18.852 18.652 18.8964C18.6115 18.9407 18.543 19.002 18.4474 19.0796C18.368 19.1437 18.3166 19.1875 18.2942 19.2102C18.2718 19.233 18.253 19.2563 18.2385 19.2797H18.7683Z" fill="white"/>
<path d="M18.9111 19.1281L19.0438 19.1112C19.0589 19.1835 19.0849 19.2354 19.1213 19.2675C19.1576 19.2996 19.2024 19.3153 19.2551 19.3153C19.3175 19.3153 19.3701 19.2943 19.4131 19.2529C19.4561 19.2115 19.4773 19.1596 19.4773 19.0983C19.4773 19.0394 19.4573 18.9916 19.418 18.9531C19.378 18.9151 19.3278 18.8959 19.266 18.8959C19.2412 18.8959 19.2097 18.9006 19.1727 18.9099L19.1873 18.7979C19.1964 18.799 19.203 18.799 19.2085 18.799C19.2648 18.799 19.3156 18.785 19.3611 18.7565C19.4065 18.7279 19.4289 18.6841 19.4289 18.6252C19.4289 18.5785 19.4125 18.5394 19.3798 18.5085C19.3471 18.4776 19.3047 18.4624 19.2527 18.4624C19.2012 18.4624 19.1582 18.4782 19.1237 18.5091C19.0892 18.5406 19.0674 18.5873 19.0577 18.6497L18.9251 18.6269C18.9414 18.5412 18.9783 18.4753 19.0353 18.428C19.0928 18.3808 19.1643 18.3574 19.2496 18.3574C19.3084 18.3574 19.3629 18.3697 19.4125 18.3942C19.4622 18.4187 19.5003 18.4519 19.5264 18.4939C19.5524 18.5359 19.5657 18.5809 19.5657 18.6281C19.5657 18.673 19.553 18.7139 19.5282 18.7506C19.5034 18.7874 19.4658 18.8171 19.4168 18.8387C19.4804 18.8527 19.53 18.8825 19.5657 18.9268C19.6009 18.9717 19.619 19.0277 19.619 19.0948C19.619 19.1858 19.5845 19.2628 19.5161 19.3258C19.4477 19.3888 19.3605 19.4203 19.2551 19.4203C19.1606 19.4203 19.0819 19.3929 19.0189 19.3387C18.9559 19.285 18.9202 19.2144 18.9111 19.1281Z" fill="white"/>
<path fill-rule="evenodd" clip-rule="evenodd" d="M8.47353 17.3848L8.47332 17.385L9.60215 14.0325L6.646 11.9599H10.2991L11.4282 8.6062L11.4285 8.60808L11.4288 8.6062L12.5579 11.9599H16.2112L16.2111 11.9599L16.2114 11.9599L13.2554 14.0321L14.3843 17.3847L14.3845 17.3852L11.4289 15.3129L8.47332 17.3852L8.47353 17.3848Z" fill="white"/>
</g>
<path d="M44.6189 37.2651L43.8835 36.5875L44.6189 37.2651C45.8742 35.9026 46.4495 34.2029 46.7274 32.0274C47 29.8925 47 27.1635 47 23.6564V23.5833V23.5102C47 20.0031 47 17.2742 46.7274 15.1393C46.4495 12.9638 45.8742 11.2641 44.6189 9.90161C44.4526 9.72109 44.2789 9.54744 44.0984 9.38111C42.7359 8.12578 41.0362 7.55046 38.8607 7.27262C36.7258 6.99998 33.9968 6.99999 30.4897 7L30.4167 7H17.5833L17.5103 7C14.0032 6.99999 11.2742 6.99998 9.13931 7.27262C6.9638 7.55046 5.26409 8.12578 3.90161 9.38111C3.72109 9.54744 3.54744 9.72109 3.38111 9.90161C2.12578 11.2641 1.55046 12.9638 1.27262 15.1393C0.999977 17.2742 0.999987 20.0032 1 23.5103L1 23.5833L1 23.6564C0.999987 27.1635 0.999977 29.8925 1.27262 32.0274C1.55046 34.2029 2.12578 35.9026 3.38111 37.2651C3.54744 37.4456 3.72109 37.6192 3.90161 37.7856C5.26408 39.0409 6.9638 39.6162 9.13931 39.894C11.2742 40.1667 14.0032 40.1667 17.5102 40.1667H17.5833H30.4167H30.4898C33.9968 40.1667 36.7258 40.1667 38.8607 39.894C41.0362 39.6162 42.7359 39.0409 44.0984 37.7856C44.2789 37.6192 44.4526 37.4456 44.6189 37.2651Z" stroke="#042B60" stroke-width="2"/>
<defs>
<clipPath id="clip0_164_2574">
<path d="M2 23.5833C2 16.4454 2 12.8764 4.11654 10.5792C4.26439 10.4187 4.41874 10.2644 4.57921 10.1165C6.8764 8 10.4454 8 17.5833 8H30.4167C37.5546 8 41.1236 8 43.4208 10.1165C43.5813 10.2644 43.7356 10.4187 43.8835 10.5792C46 12.8764 46 16.4454 46 23.5833C46 30.7213 46 34.2903 43.8835 36.5875C43.7356 36.7479 43.5813 36.9023 43.4208 37.0501C41.1236 39.1667 37.5546 39.1667 30.4167 39.1667H17.5833C10.4454 39.1667 6.8764 39.1667 4.57921 37.0501C4.41874 36.9023 4.26439 36.7479 4.11654 36.5875C2 34.2903 2 30.7213 2 23.5833Z" fill="white"/>
</clipPath>
</defs>
</svg>
