<svg width="48" height="48" viewBox="0 0 48 48" fill="none" xmlns="http://www.w3.org/2000/svg">
<g clip-path="url(#clip0_164_4185)">
<path fill-rule="evenodd" clip-rule="evenodd" d="M2 15.796H46V8.00598H2V15.796Z" fill="#079247"/>
<path fill-rule="evenodd" clip-rule="evenodd" d="M2 31.3768H46V23.5862H2V31.3768Z" fill="#079247"/>
<path fill-rule="evenodd" clip-rule="evenodd" d="M2 23.5861H46V15.796H2V23.5861Z" fill="#F6C315"/>
<path fill-rule="evenodd" clip-rule="evenodd" d="M2 39.1669H46V31.3768H2V39.1669Z" fill="#F6C315"/>
<path fill-rule="evenodd" clip-rule="evenodd" d="M2 23.5801H17.7143V8H2V23.5801Z" fill="#2C286C"/>
<path fill-rule="evenodd" clip-rule="evenodd" d="M11.9684 18.6707L9.85709 17.1501L7.74576 18.6707L8.55249 16.2104L6.44116 14.6892H9.05092L9.85709 12.2289L10.6638 14.6892H13.2736L11.1623 16.2104L11.9684 18.6707Z" fill="white"/>
<path fill-rule="evenodd" clip-rule="evenodd" d="M5.74886 22.3503L4.69347 21.5897L3.63809 22.3503L4.04117 21.1198L2.98523 20.3592H4.29039L4.69347 19.1288L5.09656 20.3592H6.40172L5.34577 21.1198L5.74886 22.3503Z" fill="white"/>
<path fill-rule="evenodd" clip-rule="evenodd" d="M16.0759 12.1114L15.0199 11.3508L13.9646 12.1114L14.3676 10.881L13.3123 10.1209H14.6169L15.0199 8.8905L15.4236 10.1209H16.7282L15.6728 10.881L16.0759 12.1114Z" fill="white"/>
<path fill-rule="evenodd" clip-rule="evenodd" d="M5.74886 12.1114L4.69347 11.3508L3.63809 12.1114L4.04117 10.881L2.98523 10.1209H4.29039L4.69347 8.8905L5.09656 10.1209H6.40172L5.34577 10.881L5.74886 12.1114Z" fill="white"/>
<path fill-rule="evenodd" clip-rule="evenodd" d="M16.0759 22.3503L15.0199 21.5897L13.9646 22.3503L14.3676 21.1198L13.3123 20.3592H14.6169L15.0199 19.1288L15.4236 20.3592H16.7282L15.6728 21.1198L16.0759 22.3503Z" fill="white"/>
<path d="M2.05 8.05598H45.95V39.1133H2.05V8.05598Z" stroke="#E0E6EB" stroke-width="0.1" stroke-miterlimit="2.6131"/>
</g>
<path d="M3.90157 37.7857L4.56243 37.0684L3.90157 37.7857C5.26404 39.041 6.96378 39.6164 9.1393 39.8942C11.2742 40.1668 14.0032 40.1668 17.5103 40.1668H17.5834H30.4166H30.4897C33.9968 40.1668 36.7258 40.1668 38.8607 39.8942C41.0362 39.6164 42.736 39.041 44.0984 37.7857C44.2789 37.6194 44.4525 37.4458 44.6188 37.2653C45.8742 35.9028 46.4495 34.203 46.7274 32.0275C47 29.8926 47 27.1636 47 23.6565V23.5834V23.5103C47 20.0032 47 17.2742 46.7274 15.1393C46.4495 12.9638 45.8742 11.264 44.6189 9.90157C44.4525 9.72107 44.2789 9.54745 44.0984 9.38116C42.736 8.1258 41.0362 7.55047 38.8607 7.27263C36.7258 6.99998 33.9968 6.99999 30.4896 7L30.4166 7H17.5834L17.5104 7C14.0032 6.99999 11.2742 6.99998 9.1393 7.27263C6.96378 7.55047 5.26404 8.1258 3.90157 9.38115C3.72107 9.54746 3.54746 9.72107 3.38115 9.90157C2.1258 11.264 1.55047 12.9638 1.27263 15.1393C0.999977 17.2742 0.999987 20.0032 1 23.5104L1 23.5834L1 23.6565C0.999987 27.1636 0.999977 29.8926 1.27263 32.0275C1.55047 34.203 2.1258 35.9028 3.38115 37.2653C3.54746 37.4458 3.72107 37.6194 3.90157 37.7857Z" stroke="#042B60" stroke-width="2"/>
<defs>
<clipPath id="clip0_164_4185">
<path d="M2 23.5834C2 16.4454 2 12.8764 4.11658 10.5792C4.26441 10.4187 4.41873 10.2644 4.57917 10.1166C6.87637 8 10.4454 8 17.5834 8H30.4166C37.5546 8 41.1236 8 43.4208 10.1166C43.5813 10.2644 43.7356 10.4187 43.8834 10.5792C46 12.8764 46 16.4454 46 23.5834C46 30.7214 46 34.2905 43.8834 36.5877C43.7356 36.7481 43.5813 36.9024 43.4208 37.0502C41.1236 39.1668 37.5546 39.1668 30.4166 39.1668H17.5834C10.4454 39.1668 6.87637 39.1668 4.57917 37.0502C4.41873 36.9024 4.26441 36.7481 4.11658 36.5877C2 34.2905 2 30.7214 2 23.5834Z" fill="white"/>
</clipPath>
</defs>
</svg>
