<svg width="20" height="20" viewBox="0 0 20 20" fill="none" xmlns="http://www.w3.org/2000/svg">
<mask id="mask0_1838_26000" style="mask-type:alpha" maskUnits="userSpaceOnUse" x="0" y="0" width="20" height="20">
<circle cx="10" cy="10" r="10" fill="#C4C4C4"/>
</mask>
<g mask="url(#mask0_1838_26000)">
<rect width="20" height="20" fill="#D33939"/>
<rect width="11" height="12" fill="#0068B3"/>
<rect x="11" y="4" width="9" height="4" fill="#F0F0F0"/>
<rect y="12" width="20" height="4" fill="#F0F0F0"/>
<path d="M8.5 1L8.89675 1.95391L9.92658 2.03647L9.14196 2.70859L9.38168 3.71353L8.5 3.175L7.61832 3.71353L7.85804 2.70859L7.07342 2.03647L8.10325 1.95391L8.5 1Z" fill="white"/>
<path d="M8.5 8L8.89675 8.95391L9.92658 9.03647L9.14196 9.70859L9.38168 10.7135L8.5 10.175L7.61832 10.7135L7.85804 9.70859L7.07342 9.03647L8.10325 8.95391L8.5 8Z" fill="white"/>
<path d="M3.5 8L3.89675 8.95391L4.92658 9.03647L4.14196 9.70859L4.38168 10.7135L3.5 10.175L2.61832 10.7135L2.85804 9.70859L2.07342 9.03647L3.10325 8.95391L3.5 8Z" fill="white"/>
<path d="M6 4.5L6.39675 5.45391L7.42658 5.53647L6.64196 6.20859L6.88168 7.21353L6 6.675L5.11832 7.21353L5.35804 6.20859L4.57342 5.53647L5.60325 5.45391L6 4.5Z" fill="white"/>
<path d="M0.5 4.5L0.896755 5.45391L1.92658 5.53647L1.14196 6.20859L1.38168 7.21353L0.5 6.675L-0.381678 7.21353L-0.141963 6.20859L-0.926585 5.53647L0.103245 5.45391L0.5 4.5Z" fill="white"/>
<path d="M3.5 1L3.89675 1.95391L4.92658 2.03647L4.14196 2.70859L4.38168 3.71353L3.5 3.175L2.61832 3.71353L2.85804 2.70859L2.07342 2.03647L3.10325 1.95391L3.5 1Z" fill="white"/>
</g>
</svg>
