<svg width="16" height="16" fill="none" xmlns="http://www.w3.org/2000/svg"><path d="M2.985 1.468c-.334.029-.652.122-.766.223-.187.163-.28.525-.282 1.096-.002.515.09.923.306 1.352.042.084.077.159.077.166a.49.49 0 0 1-.127.079A3.214 3.214 0 0 0 .842 5.733c-.25.49-.353.914-.38 1.56-.045 1.08.235 2.281.804 3.44.837 1.705 2.056 2.817 3.086 2.813.215-.001.332-.029.731-.173.53-.192.775-.198 1.224-.027.42.159.64.168.83.034l.093-.067.351.224c1.143.727 2.369 1.157 3.766 1.32.415.049 1.437.041 1.857-.013.452-.059.722-.112.818-.161a.547.547 0 0 0 .24-.289c.057-.187.088-10.953.032-11.101-.073-.191-.293-.331-.521-.332-.108-.001-.168.019-.307.101-.173.101-8.766 5.528-9.036 5.707a.581.581 0 0 0-.269.471c-.001.205.373 1.009.747 1.608.207.331.556.801.791 1.065.095.107.162.194.15.194-.367.012-.84.112-1.213.256-.274.106-.318.109-.515.035-.585-.219-1.353-1.095-1.852-2.113-.453-.923-.67-1.731-.711-2.646-.026-.578.086-1.116.312-1.498.116-.194.422-.52.61-.648.46-.312 1.06-.497 1.777-.549.239-.018.249-.016.468.078.359.155.645.213 1.048.213.418 0 .687-.052.987-.19.197-.091.231-.098.44-.094.471.009.939.199 1.304.528.244.221.344.266.551.249a.532.532 0 0 0 .484-.49c.023-.219-.073-.392-.346-.624-.596-.508-1.335-.773-2.153-.774-.289 0-.315.005-.453.079a1.162 1.162 0 0 1-.171.08c-.065.003.108-.762.248-1.09.046-.109.13-.266.187-.348.162-.238.189-.306.189-.474 0-.22-.099-.373-.305-.474-.125-.061-.171-.07-.275-.056a.837.837 0 0 0-.219.065c-.125.064-.334.344-.49.656l-.126.252-.192-.193a3.08 3.08 0 0 0-2.448-.869m.873 1.169c.172.056.419.175.555.267.313.213.664.706.743 1.044l.016.069-.179-.091-.18-.092-.453.015c-.4.014-.621.036-.873.087-.065.013-.083-.002-.178-.149-.186-.288-.32-.813-.281-1.104l.018-.13.324.015c.218.01.377.032.488.069m9.354 8.901c-.016.355-.021.378-.075.395-.12.036-1.051.047-1.353.016-1.03-.107-1.85-.434-2.703-1.077-.266-.2-.929-.861-1.17-1.165-.338-.427-.872-1.207-.871-1.273 0-.011 1.389-.898 3.087-1.97l3.086-1.95.008 3.323a215.1 215.1 0 0 1-.009 3.701m-1.465-5.249c-.168.08-.253.192-.464.608-.103.203-.11.371-.023.544.18.355.702.395.923.07.041-.061.131-.214.199-.34.109-.2.125-.25.124-.387a.505.505 0 0 0-.233-.448.552.552 0 0 0-.526-.047m-2.168.968c-.138.068-.196.142-.379.484-.136.255-.139.266-.129.445.009.157.023.199.092.286.234.289.628.299.858.02.043-.053.142-.22.22-.371.134-.263.14-.281.124-.43a.541.541 0 0 0-.786-.434m2.488 1.352c-.151.072-.227.165-.397.487-.121.227-.15.306-.15.407 0 .318.227.55.537.55.283 0 .393-.096.645-.562.109-.2.125-.25.124-.387a.505.505 0 0 0-.233-.448.552.552 0 0 0-.526-.047m-5.687.848c1.217 1.87 2.671 3.013 4.348 3.421.636.154.84.175 1.692.175h.78v.337c0 .283-.007.34-.042.354-.023.009-.245.03-.492.047-1.308.089-2.721-.22-3.946-.861a7.66 7.66 0 0 1-2.914-2.719c-.176-.285-.393-.695-.393-.742 0-.014.153-.123.34-.241.295-.187.344-.21.367-.172.015.024.131.204.26.401" fill-rule="evenodd" fill="#000"/></svg>