<svg width="16" height="16" fill="none" xmlns="http://www.w3.org/2000/svg"><path d="M7.627.91c-.5.057-1.007.267-1.474.61-.18.132-4.418 4.527-4.568 4.737a3.09 3.09 0 0 0-.531 1.248c-.06.347-.061 5.677-.001 6.023A2.997 2.997 0 0 0 3.64 15.97c.336.042 8.384.042 8.72 0a3.005 3.005 0 0 0 2.599-2.503c.017-.111.027-1.172.027-2.95.001-3.019.001-3.003-.15-3.449a3.524 3.524 0 0 0-.421-.811c-.15-.21-4.388-4.605-4.568-4.737-.485-.356-.966-.551-1.509-.611a2.566 2.566 0 0 0-.711.001m.698 2.022a.986.986 0 0 1 .222.115c.068.048 1.058 1.056 2.201 2.242 2.237 2.322 2.19 2.267 2.24 2.608.035.243.032 5.031-.003 5.25a1.236 1.236 0 0 1-.087.291c-.085.174-.31.392-.49.476l-.155.073-.873.008-.873.008-.001-1.715c0-1.002-.011-1.814-.027-1.955a1.912 1.912 0 0 0-.623-1.231 1.995 1.995 0 0 0-.749-.456l-.214-.072H8c-.893 0-.893 0-1.098.069a2 2 0 0 0-.759.457 1.94 1.94 0 0 0-.624 1.241c-.014.128-.025 1.004-.025 1.947l-.001 1.715-.873-.008-.873-.008-.154-.072a1.222 1.222 0 0 1-.491-.475 1.269 1.269 0 0 1-.087-.293c-.035-.219-.038-5.007-.003-5.25.049-.34.015-.299 2.084-2.449 2.146-2.228 2.3-2.384 2.427-2.45.222-.115.55-.142.802-.066m.182 9.348V14H7.493v-3.44h1.014v1.72" fill-rule="evenodd" fill="#000"/></svg>