<svg width="24" height="24" fill="none" xmlns="http://www.w3.org/2000/svg"><path d="M14.56 4.28c-.409.05-.75.152-1.154.342-1.146.541-1.893 1.48-2.229 2.804a3.436 3.436 0 0 0-.097.499c0 .063-.007.115-.014.115-.008 0-.166-.07-.35-.157a2.937 2.937 0 0 0-1.219-.31c-.717-.044-1.425.118-2.177.498-.511.258-.933.545-1.72 1.17-1.172.931-2.443 1.726-3.444 2.154-.473.203-1.128.419-1.416.468-.566.097-.843.673-.547 1.139.062.098.246.301.408.451a5.743 5.743 0 0 0 2.18 1.264c.699.224 1.158.293 1.932.293l.653-.001-.23.139c-1.094.659-2.434 1.037-3.816 1.079-.741.022-.866.048-1.069.227a.69.69 0 0 0-.175.846c.091.197.182.28.564.509 1.188.712 2.848 1.255 4.64 1.518.83.122 2.701.133 3.46.019 1.429-.212 2.679-.599 3.824-1.181 2.518-1.281 3.893-3.088 4.214-5.537.075-.572.077-1.445.004-1.908l-.053-.34.3-.29c.534-.517 1.106-.727 1.664-.612 1.008.21 2.287 1.521 3.439 3.527l.106.186-.189.081c-1.047.445-2.148.414-3.193-.091-.526-.254-.837-.241-1.103.044-.14.149-.193.296-.192.528.001.376.25.629.879.894 1.521.639 3.117.574 4.593-.187.567-.292.795-.465.889-.673.161-.354.098-.543-.555-1.647-1.391-2.353-2.821-3.741-4.223-4.099-.427-.109-1.095-.111-1.513-.004a3.9 3.9 0 0 0-1.003.452c-.062.044-.12.073-.128.064-.009-.009.001-.139.022-.29.098-.689.588-1.108 1.598-1.366.482-.123.579-.166.727-.323a.667.667 0 0 0 .193-.494c0-.358-.151-.533-.697-.808-1.588-.8-2.791-1.115-3.783-.992m1.059 1.541c.154.032.378.087.498.122l.218.063-.138.103c-.297.223-.7.678-.843.952-.283.54-.334.786-.333 1.599.002.652.016.803.156 1.6.131.751.153.96.149 1.428-.012 1.69-.612 3.043-1.799 4.057-1.785 1.525-4.513 2.361-7.111 2.18a12.985 12.985 0 0 1-2.55-.411l-.314-.085.514-.169c1.569-.517 2.945-1.413 3.797-2.475.297-.37.599-.938.638-1.201a.753.753 0 0 0-.483-.807c-.238-.091-.397-.063-.878.153-1.346.606-2.609.742-3.764.408-.396-.115-.994-.378-.948-.417.018-.015.158-.078.312-.142 1.133-.466 2.446-1.294 3.96-2.498.733-.583 1.27-.909 1.772-1.078 1.189-.401 2.171.069 2.853 1.366.241.46.392.591.711.622.263.025.451-.045.619-.231.256-.283.262-.416.053-1.122-.279-.947-.225-1.872.156-2.667.339-.706.981-1.231 1.676-1.37.264-.053.782-.043 1.079.02" fill="#031D40" fill-rule="evenodd"/></svg>