<svg width="40" height="40" viewBox="0 0 40 40" fill="none" xmlns="http://www.w3.org/2000/svg">
<g clip-path="url(#clip0_1756_28066)">
<path d="M10.3438 23.2488L11.6016 22.3674C16.2122 19.4265 17.6229 15.9209 18.5087 10.327C18.7899 8.55534 19.3081 6.86792 21.8371 8.13019C23.4958 8.95839 24.9308 11.7532 24.1159 14.8269L22.7605 19.9425H33.2641C34.5905 19.9425 35.6734 21.0275 35.6734 22.3518C35.6734 23.6783 34.5905 24.7612 33.2641 24.7612C34.5905 24.7612 35.6734 25.8463 35.6734 27.1706C35.6734 28.4971 34.5905 29.58 33.2641 29.58C34.5905 29.58 35.6734 30.665 35.6734 31.9893C35.6734 33.3158 34.5905 34.401 33.2641 34.401H31.4305C32.7548 34.401 33.8398 35.4839 33.8398 36.8103C33.8398 38.1346 32.7548 39.2197 31.4305 39.2197H20.5328C18.0083 39.2197 13.546 37.9619 11.6016 36.3187L10.7756 35.6145" stroke="#042B60" stroke-width="2" stroke-miterlimit="10" stroke-linecap="round" stroke-linejoin="round"/>
<path d="M33.2607 24.7617H29.9766" stroke="#042B60" stroke-width="2" stroke-miterlimit="10" stroke-linecap="round" stroke-linejoin="round"/>
<path d="M33.2607 29.5781H29.9766" stroke="#042B60" stroke-width="2" stroke-miterlimit="10" stroke-linecap="round" stroke-linejoin="round"/>
<path d="M31.427 34.3984H29.9766" stroke="#042B60" stroke-width="2" stroke-miterlimit="10" stroke-linecap="round" stroke-linejoin="round"/>
<path d="M14.2166 4.50086L12.8281 3.26953" stroke="#042B60" stroke-width="2" stroke-miterlimit="10" stroke-linecap="round" stroke-linejoin="round"/>
<path d="M28.375 4.50086L29.7635 3.26953" stroke="#042B60" stroke-width="2" stroke-miterlimit="10" stroke-linecap="round" stroke-linejoin="round"/>
<path d="M9.82812 10.0273L11.6839 10.1048" stroke="#042B60" stroke-width="2" stroke-miterlimit="10" stroke-linecap="round" stroke-linejoin="round"/>
<path d="M32.7581 10.0273L30.9023 10.1048" stroke="#042B60" stroke-width="2" stroke-miterlimit="10" stroke-linecap="round" stroke-linejoin="round"/>
<path fill-rule="evenodd" clip-rule="evenodd" d="M3.54688 21.484V37.2027C3.54688 37.9645 4.17141 38.589 4.9332 38.589H10.2148C10.9766 38.589 11.6012 37.9645 11.6012 37.2027V36.3191V22.3676V21.484C11.6012 20.7222 10.9766 20.0977 10.2148 20.0977H4.93313C4.17133 20.0977 3.54688 20.7222 3.54688 21.484Z" fill="#FFE342"/>
<path d="M7.75781 24.4297V24.4355" stroke="#042B60" stroke-width="2" stroke-miterlimit="10" stroke-linecap="round" stroke-linejoin="round"/>
<path d="M21.2969 2.63703V0.78125" stroke="#042B60" stroke-width="2" stroke-miterlimit="10" stroke-linecap="round" stroke-linejoin="round"/>
</g>
<defs>
<clipPath id="clip0_1756_28066">
<rect width="40" height="40" fill="white"/>
</clipPath>
</defs>
</svg>
