<svg width="48" height="48" fill="none" xmlns="http://www.w3.org/2000/svg"><path d="M18.04 8.089c-2.652.996-5.219 2.806-6.976 4.919-2.741 3.297-4.023 6.805-4.024 11.008-.001 5.754 2.792 10.957 7.6 14.16 2.731 1.819 5.972 2.784 9.344 2.784 4.203-.001 7.711-1.283 11.008-4.024 2.117-1.759 3.965-4.388 4.924-7.001.373-1.018.297-1.538-.265-1.804-.358-.17-.437-.166-1.287.069-1.713.474-4.662.807-6.364.719-4.149-.213-6.944-1.322-9.342-3.705-2.204-2.19-3.364-5.111-3.579-9.014-.098-1.77.225-4.721.722-6.585.235-.886.237-.911.068-1.266-.266-.561-.818-.639-1.829-.26m-.613 3.211c-.379 2.227-.409 5.572-.068 7.5.557 3.152 1.773 5.639 3.773 7.723 2.077 2.163 4.751 3.529 8.068 4.119 1.911.341 5.274.309 7.5-.069.976-.166.957-.231.282.955-1.103 1.94-2.856 3.771-4.86 5.078-4.282 2.791-9.907 3.166-14.482.965-1.691-.813-2.955-1.704-4.231-2.98C9.577 30.76 8.122 25.286 9.531 20c.804-3.017 2.899-6.088 5.469-8.015.663-.497 2.321-1.501 2.483-1.504.054-.001.035.287-.056.819" fill-rule="evenodd" fill="#000"/></svg>