<svg width="16" height="16" fill="none" xmlns="http://www.w3.org/2000/svg"><path d="M5.053 1.52c-.47.054-.732.16-.83.337-.15.272-.219 1.095-.131 1.57.081.437.226.829.424 1.147l.067.108-.285.19c-1.309.878-1.974 2.411-1.75 4.04.126.915.478 1.943 1.035 3.02.365.708.717 1.197 1.169 1.629.835.797 1.725 1.068 2.835.862.205-.038.621-.038.826 0 1.11.206 2-.065 2.835-.862.593-.565 1.085-1.341 1.566-2.467.732-1.713.865-3.074.42-4.281-.588-1.593-2.122-2.645-3.919-2.686l-.298-.007-.227.12c-.124.066-.234.112-.243.102-.024-.023.08-.627.159-.923.089-.33.208-.63.325-.82.235-.38.262-.48.181-.673a.458.458 0 0 0-.452-.305c-.19-.002-.33.08-.462.27s-.27.446-.366.679l-.076.183-.063-.077a3.388 3.388 0 0 0-1.06-.856 3.24 3.24 0 0 0-1.68-.3m.803 1.04a2.18 2.18 0 0 1 1.438 1.21c.093.204.188.544.159.572-.009.01-.119-.036-.244-.102l-.226-.12-.311.008a5.06 5.06 0 0 0-.978.123c-.088.021-.166.03-.174.019-.339-.478-.464-.844-.466-1.363 0-.169.008-.328.018-.354.029-.069.498-.065.784.007m1.018 2.636c.359.18.681.252 1.126.252.447 0 .766-.072 1.133-.255.151-.076.171-.079.381-.063.788.061 1.54.403 2.088.949.514.512.803 1.139.881 1.908.069.686-.103 1.528-.523 2.56-.429 1.056-.871 1.781-1.383 2.273-.601.577-1.157.76-1.924.633a3.378 3.378 0 0 0-1.093-.026c-.511.073-.833.08-1.059.025-.959-.235-1.772-1.196-2.468-2.919-.414-1.027-.584-1.864-.516-2.546.078-.769.367-1.396.881-1.908a3.244 3.244 0 0 1 1.626-.878c.466-.103.651-.104.85-.005m-.098 2.903c-.095.018-.31.247-.332.352a7.213 7.213 0 0 0-.017.607c0 .644.03.742.272.865a.508.508 0 0 0 .563-.078c.146-.138.151-.167.151-.805 0-.525-.005-.599-.05-.688-.111-.216-.315-.304-.587-.253m2.105.023a.43.43 0 0 0-.244.23c-.045.089-.05.163-.05.688 0 .638.005.667.151.805a.499.499 0 0 0 .811-.215c.018-.06.025-.308.02-.661l-.009-.564-.082-.103c-.155-.195-.396-.267-.597-.18" fill-rule="evenodd" fill="#000"/></svg>