<svg width="64" height="64" viewBox="0 0 64 64" fill="none" xmlns="http://www.w3.org/2000/svg">
<path fill-rule="evenodd" clip-rule="evenodd" d="M42.1467 29.5382C45.0493 26.8445 46.8712 23.0011 46.8712 18.7372C46.8712 18.0995 46.8255 17.4716 46.7474 16.8542C52.6461 17.4856 57.2573 22.4913 57.2573 28.5567C57.2573 32.0021 55.7596 35.0966 53.39 37.2517C51.1716 33.0962 47.0224 30.124 42.1467 29.5382ZM52.1532 44.1673C52.1532 50.6552 46.8725 55.9358 40.3818 55.9358C38.2696 55.9358 36.2937 55.3691 34.5781 54.3917C37.082 51.7493 38.6254 48.1837 38.6254 44.265C38.6254 43.3003 38.5283 42.3574 38.3511 41.4447C40.4669 42.6204 42.8991 43.2933 45.488 43.2933C47.7901 43.2933 49.972 42.7617 51.9141 41.8146C52.0702 42.5754 52.1532 43.3622 52.1532 44.1673ZM12.1141 44.2647C12.1141 43.428 12.2034 42.6123 12.3715 41.8255C14.3108 42.7656 16.4842 43.293 18.7792 43.293C21.3591 43.293 23.7835 42.625 25.8951 41.4556C25.7305 42.3346 25.6398 43.2402 25.6398 44.167C25.6398 48.1475 27.2317 51.7623 29.806 54.4174C28.0643 55.4377 26.0441 56.0332 23.8848 56.0332C17.3933 56.0332 12.1141 50.7533 12.1141 44.2647ZM7.00796 28.5567C7.00796 22.4913 11.6178 17.4863 17.5165 16.8542C17.4377 17.4716 17.3927 18.0995 17.3927 18.7372C17.3927 23.0454 19.2518 26.9275 22.2071 29.6247C17.3189 30.1809 13.1492 33.1355 10.9076 37.2827C8.52112 35.1275 7.00796 32.0182 7.00796 28.5567ZM32.1317 6.96776C36.9545 6.96776 41.1038 9.8844 42.9214 14.0456C38.133 14.8901 34.1356 18.05 32.1317 22.3273C30.1298 18.0493 26.1317 14.8894 21.3433 14.0456C23.1609 9.8844 27.3095 6.96776 32.1317 6.96776ZM34.9349 33.7416C36.5655 32.8866 38.4141 32.3958 40.3801 32.3958C45.0075 32.3958 49.0084 35.0874 50.9315 38.9807C49.3002 39.8365 47.4488 40.3266 45.4863 40.3266C40.8575 40.3266 36.8566 37.6349 34.9349 33.7416ZM29.2907 33.8216C27.3543 37.6721 23.3759 40.3271 18.7794 40.3271C16.8296 40.3271 14.993 39.8413 13.3722 38.9996C15.3087 35.1492 19.2885 32.4941 23.885 32.4941C25.8355 32.4941 27.67 32.9786 29.2907 33.8216ZM20.5134 16.927C26.1815 17.7701 30.5487 22.6556 30.5487 28.5564C30.5487 29.1716 30.4861 29.7735 30.394 30.3648C24.726 29.5211 20.3601 24.6363 20.3601 18.7369C20.3601 18.1203 20.4213 17.5184 20.5134 16.927ZM32.1874 52.5987C29.9837 50.459 28.6098 47.472 28.6098 44.168C28.6098 40.9138 29.9394 37.9641 32.0791 35.8315C34.2806 37.9711 35.6567 40.9588 35.6567 44.2657C35.6567 47.5177 34.3284 50.4667 32.1874 52.5987ZM43.9022 18.7381C43.9022 24.6374 39.5364 29.5222 33.8683 30.366C33.7762 29.7746 33.715 29.1727 33.715 28.5575C33.715 22.6567 38.0809 17.7719 43.7482 16.9289C43.8403 17.5195 43.9022 18.1214 43.9022 18.7381ZM60.2235 28.5566C60.2235 20.6097 53.9023 14.1176 46.0271 13.8307C44.0013 8.10988 38.5379 4 32.1315 4C25.7258 4 20.2638 8.10988 18.2359 13.8307C10.3614 14.1183 4.04297 20.6104 4.04297 28.5566C4.04297 33.2719 6.27123 37.4739 9.7293 40.174C9.35382 41.4741 9.1471 42.8452 9.1471 44.2649C9.1471 52.3883 15.7588 59 23.8857 59C26.9697 59 29.8336 58.0458 32.2032 56.4195C34.5447 57.9868 37.3566 58.9023 40.3794 58.9023C48.5056 58.9023 55.1173 52.2906 55.1173 44.1672C55.1173 42.7756 54.9204 41.4319 54.559 40.1571C58.003 37.4563 60.2235 33.2614 60.2235 28.5566Z" fill="#19486A"/>
</svg>
