<svg width="64" height="64" viewBox="0 0 64 64" fill="none" xmlns="http://www.w3.org/2000/svg">
<path fill-rule="evenodd" clip-rule="evenodd" d="M41.8639 35.1052H22.1308C22.0118 35.1052 21.916 35.2129 21.916 35.3445V41.275C21.916 41.4098 22.0118 41.5162 22.1308 41.5162H41.8639C41.9849 41.5162 42.0807 41.4098 42.0807 41.275V35.3445C42.0807 35.2129 41.9849 35.1052 41.8639 35.1052Z" fill="#DD1367"/>
<path fill-rule="evenodd" clip-rule="evenodd" d="M41.8639 22.4844H22.1308C22.0118 22.4844 21.916 22.5921 21.916 22.7236V28.6541C21.916 28.7889 22.0118 28.8953 22.1308 28.8953H41.8639C41.9849 28.8953 42.0807 28.7889 42.0807 28.6541V22.7236C42.0807 22.5921 41.9849 22.4844 41.8639 22.4844Z" fill="#DD1367"/>
<path fill-rule="evenodd" clip-rule="evenodd" d="M41.5883 13.5201L32.1163 4.04808C32.0522 3.98397 31.9491 3.98397 31.885 4.04808L22.413 13.5201C22.3099 13.6232 22.3826 13.7997 22.5286 13.7997H41.4727C41.6187 13.7997 41.6914 13.6232 41.5883 13.5201Z" fill="#DD1367"/>
<path fill-rule="evenodd" clip-rule="evenodd" d="M50.4792 41.5884L59.9513 32.1164C60.0154 32.0523 60.0154 31.9492 59.9513 31.8851L50.4792 22.4131C50.3762 22.31 50.1997 22.3827 50.1997 22.5287V41.4728C50.1997 41.6182 50.3762 41.6915 50.4792 41.5884Z" fill="#DD1367"/>
<path fill-rule="evenodd" clip-rule="evenodd" d="M22.413 50.4802L31.885 59.9523C31.9491 60.0164 32.0522 60.0164 32.1163 59.9523L41.5883 50.4802C41.6914 50.3771 41.6187 50.2007 41.4727 50.2007H22.5286C22.3826 50.2007 22.3099 50.3771 22.413 50.4802Z" fill="#DD1367"/>
<path fill-rule="evenodd" clip-rule="evenodd" d="M13.5191 22.4129L4.0471 31.885C3.983 31.9491 3.983 32.0522 4.0471 32.1163L13.5191 41.5883C13.6216 41.6914 13.798 41.6187 13.798 41.4727V22.5286C13.798 22.3832 13.6216 22.3098 13.5191 22.4129Z" fill="#DD1367"/>
</svg>
