<svg width="64" height="64" viewBox="0 0 64 64" fill="none" xmlns="http://www.w3.org/2000/svg">
<path fill-rule="evenodd" clip-rule="evenodd" d="M23.4039 52.917V54.3084C23.4026 54.3176 23.3989 54.3293 23.3989 54.3392C23.3989 54.3515 23.4026 54.3625 23.4039 54.3724C23.418 54.7167 23.699 54.9909 24.0458 54.9977C24.0501 54.9977 24.0538 55.0001 24.0581 55.0001C24.063 55.0001 24.0691 54.9977 24.0747 54.9977H40.3961C40.4004 54.9977 40.4047 55.0001 40.4096 55.0001C40.4145 55.0001 40.4195 54.9977 40.4244 54.9977C40.781 54.9909 41.0657 54.7007 41.0681 54.3441C41.0681 54.3428 41.07 54.3416 41.07 54.3392C41.07 54.3392 41.0681 54.3373 41.0681 54.3349V52.7602C50.256 49.7486 57.1387 42.3015 58.6525 33.2268C58.6562 33.2071 58.6586 33.1892 58.6617 33.1726C58.6672 33.1407 58.6703 33.1118 58.6703 33.081C58.6703 32.7164 58.3764 32.4213 58.0106 32.4213H5.99228C5.62521 32.4213 5.33008 32.7164 5.33008 33.081L5.36451 33.378C6.95454 42.5394 14.0266 50.0278 23.4039 52.917Z" fill="#DDA63A"/>
<path fill-rule="evenodd" clip-rule="evenodd" d="M41.0516 10.2205C40.837 10.5255 35.8118 17.7611 41.1641 23.6115C43.6186 26.2966 43.4053 28.6662 42.7043 30.2667H46.1377C46.8331 27.9038 46.5466 24.9402 43.7588 21.8948C39.8151 17.584 43.8092 11.7564 43.8695 11.6666C44.3405 11.002 44.0878 10.1449 43.3124 9.7452C42.5334 9.34739 41.5244 9.56013 41.0516 10.2205Z" fill="#DDA63A"/>
<path fill-rule="evenodd" clip-rule="evenodd" d="M32.3586 30.2663H35.7932C36.4873 27.9028 36.199 24.941 33.4118 21.895C29.4669 17.583 33.4579 11.7585 33.5213 11.6632C33.9892 11.0016 33.7414 10.1457 32.9624 9.7448C32.187 9.34821 31.1756 9.55911 30.7052 10.2201C30.4894 10.5244 25.4592 17.7607 30.8165 23.6117C33.271 26.2974 33.0577 28.6671 32.3586 30.2663Z" fill="#DDA63A"/>
<path fill-rule="evenodd" clip-rule="evenodd" d="M20.3547 10.2201C20.137 10.525 15.1118 17.7607 20.4654 23.6111C22.9211 26.2974 22.7084 28.6671 22.0093 30.2663H25.4426C26.1368 27.9046 25.8503 24.941 23.0601 21.8944C19.1151 17.5836 23.1093 11.756 23.1726 11.6638C23.6393 11.0016 23.3903 10.1444 22.6118 9.74478C21.8359 9.34451 20.8257 9.55848 20.3547 10.2201Z" fill="#DDA63A"/>
</svg>
