<svg width="64" height="64" viewBox="0 0 64 64" fill="none" xmlns="http://www.w3.org/2000/svg">
<g clip-path="url(#clip0_4125_46033)">
<path fill-rule="evenodd" clip-rule="evenodd" d="M59.6667 28.8212C58.3619 28.8212 56.7877 30.2506 55.9325 31.129C55.0778 30.2488 53.608 28.8188 52.302 28.8188C49.6917 28.8188 47.8625 30.9967 47.8625 33.6829C47.8625 35.0257 48.3916 36.2416 49.2481 37.1218L55.9384 43.8252L62.6204 37.1295L62.6151 37.1248C63.4709 36.244 64.0006 35.0275 64.0006 33.6841C64.0006 30.9985 62.2776 28.8212 59.6667 28.8212Z" fill="#4C9F38"/>
<path fill-rule="evenodd" clip-rule="evenodd" d="M35.5121 54.7683C35.4896 54.7683 35.4671 54.7677 35.4439 54.7666C34.935 54.7351 34.5151 54.3579 34.4291 53.8549L31.0306 34.0615L25.8823 43.6071C25.6575 44.0252 25.186 44.25 24.7234 44.167C24.2554 44.084 23.8954 43.7103 23.8278 43.2411L21.6422 27.9655L17.644 36.947C17.4672 37.3432 17.074 37.5989 16.6404 37.5989H1.09904C0.491692 37.5989 0 37.1066 0 36.5004C0 35.8931 0.491692 35.4014 1.09904 35.4014H15.9269L21.186 23.5877C21.3853 23.1405 21.8563 22.8795 22.3414 22.9466C22.826 23.0142 23.208 23.3944 23.2774 23.8789L25.5312 39.6303L30.6077 30.2164C30.8301 29.803 31.2898 29.577 31.753 29.6541C32.215 29.7294 32.5786 30.0906 32.6581 30.5527L35.8045 48.8846L47.2754 10.7818C47.4064 10.3476 47.7896 10.0386 48.241 10.003C48.6941 9.9698 49.1211 10.213 49.3175 10.621L55.353 23.1334C55.6163 23.6796 55.3874 24.3368 54.8411 24.6002C54.2949 24.8641 53.6377 24.6346 53.3738 24.0877L48.5654 14.1198L36.5631 53.986C36.4232 54.4528 35.9937 54.7683 35.5121 54.7683Z" fill="#4C9F38"/>
</g>
<defs>
<clipPath id="clip0_4125_46033">
<rect width="64" height="64" fill="white"/>
</clipPath>
</defs>
</svg>
