<svg width="309" height="65" viewBox="0 0 309 65" fill="none" xmlns="http://www.w3.org/2000/svg">
<path d="M159.666 25.3297L157.31 27.3719C156.328 28.0002 155.15 28.3144 153.815 28.3144C152.205 28.3144 150.869 27.8824 149.848 26.9399C148.788 25.9973 148.277 24.7799 148.277 23.2875C148.277 20.342 150.28 18.4569 154.325 17.6322L159.666 16.5326V14.5689C159.666 13.5086 159.392 12.6446 158.881 12.0162C158.331 11.3879 157.349 11.0344 155.896 11.0344C154.011 11.0344 152.126 11.5057 150.162 12.3697L149.73 11.8984L150.909 8.79585C152.951 8.20676 154.954 7.89258 156.878 7.89258C159.077 7.89258 160.805 8.40313 162.141 9.34567C163.476 10.3275 164.144 11.6628 164.144 13.3908V23.5231C164.144 24.6228 164.536 25.1726 165.361 25.1726C165.754 25.1726 166.146 25.094 166.618 24.8977V27.4111C165.675 28.0395 164.576 28.3144 163.28 28.3144C161.237 28.3144 160.059 27.3326 159.666 25.3297ZM159.666 18.6926L154.914 19.9886C153.54 20.3813 152.872 21.2453 152.872 22.5806C152.872 23.366 153.108 23.9944 153.618 24.3871C154.129 24.7799 154.797 24.9762 155.621 24.9762C157.114 24.9762 158.488 24.3479 159.666 23.0519V18.6926Z" fill="#0083CA"/>
<path d="M133.502 11.2308L135.701 8.99222C137.036 8.28531 138.411 7.89258 139.785 7.89258C141.435 7.89258 142.77 8.40313 143.791 9.34567C144.812 10.2882 145.362 11.702 145.362 13.5086V27.9217H140.885V14.3726C140.885 12.4089 140.021 11.4271 138.293 11.4271C137.036 11.4271 135.583 11.9769 133.855 13.0373V27.9217H129.378V14.3726C129.378 12.4089 128.514 11.4271 126.825 11.4271C125.529 11.4271 124.037 11.9769 122.309 13.0373V27.9217H117.871V8.28531H122.113L122.309 10.9166H122.387L124.312 8.99222C125.647 8.28531 127.022 7.89258 128.396 7.89258C131.027 7.89258 132.716 9.03149 133.423 11.2308H133.502Z" fill="#0083CA"/>
<path d="M108.338 25.3297L105.982 27.3719C105 28.0002 103.822 28.3144 102.487 28.3144C100.876 28.3144 99.5412 27.8824 98.5201 26.9399C97.4598 25.9973 96.9492 24.7799 96.9492 23.2875C96.9492 20.342 98.9521 18.4569 102.997 17.6322L108.338 16.5326V14.5689C108.338 13.5086 108.063 12.6446 107.553 12.0162C107.003 11.3879 106.021 11.0344 104.568 11.0344C102.683 11.0344 100.798 11.5057 98.8343 12.3697L98.4023 11.8984L99.5805 8.79585C101.623 8.20676 103.626 7.89258 105.55 7.89258C107.749 7.89258 109.477 8.40313 110.812 9.34567C112.148 10.3275 112.815 11.6628 112.815 13.3908V23.5231C112.815 24.6228 113.208 25.1726 114.033 25.1726C114.426 25.1726 114.818 25.094 115.29 24.8977V27.4111C114.347 28.0395 113.247 28.3144 111.951 28.3144C109.909 28.3144 108.731 27.3326 108.338 25.3297ZM108.338 18.6926L103.586 19.9886C102.212 20.3813 101.544 21.2453 101.544 22.5806C101.544 23.366 101.78 23.9944 102.29 24.3871C102.801 24.7799 103.468 24.9762 104.293 24.9762C105.786 24.9762 107.16 24.3479 108.338 23.0519V18.6926Z" fill="#0083CA"/>
<path d="M89.1253 11.702H89.2039L91.1282 8.91367C91.9922 8.24603 93.0526 7.89258 94.3486 7.89258C95.0555 7.89258 95.7624 8.0104 96.5086 8.20676L95.0555 12.1733C94.5057 12.0162 93.9166 11.9377 93.3275 11.9377C91.7959 11.9377 90.382 12.6446 89.1253 14.0584V27.9217H84.6875V8.28531H88.929L89.1253 11.702Z" fill="#0083CA"/>
<path d="M72.1927 28.3144C69.2079 28.3144 66.9301 27.4504 65.4378 25.6439C63.9454 23.8766 63.1992 21.3631 63.1992 18.1035C63.1992 14.8831 63.9454 12.3697 65.4378 10.5631C66.9301 8.79585 69.2079 7.89258 72.1927 7.89258C75.1381 7.89258 77.3767 8.79585 78.869 10.5631C80.3614 12.3697 81.1469 14.8831 81.1469 18.1035C81.1469 21.3631 80.3614 23.8766 78.869 25.6439C77.3767 27.4504 75.1381 28.3144 72.1927 28.3144ZM72.1927 11.0344C70.5432 11.0344 69.365 11.6235 68.6974 12.8017C68.0298 13.9799 67.7156 15.7471 67.7156 18.1035C67.7156 20.4991 68.0298 22.2664 68.6974 23.4446C69.365 24.6228 70.5432 25.1726 72.1927 25.1726C73.8029 25.1726 74.9418 24.6228 75.6094 23.4446C76.277 22.2664 76.6305 20.4991 76.6305 18.1035C76.6305 15.7471 76.277 13.9799 75.6094 12.8017C74.9418 11.6235 73.8029 11.0344 72.1927 11.0344Z" fill="#0083CA"/>
<path d="M48.1917 10.9166H48.2703L50.1946 8.99222C51.5299 8.28531 52.9044 7.89258 54.279 7.89258C55.9284 7.89258 57.2637 8.40313 58.2848 9.34567C59.3059 10.2882 59.8557 11.702 59.8557 13.5086V27.9217H55.3786V14.3726C55.3786 12.4089 54.5146 11.4271 52.7866 11.4271C51.4514 11.4271 49.9197 11.9769 48.1917 13.0373V27.9217H43.7539V8.28531H47.9954L48.1917 10.9166Z" fill="#0083CA"/>
<path d="M34.2211 25.3297L31.8648 27.3719C30.8829 28.0002 29.7048 28.3144 28.3695 28.3144C26.7593 28.3144 25.424 27.8824 24.4029 26.9399C23.3426 25.9973 22.832 24.7799 22.832 23.2875C22.832 20.342 24.8349 18.4569 28.88 17.6322L34.2211 16.5326V14.5689C34.2211 13.5086 33.9462 12.6446 33.4357 12.0162C32.8858 11.3879 31.904 11.0344 30.4509 11.0344C28.5659 11.0344 26.6808 11.5057 24.7171 12.3697L24.2851 11.8984L25.4633 8.79585C27.5055 8.20676 29.5084 7.89258 31.4328 7.89258C33.632 7.89258 35.36 8.40313 36.6953 9.34567C38.0306 10.3275 38.6982 11.6628 38.6982 13.3908V23.5231C38.6982 24.6228 39.0909 25.1726 39.9157 25.1726C40.3084 25.1726 40.7011 25.094 41.1724 24.8977V27.4111C40.2299 28.0395 39.1302 28.3144 37.8342 28.3144C35.792 28.3144 34.6138 27.3326 34.2211 25.3297ZM34.2211 18.6926L29.4691 19.9886C28.0946 20.3813 27.4269 21.2453 27.4269 22.5806C27.4269 23.366 27.6626 23.9944 28.1731 24.3871C28.6837 24.7799 29.3513 24.9762 30.176 24.9762C31.6684 24.9762 33.0429 24.3479 34.2211 23.0519V18.6926Z" fill="#0083CA"/>
<path d="M2.90625 1.21582H11.939C15.1986 1.21582 17.6335 1.962 19.2044 3.37582C20.7753 4.78964 21.5608 6.79255 21.5608 9.34527C21.5608 11.9373 20.7753 14.0187 19.2044 15.5111C17.6335 17.0427 15.1986 17.7889 11.939 17.7889H7.61898V27.9213H2.90625V1.21582ZM7.61898 13.8616H11.939C13.667 13.8616 14.8844 13.5082 15.5913 12.762C16.2983 12.0551 16.6517 10.9162 16.6517 9.34527C16.6517 7.81364 16.2983 6.714 15.5913 6.08564C14.8844 5.45727 13.667 5.14309 11.939 5.14309H7.61898V13.8616Z" fill="#0083CA"/>
<path d="M301.21 54.9958L299.377 56.5841C298.613 57.0729 297.697 57.3172 296.658 57.3172C295.406 57.3172 294.368 56.9812 293.573 56.2481C292.749 55.515 292.352 54.5681 292.352 53.4074C292.352 51.1165 293.909 49.6503 297.056 49.0089L301.21 48.1536V46.6263C301.21 45.8016 300.996 45.1296 300.599 44.6409C300.171 44.1521 299.408 43.8772 298.277 43.8772C296.811 43.8772 295.345 44.2438 293.818 44.9158L293.482 44.5492L294.398 42.1361C295.986 41.678 297.544 41.4336 299.041 41.4336C300.752 41.4336 302.096 41.8307 303.134 42.5638C304.173 43.3274 304.692 44.366 304.692 45.71V53.5907C304.692 54.446 304.997 54.8736 305.639 54.8736C305.944 54.8736 306.25 54.8125 306.616 54.6598V56.6147C305.883 57.1034 305.028 57.3172 304.02 57.3172C302.432 57.3172 301.515 56.5536 301.21 54.9958ZM301.21 49.8336L297.514 50.8416C296.445 51.147 295.925 51.819 295.925 52.8576C295.925 53.4685 296.109 53.9572 296.506 54.2627C296.903 54.5681 297.422 54.7209 298.064 54.7209C299.224 54.7209 300.293 54.2321 301.21 53.2241V49.8336Z" fill="#878787"/>
<path d="M285.823 43.9689C284.479 43.9689 283.502 44.4881 282.83 45.4961C282.158 46.5041 281.853 47.787 281.853 49.3754C281.853 52.9798 283.197 54.782 285.946 54.782C287.351 54.782 288.786 54.3543 290.253 53.438V56.0954C288.786 56.9201 287.106 57.3172 285.274 57.3172C283.044 57.3172 281.333 56.6147 280.142 55.2096C278.92 53.8045 278.34 51.8496 278.34 49.3754C278.34 46.9318 278.951 44.9769 280.234 43.5718C281.486 42.1667 283.288 41.4336 285.64 41.4336C287.259 41.4336 288.847 41.739 290.436 42.3194L289.825 44.5187L289.428 44.8547C288.145 44.2743 286.954 43.9689 285.823 43.9689Z" fill="#878787"/>
<path d="M271.461 37.6164C271.461 37.1276 271.614 36.7305 271.98 36.364C272.347 36.028 272.805 35.8447 273.385 35.8447C273.935 35.8447 274.393 36.028 274.76 36.364C275.126 36.7305 275.31 37.1276 275.31 37.6164C275.31 38.1356 275.126 38.5633 274.76 38.8993C274.393 39.2353 273.935 39.388 273.385 39.388C272.805 39.388 272.347 39.2353 271.98 38.8993C271.614 38.5633 271.461 38.1356 271.461 37.6164ZM275.126 41.74V57.0127H271.675V41.74H275.126Z" fill="#878787"/>
<path d="M263.643 44.3965H263.704L265.201 42.2278C265.873 41.7085 266.698 41.4336 267.706 41.4336C268.255 41.4336 268.805 41.5252 269.386 41.678L268.255 44.763C267.828 44.6409 267.37 44.5798 266.911 44.5798C265.72 44.5798 264.62 45.1296 263.643 46.2292V57.0118H260.191V41.739H263.49L263.643 44.3965Z" fill="#878787"/>
<path d="M248.77 44.1827V42.8692L250.45 41.7391L252.893 38.4707H253.901V41.7391H257.322V44.1827H253.901V53.0714C253.901 53.6518 254.023 54.0489 254.268 54.2932C254.512 54.5376 254.94 54.6598 255.551 54.6598C256.223 54.6598 256.864 54.5376 257.414 54.2627V56.798C256.589 57.1645 255.642 57.3172 254.573 57.3172C253.138 57.3172 252.099 57.0423 251.427 56.462C250.755 55.9122 250.45 54.9347 250.45 53.5296V44.1827H248.77Z" fill="#878787"/>
<path d="M238.756 38.96L242.055 36.5163C242.544 36.1803 242.971 35.9971 243.338 35.9971C243.735 35.9971 244.071 36.1193 244.315 36.3331C244.56 36.5774 244.712 36.8829 244.712 37.2494C244.712 37.8603 244.346 38.3185 243.674 38.5934L239.367 40.2123L238.756 38.96ZM242.116 54.9963L240.253 56.5847C239.52 57.0734 238.634 57.3178 237.565 57.3178C236.312 57.3178 235.274 56.9818 234.48 56.2487C233.655 55.5156 233.258 54.5687 233.258 53.408C233.258 51.1171 234.816 49.6509 237.931 49.0094L242.116 48.1542V46.6269C242.116 45.8022 241.902 45.1302 241.475 44.6414C241.047 44.1527 240.283 43.8778 239.153 43.8778C237.717 43.8778 236.251 44.2443 234.724 44.9163L234.388 44.5498L235.304 42.1367C236.893 41.6785 238.451 41.4342 239.947 41.4342C241.658 41.4342 243.002 41.8313 244.04 42.5643C245.048 43.328 245.568 44.3665 245.568 45.7105V53.5913C245.568 54.4465 245.873 54.8742 246.545 54.8742C246.82 54.8742 247.156 54.8131 247.523 54.6603V56.6153C246.789 57.104 245.934 57.3178 244.926 57.3178C243.307 57.3178 242.36 56.5542 242.116 54.9963ZM242.116 49.8342L238.42 50.8422C237.351 51.1476 236.832 51.8196 236.832 52.8582C236.832 53.4691 237.015 53.9578 237.412 54.2633C237.809 54.5687 238.328 54.7214 238.97 54.7214C240.131 54.7214 241.2 54.2327 242.116 53.2247V49.8342Z" fill="#878787"/>
<path d="M226.719 37.6164C226.719 37.1276 226.871 36.7305 227.238 36.364C227.605 36.028 228.063 35.8447 228.643 35.8447C229.193 35.8447 229.651 36.028 230.018 36.364C230.384 36.7305 230.567 37.1276 230.567 37.6164C230.567 38.1356 230.384 38.5633 230.018 38.8993C229.651 39.2353 229.193 39.388 228.643 39.388C228.063 39.388 227.605 39.2353 227.238 38.8993C226.871 38.5633 226.719 38.1356 226.719 37.6164ZM230.384 41.74V57.0127H226.933V41.74H230.384Z" fill="#878787"/>
<path d="M222.993 35.0195V57.0123H219.664L219.511 54.9963L217.678 56.5846C216.915 57.0734 215.998 57.3177 214.96 57.3177C213.249 57.3177 211.905 56.5846 210.928 55.1184C209.95 53.6523 209.492 51.7584 209.492 49.3759C209.492 46.9017 210.042 44.9468 211.203 43.5417C212.363 42.1366 213.891 41.4341 215.785 41.4341C217.129 41.4341 218.35 41.8006 219.511 42.5337V36.2414L222.077 35.0195H222.993ZM216.609 54.7824C217.526 54.7824 218.473 54.3243 219.511 53.3468V44.6108C218.595 44.061 217.648 43.7861 216.609 43.7861C214.196 43.7861 213.005 45.6494 213.005 49.3759C213.005 51.3003 213.28 52.6748 213.891 53.5301C214.502 54.3853 215.387 54.7824 216.609 54.7824Z" fill="#878787"/>
<path d="M207.064 47.115C207.064 47.9703 206.942 48.9783 206.698 50.139H197.137C197.259 51.7274 197.717 52.8881 198.512 53.6518C199.306 54.4154 200.314 54.782 201.597 54.782C202.33 54.782 203.154 54.6598 204.101 54.3849C205.018 54.1405 205.812 53.8045 206.423 53.438V56.0954C204.957 56.9201 203.124 57.3172 200.925 57.3172C198.634 57.3172 196.832 56.6147 195.549 55.179C194.235 53.774 193.594 51.819 193.594 49.3754C193.594 46.9318 194.205 44.9769 195.488 43.5718C196.74 42.1667 198.542 41.4336 200.894 41.4336C201.505 41.4336 202.116 41.4947 202.666 41.5863C203.216 41.7085 203.796 41.8918 204.346 42.1361C204.896 42.411 205.354 42.747 205.751 43.1441C206.117 43.5718 206.453 44.1216 206.698 44.7936C206.942 45.4656 207.064 46.2598 207.064 47.115ZM197.137 48.3369L203.674 48.1536C203.735 47.726 203.765 47.3289 203.765 46.9623C203.765 46.3209 203.643 45.771 203.46 45.3129C203.277 44.8852 203.002 44.5492 202.696 44.366C202.36 44.1827 202.055 44.03 201.81 43.9689C201.566 43.9078 201.291 43.8772 201.016 43.8772C198.634 43.8772 197.351 45.374 197.137 48.3369Z" fill="#878787"/>
<path d="M177.242 36.2412H184.268C186.803 36.2412 188.697 36.8216 189.919 37.9212C191.14 39.0208 191.751 40.5787 191.751 42.5641C191.751 44.5801 191.14 46.199 189.919 47.3598C188.697 48.551 186.803 49.1314 184.268 49.1314H180.908V57.0121H177.242V36.2412ZM180.908 46.0768H184.268C185.612 46.0768 186.559 45.8019 187.108 45.2216C187.658 44.6718 187.933 43.7859 187.933 42.5641C187.933 41.3728 187.658 40.5176 187.108 40.0288C186.559 39.5401 185.612 39.2958 184.268 39.2958H180.908V46.0768Z" fill="#878787"/>
<path d="M162.772 54.9958L160.94 56.5841C160.176 57.0729 159.26 57.3172 158.221 57.3172C156.969 57.3172 155.93 56.9812 155.136 56.2481C154.311 55.515 153.914 54.5681 153.914 53.4074C153.914 51.1165 155.472 49.6503 158.618 49.0089L162.772 48.1536V46.6263C162.772 45.8016 162.558 45.1296 162.161 44.6409C161.734 44.1521 160.97 43.8772 159.84 43.8772C158.374 43.8772 156.908 44.2438 155.38 44.9158L155.044 44.5492L155.961 42.1361C157.549 41.678 159.107 41.4336 160.604 41.4336C162.314 41.4336 163.658 41.8307 164.697 42.5638C165.735 43.3274 166.254 44.366 166.254 45.71V53.5907C166.254 54.446 166.56 54.8736 167.201 54.8736C167.507 54.8736 167.812 54.8125 168.179 54.6598V56.6147C167.446 57.1034 166.59 57.3172 165.582 57.3172C163.994 57.3172 163.078 56.5536 162.772 54.9958ZM162.772 49.8336L159.076 50.8416C158.007 51.147 157.488 51.819 157.488 52.8576C157.488 53.4685 157.671 53.9572 158.068 54.2627C158.465 54.5681 158.985 54.7209 159.626 54.7209C160.787 54.7209 161.856 54.2321 162.772 53.2241V49.8336Z" fill="#878787"/>
<path d="M147.371 37.6164C147.371 37.1276 147.524 36.7305 147.89 36.364C148.257 36.028 148.715 35.8447 149.295 35.8447C149.845 35.8447 150.303 36.028 150.67 36.364C151.037 36.7305 151.22 37.1276 151.22 37.6164C151.22 38.1356 151.037 38.5633 150.67 38.8993C150.303 39.2353 149.845 39.388 149.295 39.388C148.715 39.388 148.257 39.2353 147.89 38.8993C147.524 38.5633 147.371 38.1356 147.371 37.6164ZM151.037 41.74V57.0127H147.585V41.74H151.037Z" fill="#878787"/>
<path d="M134.894 54.0794L140.545 54.6598C143.478 54.9652 144.974 56.4009 144.974 58.9056C144.974 60.3718 144.333 61.5936 143.05 62.5711C141.767 63.5485 139.843 64.0372 137.216 64.0372C134.772 64.0372 133.031 63.7318 131.931 63.0598C130.832 62.3878 130.312 61.5325 130.312 60.4634C130.312 59.4249 130.801 58.478 131.84 57.5921L133.306 58.0198L133.092 59.3943C133.092 60.3107 133.428 60.9216 134.1 61.2881C134.772 61.6547 135.78 61.8074 137.124 61.8074C139.995 61.8074 141.462 61.0438 141.462 59.4554C141.462 58.9361 141.309 58.5391 141.034 58.2641C140.728 58.0198 140.24 57.8365 139.537 57.7449L134.161 57.2256C133.306 57.1645 132.695 56.9201 132.329 56.4925C131.931 56.0649 131.748 55.5761 131.748 54.9958C131.748 53.8351 132.512 52.8271 134.039 51.9107C132.023 50.9943 131.015 49.2838 131.015 46.8401C131.015 45.2518 131.534 43.9383 132.603 42.9303C133.672 41.9529 135.169 41.4336 137.124 41.4336C137.979 41.4336 138.774 41.5252 139.446 41.7085L144.363 41.4336V43.5718H142.347C142.989 44.4576 143.325 45.5572 143.325 46.8401C143.325 48.6118 142.775 50.0169 141.736 51.0249C140.667 52.0329 139.171 52.5216 137.246 52.5216C136.758 52.5216 136.299 52.491 135.872 52.43L134.894 54.0794ZM137.063 43.7245C136.147 43.7245 135.444 43.9994 134.986 44.5492C134.497 45.099 134.283 45.8016 134.283 46.6263C134.283 49.0394 135.291 50.2307 137.307 50.2307C139.14 50.2307 140.087 49.1616 140.087 47.0234C140.087 45.9543 139.812 45.1296 139.293 44.5798C138.774 44.03 138.04 43.7245 137.063 43.7245Z" fill="#878787"/>
<path d="M121.542 57.3172C119.22 57.3172 117.449 56.6452 116.288 55.2401C115.127 53.8656 114.547 51.9107 114.547 49.3754C114.547 46.8707 115.127 44.9158 116.288 43.5107C117.449 42.1361 119.22 41.4336 121.542 41.4336C123.833 41.4336 125.574 42.1361 126.735 43.5107C127.895 44.9158 128.506 46.8707 128.506 49.3754C128.506 51.9107 127.895 53.8656 126.735 55.2401C125.574 56.6452 123.833 57.3172 121.542 57.3172ZM121.542 43.8772C120.259 43.8772 119.343 44.3354 118.823 45.2518C118.304 46.1681 118.06 47.5427 118.06 49.3754C118.06 51.2387 118.304 52.6132 118.823 53.5296C119.343 54.446 120.259 54.8736 121.542 54.8736C122.794 54.8736 123.68 54.446 124.199 53.5296C124.719 52.6132 124.993 51.2387 124.993 49.3754C124.993 47.5427 124.719 46.1681 124.199 45.2518C123.68 44.3354 122.794 43.8772 121.542 43.8772Z" fill="#878787"/>
<path d="M109.91 35.0195H110.827V53.5912C110.827 54.4464 111.132 54.8741 111.774 54.8741C112.079 54.8741 112.384 54.813 112.751 54.6603V56.9206C112.079 57.1955 111.285 57.3177 110.368 57.3177C109.452 57.3177 108.75 57.1039 108.2 56.6763C107.65 56.2486 107.375 55.5766 107.375 54.6603V36.2414L109.91 35.0195Z" fill="#878787"/>
<path d="M97.2605 57.3172C94.9391 57.3172 93.1674 56.6452 92.0067 55.2401C90.846 53.8656 90.2656 51.9107 90.2656 49.3754C90.2656 46.8707 90.846 44.9158 92.0067 43.5107C93.1674 42.1361 94.9391 41.4336 97.2605 41.4336C99.5514 41.4336 101.293 42.1361 102.453 43.5107C103.614 44.9158 104.225 46.8707 104.225 49.3754C104.225 51.9107 103.614 53.8656 102.453 55.2401C101.293 56.6452 99.5514 57.3172 97.2605 57.3172ZM97.2605 43.8772C95.9776 43.8772 95.0613 44.3354 94.542 45.2518C94.0227 46.1681 93.7783 47.5427 93.7783 49.3754C93.7783 51.2387 94.0227 52.6132 94.542 53.5296C95.0613 54.446 95.9776 54.8736 97.2605 54.8736C98.5129 54.8736 99.3987 54.446 99.918 53.5296C100.437 52.6132 100.712 51.2387 100.712 49.3754C100.712 47.5427 100.437 46.1681 99.918 45.2518C99.3987 44.3354 98.5129 43.8772 97.2605 43.8772Z" fill="#878787"/>
<path d="M83.6086 43.9689C82.2646 43.9689 81.2872 44.4881 80.6152 45.4961C79.9432 46.5041 79.6377 47.787 79.6377 49.3754C79.6377 52.9798 80.9817 54.782 83.7308 54.782C85.1359 54.782 86.5715 54.3543 88.0377 53.438V56.0954C86.5715 56.9201 84.8915 57.3172 83.0588 57.3172C80.829 57.3172 79.1185 56.6147 77.9272 55.2096C76.7054 53.8045 76.125 51.8496 76.125 49.3754C76.125 46.9318 76.7359 44.9769 78.0188 43.5718C79.2712 42.1667 81.0734 41.4336 83.4254 41.4336C85.0443 41.4336 86.6326 41.739 88.221 42.3194L87.6101 44.5187L87.213 44.8547C85.9301 44.2743 84.7388 43.9689 83.6086 43.9689Z" fill="#878787"/>
<path d="M63.9946 43.7856H64.0557L65.5524 42.2889C66.591 41.739 67.6601 41.4336 68.7291 41.4336C70.0121 41.4336 71.0506 41.8307 71.8448 42.5638C72.639 43.2969 73.0666 44.3965 73.0666 45.8016V57.0118H69.5844V46.4736C69.5844 44.9463 68.9124 44.1827 67.5684 44.1827C66.5299 44.1827 65.3386 44.6103 63.9946 45.435V57.0118H60.543V41.739H63.8419L63.9946 43.7856Z" fill="#878787"/>
<path d="M48.6177 57.3174C42.8752 57.3174 40.0039 53.713 40.0039 46.4737C40.0039 43.0526 40.6759 40.4563 42.0505 38.6541C43.3945 36.8519 45.5937 35.9355 48.6177 35.9355C51.6112 35.9355 53.7799 36.8519 55.1545 38.6541C56.4985 40.4563 57.201 43.0526 57.201 46.4737C57.201 53.713 54.3297 57.3174 48.6177 57.3174ZM48.6177 38.8374C46.8461 38.8374 45.5937 39.4483 44.8912 40.609C44.1581 41.8003 43.8221 43.7552 43.8221 46.4737C43.8221 49.2534 44.1581 51.2694 44.8912 52.5217C45.6243 53.8046 46.8461 54.4155 48.6177 54.4155C50.3588 54.4155 51.5806 53.8046 52.3137 52.5217C53.0163 51.2694 53.3828 49.2534 53.3828 46.4737C53.3828 43.7552 53.0163 41.8003 52.3137 40.609C51.5806 39.4483 50.3588 38.8374 48.6177 38.8374Z" fill="#878787"/>
<path d="M26.4519 54.9958L24.6192 56.5841C23.8556 57.0729 22.9392 57.3172 21.9007 57.3172C20.6483 57.3172 19.6098 56.9812 18.8156 56.2481C17.9908 55.515 17.5938 54.5681 17.5938 53.4074C17.5938 51.1165 19.1516 49.6503 22.2977 49.0089L26.4519 48.1536V46.6263C26.4519 45.8016 26.2381 45.1296 25.841 44.6409C25.4134 44.1521 24.6498 43.8772 23.5196 43.8772C22.0534 43.8772 20.5872 44.2438 19.0599 44.9158L18.7239 44.5492L19.6403 42.1361C21.2287 41.678 22.7865 41.4336 24.2832 41.4336C25.9937 41.4336 27.3378 41.8307 28.3763 42.5638C29.4148 43.3274 29.9341 44.366 29.9341 45.71V53.5907C29.9341 54.446 30.2396 54.8736 30.881 54.8736C31.1865 54.8736 31.4919 54.8125 31.8585 54.6598V56.6147C31.1254 57.1034 30.2701 57.3172 29.2621 57.3172C27.6737 57.3172 26.7574 56.5536 26.4519 54.9958ZM26.4519 49.8336L22.7559 50.8416C21.6868 51.147 21.1676 51.819 21.1676 52.8576C21.1676 53.4685 21.3508 53.9572 21.7479 54.2627C22.145 54.5681 22.6643 54.7209 23.3057 54.7209C24.4665 54.7209 25.5356 54.2321 26.4519 53.2241V49.8336Z" fill="#878787"/>
<path d="M14.755 35.0195V57.0123H11.4255L11.2728 54.9963L9.44009 56.5846C8.67645 57.0734 7.76009 57.3177 6.72154 57.3177C5.011 57.3177 3.667 56.5846 2.68954 55.1184C1.71209 53.6523 1.25391 51.7584 1.25391 49.3759C1.25391 46.9017 1.80372 44.9468 2.96445 43.5417C4.12518 42.1366 5.65245 41.4341 7.54627 41.4341C8.89027 41.4341 10.1121 41.8006 11.2728 42.5337V36.2414L13.8386 35.0195H14.755ZM8.371 54.7824C9.28736 54.7824 10.2343 54.3243 11.2728 53.3468V44.6108C10.3565 44.061 9.40954 43.7861 8.371 43.7861C5.95791 43.7861 4.76663 45.6494 4.76663 49.3759C4.76663 51.3003 5.04154 52.6748 5.65245 53.5301C6.26336 54.3853 7.14918 54.7824 8.371 54.7824Z" fill="#878787"/>
</svg>
