<svg width="64" height="64" viewBox="0 0 64 64" fill="none" xmlns="http://www.w3.org/2000/svg">
<path fill-rule="evenodd" clip-rule="evenodd" d="M46.5376 55.345L50 59.4999L53.4624 55.345C56.7144 56.0232 59 57.6281 59 59.4999C59 61.9852 54.9706 63.9999 50 63.9999C45.0294 63.9999 41 61.9852 41 59.4999C41 57.6281 43.2856 56.0232 46.5376 55.345Z" fill="#B1D6E4"/>
<path d="M39 42.1362C39 35.9857 43.9249 30.9998 50 30.9998C56.0751 30.9998 61 35.9857 61 42.1362C61 48.2866 50 58.9998 50 58.9998C50 58.9998 39 48.2866 39 42.1362Z" stroke="#042B60" stroke-width="2" stroke-miterlimit="10" stroke-linecap="round" stroke-linejoin="round"/>
<rect x="48" y="37" width="4" height="12" rx="0.5" fill="#B1D6E4"/>
<rect x="44" y="45" width="4" height="12" rx="0.5" transform="rotate(-90 44 45)" fill="#B1D6E4"/>
<path d="M39 61H12.775C9.58556 61 7 58.4144 7 55.225V55.225C7 52.0356 9.58556 49.45 12.775 49.45H25.775C28.3845 49.45 30.5 47.3345 30.5 44.725V44.725C30.5 42.1155 28.3845 40 25.775 40H18" stroke="#042B60" stroke-width="2" stroke-linecap="round" stroke-dasharray="4 6"/>
<path d="M7.90814 20.4335V16.4349C7.90814 11.017 12.2948 6.625 17.706 6.625C23.1172 6.625 27.5039 11.017 27.5039 16.4348V20.4334C21.8309 15.0615 13.3844 15.056 7.90814 20.4335Z" fill="#B1D6E4"/>
<path d="M19.668 26.0653C19.2431 26.7251 18.3645 27.1429 17.4023 27.1429C16.4059 27.1429 15.5027 26.6953 15.0965 26" stroke="#042B60" stroke-width="2" stroke-miterlimit="22.9256" stroke-linecap="round" stroke-linejoin="round"/>
<path d="M23.668 22.5389C23.4555 22.209 23.0162 22.0001 22.5351 22.0001C22.0369 22.0001 21.5853 22.2239 21.3823 22.5715" stroke="#042B60" stroke-width="2" stroke-miterlimit="22.9256" stroke-linecap="round" stroke-linejoin="round"/>
<path d="M13.3828 22.5389C13.1704 22.209 12.7311 22.0001 12.25 22.0001C11.7518 22.0001 11.3002 22.2239 11.0971 22.5715" stroke="#042B60" stroke-width="2" stroke-miterlimit="22.9256" stroke-linecap="round" stroke-linejoin="round"/>
<path d="M7.76199 20.4013V16.4614C7.76199 11.0519 12.1965 6.66675 17.6667 6.66675C23.1369 6.66675 27.5714 11.0519 27.5714 16.4613V20.4012C28.9221 20.4559 30 21.556 30 22.905C30 24.2588 28.9144 25.3618 27.5571 25.4093C27.3333 30.0001 23.3333 33.6667 17.5698 33.6667C11.6782 33.6667 8 29.6667 7.7762 25.4093C6.41893 25.3618 5.33333 24.2588 5.33333 22.905C5.33341 21.556 6.41142 20.456 7.76199 20.4013Z" stroke="#042B60" stroke-width="2" stroke-miterlimit="10" stroke-linecap="round" stroke-linejoin="round"/>
<path d="M5.11224 17.9303H7.66797C7.66797 15.7596 5.91126 14 3.74418 14H1.18845C1.18845 16.1706 2.94516 17.9303 5.11224 17.9303Z" fill="#B1D6E4" stroke="#042B60" stroke-width="2" stroke-miterlimit="10" stroke-linecap="round" stroke-linejoin="round"/>
<path d="M1.18845 21.8608H3.74418C5.91126 21.8608 7.66797 20.1011 7.66797 17.9304H5.11224C2.94516 17.9304 1.18845 19.6901 1.18845 21.8608Z" fill="#B1D6E4" stroke="#042B60" stroke-width="2" stroke-miterlimit="10" stroke-linecap="round" stroke-linejoin="round"/>
</svg>
