<svg width="24" height="24" viewBox="0 0 24 24" fill="none" xmlns="http://www.w3.org/2000/svg">
<path d="M20.4348 7.8913H21.2848V7.57687L21.0802 7.33813L20.4348 7.8913ZM14.9565 1.5L15.6019 0.946828C15.3704 0.676757 14.9952 0.579387 14.6616 0.702797C14.328 0.826208 14.1065 1.14429 14.1065 1.5L14.9565 1.5ZM14.9565 7.8913H14.1065C14.1065 8.36075 14.4871 8.7413 14.9565 8.7413L14.9565 7.8913ZM7.6521 10.693C7.18266 10.693 6.8021 11.0735 6.8021 11.543C6.8021 12.0124 7.18266 12.393 7.6521 12.393L7.6521 10.693ZM16.7825 12.393C17.252 12.393 17.6325 12.0124 17.6325 11.543C17.6325 11.0735 17.252 10.693 16.7825 10.693L16.7825 12.393ZM7.6521 14.3453C7.18266 14.3453 6.8021 14.7259 6.8021 15.1953C6.8021 15.6648 7.18266 16.0453 7.6521 16.0453L7.6521 14.3453ZM16.7825 16.0453C17.252 16.0453 17.6325 15.6648 17.6325 15.1953C17.6325 14.7259 17.252 14.3453 16.7825 14.3453L16.7825 16.0453ZM7.6521 17.9977C7.18266 17.9977 6.8021 18.3782 6.8021 18.8477C6.8021 19.3171 7.18266 19.6977 7.6521 19.6977V17.9977ZM11.3043 19.6977C11.7737 19.6977 12.1543 19.3171 12.1543 18.8477C12.1543 18.3782 11.7737 17.9977 11.3043 17.9977V19.6977ZM14.8794 0.65H4.91304V2.35H14.8794V0.65ZM3.15 2.41304V21.587H4.85V2.41304H3.15ZM4.91304 23.35H19.5217V21.65H4.91304V23.35ZM21.2848 21.587V7.8913H19.5848V21.587H21.2848ZM19.5217 23.35C20.4954 23.35 21.2848 22.5607 21.2848 21.587H19.5848C19.5848 21.6218 19.5566 21.65 19.5217 21.65V23.35ZM3.15 21.587C3.15 22.5607 3.93934 23.35 4.91304 23.35V21.65C4.87823 21.65 4.85 21.6218 4.85 21.587H3.15ZM4.91304 0.65C3.93934 0.65 3.15 1.43934 3.15 2.41304H4.85C4.85 2.37822 4.87823 2.35 4.91304 2.35V0.65ZM20.4348 7.0413L14.9565 7.0413L14.9565 8.7413L20.4348 8.7413L20.4348 7.0413ZM15.8065 7.8913V1.5H14.1065V7.8913H15.8065ZM14.3112 2.05317L19.7894 8.44448L21.0802 7.33813L15.6019 0.946828L14.3112 2.05317ZM8.56514 5.08828H10.3912V3.38828H8.56514V5.08828ZM10.4543 5.15132V6.97741H12.1543V5.15132H10.4543ZM10.3912 7.04046H8.56514V8.74046H10.3912V7.04046ZM8.5021 6.97741V5.15132H6.8021V6.97741H8.5021ZM8.56514 7.04046C8.53033 7.04046 8.5021 7.01223 8.5021 6.97741H6.8021C6.8021 7.95111 7.59144 8.74046 8.56514 8.74046V7.04046ZM10.4543 6.97741C10.4543 7.01223 10.426 7.04046 10.3912 7.04046V8.74046C11.3649 8.74046 12.1543 7.95111 12.1543 6.97741H10.4543ZM10.3912 5.08828C10.426 5.08828 10.4543 5.11651 10.4543 5.15132H12.1543C12.1543 4.17762 11.3649 3.38828 10.3912 3.38828V5.08828ZM8.56514 3.38828C7.59144 3.38828 6.8021 4.17762 6.8021 5.15132H8.5021C8.5021 5.11651 8.53032 5.08828 8.56514 5.08828V3.38828ZM7.6521 12.393L16.7825 12.393L16.7825 10.693L7.6521 10.693L7.6521 12.393ZM7.6521 16.0453L16.7825 16.0453L16.7825 14.3453L7.6521 14.3453L7.6521 16.0453ZM7.6521 19.6977H11.3043V17.9977H7.6521V19.6977Z" fill="#042B60"/>
</svg>
