<svg width="65" height="62" viewBox="0 0 65 62" fill="none" xmlns="http://www.w3.org/2000/svg">
<path d="M44.7772 37.4169L36.0602 28.6799V2H30.6907V28.6799L26.082 33.2991" fill="#B1D6E4"/>
<path d="M44.7772 37.4169L36.0602 28.6799V2H30.6907V28.6799L26.082 33.2991" stroke="#042B60" stroke-width="3" stroke-miterlimit="10" stroke-linecap="round" stroke-linejoin="round"/>
<path d="M26.1055 40.8854L33.0803 33.8945H33.6683L42.5957 42.8423" stroke="#042B60" stroke-width="3" stroke-miterlimit="10" stroke-linecap="round" stroke-linejoin="round"/>
<path d="M17.8722 59.9998H10.1278C5.63887 59.9998 2 55.9583 2 50.9727V39.8613C2 30.5681 7.27543 22.2846 15.1651 19.1894C20.4535 17.1147 26 21.4718 26 27.7011V50.9726C26 55.9583 22.361 59.9998 17.8722 59.9998Z" stroke="#042B60" stroke-width="3" stroke-miterlimit="10" stroke-linecap="round" stroke-linejoin="round"/>
<path d="M48.7959 59.9998H56.5402C61.0291 59.9998 64.668 55.9583 64.668 50.9727V39.8613C64.668 30.5681 59.3925 22.2846 51.5029 19.1894C46.2145 17.1147 40.668 21.4718 40.668 27.7011V50.9726C40.6681 55.9583 44.3071 59.9998 48.7959 59.9998Z" fill="#B1D6E4"/>
<path d="M45.7461 32.9565C48.4547 33.5178 50.6702 35.4638 51.5807 38.0815L53.9247 44.8205" stroke="#042B60" stroke-width="3" stroke-miterlimit="10" stroke-linecap="round" stroke-linejoin="round"/>
<path d="M50.9805 35.9507H54.8147" stroke="#042B60" stroke-width="3" stroke-miterlimit="10" stroke-linecap="round" stroke-linejoin="round"/>
<path d="M53.1445 42.3853H57.4023" stroke="#042B60" stroke-width="3" stroke-miterlimit="10" stroke-linecap="round" stroke-linejoin="round"/>
<path d="M21.0028 32.9565C18.2942 33.5178 16.0787 35.4638 15.1682 38.0815L12.8242 44.8205" stroke="#042B60" stroke-width="3" stroke-miterlimit="10" stroke-linecap="round" stroke-linejoin="round"/>
<path d="M15.7678 35.9507H11.9336" stroke="#042B60" stroke-width="3" stroke-miterlimit="10" stroke-linecap="round" stroke-linejoin="round"/>
<path d="M13.6054 42.3853H9.34766" stroke="#042B60" stroke-width="3" stroke-miterlimit="10" stroke-linecap="round" stroke-linejoin="round"/>
</svg>
