<svg width="16" height="16" fill="none" xmlns="http://www.w3.org/2000/svg"><path d="M7.32 1.52c-1.051.079-1.807.451-2.615 1.284-.754.778-1.083 1.553-1.081 2.547.002 1.079.399 2.166 1.25 3.422.125.184.279.403.343.487.064.085.116.159.116.165 0 .006-.417.382-.926.835-1.176 1.046-1.725 1.557-1.814 1.692-.094.142-.111.369-.038.501.084.153.207.224.738.427.279.106.521.207.538.223.017.017.111.282.209.59.163.509.188.569.28.656a.509.509 0 0 0 .451.135c.287-.065 1.687-1.148 2.804-2.17l.334-.306.239.213c.712.635 1.331 1.15 1.839 1.531.308.231.903.638 1.013.694a.543.543 0 0 0 .527-.051c.094-.067.141-.16.394-.782l.207-.506.548-.215c.302-.118.585-.241.63-.274.174-.129.234-.392.138-.605-.069-.15-1.042-1.035-2.663-2.422l-.432-.369.13-.191c.35-.514.76-1.274.953-1.764.271-.69.389-1.272.388-1.92 0-.68-.097-1.086-.398-1.67-.269-.52-.678-.981-1.261-1.42-.748-.563-1.741-.821-2.841-.737m1.221 1.063c.504.118.847.305 1.309.713l.263.232-.018.13c-.034.257-.236.75-.459 1.12l-.091.152-.206-.148c-.41-.295-.78-.432-1.317-.489-.678-.072-1.432.12-1.92.489-.162.123-.135.142-.355-.249-.168-.297-.29-.593-.337-.822-.04-.192-.05-.176.322-.503a2.65 2.65 0 0 1 1.352-.66c.311-.059 1.142-.038 1.457.035M5.19 5.52c.37.548.84 1.109 1.63 1.944l.301.317-.514.484-.514.485-.075-.088c-.139-.164-.627-.913-.77-1.182-.289-.543-.472-1.019-.571-1.483-.059-.278-.067-.923-.015-1.152l.036-.156.16.289c.089.159.238.403.332.542m5.621-.16c.001.524-.039.762-.215 1.279-.575 1.69-2.216 3.731-4.624 5.751-.491.412-1.02.814-1.04.789a5.111 5.111 0 0 1-.13-.372c-.14-.433-.182-.478-.601-.647l-.29-.116.106-.095 1.198-1.068C6.758 9.506 7.171 9.123 7.976 8.32c1.344-1.34 2.201-2.406 2.668-3.318.103-.203.118-.22.141-.168.013.033.025.269.026.526m-2.614-.027c.114.029.277.09.363.136.172.091.373.252.373.297 0 .051-.807.991-1.03 1.2l-.078.073-.376-.38a20.884 20.884 0 0 1-.634-.672l-.258-.292.088-.073c.142-.118.377-.233.587-.288.27-.071.692-.071.965-.001m2.296 5.332c1.02.874 1.566 1.367 1.542 1.39a1.68 1.68 0 0 1-.232.104c-.429.17-.442.184-.644.683-.086.212-.168.385-.183.385-.078 0-1.208-.906-1.962-1.573l-.403-.357.197-.202c.222-.228.542-.588.777-.874.134-.164.164-.188.2-.16.023.018.342.29.708.604" fill-rule="evenodd" fill="#000"/></svg>