<svg width="64" height="64" viewBox="0 0 64 64" fill="none" xmlns="http://www.w3.org/2000/svg">
<g clip-path="url(#clip0_1981_9657)">
<path d="M13.6435 12.7759C13.805 12.2633 14 11.7627 14.2279 11.2778C14.819 12.3321 16.8641 15.8577 20.2209 20.35L20.3913 20.1687C22.2751 18.1647 26.2888 14.8029 32.004 14.8029H32.0732C37.8532 14.9263 41.7844 18.2139 43.6139 20.1637L43.7848 20.3459C47.1425 15.8518 49.1873 12.326 49.7763 11.2752C50.0029 11.7574 50.1966 12.2553 50.3575 12.7652C50.5923 12.3666 50.7643 12.0646 50.8714 11.8735L51.1873 11.3101L50.9126 10.7256C50.288 9.39697 49.4472 8.1909 48.4135 7.14113C45.2269 3.90482 39.813 0.0389176 32.1166 0.000251081C32.0767 0 32.0382 0 31.9984 0C24.2796 0 18.8244 3.87783 15.6027 7.14025C14.5702 8.18563 13.7256 9.39735 13.0921 10.7418L12.8164 11.3268L13.1328 11.8908C13.2386 12.0795 13.4092 12.3791 13.6435 12.7759Z" fill="#B1D6E4"/>
<path d="M14.2277 11.2778C15.3379 13.2579 21.5754 23.9533 32.0013 33.4017C35.5284 36.5995 39.5362 39.6552 43.9863 42.1809C48.9635 45.0082 54.4945 47.1728 60.5288 48.1368L48.5771 52.1207L51.233 62.7445C43.3515 60.0395 37.041 56.8682 32.0013 53.4513C26.7318 49.8804 22.8529 46.0399 20.0163 42.1808C11.8904 31.1228 12.3353 19.9108 13.2489 14.4196C13.4309 13.3269 13.7616 12.2699 14.2277 11.2778Z" stroke="#042B60" stroke-width="2" stroke-miterlimit="10" stroke-linecap="round" stroke-linejoin="round"/>
<path d="M20.0152 42.1812C15.038 45.0085 9.50689 47.173 3.47266 48.1371L15.4244 52.121L12.7684 62.7447C20.6499 60.0397 26.9604 56.8684 32.0001 53.4516" stroke="#042B60" stroke-width="2" stroke-miterlimit="10" stroke-linecap="round" stroke-linejoin="round"/>
<path d="M43.985 42.1812C52.1148 31.118 51.6647 19.8993 50.751 14.4108C50.5691 13.3192 50.2397 12.2648 49.7749 11.2754C48.6688 13.2488 42.4299 23.9495 32 33.4021" stroke="#042B60" stroke-width="2" stroke-miterlimit="10" stroke-linecap="round" stroke-linejoin="round"/>
</g>
<defs>
<clipPath id="clip0_1981_9657">
<rect width="64" height="64" fill="white"/>
</clipPath>
</defs>
</svg>
