<svg width="48" height="48" fill="none" xmlns="http://www.w3.org/2000/svg"><path d="M23.556 2.124c-.512.253-.516.278-.516 3.436v2.856l.272.272c.24.24.322.272.688.272.366 0 .448-.032.688-.272l.272-.272V5.56c0-3.169-.003-3.189-.529-3.439-.32-.152-.563-.151-.875.003M8.504 8.157c-.456.278-.624.824-.39 1.267.063.119.866.963 1.784 1.876l1.671 1.66h.423c.375 0 .455-.031.696-.272.241-.241.272-.321.272-.696v-.423L11.3 9.898c-.913-.918-1.757-1.721-1.876-1.784-.298-.157-.617-.142-.92.043m30.016-.006c-.132.083-.969.886-1.86 1.784l-1.62 1.634v.423c0 .375.031.455.272.696.241.241.321.272.696.272h.423l1.671-1.66c.918-.913 1.721-1.757 1.784-1.876.157-.298.142-.617-.043-.92-.293-.481-.873-.635-1.323-.353m-16.28 5.003c-2.394.429-4.382 1.459-6.04 3.127-1.481 1.49-2.523 3.436-2.975 5.559-.205.96-.205 3.36 0 4.32.459 2.154 1.492 4.07 3.019 5.596 1.526 1.527 3.442 2.56 5.596 3.019.96.205 3.36.205 4.32 0 4.37-.931 7.684-4.245 8.615-8.615.205-.96.205-3.36 0-4.32a11.086 11.086 0 0 0-3.065-5.64c-1.462-1.46-3.387-2.502-5.47-2.961-.816-.18-3.188-.23-4-.085m2.88 1.928c1.627.148 3.401.941 4.768 2.132 2.214 1.929 3.309 4.65 3.06 7.6-.322 3.799-3.064 6.984-6.838 7.941-1.14.289-3.08.289-4.22 0a9.12 9.12 0 0 1-4.682-2.872c-1.271-1.459-1.99-3.155-2.158-5.09-.215-2.484.541-4.818 2.164-6.681 1.544-1.772 3.653-2.861 5.931-3.064.721-.065.925-.061 1.975.034M2.46 23.18c-.239.149-.46.542-.46.82 0 .285.225.677.474.824.206.121.538.136 3.086.136h2.856l.272-.272c.24-.24.272-.322.272-.688 0-.366-.032-.448-.272-.688l-.272-.272-2.868.002c-2.559.002-2.892.017-3.088.138m36.852.132c-.24.24-.272.322-.272.688 0 .366.032.448.272.688l.272.272h2.856c3.169 0 3.189-.003 3.439-.529.153-.322.153-.54 0-.862-.25-.526-.27-.529-3.439-.529h-2.856l-.272.272M9.898 36.7c-.918.913-1.721 1.757-1.784 1.876-.424.804.506 1.734 1.31 1.31.119-.063.963-.866 1.876-1.784l1.66-1.671v-.423c0-.375-.031-.455-.272-.696-.241-.241-.321-.272-.696-.272h-.423L9.898 36.7m25.414-1.388c-.241.241-.272.321-.272.696v.423l1.66 1.671c.913.918 1.757 1.721 1.876 1.784.804.424 1.734-.506 1.31-1.31-.063-.119-.866-.963-1.784-1.876l-1.671-1.66h-.423c-.375 0-.455.031-.696.272m-12 4-.272.272v2.856c0 2.548.015 2.88.136 3.086.147.249.539.474.824.474.285 0 .677-.225.824-.474.121-.206.136-.538.136-3.086v-2.856l-.272-.272c-.24-.24-.322-.272-.688-.272-.366 0-.448.032-.688.272" fill-rule="evenodd" fill="#000"/></svg>