<svg width="64" height="64" viewBox="0 0 64 64" fill="none" xmlns="http://www.w3.org/2000/svg">
<g clip-path="url(#clip0_1568_47370)">
<path fill-rule="evenodd" clip-rule="evenodd" d="M47.9664 27.4999C47.9664 16.1091 38.8238 6.875 27.5457 6.875C16.2677 6.875 7.125 16.1091 7.125 27.4999C7.125 38.8907 16.2677 48.1248 27.5457 48.1248C33.4978 48.1248 38.8551 45.553 42.5875 41.4494C42.5439 37.9953 43.775 34.8703 47.0909 33.493C47.6602 31.5965 47.9664 29.5843 47.9664 27.4999ZM19.4504 16.2085C20.2329 15.4182 21.4086 15.2677 22.3409 15.7567C22.6579 14.7451 23.5946 14.0117 24.7012 14.0117C25.8076 14.0117 26.7444 14.745 27.0614 15.7567C27.9937 15.2677 29.1696 15.4182 29.9519 16.2085C30.7343 16.9987 30.8833 18.1862 30.3992 19.1278C31.4008 19.4479 32.1269 20.3942 32.1269 21.5117C32.1269 22.6292 31.4009 23.5753 30.3992 23.8956C30.8833 24.8372 30.7343 26.0248 29.9519 26.8149C29.1695 27.6052 27.9937 27.7557 27.0614 27.2667C26.7445 28.2783 25.8076 29.0115 24.7012 29.0115C23.5947 29.0115 22.658 28.2783 22.3409 27.2667C21.4086 27.7557 20.2327 27.6052 19.4504 26.8149C18.668 26.0248 18.519 24.8372 19.0032 23.8956C18.0016 23.5754 17.2755 22.6292 17.2755 21.5117C17.2755 20.3942 18.0014 19.4481 19.0032 19.1278C18.519 18.1862 18.668 16.9987 19.4504 16.2085ZM29.564 35.7549C31.1019 35.7549 32.3487 37.0141 32.3487 38.5674C32.3487 40.1206 31.1019 41.3799 29.564 41.3799C28.0262 41.3799 26.7794 40.1206 26.7794 38.5674C26.7794 37.0141 28.0262 35.7549 29.564 35.7549Z" fill="#B1D6E4"/>
<path d="M44.4995 47.9563C39.8829 51.7058 34.1366 53.7498 28.2127 53.7498C13.8588 53.7498 2.22266 41.9973 2.22266 27.4999C2.22266 13.0025 13.8588 1.25 28.2127 1.25C42.5666 1.25 54.2027 13.0025 54.2027 27.4999C54.2027 29.1128 54.0555 30.7223 53.7629 32.3079" stroke="#042B60" stroke-width="3" stroke-miterlimit="22.9256" stroke-linecap="round" stroke-linejoin="round"/>
<path d="M47.726 53.624C45.4846 55.617 43.0849 57.2427 40.8359 58.2744L45.317 60.5122L46.5332 62.7501C48.3095 61.6067 50.1632 60.1187 51.9237 58.3996M56.171 53.4954C56.9861 52.369 57.7273 51.2016 58.3656 50.0127C61.8934 43.4432 62.5833 32.75 51.9746 32.75C41.3658 32.75 42.0557 43.4432 45.5835 50.0127C48.3715 55.2046 53.1203 59.9849 57.4158 62.75L58.632 60.5121L63.113 58.2742C57.8259 55.8491 51.7055 50.1396 48.7671 44.096C46.5081 39.4495 47.6473 33.3547 51.9744 33.3547C56.3015 33.3547 57.4408 39.4494 55.1817 44.096C54.3488 45.8092 53.2602 47.4955 52.0072 49.0877" stroke="#042B60" stroke-width="3" stroke-miterlimit="22.9256" stroke-linecap="round" stroke-linejoin="round"/>
<path d="M56.1315 40.8058C54.8674 40.1265 53.4336 39.769 51.974 39.769C50.5143 39.769 49.0804 40.1265 47.8164 40.8058" stroke="#042B60" stroke-width="3" stroke-miterlimit="22.9256" stroke-linecap="round" stroke-linejoin="round"/>
<path fill-rule="evenodd" clip-rule="evenodd" d="M25.3671 14.0117C26.4736 14.0117 27.4103 14.745 27.7274 15.7567C28.6597 15.2677 29.8356 15.4182 30.6179 16.2085C31.4003 16.9987 31.5493 18.1862 31.0652 19.1278C32.0668 19.448 32.7929 20.3942 32.7929 21.5117C32.7929 22.6292 32.0669 23.5753 31.0652 23.8956C31.5493 24.8372 31.4003 26.0248 30.6179 26.815C29.8355 27.6052 28.6597 27.7557 27.7274 27.2667C27.4105 28.2783 26.4736 29.0116 25.3671 29.0116C24.2607 29.0116 23.324 28.2783 23.0069 27.2667C22.0746 27.7557 20.8987 27.6052 20.1164 26.815C19.334 26.0248 19.185 24.8372 19.6691 23.8956C18.6675 23.5755 17.9414 22.6292 17.9414 21.5117C17.9414 20.3942 18.6674 19.4481 19.6691 19.1278C19.185 18.1862 19.334 16.9986 20.1164 16.2085C20.8988 15.4182 22.0746 15.2677 23.0069 15.7567C23.324 14.745 24.2607 14.0117 25.3671 14.0117Z" stroke="#042B60" stroke-width="3" stroke-miterlimit="22.9256" stroke-linecap="round" stroke-linejoin="round"/>
<path d="M23.4922 19.7344H24.0202" stroke="#042B60" stroke-width="3" stroke-miterlimit="22.9256" stroke-linecap="round" stroke-linejoin="round"/>
<path d="M32.2001 40.5561C33.2875 39.4578 33.2875 37.677 32.2001 36.5787C31.1126 35.4803 29.3495 35.4803 28.262 36.5787C27.1745 37.677 27.1745 39.4578 28.262 40.5561C29.3495 41.6544 31.1126 41.6544 32.2001 40.5561Z" stroke="#042B60" stroke-width="3" stroke-miterlimit="22.9256" stroke-linecap="round" stroke-linejoin="round"/>
<path d="M30.2305 35.1299V34.5127" stroke="#042B60" stroke-width="3" stroke-miterlimit="22.9256" stroke-linecap="round" stroke-linejoin="round"/>
<path d="M27.2831 36.8485L26.7539 36.54" stroke="#042B60" stroke-width="3" stroke-miterlimit="22.9256" stroke-linecap="round" stroke-linejoin="round"/>
<path d="M27.2831 40.2861L26.7539 40.5948" stroke="#042B60" stroke-width="3" stroke-miterlimit="22.9256" stroke-linecap="round" stroke-linejoin="round"/>
<path d="M30.2305 42.0049V42.6221" stroke="#042B60" stroke-width="3" stroke-miterlimit="22.9256" stroke-linecap="round" stroke-linejoin="round"/>
<path d="M33.1797 40.2861L33.7089 40.5948" stroke="#042B60" stroke-width="3" stroke-miterlimit="22.9256" stroke-linecap="round" stroke-linejoin="round"/>
<path d="M33.1797 36.8487L33.7089 36.54" stroke="#042B60" stroke-width="3" stroke-miterlimit="22.9256" stroke-linecap="round" stroke-linejoin="round"/>
<path d="M40.0703 20.4736H40.5984" stroke="#042B60" stroke-width="3" stroke-miterlimit="22.9256" stroke-linecap="round" stroke-linejoin="round"/>
<path d="M39.3281 29.0986H39.8562" stroke="#042B60" stroke-width="3" stroke-miterlimit="22.9256" stroke-linecap="round" stroke-linejoin="round"/>
<path d="M17.8828 34.6299H18.4109" stroke="#042B60" stroke-width="3" stroke-miterlimit="22.9256" stroke-linecap="round" stroke-linejoin="round"/>
</g>
<defs>
<clipPath id="clip0_1568_47370">
<rect width="64" height="64" fill="white"/>
</clipPath>
</defs>
</svg>
